M48
; DRILL file {KiCad 9.0.5} date 2025-10-21T15:42:54-0300
; FORMAT={-:-/ absolute / inch / decimal}
; #@! TF.CreationDate,2025-10-21T15:42:54-03:00
; #@! TF.GenerationSoftware,Kicad,Pcbnew,9.0.5
; #@! TF.FileFunction,Plated,1,2,PTH
FMAT,2
INCH
; #@! TA.AperFunction,Plated,PTH,ComponentDrill
T1C0.0079
; #@! TA.AperFunction,Plated,PTH,ViaDrill
T2C0.0118
; #@! TA.AperFunction,Plated,PTH,ViaDrill
T3C0.0197
; #@! TA.AperFunction,Plated,PTH,ViaDrill
T4C0.0276
; #@! TA.AperFunction,Plated,PTH,ComponentDrill
T5C0.0394
; #@! TA.AperFunction,Plated,PTH,ComponentDrill
T6C0.0433
; #@! TA.AperFunction,Plated,PTH,ComponentDrill
T7C0.0512
; #@! TA.AperFunction,Plated,PTH,ComponentDrill
T8C0.0551
%
G90
G05
T1
X2.8472Y-2.6996
X2.8472Y-2.7547
X2.8748Y-2.672
X2.8748Y-2.7272
X2.8748Y-2.7823
X2.9014Y-2.6996
X2.9014Y-2.7547
X2.9299Y-2.672
X2.9299Y-2.7272
X2.9299Y-2.7823
X2.9575Y-2.6996
X2.9575Y-2.7547
T2
X3.4252Y-5.6496
T3
X3.335Y-4.685
X4.23Y-4.56
X4.31Y-5.58
T4
X1.3472Y-2.6142
X1.4252Y-4.8898
X1.4417Y-2.9134
X1.487Y-2.6161
X1.5008Y-4.4961
X1.5146Y-4.1417
X1.5559Y-3.7402
X1.6209Y-3.3701
X1.6535Y-5.5315
X2.1417Y-4.5039
X2.2567Y-4.3583
X2.2862Y-3.6398
X2.4142Y-3.9685
X2.44Y-6.15
X2.4882Y-3.8898
X2.5906Y-3.8189
X2.6878Y-4.4606
X2.7055Y-3.8701
X2.7154Y-3.3189
X2.9319Y-3.7382
X2.9843Y-3.9567
X3.0079Y-4.1575
X3.0087Y-3.8307
X3.3394Y-3.2677
X3.5008Y-2.6535
X3.548Y-3.4882
X3.5992Y-2.6083
X3.7094Y-2.6496
X3.8886Y-3.2283
X4.2126Y-2.4567
X4.3492Y-2.8504
X4.4024Y-2.626
X4.422Y-3.4134
X4.4724Y-3.6535
T6
X1.8251Y-5.4336
X1.8251Y-5.5336
X1.8251Y-5.6336
X1.8251Y-5.7336
X1.9097Y-3.7209
X1.9097Y-3.8209
X1.9097Y-4.4571
X1.9097Y-4.5571
X1.9102Y-3.3528
X1.9102Y-3.4528
X1.9117Y-4.089
X1.9117Y-4.189
X2.0047Y-2.7886
X2.0047Y-2.8886
X2.0047Y-2.9886
X2.0047Y-3.0886
X2.2961Y-2.878
X2.2961Y-2.978
X2.2961Y-3.078
X2.3142Y-4.0909
X2.3142Y-4.1909
X2.372Y-4.5768
X2.4142Y-4.0909
X2.4142Y-4.1909
X2.472Y-4.5768
X2.5142Y-4.0909
X2.5142Y-4.1909
X2.9921Y-3.5492
X3.0921Y-3.5492
X3.1921Y-3.5492
X3.2921Y-3.5492
X3.7016Y-3.1012
X3.7016Y-3.2012
X3.7016Y-3.3012
X3.8748Y-2.748
X3.9748Y-2.748
X4.0748Y-2.748
X4.1563Y-3.1012
X4.1563Y-3.2012
X4.1563Y-3.3012
X4.1748Y-2.748
X4.5421Y-2.7559
X4.5421Y-2.8559
X4.5421Y-2.9559
X4.5421Y-3.0559
X4.5421Y-3.1559
X4.5421Y-3.2559
T7
X2.084Y-4.9587
X2.084Y-5.8484
X3.7008Y-4.3748
X3.7008Y-4.4748
X3.7008Y-4.5748
X3.7572Y-5.25
X3.7572Y-5.5571
X4.4882Y-4.3748
X4.4882Y-4.4748
X4.4882Y-4.5748
T8
X2.89Y-5.85
X3.19Y-5.85
X3.56Y-5.85
X3.86Y-5.85
X4.23Y-5.85
X4.53Y-5.85
T5
G00X1.4331Y-5.748
M15
G01X1.5118Y-5.748
M16
G05
G00X1.4331Y-5.9843
M15
G01X1.5118Y-5.9843
M16
G05
G00X1.6575Y-5.9055
M15
G01X1.6575Y-5.8268
M16
G05
M30
