%TF.GenerationSoftware,KiCad,Pcbnew,9.0.5*%
%TF.CreationDate,2025-10-21T15:42:54-03:00*%
%TF.ProjectId,v0.2,76302e32-2e6b-4696-9361-645f70636258,rev?*%
%TF.SameCoordinates,Original*%
%TF.FileFunction,Soldermask,Top*%
%TF.FilePolarity,Negative*%
%FSLAX46Y46*%
G04 Gerber Fmt 4.6, Leading zero omitted, Abs format (unit mm)*
G04 Created by KiCad (PCBNEW 9.0.5) date 2025-10-21 15:42:54*
%MOMM*%
%LPD*%
G01*
G04 APERTURE LIST*
G04 Aperture macros list*
%AMRoundRect*
0 Rectangle with rounded corners*
0 $1 Rounding radius*
0 $2 $3 $4 $5 $6 $7 $8 $9 X,Y pos of 4 corners*
0 Add a 4 corners polygon primitive as box body*
4,1,4,$2,$3,$4,$5,$6,$7,$8,$9,$2,$3,0*
0 Add four circle primitives for the rounded corners*
1,1,$1+$1,$2,$3*
1,1,$1+$1,$4,$5*
1,1,$1+$1,$6,$7*
1,1,$1+$1,$8,$9*
0 Add four rect primitives between the rounded corners*
20,1,$1+$1,$2,$3,$4,$5,0*
20,1,$1+$1,$4,$5,$6,$7,0*
20,1,$1+$1,$6,$7,$8,$9,0*
20,1,$1+$1,$8,$9,$2,$3,0*%
G04 Aperture macros list end*
%ADD10RoundRect,0.250000X-0.350000X-0.450000X0.350000X-0.450000X0.350000X0.450000X-0.350000X0.450000X0*%
%ADD11RoundRect,0.250000X-0.337500X-0.475000X0.337500X-0.475000X0.337500X0.475000X-0.337500X0.475000X0*%
%ADD12RoundRect,0.250000X0.337500X0.475000X-0.337500X0.475000X-0.337500X-0.475000X0.337500X-0.475000X0*%
%ADD13R,4.500000X4.500000*%
%ADD14RoundRect,1.000000X1.400000X-1.000000X1.400000X1.000000X-1.400000X1.000000X-1.400000X-1.000000X0*%
%ADD15RoundRect,1.000000X1.000000X-1.250000X1.000000X1.250000X-1.000000X1.250000X-1.000000X-1.250000X0*%
%ADD16RoundRect,0.250000X0.350000X0.450000X-0.350000X0.450000X-0.350000X-0.450000X0.350000X-0.450000X0*%
%ADD17R,1.500000X0.800000*%
%ADD18R,0.800000X1.500000*%
%ADD19C,0.600000*%
%ADD20R,3.800000X3.800000*%
%ADD21C,3.500000*%
%ADD22O,3.500000X3.500000*%
%ADD23R,3.000000X2.100000*%
%ADD24O,3.000000X2.100000*%
%ADD25RoundRect,0.301724X0.748276X-0.748276X0.748276X0.748276X-0.748276X0.748276X-0.748276X-0.748276X0*%
%ADD26C,2.100000*%
%ADD27RoundRect,0.428573X1.371427X1.371427X-1.371427X1.371427X-1.371427X-1.371427X1.371427X-1.371427X0*%
%ADD28O,3.600000X3.600000*%
%ADD29RoundRect,0.301724X0.748276X0.748276X-0.748276X0.748276X-0.748276X-0.748276X0.748276X-0.748276X0*%
%ADD30RoundRect,0.301724X-0.748276X-0.748276X0.748276X-0.748276X0.748276X0.748276X-0.748276X0.748276X0*%
%ADD31RoundRect,0.102000X-1.000000X-1.000000X1.000000X-1.000000X1.000000X1.000000X-1.000000X1.000000X0*%
%ADD32RoundRect,0.301724X-0.748276X0.748276X-0.748276X-0.748276X0.748276X-0.748276X0.748276X0.748276X0*%
%ADD33R,2.100000X2.100000*%
%ADD34O,2.100000X2.100000*%
%ADD35C,1.800000*%
%ADD36C,0.800000*%
%ADD37C,0.350000*%
%ADD38C,0.300000*%
%ADD39O,3.000000X1.000000*%
%ADD40O,1.000000X3.000000*%
%ADD41C,0.200000*%
G04 APERTURE END LIST*
D10*
%TO.C,R2*%
X41200000Y-106400000D03*
X43200000Y-106400000D03*
%TD*%
D11*
%TO.C,C5*%
X43032500Y-83650000D03*
X45107500Y-83650000D03*
%TD*%
D12*
%TO.C,C1*%
X42457500Y-63600000D03*
X40382500Y-63600000D03*
%TD*%
D10*
%TO.C,R1*%
X41320000Y-115700000D03*
X43320000Y-115700000D03*
%TD*%
D11*
%TO.C,C7*%
X61212500Y-110750000D03*
X63287500Y-110750000D03*
%TD*%
D13*
%TO.C,J17*%
X37400000Y-146000000D03*
D14*
X37400000Y-152000000D03*
D15*
X42100000Y-149000000D03*
%TD*%
D16*
%TO.C,R5*%
X67470000Y-100750000D03*
X65470000Y-100750000D03*
%TD*%
D17*
%TO.C,U1*%
X66470000Y-61550000D03*
X66470000Y-62820000D03*
X66470000Y-64090000D03*
X66470000Y-65360000D03*
X66470000Y-66630000D03*
X66470000Y-67900000D03*
X66470000Y-69170000D03*
X66470000Y-70440000D03*
X66470000Y-71710000D03*
X66470000Y-72980000D03*
X66470000Y-74250000D03*
X66470000Y-75520000D03*
X66470000Y-76790000D03*
X66470000Y-78060000D03*
D18*
X69510000Y-79310000D03*
X70780000Y-79310000D03*
X72050000Y-79310000D03*
X73320000Y-79310000D03*
X74590000Y-79310000D03*
X75860000Y-79310000D03*
X77130000Y-79310000D03*
X78400000Y-79310000D03*
X79670000Y-79310000D03*
X80940000Y-79310000D03*
D17*
X83970000Y-78060000D03*
X83970000Y-76790000D03*
X83970000Y-75520000D03*
X83970000Y-74250000D03*
X83970000Y-72980000D03*
X83970000Y-71710000D03*
X83970000Y-70440000D03*
X83970000Y-69170000D03*
X83970000Y-67900000D03*
X83970000Y-66630000D03*
X83970000Y-65360000D03*
X83970000Y-64090000D03*
X83970000Y-62820000D03*
X83970000Y-61550000D03*
D19*
X72320000Y-68570000D03*
X72320000Y-69970000D03*
X73020000Y-67870000D03*
X73020000Y-69270000D03*
X73020000Y-70670000D03*
X73695000Y-68570000D03*
X73695000Y-69970000D03*
D20*
X73720000Y-69270000D03*
D19*
X74420000Y-67870000D03*
X74420000Y-69270000D03*
X74420000Y-70670000D03*
X75120000Y-68570000D03*
X75120000Y-69970000D03*
%TD*%
D10*
%TO.C,R4*%
X41182500Y-87740000D03*
X43182500Y-87740000D03*
%TD*%
%TO.C,R3*%
X41220000Y-97000000D03*
X43220000Y-97000000D03*
%TD*%
D21*
%TO.C,PS1*%
X95432500Y-141150000D03*
D22*
X95432500Y-133350000D03*
X52932500Y-148550000D03*
X52932500Y-125950000D03*
%TD*%
D11*
%TO.C,C2*%
X43082500Y-113200000D03*
X45157500Y-113200000D03*
%TD*%
%TO.C,C3*%
X43182500Y-103900000D03*
X45257500Y-103900000D03*
%TD*%
%TO.C,C4*%
X43182500Y-94500000D03*
X45257500Y-94500000D03*
%TD*%
D23*
%TO.C,Q1*%
X94000000Y-116200000D03*
D24*
X94000000Y-113660000D03*
X94000000Y-111120000D03*
%TD*%
D25*
%TO.C,J6*%
X105570000Y-83850000D03*
D26*
X105570000Y-81310000D03*
X105570000Y-78770000D03*
%TD*%
D23*
%TO.C,Q2*%
X114000000Y-116200000D03*
D24*
X114000000Y-113660000D03*
X114000000Y-111120000D03*
%TD*%
D27*
%TO.C,J15*%
X115062000Y-148590000D03*
D28*
X107442000Y-148590000D03*
%TD*%
D25*
%TO.C,J3*%
X48557500Y-106400000D03*
D26*
X48557500Y-103860000D03*
%TD*%
D25*
%TO.C,J11*%
X50920000Y-78450000D03*
D26*
X50920000Y-75910000D03*
X50920000Y-73370000D03*
X50920000Y-70830000D03*
%TD*%
D29*
%TO.C,J9*%
X83620000Y-90150000D03*
D26*
X81080000Y-90150000D03*
X78540000Y-90150000D03*
X76000000Y-90150000D03*
%TD*%
D30*
%TO.C,J10*%
X98420000Y-69800000D03*
D26*
X100960000Y-69800000D03*
X103500000Y-69800000D03*
X106040000Y-69800000D03*
%TD*%
D25*
%TO.C,J2*%
X48507500Y-115750000D03*
D26*
X48507500Y-113210000D03*
%TD*%
D27*
%TO.C,J16*%
X81026000Y-148590000D03*
D28*
X73406000Y-148590000D03*
%TD*%
D25*
%TO.C,J5*%
X48520000Y-87700000D03*
D26*
X48520000Y-85160000D03*
%TD*%
D31*
%TO.C,U6*%
X46357500Y-145632500D03*
X46357500Y-140552500D03*
X46357500Y-143092500D03*
X46357500Y-138012500D03*
%TD*%
D25*
%TO.C,J4*%
X48507500Y-97050000D03*
D26*
X48507500Y-94510000D03*
%TD*%
D32*
%TO.C,J12*%
X58320000Y-73100000D03*
D26*
X58320000Y-75640000D03*
X58320000Y-78180000D03*
%TD*%
D27*
%TO.C,J14*%
X98044000Y-148590000D03*
D28*
X90424000Y-148590000D03*
%TD*%
D33*
%TO.C,J1*%
X58780000Y-103910000D03*
D34*
X58780000Y-106450000D03*
X61320000Y-103910000D03*
X61320000Y-106450000D03*
X63860000Y-103910000D03*
X63860000Y-106450000D03*
%TD*%
D33*
%TO.C,J7*%
X60250000Y-116250000D03*
D34*
X62790000Y-116250000D03*
%TD*%
D25*
%TO.C,J13*%
X94020000Y-83850000D03*
D26*
X94020000Y-81310000D03*
X94020000Y-78770000D03*
%TD*%
D33*
%TO.C,J8*%
X115370000Y-70000000D03*
D34*
X115370000Y-72540000D03*
X115370000Y-75080000D03*
X115370000Y-77620000D03*
X115370000Y-80160000D03*
X115370000Y-82700000D03*
%TD*%
D35*
X38470000Y-105200000D03*
X41170000Y-85600000D03*
X38120000Y-114200000D03*
X39520000Y-95000000D03*
X37770000Y-66450000D03*
X68270000Y-113300000D03*
X54400000Y-114400000D03*
X107000000Y-62400000D03*
X34220000Y-66400000D03*
X94220000Y-67300000D03*
X68970000Y-84300000D03*
X42000000Y-140500000D03*
X98770000Y-82000000D03*
X36200000Y-124200000D03*
X76400000Y-105600000D03*
X61976000Y-156210000D03*
X113600000Y-92800000D03*
X58070000Y-92450000D03*
X36620001Y-73999999D03*
X57320000Y-110700000D03*
D36*
X109474000Y-141732000D03*
X84709000Y-118999000D03*
D19*
X87000000Y-143500000D03*
D36*
X107442000Y-115824000D03*
D35*
X68720000Y-98300000D03*
X112320000Y-86700000D03*
X111820000Y-66700000D03*
X61320000Y-100800000D03*
X84820000Y-83000000D03*
X91420000Y-66250000D03*
X65800000Y-97000004D03*
X63200000Y-98799998D03*
X88920000Y-67400000D03*
X110470002Y-72400000D03*
X90120000Y-88600000D03*
X75800006Y-100500000D03*
X76420000Y-97300000D03*
X74470000Y-94950000D03*
D37*
X38470000Y-105200000D03*
X41170000Y-85600000D03*
X38120000Y-114200000D03*
X39520000Y-95000000D03*
X37770000Y-66450000D03*
X68270000Y-113300000D03*
X54400000Y-114400000D03*
X107000000Y-62400000D03*
X34220000Y-66400000D03*
X94220000Y-67300000D03*
X68970000Y-84300000D03*
X42000000Y-140500000D03*
X98770000Y-82000000D03*
X36200000Y-124200000D03*
X76400000Y-105600000D03*
X61976000Y-156210000D03*
X113600000Y-92800000D03*
X58070000Y-92450000D03*
X36620001Y-73999999D03*
X57320000Y-110700000D03*
X109474000Y-141732000D03*
X84709000Y-118999000D03*
D38*
X87000000Y-143500000D03*
D37*
X107442000Y-115824000D03*
X68720000Y-98300000D03*
X112320000Y-86700000D03*
X111820000Y-66700000D03*
X61320000Y-100800000D03*
X84820000Y-83000000D03*
X91420000Y-66250000D03*
X65800000Y-97000004D03*
X63200000Y-98799998D03*
X88920000Y-67400000D03*
X110470002Y-72400000D03*
X90120000Y-88600000D03*
X75800006Y-100500000D03*
X76420000Y-97300000D03*
X74470000Y-94950000D03*
D39*
X37400000Y-146000000D03*
X37400000Y-152000000D03*
D40*
X42100000Y-149000000D03*
D41*
X72320000Y-68570000D03*
X72320000Y-69970000D03*
X73020000Y-67870000D03*
X73020000Y-69270000D03*
X73020000Y-70670000D03*
X73695000Y-68570000D03*
X73695000Y-69970000D03*
X74420000Y-67870000D03*
X74420000Y-69270000D03*
X74420000Y-70670000D03*
X75120000Y-68570000D03*
X75120000Y-69970000D03*
D37*
X95432500Y-141150000D03*
X95432500Y-133350000D03*
X52932500Y-148550000D03*
X52932500Y-125950000D03*
X94000000Y-116200000D03*
X94000000Y-113660000D03*
X94000000Y-111120000D03*
X105570000Y-83850000D03*
X105570000Y-81310000D03*
X105570000Y-78770000D03*
X114000000Y-116200000D03*
X114000000Y-113660000D03*
X114000000Y-111120000D03*
X115062000Y-148590000D03*
X107442000Y-148590000D03*
X48557500Y-106400000D03*
X48557500Y-103860000D03*
X50920000Y-78450000D03*
X50920000Y-75910000D03*
X50920000Y-73370000D03*
X50920000Y-70830000D03*
X83620000Y-90150000D03*
X81080000Y-90150000D03*
X78540000Y-90150000D03*
X76000000Y-90150000D03*
X98420000Y-69800000D03*
X100960000Y-69800000D03*
X103500000Y-69800000D03*
X106040000Y-69800000D03*
X48507500Y-115750000D03*
X48507500Y-113210000D03*
X81026000Y-148590000D03*
X73406000Y-148590000D03*
X48520000Y-87700000D03*
X48520000Y-85160000D03*
X46357500Y-145632500D03*
X46357500Y-140552500D03*
X46357500Y-143092500D03*
X46357500Y-138012500D03*
X48507500Y-97050000D03*
X48507500Y-94510000D03*
X58320000Y-73100000D03*
X58320000Y-75640000D03*
X58320000Y-78180000D03*
X98044000Y-148590000D03*
X90424000Y-148590000D03*
X58780000Y-103910000D03*
X58780000Y-106450000D03*
X61320000Y-103910000D03*
X61320000Y-106450000D03*
X63860000Y-103910000D03*
X63860000Y-106450000D03*
X60250000Y-116250000D03*
X62790000Y-116250000D03*
X94020000Y-83850000D03*
X94020000Y-81310000D03*
X94020000Y-78770000D03*
X115370000Y-70000000D03*
X115370000Y-72540000D03*
X115370000Y-75080000D03*
X115370000Y-77620000D03*
X115370000Y-80160000D03*
X115370000Y-82700000D03*
M02*
