%TF.GenerationSoftware,KiCad,Pcbnew,9.0.5*%
%TF.CreationDate,2025-10-21T15:42:54-03:00*%
%TF.ProjectId,v0.2,76302e32-2e6b-4696-9361-645f70636258,rev?*%
%TF.SameCoordinates,Original*%
%TF.FileFunction,Copper,L2,Bot*%
%TF.FilePolarity,Positive*%
%FSLAX46Y46*%
G04 Gerber Fmt 4.6, Leading zero omitted, Abs format (unit mm)*
G04 Created by KiCad (PCBNEW 9.0.5) date 2025-10-21 15:42:54*
%MOMM*%
%LPD*%
G01*
G04 APERTURE LIST*
G04 Aperture macros list*
%AMRoundRect*
0 Rectangle with rounded corners*
0 $1 Rounding radius*
0 $2 $3 $4 $5 $6 $7 $8 $9 X,Y pos of 4 corners*
0 Add a 4 corners polygon primitive as box body*
4,1,4,$2,$3,$4,$5,$6,$7,$8,$9,$2,$3,0*
0 Add four circle primitives for the rounded corners*
1,1,$1+$1,$2,$3*
1,1,$1+$1,$4,$5*
1,1,$1+$1,$6,$7*
1,1,$1+$1,$8,$9*
0 Add four rect primitives between the rounded corners*
20,1,$1+$1,$2,$3,$4,$5,0*
20,1,$1+$1,$4,$5,$6,$7,0*
20,1,$1+$1,$6,$7,$8,$9,0*
20,1,$1+$1,$8,$9,$2,$3,0*%
G04 Aperture macros list end*
%TA.AperFunction,ComponentPad*%
%ADD10R,4.500000X4.500000*%
%TD*%
%TA.AperFunction,ComponentPad*%
%ADD11RoundRect,1.000000X1.400000X-1.000000X1.400000X1.000000X-1.400000X1.000000X-1.400000X-1.000000X0*%
%TD*%
%TA.AperFunction,ComponentPad*%
%ADD12RoundRect,1.000000X1.000000X-1.250000X1.000000X1.250000X-1.000000X1.250000X-1.000000X-1.250000X0*%
%TD*%
%TA.AperFunction,HeatsinkPad*%
%ADD13C,0.600000*%
%TD*%
%TA.AperFunction,ComponentPad*%
%ADD14C,3.500000*%
%TD*%
%TA.AperFunction,ComponentPad*%
%ADD15O,3.500000X3.500000*%
%TD*%
%TA.AperFunction,SMDPad,CuDef*%
%ADD16RoundRect,0.250000X-0.475000X0.337500X-0.475000X-0.337500X0.475000X-0.337500X0.475000X0.337500X0*%
%TD*%
%TA.AperFunction,SMDPad,CuDef*%
%ADD17RoundRect,0.250000X-0.350000X-0.450000X0.350000X-0.450000X0.350000X0.450000X-0.350000X0.450000X0*%
%TD*%
%TA.AperFunction,ComponentPad*%
%ADD18R,3.000000X2.100000*%
%TD*%
%TA.AperFunction,ComponentPad*%
%ADD19O,3.000000X2.100000*%
%TD*%
%TA.AperFunction,ComponentPad*%
%ADD20RoundRect,0.301724X0.748276X-0.748276X0.748276X0.748276X-0.748276X0.748276X-0.748276X-0.748276X0*%
%TD*%
%TA.AperFunction,ComponentPad*%
%ADD21C,2.100000*%
%TD*%
%TA.AperFunction,SMDPad,CuDef*%
%ADD22RoundRect,0.137500X0.662500X0.137500X-0.662500X0.137500X-0.662500X-0.137500X0.662500X-0.137500X0*%
%TD*%
%TA.AperFunction,ComponentPad*%
%ADD23RoundRect,0.428573X1.371427X1.371427X-1.371427X1.371427X-1.371427X-1.371427X1.371427X-1.371427X0*%
%TD*%
%TA.AperFunction,ComponentPad*%
%ADD24O,3.600000X3.600000*%
%TD*%
%TA.AperFunction,ComponentPad*%
%ADD25RoundRect,0.301724X0.748276X0.748276X-0.748276X0.748276X-0.748276X-0.748276X0.748276X-0.748276X0*%
%TD*%
%TA.AperFunction,SMDPad,CuDef*%
%ADD26RoundRect,0.375000X0.375000X-0.625000X0.375000X0.625000X-0.375000X0.625000X-0.375000X-0.625000X0*%
%TD*%
%TA.AperFunction,SMDPad,CuDef*%
%ADD27RoundRect,0.500000X1.400000X-0.500000X1.400000X0.500000X-1.400000X0.500000X-1.400000X-0.500000X0*%
%TD*%
%TA.AperFunction,ComponentPad*%
%ADD28RoundRect,0.301724X-0.748276X-0.748276X0.748276X-0.748276X0.748276X0.748276X-0.748276X0.748276X0*%
%TD*%
%TA.AperFunction,SMDPad,CuDef*%
%ADD29RoundRect,0.250001X0.624999X-0.462499X0.624999X0.462499X-0.624999X0.462499X-0.624999X-0.462499X0*%
%TD*%
%TA.AperFunction,SMDPad,CuDef*%
%ADD30RoundRect,0.250000X0.337500X0.475000X-0.337500X0.475000X-0.337500X-0.475000X0.337500X-0.475000X0*%
%TD*%
%TA.AperFunction,SMDPad,CuDef*%
%ADD31RoundRect,0.250000X0.450000X-0.350000X0.450000X0.350000X-0.450000X0.350000X-0.450000X-0.350000X0*%
%TD*%
%TA.AperFunction,ComponentPad*%
%ADD32R,2.000000X2.000000*%
%TD*%
%TA.AperFunction,SMDPad,CuDef*%
%ADD33RoundRect,0.250000X-0.450000X0.350000X-0.450000X-0.350000X0.450000X-0.350000X0.450000X0.350000X0*%
%TD*%
%TA.AperFunction,SMDPad,CuDef*%
%ADD34R,1.900000X1.200000*%
%TD*%
%TA.AperFunction,SMDPad,CuDef*%
%ADD35R,1.780000X2.000000*%
%TD*%
%TA.AperFunction,ComponentPad*%
%ADD36RoundRect,0.301724X-0.748276X0.748276X-0.748276X-0.748276X0.748276X-0.748276X0.748276X0.748276X0*%
%TD*%
%TA.AperFunction,ComponentPad*%
%ADD37R,2.100000X2.100000*%
%TD*%
%TA.AperFunction,ComponentPad*%
%ADD38O,2.100000X2.100000*%
%TD*%
%TA.AperFunction,SMDPad,CuDef*%
%ADD39RoundRect,0.250000X0.875000X0.925000X-0.875000X0.925000X-0.875000X-0.925000X0.875000X-0.925000X0*%
%TD*%
%TA.AperFunction,SMDPad,CuDef*%
%ADD40RoundRect,0.250000X-0.925000X0.875000X-0.925000X-0.875000X0.925000X-0.875000X0.925000X0.875000X0*%
%TD*%
%TA.AperFunction,ViaPad*%
%ADD41C,1.800000*%
%TD*%
%TA.AperFunction,ViaPad*%
%ADD42C,0.800000*%
%TD*%
%TA.AperFunction,ViaPad*%
%ADD43C,0.600000*%
%TD*%
%TA.AperFunction,Conductor*%
%ADD44C,0.600000*%
%TD*%
%TA.AperFunction,Conductor*%
%ADD45C,1.000000*%
%TD*%
%TA.AperFunction,Conductor*%
%ADD46C,0.500000*%
%TD*%
%TA.AperFunction,Conductor*%
%ADD47C,1.500000*%
%TD*%
%ADD48C,0.350000*%
%ADD49C,0.300000*%
%ADD50O,3.000000X1.000000*%
%ADD51O,1.000000X3.000000*%
%ADD52C,0.200000*%
G04 APERTURE END LIST*
D10*
%TO.P,J17,1*%
%TO.N,Net-(PS1-+Vout)*%
X37400000Y-146000000D03*
D11*
%TO.P,J17,2*%
%TO.N,GND*%
X37400000Y-152000000D03*
D12*
%TO.P,J17,3*%
X42100000Y-149000000D03*
%TD*%
D13*
%TO.P,U1,39,GND*%
%TO.N,GND*%
X72320000Y-68570000D03*
X72320000Y-69970000D03*
X73020000Y-67870000D03*
X73020000Y-69270000D03*
X73020000Y-70670000D03*
X73695000Y-68570000D03*
X73695000Y-69970000D03*
X74420000Y-67870000D03*
X74420000Y-69270000D03*
X74420000Y-70670000D03*
X75120000Y-68570000D03*
X75120000Y-69970000D03*
%TD*%
D14*
%TO.P,PS1,1,AC/L*%
%TO.N,/FASE*%
X95432500Y-141150000D03*
D15*
%TO.P,PS1,2,AC/N*%
%TO.N,/NEUTRO*%
X95432500Y-133350000D03*
%TO.P,PS1,3,-Vout*%
%TO.N,GND*%
X52932500Y-148550000D03*
%TO.P,PS1,4,+Vout*%
%TO.N,Net-(PS1-+Vout)*%
X52932500Y-125950000D03*
%TD*%
D16*
%TO.P,C10,1*%
%TO.N,+3.3V*%
X66957500Y-139512500D03*
%TO.P,C10,2*%
%TO.N,GND*%
X66957500Y-141587500D03*
%TD*%
D17*
%TO.P,R8,1*%
%TO.N,/TRIAC_A*%
X78800000Y-100000000D03*
%TO.P,R8,2*%
%TO.N,Net-(R8-Pad2)*%
X80800000Y-100000000D03*
%TD*%
D18*
%TO.P,Q1,1,A1*%
%TO.N,Net-(J14-Pin_1)*%
X94000000Y-116200000D03*
D19*
%TO.P,Q1,2,A2*%
%TO.N,/FASE*%
X94000000Y-113660000D03*
%TO.P,Q1,3,G*%
%TO.N,Net-(Q1-G)*%
X94000000Y-111120000D03*
%TD*%
D20*
%TO.P,J6,1,Pin_1*%
%TO.N,GND*%
X105570000Y-83850000D03*
D21*
%TO.P,J6,2,Pin_2*%
%TO.N,/D_led*%
X105570000Y-81310000D03*
%TO.P,J6,3,Pin_3*%
%TO.N,+3.3V_fused*%
X105570000Y-78770000D03*
%TD*%
D22*
%TO.P,U4,1*%
%TO.N,Net-(R11-Pad2)*%
X77000000Y-125500000D03*
%TO.P,U4,3*%
%TO.N,Net-(BR1-Pad-)*%
X77000000Y-128040000D03*
%TO.P,U4,4*%
%TO.N,GND*%
X70500000Y-128040000D03*
%TO.P,U4,6*%
%TO.N,/ZERO*%
X70500000Y-125500000D03*
%TD*%
D18*
%TO.P,Q2,1,A1*%
%TO.N,Net-(J15-Pin_1)*%
X114000000Y-116200000D03*
D19*
%TO.P,Q2,2,A2*%
%TO.N,/FASE*%
X114000000Y-113660000D03*
%TO.P,Q2,3,G*%
%TO.N,Net-(Q2-G)*%
X114000000Y-111120000D03*
%TD*%
D23*
%TO.P,J15,1,Pin_1*%
%TO.N,Net-(J15-Pin_1)*%
X115062000Y-148590000D03*
D24*
%TO.P,J15,2,Pin_2*%
%TO.N,/NEUTRO*%
X107442000Y-148590000D03*
%TD*%
D20*
%TO.P,J3,1,Pin_1*%
%TO.N,/In2*%
X48557500Y-106400000D03*
D21*
%TO.P,J3,2,Pin_2*%
%TO.N,GND*%
X48557500Y-103860000D03*
%TD*%
D20*
%TO.P,J11,1,Pin_1*%
%TO.N,+3.3V_fused*%
X50920000Y-78450000D03*
D21*
%TO.P,J11,2,Pin_2*%
%TO.N,GND*%
X50920000Y-75910000D03*
%TO.P,J11,3,Pin_3*%
%TO.N,/SCL*%
X50920000Y-73370000D03*
%TO.P,J11,4,Pin_4*%
%TO.N,/SDA*%
X50920000Y-70830000D03*
%TD*%
D25*
%TO.P,J9,1,Pin_1*%
%TO.N,GND*%
X83620000Y-90150000D03*
D21*
%TO.P,J9,2,Pin_2*%
%TO.N,/IN_A_N*%
X81080000Y-90150000D03*
%TO.P,J9,3,Pin_3*%
%TO.N,/IN_A_P*%
X78540000Y-90150000D03*
%TO.P,J9,4,Pin_4*%
%TO.N,/EN_A*%
X76000000Y-90150000D03*
%TD*%
D26*
%TO.P,U5,1,GND*%
%TO.N,GND*%
X57057500Y-144312500D03*
%TO.P,U5,2,VO*%
%TO.N,+3.3V*%
X54757500Y-144312500D03*
D27*
X54757500Y-138012500D03*
D26*
%TO.P,U5,3,VI*%
%TO.N,Net-(PS1-+Vout)*%
X52457500Y-144312500D03*
%TD*%
D17*
%TO.P,R10,1*%
%TO.N,/TRIAC_B*%
X97200000Y-96600000D03*
%TO.P,R10,2*%
%TO.N,Net-(R10-Pad2)*%
X99200000Y-96600000D03*
%TD*%
D28*
%TO.P,J10,1,Pin_1*%
%TO.N,GND*%
X98420000Y-69800000D03*
D21*
%TO.P,J10,2,Pin_2*%
%TO.N,/IN_B_N*%
X100960000Y-69800000D03*
%TO.P,J10,3,Pin_3*%
%TO.N,/IN_B_P*%
X103500000Y-69800000D03*
%TO.P,J10,4,Pin_4*%
%TO.N,/EN_B*%
X106040000Y-69800000D03*
%TD*%
D20*
%TO.P,J2,1,Pin_1*%
%TO.N,/In1*%
X48507500Y-115750000D03*
D21*
%TO.P,J2,2,Pin_2*%
%TO.N,GND*%
X48507500Y-113210000D03*
%TD*%
D29*
%TO.P,F1,1*%
%TO.N,+3.3V*%
X70420000Y-109637500D03*
%TO.P,F1,2*%
%TO.N,+3.3V_fused*%
X70420000Y-106662500D03*
%TD*%
D30*
%TO.P,C8,1*%
%TO.N,Net-(PS1-+Vout)*%
X42837500Y-127000000D03*
%TO.P,C8,2*%
%TO.N,GND*%
X40762500Y-127000000D03*
%TD*%
D23*
%TO.P,J16,1,Pin_1*%
%TO.N,/FASE*%
X81026000Y-148590000D03*
D24*
%TO.P,J16,2,Pin_2*%
%TO.N,/NEUTRO*%
X73406000Y-148590000D03*
%TD*%
D20*
%TO.P,J5,1,Pin_1*%
%TO.N,/In4*%
X48520000Y-87700000D03*
D21*
%TO.P,J5,2,Pin_2*%
%TO.N,GND*%
X48520000Y-85160000D03*
%TD*%
D31*
%TO.P,R11,1*%
%TO.N,/380V*%
X76600000Y-137144000D03*
%TO.P,R11,2*%
%TO.N,Net-(R11-Pad2)*%
X76600000Y-135144000D03*
%TD*%
D32*
%TO.P,U6,EN,EN*%
%TO.N,Net-(PS1-+Vout)*%
X46357500Y-145632500D03*
%TO.P,U6,GND,GND*%
%TO.N,GND*%
X46357500Y-140552500D03*
%TO.P,U6,IN+,IN+*%
%TO.N,Net-(PS1-+Vout)*%
X46357500Y-143092500D03*
%TO.P,U6,VO+,VO+*%
%TO.N,+3.3V*%
X46357500Y-138012500D03*
%TD*%
D20*
%TO.P,J4,1,Pin_1*%
%TO.N,/In3*%
X48507500Y-97050000D03*
D21*
%TO.P,J4,2,Pin_2*%
%TO.N,GND*%
X48507500Y-94510000D03*
%TD*%
D33*
%TO.P,R7,1*%
%TO.N,Net-(R7-Pad1)*%
X83600000Y-113200000D03*
%TO.P,R7,2*%
%TO.N,/FASE*%
X83600000Y-115200000D03*
%TD*%
D17*
%TO.P,R6,1*%
%TO.N,+3.3V*%
X37820000Y-70650000D03*
%TO.P,R6,2*%
%TO.N,/EN*%
X39820000Y-70650000D03*
%TD*%
D34*
%TO.P,BR1,+,+*%
%TO.N,/380V*%
X82996420Y-138439590D03*
%TO.P,BR1,-,-*%
%TO.N,Net-(BR1-Pad-)*%
X82996420Y-133339590D03*
%TO.P,BR1,AC1,AC1*%
%TO.N,/FASE*%
X91246420Y-138439590D03*
%TO.P,BR1,AC2,AC2*%
%TO.N,/NEUTRO*%
X91246420Y-133339590D03*
%TD*%
D35*
%TO.P,U3,1*%
%TO.N,Net-(R10-Pad2)*%
X103460000Y-100035000D03*
%TO.P,U3,2*%
%TO.N,GND*%
X106000000Y-100035000D03*
%TO.P,U3,3,NC*%
%TO.N,unconnected-(U3-NC-Pad3)*%
X108540000Y-100035000D03*
%TO.P,U3,4*%
%TO.N,Net-(Q2-G)*%
X108540000Y-109565000D03*
%TO.P,U3,5,NC*%
%TO.N,unconnected-(U3-NC-Pad5)*%
X106000000Y-109565000D03*
%TO.P,U3,6*%
%TO.N,Net-(R9-Pad1)*%
X103460000Y-109565000D03*
%TD*%
D33*
%TO.P,R9,1*%
%TO.N,Net-(R9-Pad1)*%
X103400000Y-113000000D03*
%TO.P,R9,2*%
%TO.N,/FASE*%
X103400000Y-115000000D03*
%TD*%
D36*
%TO.P,J12,1,Pin_1*%
%TO.N,GND*%
X58320000Y-73100000D03*
D21*
%TO.P,J12,2,Pin_2*%
%TO.N,/DAC_P*%
X58320000Y-75640000D03*
%TO.P,J12,3,Pin_3*%
%TO.N,/DAC_N*%
X58320000Y-78180000D03*
%TD*%
D23*
%TO.P,J14,1,Pin_1*%
%TO.N,Net-(J14-Pin_1)*%
X98044000Y-148590000D03*
D24*
%TO.P,J14,2,Pin_2*%
%TO.N,/NEUTRO*%
X90424000Y-148590000D03*
%TD*%
D35*
%TO.P,U2,1*%
%TO.N,Net-(R8-Pad2)*%
X83660000Y-100035000D03*
%TO.P,U2,2*%
%TO.N,GND*%
X86200000Y-100035000D03*
%TO.P,U2,3,NC*%
%TO.N,unconnected-(U2-NC-Pad3)*%
X88740000Y-100035000D03*
%TO.P,U2,4*%
%TO.N,Net-(Q1-G)*%
X88740000Y-109565000D03*
%TO.P,U2,5,NC*%
%TO.N,unconnected-(U2-NC-Pad5)*%
X86200000Y-109565000D03*
%TO.P,U2,6*%
%TO.N,Net-(R7-Pad1)*%
X83660000Y-109565000D03*
%TD*%
D37*
%TO.P,J1,1,Pin_1*%
%TO.N,/RXD0*%
X58780000Y-103910000D03*
D38*
%TO.P,J1,2,Pin_2*%
%TO.N,/TXD0*%
X58780000Y-106450000D03*
%TO.P,J1,3,Pin_3*%
%TO.N,/DTR*%
X61320000Y-103910000D03*
%TO.P,J1,4,Pin_4*%
%TO.N,/EN*%
X61320000Y-106450000D03*
%TO.P,J1,5,Pin_5*%
%TO.N,+3.3V*%
X63860000Y-103910000D03*
%TO.P,J1,6,Pin_6*%
%TO.N,GND*%
X63860000Y-106450000D03*
%TD*%
D37*
%TO.P,J7,1,Pin_1*%
%TO.N,/EN*%
X60250000Y-116250000D03*
D38*
%TO.P,J7,2,Pin_2*%
%TO.N,GND*%
X62790000Y-116250000D03*
%TD*%
D20*
%TO.P,J13,1,Pin_1*%
%TO.N,GND*%
X94020000Y-83850000D03*
D21*
%TO.P,J13,2,Pin_2*%
%TO.N,/RX2*%
X94020000Y-81310000D03*
%TO.P,J13,3,Pin_3*%
%TO.N,/D_led*%
X94020000Y-78770000D03*
%TD*%
D37*
%TO.P,J8,1,Pin_1*%
%TO.N,+3.3V_fused*%
X115370000Y-70000000D03*
D38*
%TO.P,J8,2,Pin_2*%
%TO.N,/MOSI*%
X115370000Y-72540000D03*
%TO.P,J8,3,Pin_3*%
%TO.N,/MISO*%
X115370000Y-75080000D03*
%TO.P,J8,4,Pin_4*%
%TO.N,/CLK*%
X115370000Y-77620000D03*
%TO.P,J8,5,Pin_5*%
%TO.N,/CE*%
X115370000Y-80160000D03*
%TO.P,J8,6,Pin_6*%
%TO.N,GND*%
X115370000Y-82700000D03*
%TD*%
D39*
%TO.P,C9,1*%
%TO.N,Net-(PS1-+Vout)*%
X44600000Y-131400000D03*
%TO.P,C9,2*%
%TO.N,GND*%
X39500000Y-131400000D03*
%TD*%
D40*
%TO.P,C11,1*%
%TO.N,+3.3V*%
X62557500Y-138112500D03*
%TO.P,C11,2*%
%TO.N,GND*%
X62557500Y-143212500D03*
%TD*%
D41*
%TO.N,+3.3V*%
X38470000Y-105200000D03*
X41170000Y-85600000D03*
X38120000Y-114200000D03*
X39520000Y-95000000D03*
X37770000Y-66450000D03*
X68270000Y-113300000D03*
%TO.N,GND*%
X54400000Y-114400000D03*
X107000000Y-62400000D03*
X34220000Y-66400000D03*
X94220000Y-67300000D03*
X68970000Y-84300000D03*
X42000000Y-140500000D03*
X98770000Y-82000000D03*
X36200000Y-124200000D03*
X76400000Y-105600000D03*
X61976000Y-156210000D03*
X113600000Y-92800000D03*
X58070000Y-92450000D03*
%TO.N,/EN*%
X36620001Y-73999999D03*
X57320000Y-110700000D03*
D42*
%TO.N,/NEUTRO*%
X109474000Y-141732000D03*
%TO.N,/FASE*%
X84709000Y-118999000D03*
D43*
X87000000Y-143500000D03*
D42*
X107442000Y-115824000D03*
D41*
%TO.N,+3.3V_fused*%
X68720000Y-98300000D03*
X112320000Y-86700000D03*
X111820000Y-66700000D03*
%TO.N,/DTR*%
X61320000Y-100800000D03*
X84820000Y-83000000D03*
%TO.N,/TXD0*%
X91420000Y-66250000D03*
X65800000Y-97000004D03*
%TO.N,/RXD0*%
X63200000Y-98799998D03*
X88920000Y-67400000D03*
%TO.N,/EN_B*%
X110470002Y-72400000D03*
X90120000Y-88600000D03*
%TO.N,/TRIAC_A*%
X75800006Y-100500000D03*
%TO.N,/TRIAC_B*%
X76420000Y-97300000D03*
%TO.N,/ZERO*%
X74470000Y-94950000D03*
%TD*%
D44*
%TO.N,+3.3V*%
X69520000Y-115400000D02*
X68270000Y-115400000D01*
X68270000Y-115400000D02*
X68270000Y-116400000D01*
D45*
X59082500Y-125587500D02*
X55482500Y-121987500D01*
X62607500Y-138012500D02*
X54757500Y-138012500D01*
X34220000Y-70000000D02*
X35095000Y-69125000D01*
D44*
X66457500Y-138012500D02*
X62607500Y-138012500D01*
D46*
X37670000Y-80600000D02*
X34220000Y-80600000D01*
D44*
X70420000Y-114500000D02*
X69520000Y-115400000D01*
D46*
X41170000Y-84100000D02*
X37670000Y-80600000D01*
X36170000Y-112250000D02*
X34220000Y-112250000D01*
X34220000Y-93650000D02*
X38170000Y-93650000D01*
D45*
X54757500Y-138012500D02*
X46357500Y-138012500D01*
X59082500Y-125587500D02*
X59082500Y-138012500D01*
X34220000Y-114700000D02*
X34220000Y-112250000D01*
D44*
X66957500Y-138412500D02*
X66457500Y-138012500D01*
D45*
X54757500Y-144312500D02*
X54757500Y-138012500D01*
D46*
X37820000Y-70650000D02*
X36620000Y-70650000D01*
D45*
X41507500Y-121987500D02*
X34220000Y-114700000D01*
X35095000Y-69125000D02*
X35094999Y-69125001D01*
X34220000Y-80600000D02*
X34220000Y-70000000D01*
D46*
X36620000Y-70650000D02*
X35095000Y-69125000D01*
D45*
X34220000Y-93650000D02*
X34220000Y-103200000D01*
X37770000Y-66450000D02*
X35094999Y-69125001D01*
D44*
X68270000Y-116400000D02*
X59082500Y-125587500D01*
D45*
X34220000Y-80600000D02*
X34220000Y-93650000D01*
D46*
X41170000Y-85600000D02*
X41170000Y-84100000D01*
D45*
X55482500Y-121987500D02*
X41507500Y-121987500D01*
D44*
X66957500Y-139512500D02*
X66957500Y-138412500D01*
D46*
X38120000Y-114200000D02*
X36170000Y-112250000D01*
D44*
X70420000Y-109637500D02*
X70420000Y-114500000D01*
X68270000Y-115400000D02*
X68270000Y-113300000D01*
D46*
X38170000Y-93650000D02*
X39520000Y-95000000D01*
X36470000Y-103200000D02*
X38470000Y-105200000D01*
D45*
X34220000Y-103200000D02*
X34220000Y-112250000D01*
D46*
X34220000Y-103200000D02*
X36470000Y-103200000D01*
D45*
%TO.N,GND*%
X33500000Y-152000000D02*
X37400000Y-152000000D01*
D44*
X99120000Y-62400000D02*
X105670000Y-62400000D01*
D45*
X52932500Y-151187500D02*
X52932500Y-148550000D01*
D44*
X40762500Y-127000000D02*
X40000000Y-127000000D01*
X105670000Y-62400000D02*
X107000000Y-62400000D01*
X94220000Y-67300000D02*
X99120000Y-62400000D01*
D45*
X52932500Y-151187500D02*
X52120000Y-152000000D01*
X57057500Y-144312500D02*
X57057500Y-145912500D01*
X43000000Y-149000000D02*
X42100000Y-149000000D01*
D44*
X66957500Y-141587500D02*
X66957500Y-142612500D01*
X39500000Y-131400000D02*
X32100000Y-131400000D01*
D45*
X32000000Y-131500000D02*
X32000000Y-150500000D01*
D46*
X106000000Y-101800000D02*
X106000000Y-100035000D01*
D44*
X39500000Y-127500000D02*
X39500000Y-131400000D01*
D45*
X46357500Y-140552500D02*
X42052500Y-140552500D01*
D46*
X104600000Y-103200000D02*
X106000000Y-101800000D01*
D45*
X61800000Y-146712500D02*
X62557500Y-145955000D01*
X43775000Y-149775000D02*
X43000000Y-149000000D01*
X43775000Y-152000000D02*
X37400000Y-152000000D01*
X57857500Y-146712500D02*
X61800000Y-146712500D01*
X34220000Y-66400000D02*
X32000000Y-68620000D01*
D44*
X66357500Y-143212500D02*
X62557500Y-143212500D01*
D45*
X62557500Y-145955000D02*
X62557500Y-143212500D01*
D44*
X32100000Y-131400000D02*
X32000000Y-131500000D01*
D45*
X42052500Y-140552500D02*
X42000000Y-140500000D01*
D46*
X86200000Y-100035000D02*
X86200000Y-101600000D01*
X86200000Y-101600000D02*
X87800000Y-103200000D01*
D44*
X40000000Y-127000000D02*
X39500000Y-127500000D01*
D45*
X57057500Y-145912500D02*
X57857500Y-146712500D01*
X43775000Y-152000000D02*
X43775000Y-149775000D01*
X32000000Y-68620000D02*
X32000000Y-131500000D01*
X32000000Y-150500000D02*
X33500000Y-152000000D01*
D44*
X66957500Y-142612500D02*
X66357500Y-143212500D01*
D46*
X87800000Y-103200000D02*
X104600000Y-103200000D01*
D45*
X52120000Y-152000000D02*
X44225000Y-152000000D01*
D46*
%TO.N,/EN*%
X53670000Y-108900000D02*
X53670000Y-85950000D01*
X53670000Y-85950000D02*
X41719999Y-73999999D01*
X55470000Y-110700000D02*
X57320000Y-110700000D01*
X41719999Y-73999999D02*
X36620001Y-73999999D01*
X41520000Y-71200000D02*
X41520000Y-73800000D01*
X40970000Y-70650000D02*
X41520000Y-71200000D01*
X39820000Y-70650000D02*
X40970000Y-70650000D01*
X53670000Y-108900000D02*
X55470000Y-110700000D01*
X41520000Y-73800000D02*
X41719999Y-73999999D01*
D45*
%TO.N,Net-(PS1-+Vout)*%
X52457500Y-144312500D02*
X49857500Y-144312500D01*
X48637500Y-143092500D02*
X46357500Y-143092500D01*
X49857500Y-144312500D02*
X48637500Y-143092500D01*
X46200000Y-135000000D02*
X52612500Y-128587500D01*
D44*
X43900000Y-127000000D02*
X44600000Y-127700000D01*
D45*
X39320000Y-143100000D02*
X39320000Y-137280000D01*
X52612500Y-126270000D02*
X52932500Y-125950000D01*
X39320000Y-137280000D02*
X41600000Y-135000000D01*
X41600000Y-135000000D02*
X46200000Y-135000000D01*
X46357500Y-145632500D02*
X46357500Y-143092500D01*
X52612500Y-128587500D02*
X52612500Y-126270000D01*
X48400000Y-132800000D02*
X47000000Y-131400000D01*
X39320000Y-143100000D02*
X43437500Y-143092500D01*
X43437500Y-143092500D02*
X46357500Y-143092500D01*
X37400000Y-145020000D02*
X39320000Y-143100000D01*
D44*
X42837500Y-127000000D02*
X43900000Y-127000000D01*
D45*
X37400000Y-146000000D02*
X37400000Y-145020000D01*
X47000000Y-131400000D02*
X44600000Y-131400000D01*
D44*
X44600000Y-127700000D02*
X44600000Y-131400000D01*
D45*
%TO.N,/NEUTRO*%
X95432500Y-133350000D02*
X95250000Y-133350000D01*
D47*
X101600000Y-133350000D02*
X95432500Y-133350000D01*
X101600000Y-133350000D02*
X107442000Y-133350000D01*
X109474000Y-135382000D02*
X109474000Y-141732000D01*
D45*
X95250000Y-133350000D02*
X95239590Y-133339590D01*
D47*
X107442000Y-133350000D02*
X109474000Y-135382000D01*
D45*
X95239590Y-133339590D02*
X91246420Y-133339590D01*
%TO.N,/FASE*%
X103400000Y-116608000D02*
X104140000Y-117348000D01*
X91246420Y-138439590D02*
X91246420Y-140919170D01*
X107442000Y-116586000D02*
X107442000Y-115824000D01*
D47*
X88500000Y-143500000D02*
X87000000Y-143500000D01*
D45*
X104140000Y-117348000D02*
X106680000Y-117348000D01*
X83600000Y-117890000D02*
X84709000Y-118999000D01*
X83600000Y-115200000D02*
X83600000Y-117890000D01*
X91246420Y-140919170D02*
X91186000Y-140979590D01*
D44*
X84709000Y-118999000D02*
X84710000Y-119000000D01*
D47*
X91020410Y-140979590D02*
X88500000Y-143500000D01*
X95432500Y-141150000D02*
X95262090Y-140979590D01*
X91186000Y-140979590D02*
X91020410Y-140979590D01*
X95262090Y-140979590D02*
X91186000Y-140979590D01*
D45*
X106680000Y-117348000D02*
X107442000Y-116586000D01*
X103400000Y-115000000D02*
X103400000Y-116608000D01*
D44*
%TO.N,/380V*%
X81016410Y-138439590D02*
X82996420Y-138439590D01*
X76600000Y-137144000D02*
X76600000Y-138830000D01*
X80010000Y-139446000D02*
X81016410Y-138439590D01*
X77216000Y-139446000D02*
X80010000Y-139446000D01*
X76600000Y-138830000D02*
X77216000Y-139446000D01*
%TO.N,+3.3V_fused*%
X108920000Y-90100000D02*
X112320000Y-86700000D01*
X70420000Y-95180000D02*
X73100000Y-92500000D01*
X70420000Y-98450000D02*
X70420000Y-95180000D01*
X112620000Y-86400000D02*
X112620000Y-67500000D01*
X92870000Y-90100000D02*
X108920000Y-90100000D01*
X73100000Y-92500000D02*
X90470000Y-92500000D01*
X112620000Y-67500000D02*
X111820000Y-66700000D01*
X68870000Y-98450000D02*
X68720000Y-98300000D01*
X90470000Y-92500000D02*
X92870000Y-90100000D01*
X70420000Y-106662500D02*
X70420000Y-98450000D01*
X112320000Y-86700000D02*
X112620000Y-86400000D01*
X70420000Y-98450000D02*
X68870000Y-98450000D01*
D46*
%TO.N,/DTR*%
X74170000Y-83000000D02*
X61320000Y-95850000D01*
X84820000Y-83000000D02*
X74170000Y-83000000D01*
X61320000Y-95850000D02*
X61320000Y-100800000D01*
%TO.N,/TXD0*%
X65800000Y-96200000D02*
X65800000Y-97000004D01*
X91420000Y-66250000D02*
X91420000Y-81600000D01*
X91420000Y-81600000D02*
X86270000Y-86750000D01*
X75250000Y-86750000D02*
X65800000Y-96200000D01*
X86270000Y-86750000D02*
X75250000Y-86750000D01*
%TO.N,/RXD0*%
X88920000Y-67400000D02*
X88920000Y-82200000D01*
X74495000Y-85000000D02*
X63200000Y-96295000D01*
X86120000Y-85000000D02*
X74495000Y-85000000D01*
X63200000Y-96295000D02*
X63200000Y-98799998D01*
X88920000Y-82200000D02*
X86120000Y-85000000D01*
%TO.N,/EN_B*%
X107320000Y-88600000D02*
X110470002Y-85449998D01*
X110470002Y-85449998D02*
X110470002Y-72400000D01*
X90120000Y-88600000D02*
X107320000Y-88600000D01*
D45*
%TO.N,Net-(Q1-G)*%
X88740000Y-109565000D02*
X92445000Y-109565000D01*
X92445000Y-109565000D02*
X94000000Y-111120000D01*
%TO.N,Net-(Q2-G)*%
X108540000Y-109565000D02*
X113365000Y-109565000D01*
X113365000Y-109565000D02*
X114000000Y-110200000D01*
D44*
X114000000Y-110200000D02*
X114000000Y-111120000D01*
D45*
%TO.N,Net-(R7-Pad1)*%
X83660000Y-109565000D02*
X83660000Y-113140000D01*
D46*
%TO.N,Net-(R8-Pad2)*%
X80800000Y-100000000D02*
X80835000Y-100035000D01*
X80835000Y-100035000D02*
X83660000Y-100035000D01*
%TO.N,/TRIAC_A*%
X76300006Y-100000000D02*
X75800006Y-100500000D01*
X78800000Y-100000000D02*
X76300006Y-100000000D01*
D45*
%TO.N,Net-(R9-Pad1)*%
X103400000Y-109625000D02*
X103400000Y-113000000D01*
D46*
%TO.N,Net-(R10-Pad2)*%
X103460000Y-97660000D02*
X102400000Y-96600000D01*
X102400000Y-96600000D02*
X99200000Y-96600000D01*
X103460000Y-100035000D02*
X103460000Y-97660000D01*
%TO.N,/TRIAC_B*%
X77120000Y-96600000D02*
X76420000Y-97300000D01*
X97200000Y-96600000D02*
X77120000Y-96600000D01*
D44*
%TO.N,Net-(R11-Pad2)*%
X76600000Y-134000000D02*
X75000000Y-132400000D01*
X76000000Y-125500000D02*
X77000000Y-125500000D01*
X75000000Y-132400000D02*
X75000000Y-126500000D01*
X76600000Y-135144000D02*
X76600000Y-134000000D01*
X75000000Y-126500000D02*
X76000000Y-125500000D01*
D46*
%TO.N,/ZERO*%
X66600000Y-121000000D02*
X72600000Y-115000000D01*
X72600000Y-115000000D02*
X72600000Y-96820000D01*
X72600000Y-96820000D02*
X74470000Y-94950000D01*
X66600000Y-125100000D02*
X66600000Y-121000000D01*
X67000000Y-125500000D02*
X66600000Y-125100000D01*
X70500000Y-125500000D02*
X67000000Y-125500000D01*
D44*
%TO.N,Net-(BR1-Pad-)*%
X77000000Y-128040000D02*
X77001177Y-128041177D01*
X80041177Y-128041177D02*
X81074420Y-129074420D01*
X81074420Y-129074420D02*
X81074420Y-131417590D01*
X81074420Y-131417590D02*
X82996420Y-133339590D01*
X77001177Y-128041177D02*
X80041177Y-128041177D01*
%TD*%
%TA.AperFunction,Conductor*%
%TO.N,GND*%
G36*
X51270003Y-139032962D02*
G01*
X51324541Y-139087500D01*
X51344496Y-139160514D01*
X51344500Y-139160912D01*
X51344599Y-139170917D01*
X51344600Y-139170944D01*
X51344695Y-139175787D01*
X51344992Y-139185791D01*
X51371075Y-139327267D01*
X51371079Y-139327282D01*
X51393395Y-139393486D01*
X51393489Y-139393674D01*
X51458287Y-139521896D01*
X51458289Y-139521900D01*
X51458292Y-139521904D01*
X51458293Y-139521906D01*
X52098854Y-140436994D01*
X52098857Y-140436998D01*
X52098861Y-140437003D01*
X52162670Y-140511548D01*
X52162672Y-140511550D01*
X52197218Y-140544756D01*
X52274225Y-140605567D01*
X52405102Y-140665338D01*
X52429752Y-140672576D01*
X52472137Y-140685022D01*
X52472139Y-140685022D01*
X52472141Y-140685023D01*
X52472145Y-140685024D01*
X52472146Y-140685024D01*
X52472150Y-140685025D01*
X52472154Y-140685026D01*
X52614546Y-140705498D01*
X52614550Y-140705498D01*
X52614561Y-140705500D01*
X53608000Y-140705500D01*
X53682500Y-140725462D01*
X53737038Y-140780000D01*
X53757000Y-140854500D01*
X53757000Y-143015771D01*
X53753988Y-143027011D01*
X53755244Y-143038580D01*
X53744150Y-143063725D01*
X53737038Y-143090271D01*
X53724113Y-143109146D01*
X53723612Y-143109769D01*
X53661368Y-143155315D01*
X53584690Y-143163638D01*
X53514124Y-143132507D01*
X53491367Y-143109745D01*
X53490886Y-143109146D01*
X53455222Y-143064778D01*
X53411864Y-143029926D01*
X53306797Y-142945470D01*
X53306792Y-142945467D01*
X53136193Y-142860859D01*
X52951387Y-142814899D01*
X52925107Y-142813117D01*
X52908623Y-142812000D01*
X52908615Y-142812000D01*
X52006384Y-142812000D01*
X51963613Y-142814899D01*
X51778806Y-142860859D01*
X51608207Y-142945467D01*
X51608202Y-142945470D01*
X51459782Y-143064774D01*
X51459774Y-143064782D01*
X51340470Y-143213202D01*
X51340467Y-143213208D01*
X51332535Y-143229202D01*
X51281550Y-143287075D01*
X51208459Y-143311703D01*
X51199050Y-143312000D01*
X50333639Y-143312000D01*
X50259139Y-143292038D01*
X50228280Y-143268359D01*
X49423134Y-142463214D01*
X49423132Y-142463211D01*
X49275285Y-142315364D01*
X49275282Y-142315361D01*
X49229076Y-142284487D01*
X49111416Y-142205868D01*
X48948729Y-142138482D01*
X48948726Y-142138480D01*
X48929338Y-142130449D01*
X48929336Y-142130448D01*
X48832688Y-142111224D01*
X48832688Y-142111223D01*
X48736041Y-142092000D01*
X47994766Y-142092000D01*
X47920266Y-142072038D01*
X47865728Y-142017500D01*
X47856111Y-141993278D01*
X47854848Y-141993750D01*
X47801297Y-141850170D01*
X47801295Y-141850166D01*
X47715047Y-141734955D01*
X47707511Y-141727419D01*
X47708629Y-141726300D01*
X47668313Y-141675033D01*
X47657630Y-141601608D01*
X47657252Y-141601587D01*
X47657358Y-141599740D01*
X47657279Y-141599192D01*
X47657500Y-141597289D01*
X47657500Y-140802500D01*
X46848248Y-140802500D01*
X46870018Y-140764792D01*
X46907500Y-140624909D01*
X46907500Y-140480091D01*
X46870018Y-140340208D01*
X46848248Y-140302500D01*
X47657499Y-140302500D01*
X47657499Y-139507701D01*
X47657277Y-139505788D01*
X47657357Y-139505243D01*
X47657251Y-139503405D01*
X47657631Y-139503383D01*
X47668521Y-139429484D01*
X47708615Y-139378687D01*
X47707510Y-139377582D01*
X47715042Y-139370048D01*
X47715046Y-139370046D01*
X47801296Y-139254831D01*
X47830778Y-139175787D01*
X47854848Y-139111251D01*
X47857998Y-139112426D01*
X47886325Y-139059816D01*
X47951946Y-139019286D01*
X47994766Y-139013000D01*
X51195503Y-139013000D01*
X51270003Y-139032962D01*
G37*
%TD.AperFunction*%
%TA.AperFunction,Conductor*%
G36*
X55386205Y-126266306D02*
G01*
X55433158Y-126327496D01*
X55444500Y-126384516D01*
X55444500Y-129819263D01*
X55424538Y-129893763D01*
X55398193Y-129927222D01*
X51540164Y-133597054D01*
X51540147Y-133597071D01*
X51498921Y-133641272D01*
X51480069Y-133664077D01*
X51444435Y-133712847D01*
X51444430Y-133712854D01*
X51384663Y-133843725D01*
X51384658Y-133843739D01*
X51364977Y-133910763D01*
X51364974Y-133910776D01*
X51364973Y-133910780D01*
X51344501Y-134053172D01*
X51344500Y-134053190D01*
X51344500Y-136863000D01*
X51324538Y-136937500D01*
X51270000Y-136992038D01*
X51195500Y-137012000D01*
X47994766Y-137012000D01*
X47920266Y-136992038D01*
X47865728Y-136937500D01*
X47856111Y-136913278D01*
X47854848Y-136913750D01*
X47801297Y-136770170D01*
X47801295Y-136770166D01*
X47715047Y-136654955D01*
X47715044Y-136654952D01*
X47599833Y-136568704D01*
X47599829Y-136568702D01*
X47464982Y-136518408D01*
X47405376Y-136512000D01*
X45309636Y-136512000D01*
X45309611Y-136512002D01*
X45250021Y-136518408D01*
X45250015Y-136518409D01*
X45115170Y-136568702D01*
X45115166Y-136568704D01*
X44999955Y-136654952D01*
X44999952Y-136654955D01*
X44913704Y-136770166D01*
X44913702Y-136770170D01*
X44863408Y-136905017D01*
X44857000Y-136964614D01*
X44857000Y-139060363D01*
X44857002Y-139060388D01*
X44863408Y-139119978D01*
X44863409Y-139119984D01*
X44913702Y-139254829D01*
X44913704Y-139254833D01*
X44999952Y-139370044D01*
X45007489Y-139377581D01*
X45006370Y-139378699D01*
X45046684Y-139429963D01*
X45057375Y-139503391D01*
X45057748Y-139503413D01*
X45057642Y-139505229D01*
X45057723Y-139505780D01*
X45057500Y-139507703D01*
X45057500Y-140302500D01*
X45866752Y-140302500D01*
X45844982Y-140340208D01*
X45807500Y-140480091D01*
X45807500Y-140624909D01*
X45844982Y-140764792D01*
X45866752Y-140802500D01*
X45057501Y-140802500D01*
X45057501Y-141597304D01*
X45057725Y-141599236D01*
X45057644Y-141599782D01*
X45057749Y-141601595D01*
X45057373Y-141601616D01*
X45046469Y-141675538D01*
X45006384Y-141726322D01*
X45007485Y-141727423D01*
X44999954Y-141734953D01*
X44913704Y-141850166D01*
X44913702Y-141850170D01*
X44860152Y-141993749D01*
X44857001Y-141992573D01*
X44828675Y-142045184D01*
X44763054Y-142085714D01*
X44720234Y-142092000D01*
X43535122Y-142092000D01*
X43534219Y-142091822D01*
X43436497Y-142092000D01*
X43333834Y-142092000D01*
X43329954Y-142092193D01*
X40469771Y-142097403D01*
X40395235Y-142077576D01*
X40340598Y-142023138D01*
X40320500Y-141948674D01*
X40320500Y-137756138D01*
X40340462Y-137681638D01*
X40364141Y-137650779D01*
X41970779Y-136044141D01*
X42037574Y-136005577D01*
X42076138Y-136000500D01*
X46298537Y-136000500D01*
X46298540Y-136000500D01*
X46298541Y-136000500D01*
X46395188Y-135981275D01*
X46491836Y-135962051D01*
X46545165Y-135939961D01*
X46673914Y-135886632D01*
X46837782Y-135777139D01*
X46977139Y-135637782D01*
X46977139Y-135637780D01*
X46989401Y-135625519D01*
X46989404Y-135625514D01*
X53389639Y-129225282D01*
X53499131Y-129061415D01*
X53499132Y-129061414D01*
X53574551Y-128879335D01*
X53613000Y-128686041D01*
X53613000Y-128203610D01*
X53632962Y-128129110D01*
X53687500Y-128074572D01*
X53704976Y-128065953D01*
X53930007Y-127972743D01*
X54185494Y-127825238D01*
X54419542Y-127645646D01*
X54628146Y-127437042D01*
X54807738Y-127202994D01*
X54955243Y-126947507D01*
X55068139Y-126674952D01*
X55144493Y-126389993D01*
X55146835Y-126372203D01*
X55147775Y-126365068D01*
X55177290Y-126293811D01*
X55238480Y-126246858D01*
X55314948Y-126236791D01*
X55386205Y-126266306D01*
G37*
%TD.AperFunction*%
%TA.AperFunction,Conductor*%
G36*
X51183282Y-60220462D02*
G01*
X51214141Y-60244141D01*
X51220000Y-60250000D01*
X99220000Y-60250000D01*
X99225859Y-60244141D01*
X99292654Y-60205577D01*
X99331218Y-60200500D01*
X119650500Y-60200500D01*
X119725000Y-60220462D01*
X119779538Y-60275000D01*
X119799500Y-60349500D01*
X119799500Y-106439782D01*
X119779538Y-106514282D01*
X119725000Y-106568820D01*
X119650500Y-106588782D01*
X119576000Y-106568820D01*
X119545141Y-106545141D01*
X117800000Y-104800000D01*
X81788000Y-104800000D01*
X81197360Y-105218564D01*
X80264000Y-105880000D01*
X80264000Y-121072196D01*
X80244038Y-121146696D01*
X80213696Y-121183820D01*
X79423357Y-121882624D01*
X79354322Y-121917018D01*
X79324661Y-121920000D01*
X75183999Y-121920000D01*
X73660001Y-123062998D01*
X73660000Y-123063001D01*
X73660000Y-142162421D01*
X73640038Y-142236921D01*
X73596446Y-142284487D01*
X68580000Y-145796000D01*
X68580000Y-159650500D01*
X68560038Y-159725000D01*
X68505500Y-159779538D01*
X68431000Y-159799500D01*
X30349500Y-159799500D01*
X30275000Y-159779538D01*
X30220462Y-159725000D01*
X30200500Y-159650500D01*
X30200500Y-132368060D01*
X38075000Y-132368060D01*
X38085613Y-132456443D01*
X38141079Y-132597096D01*
X38232433Y-132717562D01*
X38232437Y-132717566D01*
X38352904Y-132808920D01*
X38352903Y-132808920D01*
X38493556Y-132864386D01*
X38581939Y-132874999D01*
X38581941Y-132875000D01*
X39250000Y-132875000D01*
X39750000Y-132875000D01*
X40418059Y-132875000D01*
X40418060Y-132874999D01*
X40506443Y-132864386D01*
X40647096Y-132808920D01*
X40767562Y-132717566D01*
X40767566Y-132717562D01*
X40858920Y-132597096D01*
X40914386Y-132456443D01*
X40924999Y-132368060D01*
X40925000Y-132368058D01*
X40925000Y-131650000D01*
X39750000Y-131650000D01*
X39750000Y-132875000D01*
X39250000Y-132875000D01*
X39250000Y-131650000D01*
X38075000Y-131650000D01*
X38075000Y-132368060D01*
X30200500Y-132368060D01*
X30200500Y-130431939D01*
X38075000Y-130431939D01*
X38075000Y-131150000D01*
X39250000Y-131150000D01*
X39750000Y-131150000D01*
X40925000Y-131150000D01*
X40925000Y-130431941D01*
X40924999Y-130431939D01*
X40914386Y-130343556D01*
X40858920Y-130202903D01*
X40767566Y-130082437D01*
X40767562Y-130082433D01*
X40647095Y-129991079D01*
X40647096Y-129991079D01*
X40506443Y-129935613D01*
X40418060Y-129925000D01*
X39750000Y-129925000D01*
X39750000Y-131150000D01*
X39250000Y-131150000D01*
X39250000Y-129925000D01*
X38581939Y-129925000D01*
X38493556Y-129935613D01*
X38352903Y-129991079D01*
X38232437Y-130082433D01*
X38232433Y-130082437D01*
X38141079Y-130202903D01*
X38085613Y-130343556D01*
X38075000Y-130431939D01*
X30200500Y-130431939D01*
X30200500Y-127518060D01*
X39875000Y-127518060D01*
X39885613Y-127606443D01*
X39941079Y-127747096D01*
X40032433Y-127867562D01*
X40032437Y-127867566D01*
X40152904Y-127958920D01*
X40152903Y-127958920D01*
X40293556Y-128014386D01*
X40381939Y-128024999D01*
X40381941Y-128025000D01*
X40512500Y-128025000D01*
X40512500Y-127250000D01*
X39875000Y-127250000D01*
X39875000Y-127518060D01*
X30200500Y-127518060D01*
X30200500Y-126481939D01*
X39875000Y-126481939D01*
X39875000Y-126750000D01*
X40512500Y-126750000D01*
X40512500Y-125975000D01*
X40381939Y-125975000D01*
X40293556Y-125985613D01*
X40152903Y-126041079D01*
X40032437Y-126132433D01*
X40032433Y-126132437D01*
X39941079Y-126252903D01*
X39885613Y-126393556D01*
X39875000Y-126481939D01*
X30200500Y-126481939D01*
X30200500Y-69901460D01*
X33219500Y-69901460D01*
X33219500Y-114798541D01*
X33219791Y-114800003D01*
X33219796Y-114800029D01*
X33257948Y-114991833D01*
X33257949Y-114991836D01*
X33269955Y-115020821D01*
X33333368Y-115173916D01*
X33396396Y-115268242D01*
X33442861Y-115337782D01*
X33442864Y-115337785D01*
X33590708Y-115485629D01*
X33590713Y-115485633D01*
X40730360Y-122625281D01*
X40730361Y-122625282D01*
X40869718Y-122764639D01*
X40978224Y-122837140D01*
X41033581Y-122874129D01*
X41033583Y-122874130D01*
X41033586Y-122874132D01*
X41140245Y-122918311D01*
X41215664Y-122949551D01*
X41408959Y-122988000D01*
X55006362Y-122988000D01*
X55080862Y-123007962D01*
X55111721Y-123031641D01*
X55400859Y-123320779D01*
X55439423Y-123387574D01*
X55444500Y-123426138D01*
X55444500Y-125515483D01*
X55424538Y-125589983D01*
X55370000Y-125644521D01*
X55295500Y-125664483D01*
X55221000Y-125644521D01*
X55166462Y-125589983D01*
X55147775Y-125534932D01*
X55144495Y-125510020D01*
X55144494Y-125510015D01*
X55144493Y-125510007D01*
X55068139Y-125225048D01*
X54955243Y-124952493D01*
X54807738Y-124697006D01*
X54807735Y-124697002D01*
X54807735Y-124697001D01*
X54628145Y-124462957D01*
X54419542Y-124254354D01*
X54185497Y-124074764D01*
X53930011Y-123927259D01*
X53930009Y-123927258D01*
X53930007Y-123927257D01*
X53845024Y-123892055D01*
X53657449Y-123814359D01*
X53372494Y-123738007D01*
X53372477Y-123738004D01*
X53080011Y-123699500D01*
X53080006Y-123699500D01*
X52784994Y-123699500D01*
X52784988Y-123699500D01*
X52492522Y-123738004D01*
X52492505Y-123738007D01*
X52207551Y-123814359D01*
X52207550Y-123814359D01*
X51934988Y-123927259D01*
X51679502Y-124074764D01*
X51679501Y-124074764D01*
X51445457Y-124254354D01*
X51236854Y-124462957D01*
X51057264Y-124697001D01*
X51057264Y-124697002D01*
X50909759Y-124952488D01*
X50796859Y-125225050D01*
X50796859Y-125225051D01*
X50720507Y-125510005D01*
X50720504Y-125510022D01*
X50682000Y-125802488D01*
X50682000Y-126097511D01*
X50720504Y-126389977D01*
X50720507Y-126389994D01*
X50796859Y-126674948D01*
X50796859Y-126674949D01*
X50909759Y-126947511D01*
X51057264Y-127202997D01*
X51057264Y-127202998D01*
X51192453Y-127379178D01*
X51236854Y-127437042D01*
X51445458Y-127645646D01*
X51553706Y-127728707D01*
X51571438Y-127751816D01*
X51592038Y-127772416D01*
X51594609Y-127782013D01*
X51600658Y-127789896D01*
X51612000Y-127846916D01*
X51612000Y-128111360D01*
X51592038Y-128185860D01*
X51568359Y-128216719D01*
X48505358Y-131279720D01*
X48438563Y-131318284D01*
X48361435Y-131318284D01*
X48294640Y-131279720D01*
X47777141Y-130762221D01*
X47777139Y-130762218D01*
X47637782Y-130622861D01*
X47604919Y-130600902D01*
X47473919Y-130513370D01*
X47473909Y-130513365D01*
X47384868Y-130476483D01*
X47345165Y-130460038D01*
X47318500Y-130448993D01*
X47291837Y-130437949D01*
X47195188Y-130418724D01*
X47195188Y-130418723D01*
X47098541Y-130399500D01*
X46348206Y-130399500D01*
X46273706Y-130379538D01*
X46219168Y-130325000D01*
X46206769Y-130297368D01*
X46159814Y-130155666D01*
X46067712Y-130006344D01*
X45943656Y-129882288D01*
X45794334Y-129790186D01*
X45711065Y-129762593D01*
X45627798Y-129735001D01*
X45627790Y-129734999D01*
X45534356Y-129725454D01*
X45462271Y-129698024D01*
X45413559Y-129638225D01*
X45400500Y-129577226D01*
X45400500Y-127621157D01*
X45381375Y-127525008D01*
X45369737Y-127466502D01*
X45333566Y-127379178D01*
X45309396Y-127320826D01*
X45309391Y-127320816D01*
X45230664Y-127202994D01*
X45221789Y-127189711D01*
X45110289Y-127078211D01*
X44410289Y-126378211D01*
X44279179Y-126290606D01*
X44279178Y-126290605D01*
X44279176Y-126290604D01*
X44133498Y-126230263D01*
X44133494Y-126230262D01*
X43978842Y-126199500D01*
X43939171Y-126199500D01*
X43864671Y-126179538D01*
X43812354Y-126128721D01*
X43767712Y-126056344D01*
X43643656Y-125932288D01*
X43494334Y-125840186D01*
X43411065Y-125812593D01*
X43327798Y-125785001D01*
X43310665Y-125783250D01*
X43225009Y-125774500D01*
X43225004Y-125774500D01*
X42449996Y-125774500D01*
X42347202Y-125785001D01*
X42180666Y-125840186D01*
X42031343Y-125932288D01*
X41907288Y-126056343D01*
X41881899Y-126097506D01*
X41815186Y-126205666D01*
X41815185Y-126205668D01*
X41810631Y-126213052D01*
X41808112Y-126211498D01*
X41768299Y-126258907D01*
X41695812Y-126285257D01*
X41619861Y-126271833D01*
X41564162Y-126226851D01*
X41492562Y-126132433D01*
X41372095Y-126041079D01*
X41372096Y-126041079D01*
X41231443Y-125985613D01*
X41143060Y-125975000D01*
X41012500Y-125975000D01*
X41012500Y-128025000D01*
X41143059Y-128025000D01*
X41143060Y-128024999D01*
X41231443Y-128014386D01*
X41372096Y-127958920D01*
X41492562Y-127867566D01*
X41492565Y-127867563D01*
X41564162Y-127773149D01*
X41625083Y-127725849D01*
X41701493Y-127715346D01*
X41772917Y-127744456D01*
X41808358Y-127788349D01*
X41810631Y-127786948D01*
X41815185Y-127794331D01*
X41815186Y-127794334D01*
X41907288Y-127943656D01*
X42031344Y-128067712D01*
X42180666Y-128159814D01*
X42347203Y-128214999D01*
X42449991Y-128225500D01*
X43225008Y-128225499D01*
X43327797Y-128214999D01*
X43494334Y-128159814D01*
X43572281Y-128111736D01*
X43646166Y-128089616D01*
X43721215Y-128107403D01*
X43777316Y-128160331D01*
X43799437Y-128234219D01*
X43799500Y-128238553D01*
X43799500Y-129577227D01*
X43779538Y-129651727D01*
X43725000Y-129706265D01*
X43665642Y-129725456D01*
X43572202Y-129735001D01*
X43405666Y-129790186D01*
X43256343Y-129882288D01*
X43132288Y-130006343D01*
X43040186Y-130155666D01*
X42985001Y-130322201D01*
X42981500Y-130356465D01*
X42975141Y-130418724D01*
X42974500Y-130424995D01*
X42974500Y-132375003D01*
X42974501Y-132375008D01*
X42985001Y-132477797D01*
X43040186Y-132644334D01*
X43132288Y-132793656D01*
X43256344Y-132917712D01*
X43405666Y-133009814D01*
X43572203Y-133064999D01*
X43674991Y-133075500D01*
X45525008Y-133075499D01*
X45627797Y-133064999D01*
X45794334Y-133009814D01*
X45943656Y-132917712D01*
X46067712Y-132793656D01*
X46159814Y-132644334D01*
X46206770Y-132502631D01*
X46215199Y-132489815D01*
X46219169Y-132475000D01*
X46236041Y-132458127D01*
X46249154Y-132438192D01*
X46262860Y-132431308D01*
X46273707Y-132420462D01*
X46296755Y-132414286D01*
X46318078Y-132403578D01*
X46348207Y-132400500D01*
X46523862Y-132400500D01*
X46598362Y-132420462D01*
X46629221Y-132444141D01*
X46879720Y-132694640D01*
X46918284Y-132761435D01*
X46918284Y-132838563D01*
X46879720Y-132905358D01*
X45829221Y-133955859D01*
X45762426Y-133994423D01*
X45723862Y-133999500D01*
X41501459Y-133999500D01*
X41404811Y-134018723D01*
X41404812Y-134018724D01*
X41308163Y-134037949D01*
X41308158Y-134037950D01*
X41254834Y-134060037D01*
X41254834Y-134060038D01*
X41224488Y-134072607D01*
X41126090Y-134113365D01*
X41126080Y-134113370D01*
X40962219Y-134222860D01*
X40962214Y-134222864D01*
X38542864Y-136642214D01*
X38542860Y-136642219D01*
X38433368Y-136806083D01*
X38386943Y-136918166D01*
X38357949Y-136988162D01*
X38357948Y-136988166D01*
X38342634Y-137065157D01*
X38342634Y-137065158D01*
X38319500Y-137181459D01*
X38319500Y-142623861D01*
X38299538Y-142698361D01*
X38275859Y-142729220D01*
X37799220Y-143205859D01*
X37732425Y-143244423D01*
X37693861Y-143249500D01*
X35102136Y-143249500D01*
X35102111Y-143249502D01*
X35042521Y-143255908D01*
X35042515Y-143255909D01*
X34907670Y-143306202D01*
X34907666Y-143306204D01*
X34792455Y-143392452D01*
X34792452Y-143392455D01*
X34706204Y-143507666D01*
X34706202Y-143507670D01*
X34655908Y-143642517D01*
X34649500Y-143702114D01*
X34649500Y-148297863D01*
X34649502Y-148297888D01*
X34655908Y-148357478D01*
X34655909Y-148357484D01*
X34706202Y-148492329D01*
X34706204Y-148492333D01*
X34792452Y-148607544D01*
X34792455Y-148607547D01*
X34907666Y-148693795D01*
X34907670Y-148693797D01*
X35042517Y-148744091D01*
X35102114Y-148750499D01*
X35102118Y-148750499D01*
X35102127Y-148750500D01*
X39697872Y-148750499D01*
X39719657Y-148748157D01*
X39738282Y-148751061D01*
X39738282Y-148750000D01*
X41600000Y-148750000D01*
X41600000Y-149250000D01*
X39800000Y-149250000D01*
X39800000Y-149826973D01*
X39780038Y-149901473D01*
X39725500Y-149956011D01*
X39651000Y-149975973D01*
X39576500Y-149956011D01*
X39565538Y-149949027D01*
X39452488Y-149869869D01*
X39452477Y-149869862D01*
X39246325Y-149773733D01*
X39246323Y-149773732D01*
X39026605Y-149714859D01*
X39026606Y-149714859D01*
X38856763Y-149700000D01*
X37650000Y-149700000D01*
X37650000Y-151500000D01*
X37150000Y-151500000D01*
X37150000Y-149700000D01*
X35943247Y-149700000D01*
X35943234Y-149700001D01*
X35773393Y-149714859D01*
X35553676Y-149773732D01*
X35553674Y-149773733D01*
X35347522Y-149869862D01*
X35347517Y-149869865D01*
X35161182Y-150000339D01*
X35000339Y-150161182D01*
X34869865Y-150347517D01*
X34869862Y-150347522D01*
X34773733Y-150553674D01*
X34773732Y-150553676D01*
X34714859Y-150773393D01*
X34700000Y-150943236D01*
X34700000Y-151750000D01*
X35966988Y-151750000D01*
X35934075Y-151807007D01*
X35900000Y-151934174D01*
X35900000Y-152065826D01*
X35934075Y-152192993D01*
X35966988Y-152250000D01*
X34700001Y-152250000D01*
X34700001Y-153056765D01*
X34714859Y-153226606D01*
X34773732Y-153446323D01*
X34773733Y-153446325D01*
X34869862Y-153652477D01*
X34869865Y-153652482D01*
X35000339Y-153838817D01*
X35161182Y-153999660D01*
X35347517Y-154130134D01*
X35347522Y-154130137D01*
X35553674Y-154226266D01*
X35553676Y-154226267D01*
X35773394Y-154285140D01*
X35773393Y-154285140D01*
X35943241Y-154299999D01*
X37150000Y-154299999D01*
X37150000Y-152500000D01*
X37650000Y-152500000D01*
X37650000Y-154299999D01*
X38856753Y-154299999D01*
X38856765Y-154299998D01*
X39026606Y-154285140D01*
X39246323Y-154226267D01*
X39246325Y-154226266D01*
X39452477Y-154130137D01*
X39452482Y-154130134D01*
X39638817Y-153999660D01*
X39799660Y-153838817D01*
X39930134Y-153652482D01*
X39930137Y-153652477D01*
X40026266Y-153446325D01*
X40026267Y-153446323D01*
X40085140Y-153226606D01*
X40099999Y-153056763D01*
X40100000Y-153056754D01*
X40100000Y-152250000D01*
X38833012Y-152250000D01*
X38865925Y-152192993D01*
X38900000Y-152065826D01*
X38900000Y-151934174D01*
X38865925Y-151807007D01*
X38833012Y-151750000D01*
X40099999Y-151750000D01*
X40099999Y-151423025D01*
X40119961Y-151348525D01*
X40174499Y-151293987D01*
X40248999Y-151274025D01*
X40323499Y-151293987D01*
X40334462Y-151300972D01*
X40447509Y-151380129D01*
X40447522Y-151380137D01*
X40653674Y-151476266D01*
X40653676Y-151476267D01*
X40873394Y-151535140D01*
X40873393Y-151535140D01*
X41043241Y-151549999D01*
X41850000Y-151549999D01*
X41850000Y-150433012D01*
X41907007Y-150465925D01*
X42034174Y-150500000D01*
X42165826Y-150500000D01*
X42292993Y-150465925D01*
X42350000Y-150433012D01*
X42350000Y-151549999D01*
X43156753Y-151549999D01*
X43156765Y-151549998D01*
X43326606Y-151535140D01*
X43546323Y-151476267D01*
X43546325Y-151476266D01*
X43752477Y-151380137D01*
X43752482Y-151380134D01*
X43938817Y-151249660D01*
X44099660Y-151088817D01*
X44230134Y-150902482D01*
X44230137Y-150902477D01*
X44326266Y-150696325D01*
X44326267Y-150696323D01*
X44385140Y-150476606D01*
X44399999Y-150306763D01*
X44400000Y-150306754D01*
X44400000Y-149250000D01*
X42600000Y-149250000D01*
X42600000Y-148750000D01*
X44399999Y-148750000D01*
X44399999Y-148300000D01*
X50897723Y-148300000D01*
X52332499Y-148300000D01*
X52307479Y-148360402D01*
X52282500Y-148485981D01*
X52282500Y-148614019D01*
X52307479Y-148739598D01*
X52332499Y-148800000D01*
X50897724Y-148800000D01*
X50917573Y-148950777D01*
X50917575Y-148950790D01*
X50987129Y-149210368D01*
X51089968Y-149458641D01*
X51224332Y-149691366D01*
X51224332Y-149691367D01*
X51387921Y-149904559D01*
X51577940Y-150094578D01*
X51791133Y-150258167D01*
X52023858Y-150392531D01*
X52272131Y-150495370D01*
X52531709Y-150564924D01*
X52531722Y-150564926D01*
X52682500Y-150584776D01*
X52682500Y-149150001D01*
X52742902Y-149175021D01*
X52868481Y-149200000D01*
X52996519Y-149200000D01*
X53122098Y-149175021D01*
X53182500Y-149150001D01*
X53182500Y-150584775D01*
X53333277Y-150564926D01*
X53333290Y-150564924D01*
X53592868Y-150495370D01*
X53841141Y-150392531D01*
X54073866Y-150258167D01*
X54073867Y-150258167D01*
X54287059Y-150094578D01*
X54477078Y-149904559D01*
X54640667Y-149691367D01*
X54640667Y-149691366D01*
X54775031Y-149458641D01*
X54877870Y-149210368D01*
X54947424Y-148950790D01*
X54947426Y-148950777D01*
X54967276Y-148800000D01*
X53532501Y-148800000D01*
X53557521Y-148739598D01*
X53582500Y-148614019D01*
X53582500Y-148485981D01*
X53557521Y-148360402D01*
X53532501Y-148300000D01*
X54967276Y-148300000D01*
X54947426Y-148149222D01*
X54947424Y-148149209D01*
X54877870Y-147889631D01*
X54775031Y-147641358D01*
X54640667Y-147408633D01*
X54640667Y-147408632D01*
X54477078Y-147195440D01*
X54287059Y-147005421D01*
X54073866Y-146841832D01*
X53841141Y-146707468D01*
X53592868Y-146604629D01*
X53333291Y-146535075D01*
X53333278Y-146535073D01*
X53182500Y-146515222D01*
X53182500Y-147949998D01*
X53122098Y-147924979D01*
X52996519Y-147900000D01*
X52868481Y-147900000D01*
X52742902Y-147924979D01*
X52682500Y-147949998D01*
X52682500Y-146515222D01*
X52531721Y-146535073D01*
X52531708Y-146535075D01*
X52272131Y-146604629D01*
X52023858Y-146707468D01*
X51791133Y-146841832D01*
X51791132Y-146841832D01*
X51577940Y-147005421D01*
X51387921Y-147195440D01*
X51224332Y-147408632D01*
X51224332Y-147408633D01*
X51089968Y-147641358D01*
X50987129Y-147889631D01*
X50917575Y-148149209D01*
X50917573Y-148149222D01*
X50897723Y-148300000D01*
X44399999Y-148300000D01*
X44399999Y-147693247D01*
X44399998Y-147693234D01*
X44385140Y-147523393D01*
X44326267Y-147303676D01*
X44326266Y-147303674D01*
X44230137Y-147097522D01*
X44230134Y-147097517D01*
X44099660Y-146911182D01*
X43938817Y-146750339D01*
X43752482Y-146619865D01*
X43752477Y-146619862D01*
X43546325Y-146523733D01*
X43546323Y-146523732D01*
X43326605Y-146464859D01*
X43326606Y-146464859D01*
X43156763Y-146450000D01*
X42350000Y-146450000D01*
X42350000Y-147566988D01*
X42292993Y-147534075D01*
X42165826Y-147500000D01*
X42034174Y-147500000D01*
X41907007Y-147534075D01*
X41850000Y-147566988D01*
X41850000Y-146450000D01*
X41043247Y-146450000D01*
X41043234Y-146450001D01*
X40873393Y-146464859D01*
X40653676Y-146523732D01*
X40653674Y-146523733D01*
X40447522Y-146619862D01*
X40447517Y-146619865D01*
X40384962Y-146663668D01*
X40312485Y-146690047D01*
X40236529Y-146676654D01*
X40177445Y-146627077D01*
X40151066Y-146554600D01*
X40150499Y-146541627D01*
X40150499Y-144247717D01*
X40170461Y-144173218D01*
X40224999Y-144118680D01*
X40299227Y-144098718D01*
X43438494Y-144093000D01*
X44720234Y-144093000D01*
X44732497Y-144096286D01*
X44745137Y-144095096D01*
X44769182Y-144106115D01*
X44794734Y-144112962D01*
X44803711Y-144121939D01*
X44815253Y-144127229D01*
X44825500Y-144143728D01*
X44849272Y-144167500D01*
X44859908Y-144190115D01*
X44863341Y-144199359D01*
X44863409Y-144199983D01*
X44904261Y-144309515D01*
X44904670Y-144310614D01*
X44908256Y-144348704D01*
X44911933Y-144387210D01*
X44911895Y-144387351D01*
X44911900Y-144387402D01*
X44911855Y-144387498D01*
X44904602Y-144414567D01*
X44863408Y-144525015D01*
X44857000Y-144584614D01*
X44857000Y-146680363D01*
X44857002Y-146680388D01*
X44863408Y-146739978D01*
X44863409Y-146739984D01*
X44913702Y-146874829D01*
X44913704Y-146874833D01*
X44999952Y-146990044D01*
X44999955Y-146990047D01*
X45115166Y-147076295D01*
X45115170Y-147076297D01*
X45250017Y-147126591D01*
X45309614Y-147132999D01*
X45309618Y-147132999D01*
X45309627Y-147133000D01*
X47405372Y-147132999D01*
X47464983Y-147126591D01*
X47560947Y-147090798D01*
X47599829Y-147076297D01*
X47599833Y-147076295D01*
X47657438Y-147033171D01*
X47715046Y-146990046D01*
X47801296Y-146874831D01*
X47851591Y-146739983D01*
X47856960Y-146690047D01*
X47857999Y-146680385D01*
X47857999Y-146680382D01*
X47858000Y-146680373D01*
X47857999Y-144584628D01*
X47851591Y-144525017D01*
X47810395Y-144414566D01*
X47809039Y-144400368D01*
X47803098Y-144387402D01*
X47805441Y-144362684D01*
X47803065Y-144337791D01*
X47810328Y-144310614D01*
X47851591Y-144199983D01*
X47851658Y-144199355D01*
X47855092Y-144190113D01*
X47872264Y-144165930D01*
X47886325Y-144139816D01*
X47894312Y-144134882D01*
X47899748Y-144127228D01*
X47926713Y-144114870D01*
X47951946Y-144099286D01*
X47964856Y-144097390D01*
X47969864Y-144095096D01*
X47976336Y-144095705D01*
X47994766Y-144093000D01*
X48161362Y-144093000D01*
X48235862Y-144112962D01*
X48266720Y-144136640D01*
X49219719Y-145089640D01*
X49284998Y-145133258D01*
X49383580Y-145199129D01*
X49383590Y-145199134D01*
X49425646Y-145216554D01*
X49565665Y-145274552D01*
X49758960Y-145313001D01*
X49963390Y-145313001D01*
X49963410Y-145313000D01*
X51199050Y-145313000D01*
X51273550Y-145332962D01*
X51328088Y-145387500D01*
X51332535Y-145395798D01*
X51340467Y-145411791D01*
X51340470Y-145411797D01*
X51405318Y-145492471D01*
X51459778Y-145560222D01*
X51459782Y-145560225D01*
X51608202Y-145679529D01*
X51608207Y-145679532D01*
X51694185Y-145722172D01*
X51778807Y-145764141D01*
X51963611Y-145810100D01*
X52006377Y-145813000D01*
X52908622Y-145812999D01*
X52951389Y-145810100D01*
X53136193Y-145764141D01*
X53306796Y-145679530D01*
X53455222Y-145560222D01*
X53491370Y-145515251D01*
X53553601Y-145469694D01*
X53630277Y-145461355D01*
X53700850Y-145492471D01*
X53723626Y-145515247D01*
X53759778Y-145560222D01*
X53759782Y-145560225D01*
X53908202Y-145679529D01*
X53908207Y-145679532D01*
X53994185Y-145722172D01*
X54078807Y-145764141D01*
X54263611Y-145810100D01*
X54306377Y-145813000D01*
X55208622Y-145812999D01*
X55251389Y-145810100D01*
X55436193Y-145764141D01*
X55606796Y-145679530D01*
X55755222Y-145560222D01*
X55874530Y-145411796D01*
X55891923Y-145376725D01*
X55942905Y-145318854D01*
X56015995Y-145294225D01*
X56091607Y-145309440D01*
X56142699Y-145351036D01*
X56147250Y-145356845D01*
X56263156Y-145472751D01*
X56403434Y-145557551D01*
X56403445Y-145557556D01*
X56559929Y-145606319D01*
X56627946Y-145612499D01*
X56807500Y-145612499D01*
X57307500Y-145612499D01*
X57487052Y-145612499D01*
X57487053Y-145612498D01*
X57555065Y-145606319D01*
X57555073Y-145606317D01*
X57711555Y-145557556D01*
X57711565Y-145557551D01*
X57851843Y-145472751D01*
X57967751Y-145356843D01*
X58052551Y-145216565D01*
X58052556Y-145216554D01*
X58101319Y-145060070D01*
X58107500Y-144992053D01*
X58107500Y-144562500D01*
X57307500Y-144562500D01*
X57307500Y-145612499D01*
X56807500Y-145612499D01*
X56807500Y-144130560D01*
X61082500Y-144130560D01*
X61093113Y-144218943D01*
X61148579Y-144359596D01*
X61239933Y-144480062D01*
X61239937Y-144480066D01*
X61360404Y-144571420D01*
X61360403Y-144571420D01*
X61501056Y-144626886D01*
X61589439Y-144637499D01*
X61589441Y-144637500D01*
X62307500Y-144637500D01*
X62807500Y-144637500D01*
X63525559Y-144637500D01*
X63525560Y-144637499D01*
X63613943Y-144626886D01*
X63754596Y-144571420D01*
X63875062Y-144480066D01*
X63875066Y-144480062D01*
X63966420Y-144359596D01*
X64021886Y-144218943D01*
X64032499Y-144130560D01*
X64032500Y-144130558D01*
X64032500Y-143462500D01*
X62807500Y-143462500D01*
X62807500Y-144637500D01*
X62307500Y-144637500D01*
X62307500Y-143462500D01*
X61082500Y-143462500D01*
X61082500Y-144130560D01*
X56807500Y-144130560D01*
X56807500Y-144062500D01*
X57307500Y-144062500D01*
X58107499Y-144062500D01*
X58107499Y-143632948D01*
X58107498Y-143632946D01*
X58101319Y-143564934D01*
X58101319Y-143564932D01*
X58063981Y-143445109D01*
X58063980Y-143445106D01*
X58052556Y-143408445D01*
X58052551Y-143408434D01*
X57967751Y-143268156D01*
X57851843Y-143152248D01*
X57711565Y-143067448D01*
X57711554Y-143067443D01*
X57555070Y-143018680D01*
X57487053Y-143012500D01*
X57307500Y-143012500D01*
X57307500Y-144062500D01*
X56807500Y-144062500D01*
X56807500Y-143012500D01*
X56627948Y-143012500D01*
X56627946Y-143012501D01*
X56559934Y-143018680D01*
X56559926Y-143018682D01*
X56403444Y-143067443D01*
X56403434Y-143067448D01*
X56263156Y-143152248D01*
X56147244Y-143268160D01*
X56142695Y-143273967D01*
X56081034Y-143320299D01*
X56004468Y-143329593D01*
X55933513Y-143299359D01*
X55904031Y-143268494D01*
X55897177Y-143258867D01*
X55874530Y-143213204D01*
X55788146Y-143105737D01*
X55785623Y-143102193D01*
X55773615Y-143069994D01*
X55759751Y-143038547D01*
X55759195Y-143031325D01*
X55758674Y-143029926D01*
X55758958Y-143028235D01*
X55758000Y-143015771D01*
X55758000Y-142294439D01*
X61082500Y-142294439D01*
X61082500Y-142962500D01*
X62307500Y-142962500D01*
X62807500Y-142962500D01*
X64032500Y-142962500D01*
X64032500Y-142294441D01*
X64032499Y-142294439D01*
X64021886Y-142206056D01*
X63966420Y-142065403D01*
X63892601Y-141968060D01*
X65932500Y-141968060D01*
X65943113Y-142056443D01*
X65998579Y-142197096D01*
X66089933Y-142317562D01*
X66089937Y-142317566D01*
X66210404Y-142408920D01*
X66210403Y-142408920D01*
X66351056Y-142464386D01*
X66439439Y-142474999D01*
X66439441Y-142475000D01*
X66707500Y-142475000D01*
X67207500Y-142475000D01*
X67475559Y-142475000D01*
X67475560Y-142474999D01*
X67563943Y-142464386D01*
X67704596Y-142408920D01*
X67825062Y-142317566D01*
X67825066Y-142317562D01*
X67916420Y-142197096D01*
X67971886Y-142056443D01*
X67982499Y-141968060D01*
X67982500Y-141968058D01*
X67982500Y-141837500D01*
X67207500Y-141837500D01*
X67207500Y-142475000D01*
X66707500Y-142475000D01*
X66707500Y-141837500D01*
X65932500Y-141837500D01*
X65932500Y-141968060D01*
X63892601Y-141968060D01*
X63875066Y-141944937D01*
X63875062Y-141944933D01*
X63808564Y-141894505D01*
X63754595Y-141853579D01*
X63754596Y-141853579D01*
X63613943Y-141798113D01*
X63525560Y-141787500D01*
X62807500Y-141787500D01*
X62807500Y-142962500D01*
X62307500Y-142962500D01*
X62307500Y-141787500D01*
X61589439Y-141787500D01*
X61501056Y-141798113D01*
X61360403Y-141853579D01*
X61239937Y-141944933D01*
X61239933Y-141944937D01*
X61148579Y-142065403D01*
X61093113Y-142206056D01*
X61082500Y-142294439D01*
X55758000Y-142294439D01*
X55758000Y-140854500D01*
X55777962Y-140780000D01*
X55832500Y-140725462D01*
X55907000Y-140705500D01*
X64140395Y-140705500D01*
X64140402Y-140705500D01*
X64222154Y-140698845D01*
X64261731Y-140692359D01*
X64341317Y-140672576D01*
X64469749Y-140607716D01*
X64525715Y-140568562D01*
X64526804Y-140567818D01*
X64526988Y-140567671D01*
X64527000Y-140567664D01*
X64527003Y-140567662D01*
X64631959Y-140469245D01*
X65367557Y-139549748D01*
X65383386Y-139528875D01*
X65390873Y-139518452D01*
X65405567Y-139496839D01*
X65447466Y-139405094D01*
X65496572Y-139345621D01*
X65568837Y-139318668D01*
X65644897Y-139331458D01*
X65704372Y-139380565D01*
X65731325Y-139452830D01*
X65732000Y-139466993D01*
X65732000Y-139900003D01*
X65732001Y-139900008D01*
X65742501Y-140002797D01*
X65797686Y-140169334D01*
X65889788Y-140318656D01*
X66013844Y-140442712D01*
X66163166Y-140534814D01*
X66163168Y-140534814D01*
X66170552Y-140539369D01*
X66168993Y-140541895D01*
X66216372Y-140581649D01*
X66242752Y-140654126D01*
X66229359Y-140730082D01*
X66184351Y-140785836D01*
X66089937Y-140857433D01*
X66089933Y-140857437D01*
X65998579Y-140977903D01*
X65943113Y-141118556D01*
X65932500Y-141206939D01*
X65932500Y-141337500D01*
X67982500Y-141337500D01*
X67982500Y-141206941D01*
X67982499Y-141206939D01*
X67971886Y-141118556D01*
X67916420Y-140977903D01*
X67825066Y-140857437D01*
X67730648Y-140785837D01*
X67683348Y-140724915D01*
X67672847Y-140648505D01*
X67701956Y-140577081D01*
X67745855Y-140541650D01*
X67744448Y-140539369D01*
X67751831Y-140534814D01*
X67751834Y-140534814D01*
X67901156Y-140442712D01*
X68025212Y-140318656D01*
X68117314Y-140169334D01*
X68172499Y-140002797D01*
X68183000Y-139900009D01*
X68182999Y-139124992D01*
X68172499Y-139022203D01*
X68117314Y-138855666D01*
X68025212Y-138706344D01*
X67901156Y-138582288D01*
X67894019Y-138577886D01*
X67832234Y-138539776D01*
X67779306Y-138483675D01*
X67761771Y-138422647D01*
X67761039Y-138411424D01*
X67761810Y-138402459D01*
X67758535Y-138372992D01*
X67758315Y-138369600D01*
X67758488Y-138368730D01*
X67758000Y-138359913D01*
X67758000Y-138333662D01*
X67758000Y-138333658D01*
X67749313Y-138289988D01*
X67744397Y-138245739D01*
X67733968Y-138212844D01*
X67727237Y-138179003D01*
X67712641Y-138143767D01*
X67708269Y-138131781D01*
X67696744Y-138095427D01*
X67684079Y-138072428D01*
X67676941Y-138057577D01*
X67676420Y-138056319D01*
X67666894Y-138033321D01*
X67666892Y-138033318D01*
X67645702Y-138001605D01*
X67642150Y-137996290D01*
X67620681Y-137957301D01*
X67598463Y-137930906D01*
X67579289Y-137902211D01*
X67547803Y-137870725D01*
X67519133Y-137836666D01*
X67492188Y-137815110D01*
X67467789Y-137790711D01*
X67436066Y-137769514D01*
X67425791Y-137761993D01*
X66992188Y-137415110D01*
X66967789Y-137390711D01*
X66930770Y-137365976D01*
X66896003Y-137338162D01*
X66896000Y-137338160D01*
X66895998Y-137338159D01*
X66872698Y-137326077D01*
X66858514Y-137317696D01*
X66836679Y-137303106D01*
X66836676Y-137303104D01*
X66836675Y-137303104D01*
X66801442Y-137288510D01*
X66801442Y-137288509D01*
X66795529Y-137286060D01*
X66756020Y-137265572D01*
X66722882Y-137255969D01*
X66715259Y-137252812D01*
X66715250Y-137252809D01*
X66690997Y-137242763D01*
X66690994Y-137242762D01*
X66690991Y-137242761D01*
X66690989Y-137242760D01*
X66653592Y-137235321D01*
X66641196Y-137232298D01*
X66604573Y-137221686D01*
X66604559Y-137221683D01*
X66578403Y-137219437D01*
X66578403Y-137219436D01*
X66570172Y-137218729D01*
X66536342Y-137212000D01*
X66491828Y-137212000D01*
X66485459Y-137211453D01*
X66485456Y-137211453D01*
X66447461Y-137208188D01*
X66421359Y-137211089D01*
X66404906Y-137212000D01*
X65654500Y-137212000D01*
X65580000Y-137192038D01*
X65525462Y-137137500D01*
X65505500Y-137063000D01*
X65505500Y-128290000D01*
X69413354Y-128290000D01*
X69446330Y-128384240D01*
X69524644Y-128490352D01*
X69524647Y-128490355D01*
X69630759Y-128568669D01*
X69755248Y-128612229D01*
X69784785Y-128614999D01*
X69784804Y-128615000D01*
X70250000Y-128615000D01*
X70750000Y-128615000D01*
X71215196Y-128615000D01*
X71215214Y-128614999D01*
X71244751Y-128612229D01*
X71369240Y-128568669D01*
X71475352Y-128490355D01*
X71475355Y-128490352D01*
X71553669Y-128384240D01*
X71586646Y-128290000D01*
X70750000Y-128290000D01*
X70750000Y-128615000D01*
X70250000Y-128615000D01*
X70250000Y-128290000D01*
X69413354Y-128290000D01*
X65505500Y-128290000D01*
X65505500Y-127790000D01*
X69413354Y-127790000D01*
X70250000Y-127790000D01*
X70750000Y-127790000D01*
X71586646Y-127790000D01*
X71553669Y-127695759D01*
X71475355Y-127589647D01*
X71475352Y-127589644D01*
X71369240Y-127511330D01*
X71244751Y-127467770D01*
X71215214Y-127465000D01*
X70750000Y-127465000D01*
X70750000Y-127790000D01*
X70250000Y-127790000D01*
X70250000Y-127465000D01*
X69784785Y-127465000D01*
X69755248Y-127467770D01*
X69630759Y-127511330D01*
X69524647Y-127589644D01*
X69524644Y-127589647D01*
X69446330Y-127695759D01*
X69413354Y-127790000D01*
X65505500Y-127790000D01*
X65505500Y-120674614D01*
X65502236Y-120644510D01*
X65493756Y-120566289D01*
X65482367Y-120514378D01*
X65462816Y-120456155D01*
X65462488Y-120450888D01*
X65459881Y-120446299D01*
X65460112Y-120412709D01*
X65458025Y-120379180D01*
X65460375Y-120374452D01*
X65460412Y-120369173D01*
X65478194Y-120338615D01*
X65492365Y-120310118D01*
X65496297Y-120307508D01*
X65498705Y-120303371D01*
X68891789Y-116910289D01*
X68915979Y-116874086D01*
X68979394Y-116779179D01*
X69039737Y-116633497D01*
X69070500Y-116478842D01*
X69070500Y-116349500D01*
X69090462Y-116275000D01*
X69145000Y-116220462D01*
X69219500Y-116200500D01*
X69598842Y-116200500D01*
X69753497Y-116169737D01*
X69899179Y-116109394D01*
X70030289Y-116021789D01*
X71041789Y-115010289D01*
X71054119Y-114991836D01*
X71076951Y-114957666D01*
X71129393Y-114879181D01*
X71129393Y-114879180D01*
X71129394Y-114879179D01*
X71189737Y-114733497D01*
X71196499Y-114699501D01*
X71220500Y-114578843D01*
X71220500Y-114421158D01*
X71220500Y-110940069D01*
X71240462Y-110865569D01*
X71295000Y-110811031D01*
X71322631Y-110798632D01*
X71364334Y-110784814D01*
X71513655Y-110692711D01*
X71595141Y-110611225D01*
X71661936Y-110572661D01*
X71739064Y-110572661D01*
X71805859Y-110611225D01*
X71844423Y-110678020D01*
X71849500Y-110716584D01*
X71849500Y-114627414D01*
X71829538Y-114701914D01*
X71805859Y-114732773D01*
X66017050Y-120521582D01*
X66017049Y-120521582D01*
X66017048Y-120521584D01*
X65989105Y-120563406D01*
X65989100Y-120563413D01*
X65989099Y-120563413D01*
X65934921Y-120644495D01*
X65934913Y-120644510D01*
X65878341Y-120781088D01*
X65849500Y-120926078D01*
X65849500Y-125173921D01*
X65878341Y-125318912D01*
X65878342Y-125318914D01*
X65934912Y-125455487D01*
X65934914Y-125455491D01*
X65934916Y-125455495D01*
X65957274Y-125488956D01*
X65957275Y-125488959D01*
X66017043Y-125578410D01*
X66017047Y-125578415D01*
X66017048Y-125578416D01*
X66521584Y-126082951D01*
X66543375Y-126097511D01*
X66644502Y-126165083D01*
X66675444Y-126177899D01*
X66781087Y-126221658D01*
X66926082Y-126250500D01*
X67073917Y-126250500D01*
X69639441Y-126250500D01*
X69681010Y-126256415D01*
X69734076Y-126271833D01*
X69736899Y-126272653D01*
X69736898Y-126272653D01*
X69736902Y-126272654D01*
X69773065Y-126275500D01*
X71226934Y-126275499D01*
X71263098Y-126272654D01*
X71417894Y-126227681D01*
X71556643Y-126145626D01*
X71670626Y-126031643D01*
X71752681Y-125892894D01*
X71797654Y-125738098D01*
X71800500Y-125701935D01*
X71800499Y-125298066D01*
X71797654Y-125261902D01*
X71752681Y-125107106D01*
X71670626Y-124968357D01*
X71556643Y-124854374D01*
X71513757Y-124829012D01*
X71417893Y-124772318D01*
X71263106Y-124727347D01*
X71263101Y-124727346D01*
X71253235Y-124726569D01*
X71226935Y-124724500D01*
X71226927Y-124724500D01*
X69773077Y-124724500D01*
X69773059Y-124724501D01*
X69736906Y-124727345D01*
X69736899Y-124727346D01*
X69681010Y-124743584D01*
X69639441Y-124749500D01*
X67499500Y-124749500D01*
X67425000Y-124729538D01*
X67370462Y-124675000D01*
X67350500Y-124600500D01*
X67350500Y-121372585D01*
X67370462Y-121298085D01*
X67394141Y-121267226D01*
X68654755Y-120006612D01*
X73182951Y-115478416D01*
X73265084Y-115355495D01*
X73321658Y-115218913D01*
X73350500Y-115073918D01*
X73350500Y-114926083D01*
X73350500Y-100389778D01*
X74399506Y-100389778D01*
X74399506Y-100610222D01*
X74412107Y-100689781D01*
X74433991Y-100827956D01*
X74502111Y-101037606D01*
X74602191Y-101234023D01*
X74602192Y-101234024D01*
X74650599Y-101300650D01*
X74731764Y-101412365D01*
X74887641Y-101568242D01*
X75030631Y-101672129D01*
X75065981Y-101697813D01*
X75065982Y-101697814D01*
X75065984Y-101697815D01*
X75262400Y-101797895D01*
X75349518Y-101826201D01*
X75472049Y-101866014D01*
X75472054Y-101866014D01*
X75472055Y-101866015D01*
X75689784Y-101900500D01*
X75689788Y-101900500D01*
X75910224Y-101900500D01*
X75910228Y-101900500D01*
X76127957Y-101866015D01*
X76127958Y-101866014D01*
X76127962Y-101866014D01*
X76208562Y-101839825D01*
X76337612Y-101797895D01*
X76534028Y-101697815D01*
X76712371Y-101568242D01*
X76868248Y-101412365D01*
X76997821Y-101234022D01*
X77097901Y-101037606D01*
X77157734Y-100853454D01*
X77199740Y-100788772D01*
X77268462Y-100753756D01*
X77299441Y-100750500D01*
X77670409Y-100750500D01*
X77744909Y-100770462D01*
X77797225Y-100821278D01*
X77857288Y-100918656D01*
X77981344Y-101042712D01*
X78130666Y-101134814D01*
X78297203Y-101189999D01*
X78399991Y-101200500D01*
X79200008Y-101200499D01*
X79302797Y-101189999D01*
X79469334Y-101134814D01*
X79618656Y-101042712D01*
X79694641Y-100966727D01*
X79761436Y-100928163D01*
X79838564Y-100928163D01*
X79905359Y-100966727D01*
X79981344Y-101042712D01*
X80130666Y-101134814D01*
X80297203Y-101189999D01*
X80399991Y-101200500D01*
X81200008Y-101200499D01*
X81302797Y-101189999D01*
X81469334Y-101134814D01*
X81618656Y-101042712D01*
X81742712Y-100918656D01*
X81781186Y-100856278D01*
X81807715Y-100831249D01*
X81833503Y-100805462D01*
X81835661Y-100804883D01*
X81837287Y-100803350D01*
X81908003Y-100785500D01*
X82120501Y-100785500D01*
X82195001Y-100805462D01*
X82249539Y-100860000D01*
X82269501Y-100934500D01*
X82269501Y-101082863D01*
X82269502Y-101082888D01*
X82275908Y-101142478D01*
X82275909Y-101142484D01*
X82326202Y-101277329D01*
X82326204Y-101277333D01*
X82412452Y-101392544D01*
X82412455Y-101392547D01*
X82527666Y-101478795D01*
X82527670Y-101478797D01*
X82662517Y-101529091D01*
X82722114Y-101535499D01*
X82722118Y-101535499D01*
X82722127Y-101535500D01*
X84597872Y-101535499D01*
X84657483Y-101529091D01*
X84753447Y-101493298D01*
X84792329Y-101478797D01*
X84792333Y-101478795D01*
X84881074Y-101412363D01*
X84907546Y-101392546D01*
X84953148Y-101331629D01*
X85013773Y-101283953D01*
X85090116Y-101272977D01*
X85132610Y-101284618D01*
X85240128Y-101332091D01*
X85265204Y-101334999D01*
X85950000Y-101334999D01*
X85950000Y-98735000D01*
X86450000Y-98735000D01*
X86450000Y-101334999D01*
X87134795Y-101334999D01*
X87159874Y-101332090D01*
X87159877Y-101332089D01*
X87267388Y-101284619D01*
X87343603Y-101272788D01*
X87415523Y-101300650D01*
X87446852Y-101331630D01*
X87492452Y-101392544D01*
X87492455Y-101392547D01*
X87607666Y-101478795D01*
X87607670Y-101478797D01*
X87742517Y-101529091D01*
X87802114Y-101535499D01*
X87802118Y-101535499D01*
X87802127Y-101535500D01*
X89677872Y-101535499D01*
X89737483Y-101529091D01*
X89833447Y-101493298D01*
X89872329Y-101478797D01*
X89872333Y-101478795D01*
X89961074Y-101412363D01*
X89987546Y-101392546D01*
X90033148Y-101331630D01*
X90073795Y-101277333D01*
X90073797Y-101277329D01*
X90106369Y-101189998D01*
X90124091Y-101142483D01*
X90125823Y-101126370D01*
X90130499Y-101082885D01*
X90130499Y-101082882D01*
X90130500Y-101082873D01*
X90130499Y-98987128D01*
X90124091Y-98927517D01*
X90100843Y-98865186D01*
X90073797Y-98792670D01*
X90073795Y-98792666D01*
X89987547Y-98677455D01*
X89987544Y-98677452D01*
X89872333Y-98591204D01*
X89872329Y-98591202D01*
X89737482Y-98540908D01*
X89677876Y-98534500D01*
X87802136Y-98534500D01*
X87802111Y-98534502D01*
X87742521Y-98540908D01*
X87742515Y-98540909D01*
X87607670Y-98591202D01*
X87607666Y-98591204D01*
X87492455Y-98677452D01*
X87446852Y-98738370D01*
X87386224Y-98786047D01*
X87309881Y-98797022D01*
X87267389Y-98785381D01*
X87159871Y-98737908D01*
X87134796Y-98735000D01*
X86450000Y-98735000D01*
X85950000Y-98735000D01*
X85265205Y-98735000D01*
X85240125Y-98737909D01*
X85132610Y-98785381D01*
X85056394Y-98797211D01*
X84984475Y-98769348D01*
X84953147Y-98738369D01*
X84907547Y-98677455D01*
X84907544Y-98677452D01*
X84792333Y-98591204D01*
X84792329Y-98591202D01*
X84657482Y-98540908D01*
X84597876Y-98534500D01*
X82722136Y-98534500D01*
X82722111Y-98534502D01*
X82662521Y-98540908D01*
X82662515Y-98540909D01*
X82527670Y-98591202D01*
X82527666Y-98591204D01*
X82412455Y-98677452D01*
X82412452Y-98677455D01*
X82326204Y-98792666D01*
X82326202Y-98792670D01*
X82275908Y-98927517D01*
X82269500Y-98987114D01*
X82269500Y-99135500D01*
X82249538Y-99210000D01*
X82195000Y-99264538D01*
X82120500Y-99284500D01*
X81951179Y-99284500D01*
X81876679Y-99264538D01*
X81824362Y-99213721D01*
X81742712Y-99081344D01*
X81618656Y-98957288D01*
X81469334Y-98865186D01*
X81386065Y-98837593D01*
X81302798Y-98810001D01*
X81285665Y-98808250D01*
X81200009Y-98799500D01*
X81200004Y-98799500D01*
X80399996Y-98799500D01*
X80297202Y-98810001D01*
X80130666Y-98865186D01*
X79981343Y-98957288D01*
X79905359Y-99033273D01*
X79838564Y-99071837D01*
X79761436Y-99071837D01*
X79694641Y-99033273D01*
X79618656Y-98957288D01*
X79469334Y-98865186D01*
X79386065Y-98837593D01*
X79302798Y-98810001D01*
X79285665Y-98808250D01*
X79200009Y-98799500D01*
X79200004Y-98799500D01*
X78399996Y-98799500D01*
X78297202Y-98810001D01*
X78130666Y-98865186D01*
X77981343Y-98957288D01*
X77857288Y-99081343D01*
X77797226Y-99178721D01*
X77741125Y-99231650D01*
X77670409Y-99249500D01*
X76466402Y-99249500D01*
X76398757Y-99233260D01*
X76337612Y-99202105D01*
X76127962Y-99133985D01*
X76006996Y-99114826D01*
X75910228Y-99099500D01*
X75689784Y-99099500D01*
X75602692Y-99113294D01*
X75472049Y-99133985D01*
X75262399Y-99202105D01*
X75065982Y-99302185D01*
X75065981Y-99302186D01*
X74887642Y-99431757D01*
X74887639Y-99431759D01*
X74731765Y-99587633D01*
X74731763Y-99587636D01*
X74602192Y-99765975D01*
X74602191Y-99765976D01*
X74502111Y-99962393D01*
X74433991Y-100172043D01*
X74411001Y-100317201D01*
X74399506Y-100389778D01*
X73350500Y-100389778D01*
X73350500Y-97192585D01*
X73370462Y-97118085D01*
X73394141Y-97087226D01*
X73735289Y-96746078D01*
X74108484Y-96372882D01*
X74175277Y-96334320D01*
X74237147Y-96331077D01*
X74359778Y-96350500D01*
X74359783Y-96350500D01*
X74580218Y-96350500D01*
X74580222Y-96350500D01*
X74797951Y-96316015D01*
X74797952Y-96316014D01*
X74797956Y-96316014D01*
X75007609Y-96247894D01*
X75162262Y-96169093D01*
X75237705Y-96153056D01*
X75311058Y-96176889D01*
X75362667Y-96234206D01*
X75378704Y-96309649D01*
X75354871Y-96383002D01*
X75350452Y-96389432D01*
X75222186Y-96565975D01*
X75222185Y-96565976D01*
X75122105Y-96762393D01*
X75053985Y-96972043D01*
X75033373Y-97102185D01*
X75019500Y-97189778D01*
X75019500Y-97410222D01*
X75034826Y-97506990D01*
X75053985Y-97627956D01*
X75122105Y-97837606D01*
X75222185Y-98034023D01*
X75222186Y-98034024D01*
X75247050Y-98068246D01*
X75351758Y-98212365D01*
X75507635Y-98368242D01*
X75633930Y-98460000D01*
X75685975Y-98497813D01*
X75685976Y-98497814D01*
X75685978Y-98497815D01*
X75882394Y-98597895D01*
X75969512Y-98626201D01*
X76092043Y-98666014D01*
X76092048Y-98666014D01*
X76092049Y-98666015D01*
X76309778Y-98700500D01*
X76309782Y-98700500D01*
X76530218Y-98700500D01*
X76530222Y-98700500D01*
X76747951Y-98666015D01*
X76747952Y-98666014D01*
X76747956Y-98666014D01*
X76828556Y-98639825D01*
X76957606Y-98597895D01*
X77154022Y-98497815D01*
X77332365Y-98368242D01*
X77488242Y-98212365D01*
X77617815Y-98034022D01*
X77717895Y-97837606D01*
X77786015Y-97627951D01*
X77810051Y-97476189D01*
X77841422Y-97405731D01*
X77903820Y-97360397D01*
X77957217Y-97350500D01*
X96070409Y-97350500D01*
X96144909Y-97370462D01*
X96197225Y-97421278D01*
X96257288Y-97518656D01*
X96381344Y-97642712D01*
X96530666Y-97734814D01*
X96697203Y-97789999D01*
X96799991Y-97800500D01*
X97600008Y-97800499D01*
X97702797Y-97789999D01*
X97869334Y-97734814D01*
X98018656Y-97642712D01*
X98094641Y-97566727D01*
X98161436Y-97528163D01*
X98238564Y-97528163D01*
X98305359Y-97566727D01*
X98381344Y-97642712D01*
X98530666Y-97734814D01*
X98697203Y-97789999D01*
X98799991Y-97800500D01*
X99600008Y-97800499D01*
X99702797Y-97789999D01*
X99869334Y-97734814D01*
X100018656Y-97642712D01*
X100142712Y-97518656D01*
X100202774Y-97421278D01*
X100258875Y-97368350D01*
X100329591Y-97350500D01*
X102027414Y-97350500D01*
X102101914Y-97370462D01*
X102132773Y-97394141D01*
X102665859Y-97927226D01*
X102704423Y-97994021D01*
X102709500Y-98032585D01*
X102709500Y-98385500D01*
X102689538Y-98460000D01*
X102635000Y-98514538D01*
X102560504Y-98534500D01*
X102522138Y-98534500D01*
X102522111Y-98534502D01*
X102462521Y-98540908D01*
X102462515Y-98540909D01*
X102327670Y-98591202D01*
X102327666Y-98591204D01*
X102212455Y-98677452D01*
X102212452Y-98677455D01*
X102126204Y-98792666D01*
X102126202Y-98792670D01*
X102075908Y-98927517D01*
X102069500Y-98987114D01*
X102069500Y-101082863D01*
X102069502Y-101082888D01*
X102075908Y-101142478D01*
X102075909Y-101142484D01*
X102126202Y-101277329D01*
X102126204Y-101277333D01*
X102212452Y-101392544D01*
X102212455Y-101392547D01*
X102327666Y-101478795D01*
X102327670Y-101478797D01*
X102462517Y-101529091D01*
X102522114Y-101535499D01*
X102522118Y-101535499D01*
X102522127Y-101535500D01*
X104397872Y-101535499D01*
X104457483Y-101529091D01*
X104553447Y-101493298D01*
X104592329Y-101478797D01*
X104592333Y-101478795D01*
X104681074Y-101412363D01*
X104707546Y-101392546D01*
X104753148Y-101331629D01*
X104813773Y-101283953D01*
X104890116Y-101272977D01*
X104932610Y-101284618D01*
X105040128Y-101332091D01*
X105065204Y-101334999D01*
X105750000Y-101334999D01*
X105750000Y-98735000D01*
X106250000Y-98735000D01*
X106250000Y-101334999D01*
X106934795Y-101334999D01*
X106959874Y-101332090D01*
X106959877Y-101332089D01*
X107067388Y-101284619D01*
X107143603Y-101272788D01*
X107215523Y-101300650D01*
X107246852Y-101331630D01*
X107292452Y-101392544D01*
X107292455Y-101392547D01*
X107407666Y-101478795D01*
X107407670Y-101478797D01*
X107542517Y-101529091D01*
X107602114Y-101535499D01*
X107602118Y-101535499D01*
X107602127Y-101535500D01*
X109477872Y-101535499D01*
X109537483Y-101529091D01*
X109633447Y-101493298D01*
X109672329Y-101478797D01*
X109672333Y-101478795D01*
X109761074Y-101412363D01*
X109787546Y-101392546D01*
X109833148Y-101331630D01*
X109873795Y-101277333D01*
X109873797Y-101277329D01*
X109906369Y-101189998D01*
X109924091Y-101142483D01*
X109925823Y-101126370D01*
X109930499Y-101082885D01*
X109930499Y-101082882D01*
X109930500Y-101082873D01*
X109930499Y-98987128D01*
X109924091Y-98927517D01*
X109900843Y-98865186D01*
X109873797Y-98792670D01*
X109873795Y-98792666D01*
X109787547Y-98677455D01*
X109787544Y-98677452D01*
X109672333Y-98591204D01*
X109672329Y-98591202D01*
X109537482Y-98540908D01*
X109477876Y-98534500D01*
X107602136Y-98534500D01*
X107602111Y-98534502D01*
X107542521Y-98540908D01*
X107542515Y-98540909D01*
X107407670Y-98591202D01*
X107407666Y-98591204D01*
X107292455Y-98677452D01*
X107246852Y-98738370D01*
X107186224Y-98786047D01*
X107109881Y-98797022D01*
X107067389Y-98785381D01*
X106959871Y-98737908D01*
X106934796Y-98735000D01*
X106250000Y-98735000D01*
X105750000Y-98735000D01*
X105065205Y-98735000D01*
X105040125Y-98737909D01*
X104932610Y-98785381D01*
X104856394Y-98797211D01*
X104784475Y-98769348D01*
X104753147Y-98738369D01*
X104707547Y-98677455D01*
X104707544Y-98677452D01*
X104592333Y-98591204D01*
X104592329Y-98591202D01*
X104457482Y-98540908D01*
X104397885Y-98534500D01*
X104397873Y-98534500D01*
X104359500Y-98534500D01*
X104285000Y-98514538D01*
X104230462Y-98460000D01*
X104210500Y-98385500D01*
X104210500Y-97586086D01*
X104210499Y-97586078D01*
X104206500Y-97565976D01*
X104181658Y-97441087D01*
X104125084Y-97304505D01*
X104125083Y-97304502D01*
X104070231Y-97222411D01*
X104042951Y-97181584D01*
X103938416Y-97077049D01*
X102878416Y-96017048D01*
X102878415Y-96017047D01*
X102878410Y-96017043D01*
X102804729Y-95967812D01*
X102804728Y-95967812D01*
X102755497Y-95934917D01*
X102753247Y-95933985D01*
X102618913Y-95878342D01*
X102618911Y-95878341D01*
X102618912Y-95878341D01*
X102473921Y-95849500D01*
X102473918Y-95849500D01*
X100329591Y-95849500D01*
X100255091Y-95829538D01*
X100202774Y-95778721D01*
X100142712Y-95681344D01*
X100018656Y-95557288D01*
X99869334Y-95465186D01*
X99758367Y-95428415D01*
X99702798Y-95410001D01*
X99685665Y-95408250D01*
X99600009Y-95399500D01*
X99600004Y-95399500D01*
X98799996Y-95399500D01*
X98697202Y-95410001D01*
X98530666Y-95465186D01*
X98381343Y-95557288D01*
X98305359Y-95633273D01*
X98238564Y-95671837D01*
X98161436Y-95671837D01*
X98094641Y-95633273D01*
X98018656Y-95557288D01*
X97986746Y-95537606D01*
X97869334Y-95465186D01*
X97758367Y-95428415D01*
X97702798Y-95410001D01*
X97685665Y-95408250D01*
X97600009Y-95399500D01*
X97600004Y-95399500D01*
X96799996Y-95399500D01*
X96697202Y-95410001D01*
X96530666Y-95465186D01*
X96381343Y-95557288D01*
X96257288Y-95681343D01*
X96224795Y-95734024D01*
X96198854Y-95776082D01*
X96197226Y-95778721D01*
X96141125Y-95831650D01*
X96070409Y-95849500D01*
X77046078Y-95849500D01*
X76901088Y-95878341D01*
X76800373Y-95920058D01*
X76723905Y-95930124D01*
X76720047Y-95929565D01*
X76643730Y-95917478D01*
X76530222Y-95899500D01*
X76309778Y-95899500D01*
X76228552Y-95912365D01*
X76092043Y-95933985D01*
X75882393Y-96002105D01*
X75727736Y-96080907D01*
X75652293Y-96096943D01*
X75578940Y-96073109D01*
X75527331Y-96015792D01*
X75511295Y-95940349D01*
X75535129Y-95866996D01*
X75539548Y-95860567D01*
X75560558Y-95831650D01*
X75667815Y-95684022D01*
X75767895Y-95487606D01*
X75819768Y-95327956D01*
X75836014Y-95277956D01*
X75845580Y-95217558D01*
X75870500Y-95060222D01*
X75870500Y-94839778D01*
X75836015Y-94622049D01*
X75836014Y-94622048D01*
X75836014Y-94622043D01*
X75796201Y-94499512D01*
X75767895Y-94412394D01*
X75667815Y-94215978D01*
X75538242Y-94037635D01*
X75382365Y-93881758D01*
X75272842Y-93802185D01*
X75204024Y-93752186D01*
X75204023Y-93752185D01*
X75007606Y-93652105D01*
X74820181Y-93591207D01*
X74755496Y-93549201D01*
X74720480Y-93480479D01*
X74724517Y-93403457D01*
X74766523Y-93338772D01*
X74835245Y-93303756D01*
X74866224Y-93300500D01*
X90548842Y-93300500D01*
X90703497Y-93269737D01*
X90849179Y-93209394D01*
X90980289Y-93121789D01*
X93157937Y-90944141D01*
X93224732Y-90905577D01*
X93263296Y-90900500D01*
X108998842Y-90900500D01*
X109153497Y-90869737D01*
X109299179Y-90809394D01*
X109430289Y-90721789D01*
X112019527Y-88132549D01*
X112086320Y-88093987D01*
X112148190Y-88090745D01*
X112209778Y-88100500D01*
X112209779Y-88100500D01*
X112430218Y-88100500D01*
X112430222Y-88100500D01*
X112647951Y-88066015D01*
X112647952Y-88066014D01*
X112647956Y-88066014D01*
X112728556Y-88039825D01*
X112857606Y-87997895D01*
X113054022Y-87897815D01*
X113232365Y-87768242D01*
X113388242Y-87612365D01*
X113517815Y-87434022D01*
X113617895Y-87237606D01*
X113659825Y-87108556D01*
X113686014Y-87027956D01*
X113690367Y-87000473D01*
X113720500Y-86810222D01*
X113720500Y-86589778D01*
X113686015Y-86372049D01*
X113686014Y-86372048D01*
X113686014Y-86372043D01*
X113645780Y-86248216D01*
X113617895Y-86162394D01*
X113517815Y-85965978D01*
X113482887Y-85917904D01*
X113448956Y-85871200D01*
X113421316Y-85799195D01*
X113420500Y-85783621D01*
X113420500Y-68902114D01*
X113819500Y-68902114D01*
X113819500Y-71097863D01*
X113819502Y-71097888D01*
X113825908Y-71157478D01*
X113825909Y-71157484D01*
X113876202Y-71292329D01*
X113876204Y-71292333D01*
X113962452Y-71407544D01*
X113962455Y-71407547D01*
X114048117Y-71471674D01*
X114095794Y-71532301D01*
X114106770Y-71608644D01*
X114079369Y-71678532D01*
X114043898Y-71727354D01*
X114043895Y-71727358D01*
X114043894Y-71727361D01*
X114014621Y-71784813D01*
X113933098Y-71944809D01*
X113933094Y-71944821D01*
X113916907Y-71994641D01*
X113857679Y-72176924D01*
X113819500Y-72417973D01*
X113819500Y-72662027D01*
X113857679Y-72903076D01*
X113933096Y-73135185D01*
X113933100Y-73135194D01*
X113933101Y-73135195D01*
X113976879Y-73221115D01*
X114043894Y-73352639D01*
X114180099Y-73540110D01*
X114187344Y-73550081D01*
X114187346Y-73550084D01*
X114341903Y-73704641D01*
X114380467Y-73771436D01*
X114380467Y-73848564D01*
X114341903Y-73915359D01*
X114187346Y-74069915D01*
X114187344Y-74069918D01*
X114043895Y-74267358D01*
X114043892Y-74267364D01*
X113933101Y-74484804D01*
X113933094Y-74484821D01*
X113867276Y-74687389D01*
X113857679Y-74716924D01*
X113819500Y-74957973D01*
X113819500Y-75202027D01*
X113857679Y-75443076D01*
X113933096Y-75675185D01*
X113933100Y-75675194D01*
X113933101Y-75675195D01*
X114043892Y-75892635D01*
X114043895Y-75892641D01*
X114187344Y-76090081D01*
X114187346Y-76090084D01*
X114341903Y-76244641D01*
X114380467Y-76311436D01*
X114380467Y-76388564D01*
X114341903Y-76455359D01*
X114187346Y-76609915D01*
X114187344Y-76609918D01*
X114043895Y-76807358D01*
X114043892Y-76807364D01*
X113933101Y-77024804D01*
X113933098Y-77024810D01*
X113933096Y-77024815D01*
X113857679Y-77256924D01*
X113819500Y-77497973D01*
X113819500Y-77742027D01*
X113857679Y-77983076D01*
X113933096Y-78215185D01*
X113933100Y-78215194D01*
X113933101Y-78215195D01*
X114043892Y-78432635D01*
X114043895Y-78432641D01*
X114187344Y-78630081D01*
X114187346Y-78630084D01*
X114341903Y-78784641D01*
X114380467Y-78851436D01*
X114380467Y-78928564D01*
X114341903Y-78995359D01*
X114187346Y-79149915D01*
X114187344Y-79149918D01*
X114043895Y-79347358D01*
X114043892Y-79347364D01*
X113933101Y-79564804D01*
X113933094Y-79564821D01*
X113863151Y-79780084D01*
X113857679Y-79796924D01*
X113819500Y-80037973D01*
X113819500Y-80282027D01*
X113857679Y-80523076D01*
X113933096Y-80755185D01*
X114043894Y-80972639D01*
X114187345Y-81170083D01*
X114359917Y-81342655D01*
X114484860Y-81433431D01*
X114533398Y-81493371D01*
X114545464Y-81569550D01*
X114517824Y-81641555D01*
X114494058Y-81667267D01*
X114490538Y-81670273D01*
X114340279Y-81820532D01*
X114340277Y-81820535D01*
X114215378Y-81992443D01*
X114215378Y-81992444D01*
X114118906Y-82181777D01*
X114053244Y-82383863D01*
X114053242Y-82383871D01*
X114042769Y-82450000D01*
X114879252Y-82450000D01*
X114857482Y-82487708D01*
X114820000Y-82627591D01*
X114820000Y-82772409D01*
X114857482Y-82912292D01*
X114879252Y-82950000D01*
X114042769Y-82950000D01*
X114053242Y-83016128D01*
X114053244Y-83016136D01*
X114118906Y-83218222D01*
X114215378Y-83407555D01*
X114215378Y-83407556D01*
X114340277Y-83579464D01*
X114340279Y-83579467D01*
X114490532Y-83729720D01*
X114490535Y-83729722D01*
X114662444Y-83854621D01*
X114851777Y-83951093D01*
X115053863Y-84016755D01*
X115053871Y-84016757D01*
X115120000Y-84027230D01*
X115120000Y-83190747D01*
X115157708Y-83212518D01*
X115297591Y-83250000D01*
X115442409Y-83250000D01*
X115582292Y-83212518D01*
X115620000Y-83190747D01*
X115620000Y-84027230D01*
X115686128Y-84016757D01*
X115686136Y-84016755D01*
X115888222Y-83951093D01*
X116077555Y-83854621D01*
X116077556Y-83854621D01*
X116249464Y-83729722D01*
X116249467Y-83729720D01*
X116399720Y-83579467D01*
X116399722Y-83579464D01*
X116524621Y-83407556D01*
X116524621Y-83407555D01*
X116621093Y-83218222D01*
X116686755Y-83016136D01*
X116686757Y-83016128D01*
X116697231Y-82950000D01*
X115860748Y-82950000D01*
X115882518Y-82912292D01*
X115920000Y-82772409D01*
X115920000Y-82627591D01*
X115882518Y-82487708D01*
X115860748Y-82450000D01*
X116697230Y-82450000D01*
X116686757Y-82383871D01*
X116686755Y-82383863D01*
X116621093Y-82181777D01*
X116524621Y-81992444D01*
X116524621Y-81992443D01*
X116399722Y-81820535D01*
X116399720Y-81820532D01*
X116249464Y-81670276D01*
X116245948Y-81667273D01*
X116202264Y-81603708D01*
X116196215Y-81526818D01*
X116229421Y-81457204D01*
X116255140Y-81433431D01*
X116257073Y-81432027D01*
X116380083Y-81342655D01*
X116552655Y-81170083D01*
X116696106Y-80972639D01*
X116806904Y-80755185D01*
X116882321Y-80523076D01*
X116920500Y-80282027D01*
X116920500Y-80037973D01*
X116882321Y-79796924D01*
X116806904Y-79564815D01*
X116696106Y-79347361D01*
X116552655Y-79149917D01*
X116398097Y-78995359D01*
X116359533Y-78928564D01*
X116359533Y-78851436D01*
X116398097Y-78784641D01*
X116407560Y-78775178D01*
X116552655Y-78630083D01*
X116696106Y-78432639D01*
X116806904Y-78215185D01*
X116882321Y-77983076D01*
X116920500Y-77742027D01*
X116920500Y-77497973D01*
X116882321Y-77256924D01*
X116806904Y-77024815D01*
X116696106Y-76807361D01*
X116552655Y-76609917D01*
X116398097Y-76455359D01*
X116359533Y-76388564D01*
X116359533Y-76311436D01*
X116398097Y-76244641D01*
X116416610Y-76226128D01*
X116552655Y-76090083D01*
X116696106Y-75892639D01*
X116806904Y-75675185D01*
X116882321Y-75443076D01*
X116920500Y-75202027D01*
X116920500Y-74957973D01*
X116882321Y-74716924D01*
X116806904Y-74484815D01*
X116696106Y-74267361D01*
X116552655Y-74069917D01*
X116398097Y-73915359D01*
X116359533Y-73848564D01*
X116359533Y-73771436D01*
X116398097Y-73704641D01*
X116452738Y-73650000D01*
X116552655Y-73550083D01*
X116696106Y-73352639D01*
X116806904Y-73135185D01*
X116882321Y-72903076D01*
X116920500Y-72662027D01*
X116920500Y-72417973D01*
X116882321Y-72176924D01*
X116806904Y-71944815D01*
X116696106Y-71727361D01*
X116696101Y-71727354D01*
X116696099Y-71727350D01*
X116660632Y-71678534D01*
X116632991Y-71606529D01*
X116645057Y-71530351D01*
X116691882Y-71471674D01*
X116692410Y-71471279D01*
X116777546Y-71407546D01*
X116846766Y-71315080D01*
X116863795Y-71292333D01*
X116863797Y-71292329D01*
X116897418Y-71202185D01*
X116914091Y-71157483D01*
X116917216Y-71128416D01*
X116920499Y-71097885D01*
X116920499Y-71097882D01*
X116920500Y-71097873D01*
X116920499Y-68902128D01*
X116914091Y-68842517D01*
X116894473Y-68789918D01*
X116863797Y-68707670D01*
X116863795Y-68707666D01*
X116777547Y-68592455D01*
X116777544Y-68592452D01*
X116662333Y-68506204D01*
X116662329Y-68506202D01*
X116527482Y-68455908D01*
X116467876Y-68449500D01*
X114272136Y-68449500D01*
X114272111Y-68449502D01*
X114212521Y-68455908D01*
X114212515Y-68455909D01*
X114077670Y-68506202D01*
X114077666Y-68506204D01*
X113962455Y-68592452D01*
X113962452Y-68592455D01*
X113876204Y-68707666D01*
X113876202Y-68707670D01*
X113825908Y-68842517D01*
X113819500Y-68902114D01*
X113420500Y-68902114D01*
X113420500Y-67421157D01*
X113401514Y-67325709D01*
X113389737Y-67266503D01*
X113329394Y-67120821D01*
X113241789Y-66989711D01*
X113241785Y-66989707D01*
X113237722Y-66983626D01*
X113238995Y-66982775D01*
X113210738Y-66920411D01*
X113210583Y-66872833D01*
X113220500Y-66810222D01*
X113220500Y-66589778D01*
X113186015Y-66372049D01*
X113186014Y-66372048D01*
X113186014Y-66372043D01*
X113130824Y-66202186D01*
X113117895Y-66162394D01*
X113017815Y-65965978D01*
X112888242Y-65787635D01*
X112732365Y-65631758D01*
X112643193Y-65566971D01*
X112554024Y-65502186D01*
X112554023Y-65502185D01*
X112357606Y-65402105D01*
X112147956Y-65333985D01*
X112026990Y-65314826D01*
X111930222Y-65299500D01*
X111709778Y-65299500D01*
X111622686Y-65313294D01*
X111492043Y-65333985D01*
X111282393Y-65402105D01*
X111085976Y-65502185D01*
X111085975Y-65502186D01*
X110907636Y-65631757D01*
X110907633Y-65631759D01*
X110751759Y-65787633D01*
X110751757Y-65787636D01*
X110622186Y-65965975D01*
X110622185Y-65965976D01*
X110522105Y-66162393D01*
X110453985Y-66372043D01*
X110435678Y-66487633D01*
X110419500Y-66589778D01*
X110419500Y-66810222D01*
X110429416Y-66872827D01*
X110453985Y-67027956D01*
X110522105Y-67237606D01*
X110622185Y-67434023D01*
X110622186Y-67434024D01*
X110677544Y-67510218D01*
X110751758Y-67612365D01*
X110907635Y-67768242D01*
X110980251Y-67821000D01*
X111085975Y-67897813D01*
X111085976Y-67897814D01*
X111085978Y-67897815D01*
X111282394Y-67997895D01*
X111369512Y-68026201D01*
X111492043Y-68066014D01*
X111492048Y-68066014D01*
X111492049Y-68066015D01*
X111693810Y-68097970D01*
X111764269Y-68129341D01*
X111809603Y-68191739D01*
X111819500Y-68245136D01*
X111819500Y-71416175D01*
X111799538Y-71490675D01*
X111745000Y-71545213D01*
X111670500Y-71565175D01*
X111596000Y-71545213D01*
X111549957Y-71503756D01*
X111538247Y-71487639D01*
X111538242Y-71487633D01*
X111382368Y-71331759D01*
X111382367Y-71331758D01*
X111293195Y-71266971D01*
X111204026Y-71202186D01*
X111204025Y-71202185D01*
X111007608Y-71102105D01*
X110797958Y-71033985D01*
X110676992Y-71014826D01*
X110580224Y-70999500D01*
X110359780Y-70999500D01*
X110272688Y-71013294D01*
X110142045Y-71033985D01*
X109932395Y-71102105D01*
X109735978Y-71202185D01*
X109735977Y-71202186D01*
X109557638Y-71331757D01*
X109557635Y-71331759D01*
X109401761Y-71487633D01*
X109401759Y-71487636D01*
X109272188Y-71665975D01*
X109272187Y-71665976D01*
X109172107Y-71862393D01*
X109103987Y-72072043D01*
X109083385Y-72202124D01*
X109069502Y-72289778D01*
X109069502Y-72510222D01*
X109076968Y-72557358D01*
X109103987Y-72727956D01*
X109172107Y-72937606D01*
X109272187Y-73134023D01*
X109272188Y-73134024D01*
X109335463Y-73221115D01*
X109401760Y-73312365D01*
X109557637Y-73468242D01*
X109658082Y-73541219D01*
X109706620Y-73601159D01*
X109719502Y-73661763D01*
X109719502Y-85077412D01*
X109699540Y-85151912D01*
X109675861Y-85182771D01*
X107052773Y-87805859D01*
X106985978Y-87844423D01*
X106947414Y-87849500D01*
X91381763Y-87849500D01*
X91307263Y-87829538D01*
X91261219Y-87788080D01*
X91246806Y-87768242D01*
X91188242Y-87687635D01*
X91032365Y-87531758D01*
X90897842Y-87434022D01*
X90854024Y-87402186D01*
X90854023Y-87402185D01*
X90657606Y-87302105D01*
X90447956Y-87233985D01*
X90326990Y-87214826D01*
X90230222Y-87199500D01*
X90009778Y-87199500D01*
X89922686Y-87213294D01*
X89792043Y-87233985D01*
X89582393Y-87302105D01*
X89385976Y-87402185D01*
X89385975Y-87402186D01*
X89207636Y-87531757D01*
X89207633Y-87531759D01*
X89051759Y-87687633D01*
X89051757Y-87687636D01*
X88922186Y-87865975D01*
X88922185Y-87865976D01*
X88822105Y-88062393D01*
X88753985Y-88272043D01*
X88730995Y-88417201D01*
X88719500Y-88489778D01*
X88719500Y-88710222D01*
X88734826Y-88806990D01*
X88753985Y-88927956D01*
X88822105Y-89137606D01*
X88922185Y-89334023D01*
X88922186Y-89334024D01*
X88924613Y-89337364D01*
X89051758Y-89512365D01*
X89207635Y-89668242D01*
X89264959Y-89709890D01*
X89385975Y-89797813D01*
X89385976Y-89797814D01*
X89385978Y-89797815D01*
X89582394Y-89897895D01*
X89669512Y-89926201D01*
X89792043Y-89966014D01*
X89792048Y-89966014D01*
X89792049Y-89966015D01*
X90009778Y-90000500D01*
X90009782Y-90000500D01*
X90230218Y-90000500D01*
X90230222Y-90000500D01*
X90447951Y-89966015D01*
X90447952Y-89966014D01*
X90447956Y-89966014D01*
X90535072Y-89937708D01*
X90657606Y-89897895D01*
X90854022Y-89797815D01*
X91032365Y-89668242D01*
X91188242Y-89512365D01*
X91261219Y-89411919D01*
X91321159Y-89363382D01*
X91381763Y-89350500D01*
X92127704Y-89350500D01*
X92202204Y-89370462D01*
X92256742Y-89425000D01*
X92276704Y-89499500D01*
X92256742Y-89574000D01*
X92233063Y-89604859D01*
X90182063Y-91655859D01*
X90115268Y-91694423D01*
X90076704Y-91699500D01*
X84750424Y-91699500D01*
X84675924Y-91679538D01*
X84621386Y-91625000D01*
X84601424Y-91550500D01*
X84621386Y-91476000D01*
X84665537Y-91431848D01*
X84663986Y-91429827D01*
X84797428Y-91327431D01*
X84797431Y-91327428D01*
X84893881Y-91201734D01*
X84954513Y-91055354D01*
X84969999Y-90937718D01*
X84970000Y-90937713D01*
X84970000Y-90400000D01*
X84110748Y-90400000D01*
X84132518Y-90362292D01*
X84170000Y-90222409D01*
X84170000Y-90077591D01*
X84132518Y-89937708D01*
X84110748Y-89900000D01*
X84969999Y-89900000D01*
X84969999Y-89362292D01*
X84954511Y-89244639D01*
X84893880Y-89098264D01*
X84797431Y-88972571D01*
X84797428Y-88972568D01*
X84671734Y-88876118D01*
X84525354Y-88815486D01*
X84407718Y-88800000D01*
X83870000Y-88800000D01*
X83870000Y-89659252D01*
X83832292Y-89637482D01*
X83692409Y-89600000D01*
X83547591Y-89600000D01*
X83407708Y-89637482D01*
X83370000Y-89659252D01*
X83370000Y-88800000D01*
X82832292Y-88800000D01*
X82714639Y-88815488D01*
X82568264Y-88876119D01*
X82442571Y-88972568D01*
X82442570Y-88972569D01*
X82395225Y-89034269D01*
X82334034Y-89081220D01*
X82257566Y-89091286D01*
X82186309Y-89061769D01*
X82171658Y-89048920D01*
X82090084Y-88967346D01*
X82090083Y-88967345D01*
X81964521Y-88876119D01*
X81892641Y-88823895D01*
X81892635Y-88823892D01*
X81675195Y-88713101D01*
X81675194Y-88713100D01*
X81675185Y-88713096D01*
X81443076Y-88637679D01*
X81202027Y-88599500D01*
X80957973Y-88599500D01*
X80778558Y-88627917D01*
X80716923Y-88637679D01*
X80493660Y-88710222D01*
X80484815Y-88713096D01*
X80484810Y-88713098D01*
X80484804Y-88713101D01*
X80267364Y-88823892D01*
X80267358Y-88823895D01*
X80069918Y-88967344D01*
X80069915Y-88967346D01*
X79915359Y-89121903D01*
X79848564Y-89160467D01*
X79771436Y-89160467D01*
X79704641Y-89121903D01*
X79550084Y-88967346D01*
X79550083Y-88967345D01*
X79424521Y-88876119D01*
X79352641Y-88823895D01*
X79352635Y-88823892D01*
X79135195Y-88713101D01*
X79135194Y-88713100D01*
X79135185Y-88713096D01*
X78903076Y-88637679D01*
X78662027Y-88599500D01*
X78417973Y-88599500D01*
X78238558Y-88627917D01*
X78176923Y-88637679D01*
X77953660Y-88710222D01*
X77944815Y-88713096D01*
X77944810Y-88713098D01*
X77944804Y-88713101D01*
X77727364Y-88823892D01*
X77727358Y-88823895D01*
X77529918Y-88967344D01*
X77529915Y-88967346D01*
X77375359Y-89121903D01*
X77308564Y-89160467D01*
X77231436Y-89160467D01*
X77164641Y-89121903D01*
X77010084Y-88967346D01*
X77010083Y-88967345D01*
X76884521Y-88876119D01*
X76812641Y-88823895D01*
X76812635Y-88823892D01*
X76595195Y-88713101D01*
X76595194Y-88713100D01*
X76595185Y-88713096D01*
X76363076Y-88637679D01*
X76122027Y-88599500D01*
X75877973Y-88599500D01*
X75698558Y-88627917D01*
X75636923Y-88637679D01*
X75413660Y-88710222D01*
X75404815Y-88713096D01*
X75404810Y-88713098D01*
X75404804Y-88713101D01*
X75187364Y-88823892D01*
X75187358Y-88823895D01*
X74989918Y-88967344D01*
X74989915Y-88967346D01*
X74817346Y-89139915D01*
X74817344Y-89139918D01*
X74673895Y-89337358D01*
X74673892Y-89337364D01*
X74563101Y-89554804D01*
X74563098Y-89554810D01*
X74563096Y-89554815D01*
X74487679Y-89786924D01*
X74449500Y-90027973D01*
X74449500Y-90272027D01*
X74487679Y-90513076D01*
X74563096Y-90745185D01*
X74563100Y-90745194D01*
X74563101Y-90745195D01*
X74626558Y-90869736D01*
X74673894Y-90962639D01*
X74817345Y-91160083D01*
X74989917Y-91332655D01*
X75123663Y-91429827D01*
X75123841Y-91429956D01*
X75172379Y-91489896D01*
X75184445Y-91566074D01*
X75156805Y-91638080D01*
X75096865Y-91686618D01*
X75036261Y-91699500D01*
X73021157Y-91699500D01*
X72866504Y-91730262D01*
X72866500Y-91730263D01*
X72823832Y-91747936D01*
X72823833Y-91747937D01*
X72720825Y-91790603D01*
X72720821Y-91790606D01*
X72589707Y-91878214D01*
X69798214Y-94669707D01*
X69710604Y-94800823D01*
X69650263Y-94946501D01*
X69650262Y-94946505D01*
X69619500Y-95101157D01*
X69619500Y-96943353D01*
X69599538Y-97017853D01*
X69545000Y-97072391D01*
X69470500Y-97092353D01*
X69402855Y-97076113D01*
X69257606Y-97002105D01*
X69047956Y-96933985D01*
X68926990Y-96914826D01*
X68830222Y-96899500D01*
X68609778Y-96899500D01*
X68522686Y-96913294D01*
X68392043Y-96933985D01*
X68182393Y-97002105D01*
X67985976Y-97102185D01*
X67985975Y-97102186D01*
X67807636Y-97231757D01*
X67807633Y-97231759D01*
X67651759Y-97387633D01*
X67651757Y-97387636D01*
X67522186Y-97565975D01*
X67522185Y-97565976D01*
X67422105Y-97762393D01*
X67353985Y-97972043D01*
X67339108Y-98065976D01*
X67319500Y-98189778D01*
X67319500Y-98410222D01*
X67322546Y-98429451D01*
X67353985Y-98627956D01*
X67422105Y-98837606D01*
X67522185Y-99034023D01*
X67522186Y-99034024D01*
X67556566Y-99081344D01*
X67651758Y-99212365D01*
X67807635Y-99368242D01*
X67950625Y-99472129D01*
X67985975Y-99497813D01*
X67985976Y-99497814D01*
X67985978Y-99497815D01*
X68182394Y-99597895D01*
X68269512Y-99626201D01*
X68392043Y-99666014D01*
X68392048Y-99666014D01*
X68392049Y-99666015D01*
X68609778Y-99700500D01*
X68609782Y-99700500D01*
X68830218Y-99700500D01*
X68830222Y-99700500D01*
X69047951Y-99666015D01*
X69047952Y-99666014D01*
X69047956Y-99666014D01*
X69128556Y-99639825D01*
X69257606Y-99597895D01*
X69402855Y-99523885D01*
X69478297Y-99507850D01*
X69551650Y-99531684D01*
X69603260Y-99589001D01*
X69619500Y-99656646D01*
X69619500Y-105359930D01*
X69599538Y-105434430D01*
X69545000Y-105488968D01*
X69517370Y-105501366D01*
X69475665Y-105515186D01*
X69326344Y-105607289D01*
X69202289Y-105731344D01*
X69110187Y-105880663D01*
X69055001Y-106047201D01*
X69055001Y-106047203D01*
X69044500Y-106149992D01*
X69044500Y-107175008D01*
X69053250Y-107260665D01*
X69055001Y-107277798D01*
X69110187Y-107444336D01*
X69132014Y-107479722D01*
X69202289Y-107593655D01*
X69326345Y-107717711D01*
X69475666Y-107809814D01*
X69642203Y-107864999D01*
X69744992Y-107875500D01*
X69744996Y-107875500D01*
X71095004Y-107875500D01*
X71095008Y-107875500D01*
X71197797Y-107864999D01*
X71364334Y-107809814D01*
X71513655Y-107717711D01*
X71595141Y-107636225D01*
X71661936Y-107597661D01*
X71739064Y-107597661D01*
X71805859Y-107636225D01*
X71844423Y-107703020D01*
X71849500Y-107741584D01*
X71849500Y-108558416D01*
X71829538Y-108632916D01*
X71775000Y-108687454D01*
X71700500Y-108707416D01*
X71626000Y-108687454D01*
X71595141Y-108663775D01*
X71513655Y-108582289D01*
X71364336Y-108490187D01*
X71364335Y-108490186D01*
X71364334Y-108490186D01*
X71280332Y-108462350D01*
X71197798Y-108435001D01*
X71197799Y-108435001D01*
X71163534Y-108431500D01*
X71095008Y-108424500D01*
X69744992Y-108424500D01*
X69676466Y-108431500D01*
X69642201Y-108435001D01*
X69475663Y-108490187D01*
X69326344Y-108582289D01*
X69202289Y-108706344D01*
X69110187Y-108855663D01*
X69055001Y-109022201D01*
X69055001Y-109022203D01*
X69044500Y-109124992D01*
X69044500Y-110150008D01*
X69055001Y-110252797D01*
X69110186Y-110419334D01*
X69202289Y-110568655D01*
X69326345Y-110692711D01*
X69475666Y-110784814D01*
X69517366Y-110798631D01*
X69581805Y-110841012D01*
X69616421Y-110909936D01*
X69619500Y-110940069D01*
X69619500Y-112316178D01*
X69599538Y-112390678D01*
X69545000Y-112445216D01*
X69470500Y-112465178D01*
X69396000Y-112445216D01*
X69349957Y-112403758D01*
X69338249Y-112387644D01*
X69338244Y-112387638D01*
X69338242Y-112387635D01*
X69182365Y-112231758D01*
X69071842Y-112151459D01*
X69004024Y-112102186D01*
X69004023Y-112102185D01*
X68807606Y-112002105D01*
X68597956Y-111933985D01*
X68476990Y-111914826D01*
X68380222Y-111899500D01*
X68159778Y-111899500D01*
X68072686Y-111913294D01*
X67942043Y-111933985D01*
X67732393Y-112002105D01*
X67535976Y-112102185D01*
X67535975Y-112102186D01*
X67357636Y-112231757D01*
X67357633Y-112231759D01*
X67201759Y-112387633D01*
X67201757Y-112387636D01*
X67072186Y-112565975D01*
X67072185Y-112565976D01*
X66972105Y-112762393D01*
X66903985Y-112972043D01*
X66887679Y-113075000D01*
X66869500Y-113189778D01*
X66869500Y-113410222D01*
X66878331Y-113465976D01*
X66903985Y-113627956D01*
X66972105Y-113837606D01*
X67072185Y-114034023D01*
X67072186Y-114034024D01*
X67201758Y-114212365D01*
X67357635Y-114368242D01*
X67408080Y-114404892D01*
X67456618Y-114464832D01*
X67469500Y-114525436D01*
X67469500Y-116006703D01*
X67449538Y-116081203D01*
X67425859Y-116112062D01*
X63531308Y-120006612D01*
X63464513Y-120045176D01*
X63426477Y-120050252D01*
X56071759Y-120076333D01*
X55965230Y-120088075D01*
X55965217Y-120088077D01*
X55914159Y-120099280D01*
X55914147Y-120099283D01*
X55812494Y-120133217D01*
X55691456Y-120211005D01*
X55638653Y-120256759D01*
X55638651Y-120256761D01*
X55544431Y-120365495D01*
X55484663Y-120496368D01*
X55484658Y-120496382D01*
X55464977Y-120563406D01*
X55464976Y-120563413D01*
X55464973Y-120563423D01*
X55444501Y-120705815D01*
X55444500Y-120705833D01*
X55444500Y-120838000D01*
X55424538Y-120912500D01*
X55370000Y-120967038D01*
X55295500Y-120987000D01*
X41983639Y-120987000D01*
X41909139Y-120967038D01*
X41878280Y-120943359D01*
X35264141Y-114329220D01*
X35225577Y-114262425D01*
X35220500Y-114223861D01*
X35220500Y-113149500D01*
X35240462Y-113075000D01*
X35295000Y-113020462D01*
X35369500Y-113000500D01*
X35797414Y-113000500D01*
X35871914Y-113020462D01*
X35902773Y-113044141D01*
X36697115Y-113838483D01*
X36735679Y-113905278D01*
X36738922Y-113967149D01*
X36719500Y-114089778D01*
X36719500Y-114310222D01*
X36734494Y-114404892D01*
X36753985Y-114527956D01*
X36822105Y-114737606D01*
X36922185Y-114934023D01*
X36922186Y-114934024D01*
X36964187Y-114991833D01*
X37051758Y-115112365D01*
X37207635Y-115268242D01*
X37327729Y-115355495D01*
X37385975Y-115397813D01*
X37385976Y-115397814D01*
X37385978Y-115397815D01*
X37582394Y-115497895D01*
X37669512Y-115526201D01*
X37792043Y-115566014D01*
X37792048Y-115566014D01*
X37792049Y-115566015D01*
X38009778Y-115600500D01*
X38009782Y-115600500D01*
X38230218Y-115600500D01*
X38230222Y-115600500D01*
X38447951Y-115566015D01*
X38447952Y-115566014D01*
X38447956Y-115566014D01*
X38528556Y-115539825D01*
X38657606Y-115497895D01*
X38854022Y-115397815D01*
X39032365Y-115268242D01*
X39188242Y-115112365D01*
X39301357Y-114956674D01*
X46957000Y-114956674D01*
X46957000Y-116543325D01*
X46972165Y-116677916D01*
X47031872Y-116848550D01*
X47128048Y-117001615D01*
X47128052Y-117001620D01*
X47255880Y-117129448D01*
X47255884Y-117129451D01*
X47292050Y-117152175D01*
X47408950Y-117225628D01*
X47579583Y-117285335D01*
X47714174Y-117300500D01*
X49300826Y-117300500D01*
X49435417Y-117285335D01*
X49606050Y-117225628D01*
X49759119Y-117129449D01*
X49886949Y-117001619D01*
X49983128Y-116848550D01*
X50042835Y-116677917D01*
X50058000Y-116543326D01*
X50058000Y-115152114D01*
X58699500Y-115152114D01*
X58699500Y-117347863D01*
X58699502Y-117347888D01*
X58705908Y-117407478D01*
X58705909Y-117407484D01*
X58756202Y-117542329D01*
X58756204Y-117542333D01*
X58842452Y-117657544D01*
X58842455Y-117657547D01*
X58957666Y-117743795D01*
X58957670Y-117743797D01*
X59092517Y-117794091D01*
X59152114Y-117800499D01*
X59152118Y-117800499D01*
X59152127Y-117800500D01*
X61347872Y-117800499D01*
X61407483Y-117794091D01*
X61503447Y-117758298D01*
X61542329Y-117743797D01*
X61542333Y-117743795D01*
X61599938Y-117700671D01*
X61657546Y-117657546D01*
X61743796Y-117542331D01*
X61743797Y-117542329D01*
X61743798Y-117542327D01*
X61787877Y-117424143D01*
X61832615Y-117361315D01*
X61902773Y-117329274D01*
X61979551Y-117336605D01*
X62015062Y-117355667D01*
X62082437Y-117404617D01*
X62082444Y-117404621D01*
X62271777Y-117501093D01*
X62473863Y-117566755D01*
X62473871Y-117566757D01*
X62540000Y-117577230D01*
X62540000Y-116740747D01*
X62577708Y-116762518D01*
X62717591Y-116800000D01*
X62862409Y-116800000D01*
X63002292Y-116762518D01*
X63040000Y-116740747D01*
X63040000Y-117577230D01*
X63106128Y-117566757D01*
X63106136Y-117566755D01*
X63308222Y-117501093D01*
X63497555Y-117404621D01*
X63497556Y-117404621D01*
X63669464Y-117279722D01*
X63669467Y-117279720D01*
X63819720Y-117129467D01*
X63819722Y-117129464D01*
X63944621Y-116957556D01*
X63944621Y-116957555D01*
X64041093Y-116768222D01*
X64106755Y-116566136D01*
X64106757Y-116566128D01*
X64117231Y-116500000D01*
X63280748Y-116500000D01*
X63302518Y-116462292D01*
X63340000Y-116322409D01*
X63340000Y-116177591D01*
X63302518Y-116037708D01*
X63280748Y-116000000D01*
X64117230Y-116000000D01*
X64106757Y-115933871D01*
X64106755Y-115933863D01*
X64041093Y-115731777D01*
X63944621Y-115542444D01*
X63944621Y-115542443D01*
X63819722Y-115370535D01*
X63819720Y-115370532D01*
X63669467Y-115220279D01*
X63669464Y-115220277D01*
X63497555Y-115095378D01*
X63308220Y-114998906D01*
X63106123Y-114933241D01*
X63106120Y-114933240D01*
X63040001Y-114922767D01*
X63040000Y-114922768D01*
X63040000Y-115759252D01*
X63002292Y-115737482D01*
X62862409Y-115700000D01*
X62717591Y-115700000D01*
X62577708Y-115737482D01*
X62540000Y-115759252D01*
X62540000Y-114922768D01*
X62539998Y-114922767D01*
X62473879Y-114933240D01*
X62473876Y-114933241D01*
X62271779Y-114998906D01*
X62082444Y-115095378D01*
X62082437Y-115095382D01*
X62015062Y-115144333D01*
X61943057Y-115171973D01*
X61866879Y-115159907D01*
X61806939Y-115111368D01*
X61787877Y-115075857D01*
X61743798Y-114957672D01*
X61743795Y-114957666D01*
X61657547Y-114842455D01*
X61657544Y-114842452D01*
X61542333Y-114756204D01*
X61542329Y-114756202D01*
X61407482Y-114705908D01*
X61347876Y-114699500D01*
X59152136Y-114699500D01*
X59152111Y-114699502D01*
X59092521Y-114705908D01*
X59092515Y-114705909D01*
X58957670Y-114756202D01*
X58957666Y-114756204D01*
X58842455Y-114842452D01*
X58842452Y-114842455D01*
X58756204Y-114957666D01*
X58756202Y-114957670D01*
X58705908Y-115092517D01*
X58699500Y-115152114D01*
X50058000Y-115152114D01*
X50058000Y-114956674D01*
X50042835Y-114822083D01*
X49983128Y-114651450D01*
X49886949Y-114498381D01*
X49759119Y-114370551D01*
X49759117Y-114370550D01*
X49759115Y-114370548D01*
X49601514Y-114271522D01*
X49549053Y-114214984D01*
X49531890Y-114139789D01*
X49554624Y-114066088D01*
X49560243Y-114057779D01*
X49662120Y-113917558D01*
X49662121Y-113917555D01*
X49758593Y-113728220D01*
X49824257Y-113526128D01*
X49857500Y-113316242D01*
X49857500Y-113103757D01*
X49824257Y-112893871D01*
X49758593Y-112691779D01*
X49662121Y-112502444D01*
X49622770Y-112448282D01*
X49031287Y-113039764D01*
X49020018Y-112997708D01*
X48947610Y-112872292D01*
X48845208Y-112769890D01*
X48719792Y-112697482D01*
X48677732Y-112686212D01*
X49269216Y-112094729D01*
X49269216Y-112094728D01*
X49215055Y-112055378D01*
X49215055Y-112055377D01*
X49025720Y-111958906D01*
X48823628Y-111893242D01*
X48613742Y-111860000D01*
X48401258Y-111860000D01*
X48191371Y-111893242D01*
X47989279Y-111958906D01*
X47799944Y-112055378D01*
X47745782Y-112094728D01*
X47745782Y-112094729D01*
X48337265Y-112686212D01*
X48295208Y-112697482D01*
X48169792Y-112769890D01*
X48067390Y-112872292D01*
X47994982Y-112997708D01*
X47983712Y-113039765D01*
X47392229Y-112448282D01*
X47392228Y-112448282D01*
X47352878Y-112502444D01*
X47256406Y-112691779D01*
X47190742Y-112893871D01*
X47157500Y-113103757D01*
X47157500Y-113316242D01*
X47190742Y-113526128D01*
X47256406Y-113728220D01*
X47352878Y-113917555D01*
X47454757Y-114057780D01*
X47482397Y-114129785D01*
X47470331Y-114205964D01*
X47421793Y-114265904D01*
X47413485Y-114271522D01*
X47255884Y-114370548D01*
X47128048Y-114498384D01*
X47031872Y-114651449D01*
X46972165Y-114822083D01*
X46957000Y-114956674D01*
X39301357Y-114956674D01*
X39317815Y-114934022D01*
X39323550Y-114922767D01*
X39342872Y-114884847D01*
X39376748Y-114818360D01*
X39417895Y-114737606D01*
X39462768Y-114599500D01*
X39486014Y-114527956D01*
X39490698Y-114498381D01*
X39520500Y-114310222D01*
X39520500Y-114089778D01*
X39486015Y-113872049D01*
X39486014Y-113872048D01*
X39486014Y-113872043D01*
X39437430Y-113722518D01*
X39417895Y-113662394D01*
X39317815Y-113465978D01*
X39188242Y-113287635D01*
X39032365Y-113131758D01*
X38911770Y-113044141D01*
X38854024Y-113002186D01*
X38854023Y-113002185D01*
X38657606Y-112902105D01*
X38447956Y-112833985D01*
X38326990Y-112814826D01*
X38230222Y-112799500D01*
X38009778Y-112799500D01*
X37905604Y-112815999D01*
X37887149Y-112818922D01*
X37810444Y-112810859D01*
X37758483Y-112777115D01*
X36648418Y-111667050D01*
X36648410Y-111667043D01*
X36538961Y-111593913D01*
X36538960Y-111593913D01*
X36525496Y-111584916D01*
X36525488Y-111584912D01*
X36388914Y-111528342D01*
X36388912Y-111528341D01*
X36243921Y-111499500D01*
X36243918Y-111499500D01*
X35369500Y-111499500D01*
X35295000Y-111479538D01*
X35240462Y-111425000D01*
X35220500Y-111350500D01*
X35220500Y-104099500D01*
X35240462Y-104025000D01*
X35295000Y-103970462D01*
X35369500Y-103950500D01*
X36097414Y-103950500D01*
X36171914Y-103970462D01*
X36202773Y-103994141D01*
X37047115Y-104838483D01*
X37085679Y-104905278D01*
X37088922Y-104967149D01*
X37069500Y-105089778D01*
X37069500Y-105310222D01*
X37074619Y-105342539D01*
X37103985Y-105527956D01*
X37172105Y-105737606D01*
X37272185Y-105934023D01*
X37272186Y-105934024D01*
X37327306Y-106009890D01*
X37401758Y-106112365D01*
X37557635Y-106268242D01*
X37639854Y-106327977D01*
X37735975Y-106397813D01*
X37735976Y-106397814D01*
X37735978Y-106397815D01*
X37932394Y-106497895D01*
X38014277Y-106524500D01*
X38142043Y-106566014D01*
X38142048Y-106566014D01*
X38142049Y-106566015D01*
X38359778Y-106600500D01*
X38359782Y-106600500D01*
X38580218Y-106600500D01*
X38580222Y-106600500D01*
X38797951Y-106566015D01*
X38797952Y-106566014D01*
X38797956Y-106566014D01*
X38878556Y-106539825D01*
X39007606Y-106497895D01*
X39204022Y-106397815D01*
X39382365Y-106268242D01*
X39538242Y-106112365D01*
X39667815Y-105934022D01*
X39767895Y-105737606D01*
X39805716Y-105621203D01*
X39810437Y-105606674D01*
X47007000Y-105606674D01*
X47007000Y-107193326D01*
X47022165Y-107327917D01*
X47081872Y-107498550D01*
X47178051Y-107651619D01*
X47305881Y-107779449D01*
X47458950Y-107875628D01*
X47629583Y-107935335D01*
X47764174Y-107950500D01*
X49350826Y-107950500D01*
X49485417Y-107935335D01*
X49656050Y-107875628D01*
X49809119Y-107779449D01*
X49936949Y-107651619D01*
X50033128Y-107498550D01*
X50092835Y-107327917D01*
X50108000Y-107193326D01*
X50108000Y-105606674D01*
X50092835Y-105472083D01*
X50033128Y-105301450D01*
X49936949Y-105148381D01*
X49809119Y-105020551D01*
X49809117Y-105020550D01*
X49809115Y-105020548D01*
X49651514Y-104921522D01*
X49599053Y-104864984D01*
X49581890Y-104789789D01*
X49604624Y-104716088D01*
X49610243Y-104707779D01*
X49712120Y-104567558D01*
X49712121Y-104567555D01*
X49808593Y-104378220D01*
X49874257Y-104176128D01*
X49907500Y-103966242D01*
X49907500Y-103753757D01*
X49874257Y-103543871D01*
X49808593Y-103341779D01*
X49712121Y-103152444D01*
X49672770Y-103098282D01*
X49081287Y-103689764D01*
X49070018Y-103647708D01*
X48997610Y-103522292D01*
X48895208Y-103419890D01*
X48769792Y-103347482D01*
X48727732Y-103336212D01*
X49319216Y-102744729D01*
X49319216Y-102744728D01*
X49265055Y-102705378D01*
X49265055Y-102705377D01*
X49075720Y-102608906D01*
X48873628Y-102543242D01*
X48663742Y-102510000D01*
X48451258Y-102510000D01*
X48241371Y-102543242D01*
X48039279Y-102608906D01*
X47849944Y-102705378D01*
X47795782Y-102744728D01*
X47795782Y-102744729D01*
X48387265Y-103336212D01*
X48345208Y-103347482D01*
X48219792Y-103419890D01*
X48117390Y-103522292D01*
X48044982Y-103647708D01*
X48033712Y-103689765D01*
X47442229Y-103098282D01*
X47442228Y-103098282D01*
X47402878Y-103152444D01*
X47306406Y-103341779D01*
X47240742Y-103543871D01*
X47207500Y-103753757D01*
X47207500Y-103966242D01*
X47240742Y-104176128D01*
X47306406Y-104378220D01*
X47402878Y-104567555D01*
X47504757Y-104707780D01*
X47532397Y-104779785D01*
X47520331Y-104855964D01*
X47471793Y-104915904D01*
X47463485Y-104921522D01*
X47305884Y-105020548D01*
X47178048Y-105148384D01*
X47081872Y-105301449D01*
X47044122Y-105409334D01*
X47022165Y-105472083D01*
X47007000Y-105606674D01*
X39810437Y-105606674D01*
X39826756Y-105556450D01*
X39836014Y-105527956D01*
X39838037Y-105515186D01*
X39870500Y-105310222D01*
X39870500Y-105089778D01*
X39836015Y-104872049D01*
X39836014Y-104872048D01*
X39836014Y-104872043D01*
X39785341Y-104716088D01*
X39767895Y-104662394D01*
X39667815Y-104465978D01*
X39538242Y-104287635D01*
X39382365Y-104131758D01*
X39293193Y-104066971D01*
X39204024Y-104002186D01*
X39204023Y-104002185D01*
X39007606Y-103902105D01*
X38797956Y-103833985D01*
X38676990Y-103814826D01*
X38580222Y-103799500D01*
X38359778Y-103799500D01*
X38255604Y-103815999D01*
X38237149Y-103818922D01*
X38160444Y-103810859D01*
X38108483Y-103777115D01*
X36948418Y-102617050D01*
X36948413Y-102617046D01*
X36936230Y-102608906D01*
X36866355Y-102562218D01*
X36866353Y-102562216D01*
X36825492Y-102534914D01*
X36825493Y-102534914D01*
X36688914Y-102478342D01*
X36688912Y-102478341D01*
X36543921Y-102449500D01*
X36543918Y-102449500D01*
X35369500Y-102449500D01*
X35295000Y-102429538D01*
X35240462Y-102375000D01*
X35220500Y-102300500D01*
X35220500Y-94549500D01*
X35240462Y-94475000D01*
X35295000Y-94420462D01*
X35369500Y-94400500D01*
X37797414Y-94400500D01*
X37816362Y-94405577D01*
X37835978Y-94405577D01*
X37852965Y-94415384D01*
X37871914Y-94420462D01*
X37902773Y-94444141D01*
X38097115Y-94638483D01*
X38135679Y-94705278D01*
X38138922Y-94767149D01*
X38119500Y-94889778D01*
X38119500Y-95110222D01*
X38131003Y-95182848D01*
X38153985Y-95327956D01*
X38222105Y-95537606D01*
X38322185Y-95734023D01*
X38322186Y-95734024D01*
X38368944Y-95798381D01*
X38451758Y-95912365D01*
X38607635Y-96068242D01*
X38717530Y-96148085D01*
X38785975Y-96197813D01*
X38785976Y-96197814D01*
X38785978Y-96197815D01*
X38982394Y-96297895D01*
X39069512Y-96326201D01*
X39192043Y-96366014D01*
X39192048Y-96366014D01*
X39192049Y-96366015D01*
X39409778Y-96400500D01*
X39409782Y-96400500D01*
X39630218Y-96400500D01*
X39630222Y-96400500D01*
X39847951Y-96366015D01*
X39847952Y-96366014D01*
X39847956Y-96366014D01*
X39928556Y-96339825D01*
X40057606Y-96297895D01*
X40138506Y-96256674D01*
X46957000Y-96256674D01*
X46957000Y-97843326D01*
X46972165Y-97977917D01*
X47031872Y-98148550D01*
X47125713Y-98297899D01*
X47128051Y-98301619D01*
X47255881Y-98429449D01*
X47408950Y-98525628D01*
X47579583Y-98585335D01*
X47714174Y-98600500D01*
X49300826Y-98600500D01*
X49435417Y-98585335D01*
X49606050Y-98525628D01*
X49759119Y-98429449D01*
X49886949Y-98301619D01*
X49983128Y-98148550D01*
X50042835Y-97977917D01*
X50058000Y-97843326D01*
X50058000Y-96256674D01*
X50042835Y-96122083D01*
X49983128Y-95951450D01*
X49886949Y-95798381D01*
X49759119Y-95670551D01*
X49759117Y-95670550D01*
X49759115Y-95670548D01*
X49601514Y-95571522D01*
X49549053Y-95514984D01*
X49531890Y-95439789D01*
X49554624Y-95366088D01*
X49560243Y-95357779D01*
X49662120Y-95217558D01*
X49662121Y-95217555D01*
X49758593Y-95028220D01*
X49824257Y-94826128D01*
X49857500Y-94616242D01*
X49857500Y-94403757D01*
X49824257Y-94193871D01*
X49758593Y-93991779D01*
X49662121Y-93802444D01*
X49622770Y-93748282D01*
X49031287Y-94339764D01*
X49020018Y-94297708D01*
X48947610Y-94172292D01*
X48845208Y-94069890D01*
X48719792Y-93997482D01*
X48677732Y-93986212D01*
X49269216Y-93394729D01*
X49269216Y-93394728D01*
X49215055Y-93355378D01*
X49215055Y-93355377D01*
X49025720Y-93258906D01*
X48823628Y-93193242D01*
X48613742Y-93160000D01*
X48401258Y-93160000D01*
X48191371Y-93193242D01*
X47989279Y-93258906D01*
X47799944Y-93355378D01*
X47745782Y-93394728D01*
X47745782Y-93394729D01*
X48337265Y-93986212D01*
X48295208Y-93997482D01*
X48169792Y-94069890D01*
X48067390Y-94172292D01*
X47994982Y-94297708D01*
X47983712Y-94339765D01*
X47392229Y-93748282D01*
X47392228Y-93748282D01*
X47352878Y-93802444D01*
X47256406Y-93991779D01*
X47190742Y-94193871D01*
X47157500Y-94403757D01*
X47157500Y-94616242D01*
X47190742Y-94826128D01*
X47256406Y-95028220D01*
X47352878Y-95217555D01*
X47454757Y-95357780D01*
X47482397Y-95429785D01*
X47470331Y-95505964D01*
X47421793Y-95565904D01*
X47413485Y-95571522D01*
X47255884Y-95670548D01*
X47128048Y-95798384D01*
X47031872Y-95951449D01*
X46994326Y-96058750D01*
X46972165Y-96122083D01*
X46957000Y-96256674D01*
X40138506Y-96256674D01*
X40254022Y-96197815D01*
X40432365Y-96068242D01*
X40588242Y-95912365D01*
X40717815Y-95734022D01*
X40817895Y-95537606D01*
X40873624Y-95366088D01*
X40886014Y-95327956D01*
X40896848Y-95259554D01*
X40920500Y-95110222D01*
X40920500Y-94889778D01*
X40886015Y-94672049D01*
X40886014Y-94672048D01*
X40886014Y-94672043D01*
X40833363Y-94510000D01*
X40817895Y-94462394D01*
X40717815Y-94265978D01*
X40588242Y-94087635D01*
X40432365Y-93931758D01*
X40343193Y-93866971D01*
X40254024Y-93802186D01*
X40254023Y-93802185D01*
X40057606Y-93702105D01*
X39847956Y-93633985D01*
X39726990Y-93614826D01*
X39630222Y-93599500D01*
X39409778Y-93599500D01*
X39305604Y-93615999D01*
X39287149Y-93618922D01*
X39210444Y-93610859D01*
X39158483Y-93577115D01*
X38648417Y-93067049D01*
X38563469Y-93010290D01*
X38563466Y-93010286D01*
X38536425Y-92992219D01*
X38525495Y-92984916D01*
X38525492Y-92984914D01*
X38525491Y-92984914D01*
X38388914Y-92928342D01*
X38388912Y-92928341D01*
X38243921Y-92899500D01*
X38243918Y-92899500D01*
X35369500Y-92899500D01*
X35295000Y-92879538D01*
X35240462Y-92825000D01*
X35220500Y-92750500D01*
X35220500Y-81499500D01*
X35240462Y-81425000D01*
X35295000Y-81370462D01*
X35369500Y-81350500D01*
X37297414Y-81350500D01*
X37371914Y-81370462D01*
X37402773Y-81394141D01*
X38869132Y-82860500D01*
X40298045Y-84289412D01*
X40336609Y-84356207D01*
X40336609Y-84433335D01*
X40298045Y-84500130D01*
X40280271Y-84515311D01*
X40257641Y-84531753D01*
X40257632Y-84531761D01*
X40101759Y-84687633D01*
X40101757Y-84687636D01*
X39972186Y-84865975D01*
X39972185Y-84865976D01*
X39872105Y-85062393D01*
X39803985Y-85272043D01*
X39788938Y-85367049D01*
X39769500Y-85489778D01*
X39769500Y-85710222D01*
X39784826Y-85806990D01*
X39803985Y-85927956D01*
X39872105Y-86137606D01*
X39972185Y-86334023D01*
X39972186Y-86334024D01*
X39999813Y-86372049D01*
X40101758Y-86512365D01*
X40257635Y-86668242D01*
X40400561Y-86772083D01*
X40435975Y-86797813D01*
X40435976Y-86797814D01*
X40435978Y-86797815D01*
X40632394Y-86897895D01*
X40719512Y-86926201D01*
X40842043Y-86966014D01*
X40842048Y-86966014D01*
X40842049Y-86966015D01*
X41059778Y-87000500D01*
X41059782Y-87000500D01*
X41280218Y-87000500D01*
X41280222Y-87000500D01*
X41497951Y-86966015D01*
X41497952Y-86966014D01*
X41497956Y-86966014D01*
X41578556Y-86939825D01*
X41680586Y-86906674D01*
X46969500Y-86906674D01*
X46969500Y-88493326D01*
X46984665Y-88627917D01*
X47014472Y-88713101D01*
X47044372Y-88798550D01*
X47140548Y-88951615D01*
X47140552Y-88951620D01*
X47268380Y-89079448D01*
X47268384Y-89079451D01*
X47287220Y-89091286D01*
X47421450Y-89175628D01*
X47592083Y-89235335D01*
X47726674Y-89250500D01*
X49313326Y-89250500D01*
X49447917Y-89235335D01*
X49618550Y-89175628D01*
X49771619Y-89079449D01*
X49899449Y-88951619D01*
X49995628Y-88798550D01*
X50055335Y-88627917D01*
X50070500Y-88493326D01*
X50070500Y-86906674D01*
X50055335Y-86772083D01*
X49995628Y-86601450D01*
X49899449Y-86448381D01*
X49771619Y-86320551D01*
X49771617Y-86320550D01*
X49771615Y-86320548D01*
X49614014Y-86221522D01*
X49561553Y-86164984D01*
X49544390Y-86089789D01*
X49567124Y-86016088D01*
X49572743Y-86007779D01*
X49674620Y-85867558D01*
X49674621Y-85867555D01*
X49771093Y-85678220D01*
X49836757Y-85476128D01*
X49870000Y-85266242D01*
X49870000Y-85053757D01*
X49836757Y-84843871D01*
X49771093Y-84641779D01*
X49674621Y-84452444D01*
X49635270Y-84398282D01*
X49043787Y-84989764D01*
X49032518Y-84947708D01*
X48960110Y-84822292D01*
X48857708Y-84719890D01*
X48732292Y-84647482D01*
X48690232Y-84636212D01*
X49281716Y-84044729D01*
X49281716Y-84044728D01*
X49227555Y-84005378D01*
X49227555Y-84005377D01*
X49038220Y-83908906D01*
X48836128Y-83843242D01*
X48626242Y-83810000D01*
X48413758Y-83810000D01*
X48203871Y-83843242D01*
X48001779Y-83908906D01*
X47812444Y-84005378D01*
X47758282Y-84044728D01*
X47758282Y-84044729D01*
X48349765Y-84636212D01*
X48307708Y-84647482D01*
X48182292Y-84719890D01*
X48079890Y-84822292D01*
X48007482Y-84947708D01*
X47996212Y-84989765D01*
X47404729Y-84398282D01*
X47404728Y-84398282D01*
X47365378Y-84452444D01*
X47268906Y-84641779D01*
X47203242Y-84843871D01*
X47170000Y-85053757D01*
X47170000Y-85266242D01*
X47203242Y-85476128D01*
X47268906Y-85678220D01*
X47365378Y-85867555D01*
X47467257Y-86007780D01*
X47494897Y-86079785D01*
X47482831Y-86155964D01*
X47434293Y-86215904D01*
X47425985Y-86221522D01*
X47268384Y-86320548D01*
X47140548Y-86448384D01*
X47044372Y-86601449D01*
X47044372Y-86601450D01*
X46984665Y-86772083D01*
X46969500Y-86906674D01*
X41680586Y-86906674D01*
X41707606Y-86897895D01*
X41904022Y-86797815D01*
X42082365Y-86668242D01*
X42238242Y-86512365D01*
X42367815Y-86334022D01*
X42467895Y-86137606D01*
X42512768Y-85999500D01*
X42536014Y-85927956D01*
X42536015Y-85927951D01*
X42570500Y-85710222D01*
X42570500Y-85489778D01*
X42536015Y-85272049D01*
X42536014Y-85272048D01*
X42536014Y-85272043D01*
X42487873Y-85123880D01*
X42467895Y-85062394D01*
X42367815Y-84865978D01*
X42238242Y-84687635D01*
X42082365Y-84531758D01*
X41981920Y-84458780D01*
X41962401Y-84434676D01*
X41940462Y-84412737D01*
X41938398Y-84405034D01*
X41933382Y-84398840D01*
X41920500Y-84338237D01*
X41920500Y-84026086D01*
X41920499Y-84026078D01*
X41918644Y-84016755D01*
X41891658Y-83881087D01*
X41835084Y-83744505D01*
X41835083Y-83744502D01*
X41785759Y-83670685D01*
X41752951Y-83621584D01*
X41648416Y-83517049D01*
X38148416Y-80017048D01*
X38052043Y-79952655D01*
X38052041Y-79952653D01*
X38034500Y-79940933D01*
X38025495Y-79934916D01*
X38025493Y-79934915D01*
X38025490Y-79934913D01*
X37888914Y-79878342D01*
X37888912Y-79878341D01*
X37743921Y-79849500D01*
X37743918Y-79849500D01*
X35369500Y-79849500D01*
X35295000Y-79829538D01*
X35240462Y-79775000D01*
X35220500Y-79700500D01*
X35220500Y-74915000D01*
X35240462Y-74840500D01*
X35295000Y-74785962D01*
X35369500Y-74766000D01*
X35444000Y-74785962D01*
X35490043Y-74827419D01*
X35551759Y-74912364D01*
X35707636Y-75068241D01*
X35817804Y-75148282D01*
X35885976Y-75197812D01*
X35885977Y-75197813D01*
X35885979Y-75197814D01*
X36082395Y-75297894D01*
X36169513Y-75326200D01*
X36292044Y-75366013D01*
X36292049Y-75366013D01*
X36292050Y-75366014D01*
X36509779Y-75400499D01*
X36509783Y-75400499D01*
X36730219Y-75400499D01*
X36730223Y-75400499D01*
X36947952Y-75366014D01*
X36947953Y-75366013D01*
X36947957Y-75366013D01*
X37028557Y-75339824D01*
X37157607Y-75297894D01*
X37354023Y-75197814D01*
X37532366Y-75068241D01*
X37688243Y-74912364D01*
X37761220Y-74811918D01*
X37821160Y-74763381D01*
X37881764Y-74750499D01*
X41347413Y-74750499D01*
X41421913Y-74770461D01*
X41452772Y-74794140D01*
X52875859Y-86217226D01*
X52914423Y-86284021D01*
X52919500Y-86322585D01*
X52919500Y-108973921D01*
X52948341Y-109118911D01*
X53004913Y-109255489D01*
X53004918Y-109255499D01*
X53012786Y-109267274D01*
X53016722Y-109273164D01*
X53087048Y-109378416D01*
X54991584Y-111282951D01*
X55040685Y-111315759D01*
X55114502Y-111365083D01*
X55145444Y-111377899D01*
X55251087Y-111421658D01*
X55396082Y-111450500D01*
X55543917Y-111450500D01*
X56058237Y-111450500D01*
X56132737Y-111470462D01*
X56178780Y-111511919D01*
X56251758Y-111612365D01*
X56407635Y-111768242D01*
X56533930Y-111860000D01*
X56585975Y-111897813D01*
X56585976Y-111897814D01*
X56585978Y-111897815D01*
X56782394Y-111997895D01*
X56869512Y-112026201D01*
X56992043Y-112066014D01*
X56992048Y-112066014D01*
X56992049Y-112066015D01*
X57209778Y-112100500D01*
X57209782Y-112100500D01*
X57430218Y-112100500D01*
X57430222Y-112100500D01*
X57647951Y-112066015D01*
X57647952Y-112066014D01*
X57647956Y-112066014D01*
X57728556Y-112039825D01*
X57857606Y-111997895D01*
X58054022Y-111897815D01*
X58232365Y-111768242D01*
X58388242Y-111612365D01*
X58517815Y-111434022D01*
X58617895Y-111237606D01*
X58659825Y-111108556D01*
X58686014Y-111027956D01*
X58699934Y-110940069D01*
X58720500Y-110810222D01*
X58720500Y-110589778D01*
X58686015Y-110372049D01*
X58686014Y-110372048D01*
X58686014Y-110372043D01*
X58646201Y-110249512D01*
X58617895Y-110162394D01*
X58517815Y-109965978D01*
X58388242Y-109787635D01*
X58232365Y-109631758D01*
X58143193Y-109566971D01*
X58054024Y-109502186D01*
X58054023Y-109502185D01*
X57857606Y-109402105D01*
X57647956Y-109333985D01*
X57526990Y-109314826D01*
X57430222Y-109299500D01*
X57209778Y-109299500D01*
X57122686Y-109313294D01*
X56992043Y-109333985D01*
X56782393Y-109402105D01*
X56585976Y-109502185D01*
X56585975Y-109502186D01*
X56407636Y-109631757D01*
X56407633Y-109631759D01*
X56251759Y-109787633D01*
X56251757Y-109787636D01*
X56178781Y-109888080D01*
X56154672Y-109907602D01*
X56132737Y-109929538D01*
X56125035Y-109931601D01*
X56118841Y-109936618D01*
X56058237Y-109949500D01*
X55842585Y-109949500D01*
X55768085Y-109929538D01*
X55737226Y-109905859D01*
X54464141Y-108632773D01*
X54425577Y-108565978D01*
X54420500Y-108527414D01*
X54420500Y-102812114D01*
X57229500Y-102812114D01*
X57229500Y-105007863D01*
X57229502Y-105007888D01*
X57235908Y-105067478D01*
X57235909Y-105067484D01*
X57286202Y-105202329D01*
X57286204Y-105202333D01*
X57372452Y-105317544D01*
X57372455Y-105317547D01*
X57458117Y-105381674D01*
X57505794Y-105442301D01*
X57516770Y-105518644D01*
X57489369Y-105588532D01*
X57453898Y-105637354D01*
X57453895Y-105637360D01*
X57343098Y-105854809D01*
X57343094Y-105854821D01*
X57334913Y-105880001D01*
X57267679Y-106086924D01*
X57229500Y-106327973D01*
X57229500Y-106572027D01*
X57267679Y-106813076D01*
X57343096Y-107045185D01*
X57343100Y-107045194D01*
X57343101Y-107045195D01*
X57453892Y-107262635D01*
X57453895Y-107262641D01*
X57501320Y-107327916D01*
X57597345Y-107460083D01*
X57769917Y-107632655D01*
X57967361Y-107776106D01*
X58184815Y-107886904D01*
X58416924Y-107962321D01*
X58657973Y-108000500D01*
X58657978Y-108000500D01*
X58902022Y-108000500D01*
X58902027Y-108000500D01*
X59143076Y-107962321D01*
X59375185Y-107886904D01*
X59592639Y-107776106D01*
X59790083Y-107632655D01*
X59944641Y-107478097D01*
X60011436Y-107439533D01*
X60088564Y-107439533D01*
X60155359Y-107478097D01*
X60309917Y-107632655D01*
X60507361Y-107776106D01*
X60724815Y-107886904D01*
X60956924Y-107962321D01*
X61197973Y-108000500D01*
X61197978Y-108000500D01*
X61442022Y-108000500D01*
X61442027Y-108000500D01*
X61683076Y-107962321D01*
X61915185Y-107886904D01*
X62132639Y-107776106D01*
X62330083Y-107632655D01*
X62502655Y-107460083D01*
X62593431Y-107335139D01*
X62653371Y-107286601D01*
X62729549Y-107274535D01*
X62801554Y-107302175D01*
X62827273Y-107325948D01*
X62830276Y-107329464D01*
X62980532Y-107479720D01*
X62980535Y-107479722D01*
X63152444Y-107604621D01*
X63341777Y-107701093D01*
X63543863Y-107766755D01*
X63543871Y-107766757D01*
X63610000Y-107777230D01*
X63610000Y-106940747D01*
X63647708Y-106962518D01*
X63787591Y-107000000D01*
X63932409Y-107000000D01*
X64072292Y-106962518D01*
X64110000Y-106940747D01*
X64110000Y-107777230D01*
X64176128Y-107766757D01*
X64176136Y-107766755D01*
X64378222Y-107701093D01*
X64567555Y-107604621D01*
X64567556Y-107604621D01*
X64739464Y-107479722D01*
X64739467Y-107479720D01*
X64889720Y-107329467D01*
X64889722Y-107329464D01*
X65014621Y-107157556D01*
X65014621Y-107157555D01*
X65111093Y-106968222D01*
X65176755Y-106766136D01*
X65176757Y-106766128D01*
X65187231Y-106700000D01*
X64350748Y-106700000D01*
X64372518Y-106662292D01*
X64410000Y-106522409D01*
X64410000Y-106377591D01*
X64372518Y-106237708D01*
X64350748Y-106200000D01*
X65187230Y-106200000D01*
X65176757Y-106133871D01*
X65176755Y-106133863D01*
X65111093Y-105931777D01*
X65014621Y-105742444D01*
X65014621Y-105742443D01*
X64889722Y-105570535D01*
X64889720Y-105570532D01*
X64739464Y-105420276D01*
X64735948Y-105417273D01*
X64692264Y-105353708D01*
X64686215Y-105276818D01*
X64719421Y-105207204D01*
X64745140Y-105183431D01*
X64749863Y-105180000D01*
X64870083Y-105092655D01*
X65042655Y-104920083D01*
X65186106Y-104722639D01*
X65296904Y-104505185D01*
X65372321Y-104273076D01*
X65410500Y-104032027D01*
X65410500Y-103787973D01*
X65372321Y-103546924D01*
X65296904Y-103314815D01*
X65186106Y-103097361D01*
X65042655Y-102899917D01*
X64870083Y-102727345D01*
X64759508Y-102647008D01*
X64672641Y-102583895D01*
X64672635Y-102583892D01*
X64455195Y-102473101D01*
X64455194Y-102473100D01*
X64455185Y-102473096D01*
X64223076Y-102397679D01*
X63982027Y-102359500D01*
X63737973Y-102359500D01*
X63537098Y-102391315D01*
X63496923Y-102397679D01*
X63264821Y-102473094D01*
X63264815Y-102473096D01*
X63264810Y-102473098D01*
X63264804Y-102473101D01*
X63047364Y-102583892D01*
X63047358Y-102583895D01*
X62849918Y-102727344D01*
X62849915Y-102727346D01*
X62695359Y-102881903D01*
X62628564Y-102920467D01*
X62551436Y-102920467D01*
X62484641Y-102881903D01*
X62330084Y-102727346D01*
X62330083Y-102727345D01*
X62219508Y-102647008D01*
X62132641Y-102583895D01*
X62132635Y-102583892D01*
X61915195Y-102473101D01*
X61915194Y-102473100D01*
X61915185Y-102473096D01*
X61745148Y-102417847D01*
X61680464Y-102375841D01*
X61645449Y-102307120D01*
X61649486Y-102230097D01*
X61691493Y-102165412D01*
X61745147Y-102134434D01*
X61857606Y-102097895D01*
X62054022Y-101997815D01*
X62232365Y-101868242D01*
X62388242Y-101712365D01*
X62517815Y-101534022D01*
X62617895Y-101337606D01*
X62665855Y-101189998D01*
X62686014Y-101127956D01*
X62693152Y-101082888D01*
X62720500Y-100910222D01*
X62720500Y-100689778D01*
X62686015Y-100472049D01*
X62686014Y-100472048D01*
X62686014Y-100472043D01*
X62643249Y-100340426D01*
X62639212Y-100263404D01*
X62674227Y-100194682D01*
X62738913Y-100152676D01*
X62815935Y-100148639D01*
X62830994Y-100152673D01*
X62872049Y-100166013D01*
X63089778Y-100200498D01*
X63089782Y-100200498D01*
X63310218Y-100200498D01*
X63310222Y-100200498D01*
X63527951Y-100166013D01*
X63527952Y-100166012D01*
X63527956Y-100166012D01*
X63608556Y-100139823D01*
X63737606Y-100097893D01*
X63934022Y-99997813D01*
X64112365Y-99868240D01*
X64268242Y-99712363D01*
X64397815Y-99534020D01*
X64497895Y-99337604D01*
X64541921Y-99202105D01*
X64566014Y-99127954D01*
X64570521Y-99099500D01*
X64600500Y-98910220D01*
X64600500Y-98689776D01*
X64566015Y-98472047D01*
X64566014Y-98472046D01*
X64566014Y-98472041D01*
X64526201Y-98349510D01*
X64497895Y-98262392D01*
X64397815Y-98065976D01*
X64268242Y-97887633D01*
X64112365Y-97731756D01*
X64011920Y-97658778D01*
X63963382Y-97598838D01*
X63950500Y-97538235D01*
X63950500Y-96667585D01*
X63970462Y-96593085D01*
X63994141Y-96562226D01*
X64117102Y-96439265D01*
X64261026Y-96295340D01*
X64327819Y-96256778D01*
X64404947Y-96256778D01*
X64471742Y-96295342D01*
X64510306Y-96362137D01*
X64510306Y-96439265D01*
X64504050Y-96457700D01*
X64502104Y-96462397D01*
X64433985Y-96672047D01*
X64419676Y-96762394D01*
X64399500Y-96889782D01*
X64399500Y-97110226D01*
X64414826Y-97206994D01*
X64433985Y-97327960D01*
X64502105Y-97537610D01*
X64602185Y-97734027D01*
X64602186Y-97734028D01*
X64650480Y-97800499D01*
X64731758Y-97912369D01*
X64887635Y-98068246D01*
X64998165Y-98148550D01*
X65065975Y-98197817D01*
X65065976Y-98197818D01*
X65065978Y-98197819D01*
X65262394Y-98297899D01*
X65349512Y-98326205D01*
X65472043Y-98366018D01*
X65472048Y-98366018D01*
X65472049Y-98366019D01*
X65689778Y-98400504D01*
X65689782Y-98400504D01*
X65910218Y-98400504D01*
X65910222Y-98400504D01*
X66127951Y-98366019D01*
X66127952Y-98366018D01*
X66127956Y-98366018D01*
X66208556Y-98339829D01*
X66337606Y-98297899D01*
X66534022Y-98197819D01*
X66712365Y-98068246D01*
X66868242Y-97912369D01*
X66997815Y-97734026D01*
X67097895Y-97537610D01*
X67152204Y-97370462D01*
X67166014Y-97327960D01*
X67169729Y-97304505D01*
X67200500Y-97110226D01*
X67200500Y-96889782D01*
X67166015Y-96672053D01*
X67166014Y-96672052D01*
X67166014Y-96672047D01*
X67098581Y-96464510D01*
X67097895Y-96462398D01*
X66997815Y-96265982D01*
X66997810Y-96265975D01*
X66987430Y-96251687D01*
X66959791Y-96179682D01*
X66971858Y-96103503D01*
X67002613Y-96058753D01*
X75517226Y-87544141D01*
X75584021Y-87505577D01*
X75622585Y-87500500D01*
X86343914Y-87500500D01*
X86343917Y-87500500D01*
X86343918Y-87500500D01*
X86488913Y-87471658D01*
X86625495Y-87415084D01*
X86674729Y-87382186D01*
X86748416Y-87332952D01*
X92002952Y-82078416D01*
X92068941Y-81979655D01*
X92085084Y-81955495D01*
X92141658Y-81818913D01*
X92170500Y-81673918D01*
X92170500Y-78647973D01*
X92469500Y-78647973D01*
X92469500Y-78892027D01*
X92507679Y-79133076D01*
X92583096Y-79365185D01*
X92583100Y-79365194D01*
X92583101Y-79365195D01*
X92693892Y-79582635D01*
X92693895Y-79582641D01*
X92765619Y-79681361D01*
X92780338Y-79701620D01*
X92837344Y-79780081D01*
X92837346Y-79780084D01*
X92991903Y-79934641D01*
X93030467Y-80001436D01*
X93030467Y-80078564D01*
X92991903Y-80145359D01*
X92837346Y-80299915D01*
X92837344Y-80299918D01*
X92693895Y-80497358D01*
X92693892Y-80497364D01*
X92583101Y-80714804D01*
X92583098Y-80714810D01*
X92583096Y-80714815D01*
X92507679Y-80946924D01*
X92469500Y-81187973D01*
X92469500Y-81432027D01*
X92507679Y-81673076D01*
X92583096Y-81905185D01*
X92583100Y-81905194D01*
X92583101Y-81905195D01*
X92693892Y-82122635D01*
X92693895Y-82122641D01*
X92765619Y-82221361D01*
X92816695Y-82291661D01*
X92837344Y-82320081D01*
X92837346Y-82320084D01*
X92918920Y-82401658D01*
X92957484Y-82468453D01*
X92957484Y-82545581D01*
X92918920Y-82612376D01*
X92904269Y-82625225D01*
X92842569Y-82672570D01*
X92842568Y-82672571D01*
X92746118Y-82798265D01*
X92685486Y-82944645D01*
X92670000Y-83062281D01*
X92670000Y-83600000D01*
X93529252Y-83600000D01*
X93507482Y-83637708D01*
X93470000Y-83777591D01*
X93470000Y-83922409D01*
X93507482Y-84062292D01*
X93529252Y-84100000D01*
X92670001Y-84100000D01*
X92670001Y-84637707D01*
X92685488Y-84755360D01*
X92746119Y-84901735D01*
X92842568Y-85027428D01*
X92842571Y-85027431D01*
X92968265Y-85123881D01*
X93114645Y-85184513D01*
X93232284Y-85199999D01*
X93770000Y-85199999D01*
X93770000Y-84340747D01*
X93807708Y-84362518D01*
X93947591Y-84400000D01*
X94092409Y-84400000D01*
X94232292Y-84362518D01*
X94270000Y-84340747D01*
X94270000Y-85199999D01*
X94807707Y-85199999D01*
X94925360Y-85184511D01*
X95071735Y-85123880D01*
X95197428Y-85027431D01*
X95197431Y-85027428D01*
X95293881Y-84901734D01*
X95354513Y-84755354D01*
X95369999Y-84637718D01*
X95370000Y-84637713D01*
X95370000Y-84100000D01*
X94510748Y-84100000D01*
X94532518Y-84062292D01*
X94570000Y-83922409D01*
X94570000Y-83777591D01*
X94532518Y-83637708D01*
X94510748Y-83600000D01*
X95369999Y-83600000D01*
X95369999Y-83062292D01*
X95354511Y-82944639D01*
X95293880Y-82798264D01*
X95197431Y-82672571D01*
X95135731Y-82625226D01*
X95088779Y-82564035D01*
X95078713Y-82487567D01*
X95108229Y-82416310D01*
X95121072Y-82401665D01*
X95202655Y-82320083D01*
X95346106Y-82122639D01*
X95456904Y-81905185D01*
X95532321Y-81673076D01*
X95570500Y-81432027D01*
X95570500Y-81187973D01*
X95532321Y-80946924D01*
X95456904Y-80714815D01*
X95346106Y-80497361D01*
X95202655Y-80299917D01*
X95048097Y-80145359D01*
X95009533Y-80078564D01*
X95009533Y-80001436D01*
X95048097Y-79934641D01*
X95104397Y-79878341D01*
X95202655Y-79780083D01*
X95346106Y-79582639D01*
X95456904Y-79365185D01*
X95532321Y-79133076D01*
X95570500Y-78892027D01*
X95570500Y-78647973D01*
X104019500Y-78647973D01*
X104019500Y-78892027D01*
X104057679Y-79133076D01*
X104133096Y-79365185D01*
X104133100Y-79365194D01*
X104133101Y-79365195D01*
X104243892Y-79582635D01*
X104243895Y-79582641D01*
X104315619Y-79681361D01*
X104330338Y-79701620D01*
X104387344Y-79780081D01*
X104387346Y-79780084D01*
X104541903Y-79934641D01*
X104580467Y-80001436D01*
X104580467Y-80078564D01*
X104541903Y-80145359D01*
X104387346Y-80299915D01*
X104387344Y-80299918D01*
X104243895Y-80497358D01*
X104243892Y-80497364D01*
X104133101Y-80714804D01*
X104133098Y-80714810D01*
X104133096Y-80714815D01*
X104057679Y-80946924D01*
X104019500Y-81187973D01*
X104019500Y-81432027D01*
X104057679Y-81673076D01*
X104133096Y-81905185D01*
X104133100Y-81905194D01*
X104133101Y-81905195D01*
X104243892Y-82122635D01*
X104243895Y-82122641D01*
X104315619Y-82221361D01*
X104366695Y-82291661D01*
X104387344Y-82320081D01*
X104387346Y-82320084D01*
X104468920Y-82401658D01*
X104507484Y-82468453D01*
X104507484Y-82545581D01*
X104468920Y-82612376D01*
X104454269Y-82625225D01*
X104392569Y-82672570D01*
X104392568Y-82672571D01*
X104296118Y-82798265D01*
X104235486Y-82944645D01*
X104220000Y-83062281D01*
X104220000Y-83600000D01*
X105079252Y-83600000D01*
X105057482Y-83637708D01*
X105020000Y-83777591D01*
X105020000Y-83922409D01*
X105057482Y-84062292D01*
X105079252Y-84100000D01*
X104220001Y-84100000D01*
X104220001Y-84637707D01*
X104235488Y-84755360D01*
X104296119Y-84901735D01*
X104392568Y-85027428D01*
X104392571Y-85027431D01*
X104518265Y-85123881D01*
X104664645Y-85184513D01*
X104782284Y-85199999D01*
X105320000Y-85199999D01*
X105320000Y-84340747D01*
X105357708Y-84362518D01*
X105497591Y-84400000D01*
X105642409Y-84400000D01*
X105782292Y-84362518D01*
X105820000Y-84340747D01*
X105820000Y-85199999D01*
X106357707Y-85199999D01*
X106475360Y-85184511D01*
X106621735Y-85123880D01*
X106747428Y-85027431D01*
X106747431Y-85027428D01*
X106843881Y-84901734D01*
X106904513Y-84755354D01*
X106919999Y-84637718D01*
X106920000Y-84637713D01*
X106920000Y-84100000D01*
X106060748Y-84100000D01*
X106082518Y-84062292D01*
X106120000Y-83922409D01*
X106120000Y-83777591D01*
X106082518Y-83637708D01*
X106060748Y-83600000D01*
X106919999Y-83600000D01*
X106919999Y-83062292D01*
X106904511Y-82944639D01*
X106843880Y-82798264D01*
X106747431Y-82672571D01*
X106685731Y-82625226D01*
X106638779Y-82564035D01*
X106628713Y-82487567D01*
X106658229Y-82416310D01*
X106671072Y-82401665D01*
X106752655Y-82320083D01*
X106896106Y-82122639D01*
X107006904Y-81905185D01*
X107082321Y-81673076D01*
X107120500Y-81432027D01*
X107120500Y-81187973D01*
X107082321Y-80946924D01*
X107006904Y-80714815D01*
X106896106Y-80497361D01*
X106752655Y-80299917D01*
X106598097Y-80145359D01*
X106559533Y-80078564D01*
X106559533Y-80001436D01*
X106598097Y-79934641D01*
X106654397Y-79878341D01*
X106752655Y-79780083D01*
X106896106Y-79582639D01*
X107006904Y-79365185D01*
X107082321Y-79133076D01*
X107120500Y-78892027D01*
X107120500Y-78647973D01*
X107082321Y-78406924D01*
X107006904Y-78174815D01*
X106896106Y-77957361D01*
X106752655Y-77759917D01*
X106580083Y-77587345D01*
X106457073Y-77497973D01*
X106382641Y-77443895D01*
X106382635Y-77443892D01*
X106165195Y-77333101D01*
X106165194Y-77333100D01*
X106165185Y-77333096D01*
X105933076Y-77257679D01*
X105692027Y-77219500D01*
X105447973Y-77219500D01*
X105247098Y-77251315D01*
X105206923Y-77257679D01*
X104974821Y-77333094D01*
X104974815Y-77333096D01*
X104974810Y-77333098D01*
X104974804Y-77333101D01*
X104757364Y-77443892D01*
X104757358Y-77443895D01*
X104559918Y-77587344D01*
X104559915Y-77587346D01*
X104387346Y-77759915D01*
X104387344Y-77759918D01*
X104243895Y-77957358D01*
X104243892Y-77957364D01*
X104133101Y-78174804D01*
X104133098Y-78174810D01*
X104133096Y-78174815D01*
X104057679Y-78406924D01*
X104019500Y-78647973D01*
X95570500Y-78647973D01*
X95532321Y-78406924D01*
X95456904Y-78174815D01*
X95346106Y-77957361D01*
X95202655Y-77759917D01*
X95030083Y-77587345D01*
X94907073Y-77497973D01*
X94832641Y-77443895D01*
X94832635Y-77443892D01*
X94615195Y-77333101D01*
X94615194Y-77333100D01*
X94615185Y-77333096D01*
X94383076Y-77257679D01*
X94142027Y-77219500D01*
X93897973Y-77219500D01*
X93697098Y-77251315D01*
X93656923Y-77257679D01*
X93424821Y-77333094D01*
X93424815Y-77333096D01*
X93424810Y-77333098D01*
X93424804Y-77333101D01*
X93207364Y-77443892D01*
X93207358Y-77443895D01*
X93009918Y-77587344D01*
X93009915Y-77587346D01*
X92837346Y-77759915D01*
X92837344Y-77759918D01*
X92693895Y-77957358D01*
X92693892Y-77957364D01*
X92583101Y-78174804D01*
X92583098Y-78174810D01*
X92583096Y-78174815D01*
X92507679Y-78406924D01*
X92469500Y-78647973D01*
X92170500Y-78647973D01*
X92170500Y-69012281D01*
X97070000Y-69012281D01*
X97070000Y-69550000D01*
X97929252Y-69550000D01*
X97907482Y-69587708D01*
X97870000Y-69727591D01*
X97870000Y-69872409D01*
X97907482Y-70012292D01*
X97929252Y-70050000D01*
X97070001Y-70050000D01*
X97070001Y-70587707D01*
X97085488Y-70705360D01*
X97146119Y-70851735D01*
X97242568Y-70977428D01*
X97242571Y-70977431D01*
X97368265Y-71073881D01*
X97514645Y-71134513D01*
X97632284Y-71149999D01*
X98170000Y-71149999D01*
X98170000Y-70290747D01*
X98207708Y-70312518D01*
X98347591Y-70350000D01*
X98492409Y-70350000D01*
X98632292Y-70312518D01*
X98670000Y-70290747D01*
X98670000Y-71149999D01*
X99207707Y-71149999D01*
X99325360Y-71134511D01*
X99471735Y-71073880D01*
X99597428Y-70977431D01*
X99597431Y-70977428D01*
X99644773Y-70915732D01*
X99705962Y-70868780D01*
X99782431Y-70858713D01*
X99853688Y-70888229D01*
X99868341Y-70901079D01*
X99949917Y-70982655D01*
X100147361Y-71126106D01*
X100364815Y-71236904D01*
X100596924Y-71312321D01*
X100837973Y-71350500D01*
X100837978Y-71350500D01*
X101082022Y-71350500D01*
X101082027Y-71350500D01*
X101323076Y-71312321D01*
X101555185Y-71236904D01*
X101772639Y-71126106D01*
X101970083Y-70982655D01*
X102124641Y-70828097D01*
X102191436Y-70789533D01*
X102268564Y-70789533D01*
X102335359Y-70828097D01*
X102489917Y-70982655D01*
X102687361Y-71126106D01*
X102904815Y-71236904D01*
X103136924Y-71312321D01*
X103377973Y-71350500D01*
X103377978Y-71350500D01*
X103622022Y-71350500D01*
X103622027Y-71350500D01*
X103863076Y-71312321D01*
X104095185Y-71236904D01*
X104312639Y-71126106D01*
X104510083Y-70982655D01*
X104664641Y-70828097D01*
X104731436Y-70789533D01*
X104808564Y-70789533D01*
X104875359Y-70828097D01*
X105029917Y-70982655D01*
X105227361Y-71126106D01*
X105444815Y-71236904D01*
X105676924Y-71312321D01*
X105917973Y-71350500D01*
X105917978Y-71350500D01*
X106162022Y-71350500D01*
X106162027Y-71350500D01*
X106403076Y-71312321D01*
X106635185Y-71236904D01*
X106852639Y-71126106D01*
X107050083Y-70982655D01*
X107222655Y-70810083D01*
X107366106Y-70612639D01*
X107476904Y-70395185D01*
X107552321Y-70163076D01*
X107590500Y-69922027D01*
X107590500Y-69677973D01*
X107552321Y-69436924D01*
X107476904Y-69204815D01*
X107366106Y-68987361D01*
X107364189Y-68984723D01*
X107314583Y-68916446D01*
X107222655Y-68789917D01*
X107050083Y-68617345D01*
X106924521Y-68526119D01*
X106852641Y-68473895D01*
X106852635Y-68473892D01*
X106635195Y-68363101D01*
X106635194Y-68363100D01*
X106635185Y-68363096D01*
X106403076Y-68287679D01*
X106162027Y-68249500D01*
X105917973Y-68249500D01*
X105717098Y-68281315D01*
X105676923Y-68287679D01*
X105491706Y-68347860D01*
X105444815Y-68363096D01*
X105444810Y-68363098D01*
X105444804Y-68363101D01*
X105227364Y-68473892D01*
X105227358Y-68473895D01*
X105029918Y-68617344D01*
X105029915Y-68617346D01*
X104875359Y-68771903D01*
X104808564Y-68810467D01*
X104731436Y-68810467D01*
X104664641Y-68771903D01*
X104510084Y-68617346D01*
X104510083Y-68617345D01*
X104384521Y-68526119D01*
X104312641Y-68473895D01*
X104312635Y-68473892D01*
X104095195Y-68363101D01*
X104095194Y-68363100D01*
X104095185Y-68363096D01*
X103863076Y-68287679D01*
X103622027Y-68249500D01*
X103377973Y-68249500D01*
X103177098Y-68281315D01*
X103136923Y-68287679D01*
X102951706Y-68347860D01*
X102904815Y-68363096D01*
X102904810Y-68363098D01*
X102904804Y-68363101D01*
X102687364Y-68473892D01*
X102687358Y-68473895D01*
X102489918Y-68617344D01*
X102489915Y-68617346D01*
X102335359Y-68771903D01*
X102268564Y-68810467D01*
X102191436Y-68810467D01*
X102124641Y-68771903D01*
X101970084Y-68617346D01*
X101970083Y-68617345D01*
X101844521Y-68526119D01*
X101772641Y-68473895D01*
X101772635Y-68473892D01*
X101555195Y-68363101D01*
X101555194Y-68363100D01*
X101555185Y-68363096D01*
X101323076Y-68287679D01*
X101082027Y-68249500D01*
X100837973Y-68249500D01*
X100637098Y-68281315D01*
X100596923Y-68287679D01*
X100411706Y-68347860D01*
X100364815Y-68363096D01*
X100364810Y-68363098D01*
X100364804Y-68363101D01*
X100147364Y-68473892D01*
X100147358Y-68473895D01*
X99949918Y-68617344D01*
X99949914Y-68617347D01*
X99868340Y-68698921D01*
X99801545Y-68737484D01*
X99724417Y-68737484D01*
X99657622Y-68698919D01*
X99644773Y-68684267D01*
X99597431Y-68622571D01*
X99597428Y-68622568D01*
X99471734Y-68526118D01*
X99325354Y-68465486D01*
X99207718Y-68450000D01*
X98670000Y-68450000D01*
X98670000Y-69309252D01*
X98632292Y-69287482D01*
X98492409Y-69250000D01*
X98347591Y-69250000D01*
X98207708Y-69287482D01*
X98170000Y-69309252D01*
X98170000Y-68450000D01*
X97632292Y-68450000D01*
X97514639Y-68465488D01*
X97368264Y-68526119D01*
X97242571Y-68622568D01*
X97242568Y-68622571D01*
X97146118Y-68748265D01*
X97085486Y-68894645D01*
X97070000Y-69012281D01*
X92170500Y-69012281D01*
X92170500Y-67511763D01*
X92190462Y-67437263D01*
X92231920Y-67391219D01*
X92332365Y-67318242D01*
X92488242Y-67162365D01*
X92617815Y-66984022D01*
X92717895Y-66787606D01*
X92759825Y-66658556D01*
X92786014Y-66577956D01*
X92788823Y-66560222D01*
X92820500Y-66360222D01*
X92820500Y-66139778D01*
X92786015Y-65922049D01*
X92786014Y-65922048D01*
X92786014Y-65922043D01*
X92719059Y-65715978D01*
X92717895Y-65712394D01*
X92617815Y-65515978D01*
X92488242Y-65337635D01*
X92332365Y-65181758D01*
X92243193Y-65116971D01*
X92154024Y-65052186D01*
X92154023Y-65052185D01*
X91957606Y-64952105D01*
X91747956Y-64883985D01*
X91626990Y-64864826D01*
X91530222Y-64849500D01*
X91309778Y-64849500D01*
X91222686Y-64863294D01*
X91092043Y-64883985D01*
X90882393Y-64952105D01*
X90685976Y-65052185D01*
X90685975Y-65052186D01*
X90507636Y-65181757D01*
X90507633Y-65181759D01*
X90351759Y-65337633D01*
X90351757Y-65337636D01*
X90222186Y-65515975D01*
X90222185Y-65515976D01*
X90122105Y-65712393D01*
X90053985Y-65922043D01*
X90019500Y-66139781D01*
X90019500Y-66175290D01*
X89999538Y-66249790D01*
X89945000Y-66304328D01*
X89870500Y-66324290D01*
X89796000Y-66304328D01*
X89782920Y-66295834D01*
X89654024Y-66202186D01*
X89654023Y-66202185D01*
X89457606Y-66102105D01*
X89247956Y-66033985D01*
X89126990Y-66014826D01*
X89030222Y-65999500D01*
X88809778Y-65999500D01*
X88722686Y-66013294D01*
X88592043Y-66033985D01*
X88382393Y-66102105D01*
X88185976Y-66202185D01*
X88185975Y-66202186D01*
X88007636Y-66331757D01*
X88007633Y-66331759D01*
X87851759Y-66487633D01*
X87851757Y-66487636D01*
X87722186Y-66665975D01*
X87722185Y-66665976D01*
X87622105Y-66862393D01*
X87553985Y-67072043D01*
X87539680Y-67162365D01*
X87519500Y-67289778D01*
X87519500Y-67510222D01*
X87534826Y-67606990D01*
X87553985Y-67727956D01*
X87622105Y-67937606D01*
X87722185Y-68134023D01*
X87722186Y-68134024D01*
X87772987Y-68203945D01*
X87851758Y-68312365D01*
X88007635Y-68468242D01*
X88091459Y-68529143D01*
X88108080Y-68541219D01*
X88156618Y-68601159D01*
X88169500Y-68661763D01*
X88169500Y-81827414D01*
X88149538Y-81901914D01*
X88125859Y-81932773D01*
X86362513Y-83696118D01*
X86295718Y-83734682D01*
X86218590Y-83734682D01*
X86151795Y-83696118D01*
X86113231Y-83629323D01*
X86113231Y-83552195D01*
X86116273Y-83543234D01*
X86116086Y-83543174D01*
X86186014Y-83327956D01*
X86203394Y-83218222D01*
X86220500Y-83110222D01*
X86220500Y-82889778D01*
X86186015Y-82672049D01*
X86186014Y-82672048D01*
X86186014Y-82672043D01*
X86127727Y-82492655D01*
X86117895Y-82462394D01*
X86017815Y-82265978D01*
X85888242Y-82087635D01*
X85732365Y-81931758D01*
X85579275Y-81820532D01*
X85554024Y-81802186D01*
X85554023Y-81802185D01*
X85357606Y-81702105D01*
X85147956Y-81633985D01*
X85026990Y-81614826D01*
X84930222Y-81599500D01*
X84709778Y-81599500D01*
X84622686Y-81613294D01*
X84492043Y-81633985D01*
X84282393Y-81702105D01*
X84085976Y-81802185D01*
X84085975Y-81802186D01*
X83907636Y-81931757D01*
X83907633Y-81931759D01*
X83751759Y-82087633D01*
X83751757Y-82087636D01*
X83678781Y-82188080D01*
X83618841Y-82236618D01*
X83558237Y-82249500D01*
X74096078Y-82249500D01*
X73951088Y-82278341D01*
X73814502Y-82334916D01*
X73691585Y-82417048D01*
X73691580Y-82417052D01*
X60737049Y-95371582D01*
X60699076Y-95428415D01*
X60699075Y-95428415D01*
X60654921Y-95494495D01*
X60654913Y-95494510D01*
X60598341Y-95631088D01*
X60569500Y-95776078D01*
X60569500Y-99538237D01*
X60549538Y-99612737D01*
X60508080Y-99658780D01*
X60407644Y-99731751D01*
X60407639Y-99731754D01*
X60407635Y-99731758D01*
X60407632Y-99731761D01*
X60251759Y-99887633D01*
X60251757Y-99887636D01*
X60122186Y-100065975D01*
X60122185Y-100065976D01*
X60022105Y-100262393D01*
X59953985Y-100472043D01*
X59932101Y-100610218D01*
X59919500Y-100689778D01*
X59919500Y-100910222D01*
X59928450Y-100966727D01*
X59953985Y-101127956D01*
X60022105Y-101337606D01*
X60122185Y-101534023D01*
X60122186Y-101534024D01*
X60147047Y-101568242D01*
X60251758Y-101712365D01*
X60407635Y-101868242D01*
X60452035Y-101900500D01*
X60585975Y-101997813D01*
X60585976Y-101997814D01*
X60782391Y-102097894D01*
X60894850Y-102134434D01*
X60959535Y-102176441D01*
X60994550Y-102245162D01*
X60990513Y-102322185D01*
X60948506Y-102386870D01*
X60894850Y-102417848D01*
X60724821Y-102473094D01*
X60724809Y-102473098D01*
X60603490Y-102534914D01*
X60507361Y-102583894D01*
X60507360Y-102583895D01*
X60507354Y-102583898D01*
X60458532Y-102619369D01*
X60386526Y-102647008D01*
X60310348Y-102634941D01*
X60251674Y-102588117D01*
X60187547Y-102502455D01*
X60187544Y-102502452D01*
X60072333Y-102416204D01*
X60072329Y-102416202D01*
X59937482Y-102365908D01*
X59877876Y-102359500D01*
X57682136Y-102359500D01*
X57682111Y-102359502D01*
X57622521Y-102365908D01*
X57622515Y-102365909D01*
X57487670Y-102416202D01*
X57487666Y-102416204D01*
X57372455Y-102502452D01*
X57372452Y-102502455D01*
X57286204Y-102617666D01*
X57286202Y-102617670D01*
X57235908Y-102752517D01*
X57229500Y-102812114D01*
X54420500Y-102812114D01*
X54420500Y-85876086D01*
X54420499Y-85876078D01*
X54406458Y-85805493D01*
X54391658Y-85731087D01*
X54350515Y-85631758D01*
X54335083Y-85594502D01*
X54265832Y-85490862D01*
X54252951Y-85471584D01*
X54148416Y-85367049D01*
X50350917Y-81569550D01*
X46539220Y-77757852D01*
X42314141Y-73532773D01*
X42275577Y-73465978D01*
X42270500Y-73427414D01*
X42270500Y-71126086D01*
X42270499Y-71126078D01*
X42265730Y-71102105D01*
X42241658Y-70981087D01*
X42185084Y-70844505D01*
X42185082Y-70844502D01*
X42185083Y-70844502D01*
X42150479Y-70792715D01*
X42102951Y-70721584D01*
X42089340Y-70707973D01*
X49369500Y-70707973D01*
X49369500Y-70952027D01*
X49407679Y-71193076D01*
X49483096Y-71425185D01*
X49483100Y-71425194D01*
X49483101Y-71425195D01*
X49593892Y-71642635D01*
X49593895Y-71642641D01*
X49619973Y-71678534D01*
X49737283Y-71839998D01*
X49737344Y-71840081D01*
X49737346Y-71840084D01*
X49891903Y-71994641D01*
X49930467Y-72061436D01*
X49930467Y-72138564D01*
X49891903Y-72205359D01*
X49737346Y-72359915D01*
X49737344Y-72359918D01*
X49593895Y-72557358D01*
X49593892Y-72557364D01*
X49483101Y-72774804D01*
X49483094Y-72774821D01*
X49432103Y-72931756D01*
X49407679Y-73006924D01*
X49369500Y-73247973D01*
X49369500Y-73492027D01*
X49407679Y-73733076D01*
X49483096Y-73965185D01*
X49483100Y-73965194D01*
X49483101Y-73965195D01*
X49593892Y-74182635D01*
X49593895Y-74182641D01*
X49655446Y-74267358D01*
X49737345Y-74380083D01*
X49909917Y-74552655D01*
X50016261Y-74629918D01*
X50095362Y-74687388D01*
X50143900Y-74747328D01*
X50150751Y-74787198D01*
X50749765Y-75386212D01*
X50707708Y-75397482D01*
X50582292Y-75469890D01*
X50479890Y-75572292D01*
X50407482Y-75697708D01*
X50396212Y-75739765D01*
X49804729Y-75148282D01*
X49804728Y-75148282D01*
X49765378Y-75202444D01*
X49668906Y-75391779D01*
X49603242Y-75593871D01*
X49570000Y-75803757D01*
X49570000Y-76016242D01*
X49603242Y-76226128D01*
X49668906Y-76428220D01*
X49765378Y-76617555D01*
X49867257Y-76757780D01*
X49894897Y-76829785D01*
X49882831Y-76905964D01*
X49834293Y-76965904D01*
X49825985Y-76971522D01*
X49668384Y-77070548D01*
X49540548Y-77198384D01*
X49444372Y-77351449D01*
X49438803Y-77367364D01*
X49384665Y-77522083D01*
X49369500Y-77656674D01*
X49369500Y-79243326D01*
X49383231Y-79365185D01*
X49384665Y-79377916D01*
X49444372Y-79548550D01*
X49540548Y-79701615D01*
X49540552Y-79701620D01*
X49668380Y-79829448D01*
X49668384Y-79829451D01*
X49700292Y-79849500D01*
X49821450Y-79925628D01*
X49992083Y-79985335D01*
X50126674Y-80000500D01*
X51713326Y-80000500D01*
X51847917Y-79985335D01*
X52018550Y-79925628D01*
X52171619Y-79829449D01*
X52299449Y-79701619D01*
X52395628Y-79548550D01*
X52455335Y-79377917D01*
X52470500Y-79243326D01*
X52470500Y-77656674D01*
X52455335Y-77522083D01*
X52395628Y-77351450D01*
X52299449Y-77198381D01*
X52171619Y-77070551D01*
X52171617Y-77070550D01*
X52171615Y-77070548D01*
X52014014Y-76971522D01*
X51961553Y-76914984D01*
X51944390Y-76839789D01*
X51967124Y-76766088D01*
X51972743Y-76757779D01*
X52074620Y-76617558D01*
X52074621Y-76617555D01*
X52171093Y-76428220D01*
X52236757Y-76226128D01*
X52270000Y-76016242D01*
X52270000Y-75803757D01*
X52236757Y-75593875D01*
X52225154Y-75558161D01*
X52225153Y-75558159D01*
X52212096Y-75517973D01*
X56769500Y-75517973D01*
X56769500Y-75762027D01*
X56807679Y-76003076D01*
X56883096Y-76235185D01*
X56993894Y-76452639D01*
X57113714Y-76617558D01*
X57137344Y-76650081D01*
X57137346Y-76650084D01*
X57291903Y-76804641D01*
X57330467Y-76871436D01*
X57330467Y-76948564D01*
X57291903Y-77015359D01*
X57137346Y-77169915D01*
X57137344Y-77169918D01*
X56993895Y-77367358D01*
X56993892Y-77367364D01*
X56883101Y-77584804D01*
X56883094Y-77584821D01*
X56826202Y-77759917D01*
X56807679Y-77816924D01*
X56769500Y-78057973D01*
X56769500Y-78302027D01*
X56807679Y-78543076D01*
X56883096Y-78775185D01*
X56993894Y-78992639D01*
X57137345Y-79190083D01*
X57309917Y-79362655D01*
X57507361Y-79506106D01*
X57724815Y-79616904D01*
X57956924Y-79692321D01*
X58197973Y-79730500D01*
X58197978Y-79730500D01*
X58442022Y-79730500D01*
X58442027Y-79730500D01*
X58683076Y-79692321D01*
X58915185Y-79616904D01*
X59132639Y-79506106D01*
X59330083Y-79362655D01*
X59502655Y-79190083D01*
X59646106Y-78992639D01*
X59756904Y-78775185D01*
X59832321Y-78543076D01*
X59870500Y-78302027D01*
X59870500Y-78057973D01*
X59832321Y-77816924D01*
X59756904Y-77584815D01*
X59646106Y-77367361D01*
X59502655Y-77169917D01*
X59348097Y-77015359D01*
X59309533Y-76948564D01*
X59309533Y-76871436D01*
X59348097Y-76804641D01*
X59394959Y-76757779D01*
X59502655Y-76650083D01*
X59646106Y-76452639D01*
X59756904Y-76235185D01*
X59832321Y-76003076D01*
X59870500Y-75762027D01*
X59870500Y-75517973D01*
X59832321Y-75276924D01*
X59756904Y-75044815D01*
X59646106Y-74827361D01*
X59502655Y-74629917D01*
X59421078Y-74548340D01*
X59382515Y-74481546D01*
X59382515Y-74404418D01*
X59421079Y-74337623D01*
X59435732Y-74324773D01*
X59497428Y-74277431D01*
X59497431Y-74277428D01*
X59593881Y-74151734D01*
X59654513Y-74005354D01*
X59669999Y-73887718D01*
X59670000Y-73887713D01*
X59670000Y-73350000D01*
X58810748Y-73350000D01*
X58832518Y-73312292D01*
X58870000Y-73172409D01*
X58870000Y-73027591D01*
X58832518Y-72887708D01*
X58810748Y-72850000D01*
X59669999Y-72850000D01*
X59669999Y-72312292D01*
X59654511Y-72194639D01*
X59593880Y-72048264D01*
X59497431Y-71922571D01*
X59497428Y-71922568D01*
X59371734Y-71826118D01*
X59225354Y-71765486D01*
X59107718Y-71750000D01*
X58570000Y-71750000D01*
X58570000Y-72609252D01*
X58532292Y-72587482D01*
X58392409Y-72550000D01*
X58247591Y-72550000D01*
X58107708Y-72587482D01*
X58070000Y-72609252D01*
X58070000Y-71750000D01*
X57532292Y-71750000D01*
X57414639Y-71765488D01*
X57268264Y-71826119D01*
X57142571Y-71922568D01*
X57142568Y-71922571D01*
X57046118Y-72048265D01*
X56985486Y-72194645D01*
X56970000Y-72312281D01*
X56970000Y-72850000D01*
X57829252Y-72850000D01*
X57807482Y-72887708D01*
X57770000Y-73027591D01*
X57770000Y-73172409D01*
X57807482Y-73312292D01*
X57829252Y-73350000D01*
X56970001Y-73350000D01*
X56970001Y-73887707D01*
X56985488Y-74005360D01*
X57046119Y-74151735D01*
X57142568Y-74277428D01*
X57142571Y-74277431D01*
X57204267Y-74324773D01*
X57251220Y-74385963D01*
X57261286Y-74462432D01*
X57231770Y-74533688D01*
X57218921Y-74548340D01*
X57137347Y-74629914D01*
X57137344Y-74629918D01*
X56993895Y-74827358D01*
X56993892Y-74827364D01*
X56883101Y-75044804D01*
X56883094Y-75044821D01*
X56832015Y-75202027D01*
X56807679Y-75276924D01*
X56769500Y-75517973D01*
X52212096Y-75517973D01*
X52171093Y-75391777D01*
X52074621Y-75202444D01*
X52035270Y-75148282D01*
X51443787Y-75739764D01*
X51432518Y-75697708D01*
X51360110Y-75572292D01*
X51257708Y-75469890D01*
X51132292Y-75397482D01*
X51090232Y-75386212D01*
X51689785Y-74786660D01*
X51697730Y-74743789D01*
X51744634Y-74687390D01*
X51930083Y-74552655D01*
X52102655Y-74380083D01*
X52246106Y-74182639D01*
X52356904Y-73965185D01*
X52432321Y-73733076D01*
X52470500Y-73492027D01*
X52470500Y-73247973D01*
X52432321Y-73006924D01*
X52356904Y-72774815D01*
X52246106Y-72557361D01*
X52102655Y-72359917D01*
X51946496Y-72203758D01*
X51944958Y-72202124D01*
X51927720Y-72170066D01*
X51909533Y-72138564D01*
X51909533Y-72136240D01*
X51908432Y-72134193D01*
X51909533Y-72097810D01*
X51909533Y-72061436D01*
X51910694Y-72059423D01*
X51910765Y-72057100D01*
X51929909Y-72026143D01*
X51948097Y-71994641D01*
X52020170Y-71922568D01*
X52102655Y-71840083D01*
X52246106Y-71642639D01*
X52356904Y-71425185D01*
X52418825Y-71234612D01*
X72808940Y-71234612D01*
X72941005Y-71269999D01*
X72941009Y-71270000D01*
X73098991Y-71270000D01*
X73098992Y-71269999D01*
X73231058Y-71234612D01*
X73231059Y-71234612D01*
X74208940Y-71234612D01*
X74341005Y-71269999D01*
X74341009Y-71270000D01*
X74498991Y-71270000D01*
X74498992Y-71269999D01*
X74631058Y-71234612D01*
X74631059Y-71234612D01*
X74420000Y-71023553D01*
X74208940Y-71234612D01*
X73231059Y-71234612D01*
X73020000Y-71023553D01*
X72808940Y-71234612D01*
X52418825Y-71234612D01*
X52432321Y-71193076D01*
X52432321Y-71193071D01*
X52432323Y-71193067D01*
X52436486Y-71166783D01*
X52436487Y-71166773D01*
X52439144Y-71149999D01*
X52470500Y-70952027D01*
X52470500Y-70707973D01*
X52443042Y-70534612D01*
X72108940Y-70534612D01*
X72241005Y-70569999D01*
X72241009Y-70570000D01*
X72271000Y-70570000D01*
X72345500Y-70589962D01*
X72400038Y-70644500D01*
X72420000Y-70719000D01*
X72420000Y-70748994D01*
X72455387Y-70881058D01*
X72666446Y-70670000D01*
X72666446Y-70669999D01*
X72646556Y-70650109D01*
X72920000Y-70650109D01*
X72920000Y-70689891D01*
X72935224Y-70726645D01*
X72963355Y-70754776D01*
X73000109Y-70770000D01*
X73039891Y-70770000D01*
X73076645Y-70754776D01*
X73104776Y-70726645D01*
X73120000Y-70689891D01*
X73120000Y-70669999D01*
X73373553Y-70669999D01*
X73373553Y-70670000D01*
X73584612Y-70881059D01*
X73596271Y-70877934D01*
X73614639Y-70846120D01*
X73681434Y-70807555D01*
X73758562Y-70807555D01*
X73825357Y-70846118D01*
X73843726Y-70877934D01*
X73855387Y-70881059D01*
X74060285Y-70676160D01*
X74026928Y-70650109D01*
X74320000Y-70650109D01*
X74320000Y-70689891D01*
X74335224Y-70726645D01*
X74363355Y-70754776D01*
X74400109Y-70770000D01*
X74439891Y-70770000D01*
X74476645Y-70754776D01*
X74504776Y-70726645D01*
X74520000Y-70689891D01*
X74520000Y-70670000D01*
X74773553Y-70670000D01*
X74984612Y-70881059D01*
X74984612Y-70881058D01*
X75019999Y-70748992D01*
X75020000Y-70748990D01*
X75020000Y-70719000D01*
X75039962Y-70644500D01*
X75094500Y-70589962D01*
X75169000Y-70570000D01*
X75198991Y-70570000D01*
X75198992Y-70569999D01*
X75331058Y-70534612D01*
X75331059Y-70534612D01*
X75120000Y-70323553D01*
X74773553Y-70670000D01*
X74520000Y-70670000D01*
X74520000Y-70650109D01*
X74504776Y-70613355D01*
X74476645Y-70585224D01*
X74439891Y-70570000D01*
X74400109Y-70570000D01*
X74363355Y-70585224D01*
X74335224Y-70613355D01*
X74320000Y-70650109D01*
X74026928Y-70650109D01*
X74009595Y-70636572D01*
X74006734Y-70632777D01*
X73995947Y-70624500D01*
X73707499Y-70336053D01*
X73373553Y-70669999D01*
X73120000Y-70669999D01*
X73120000Y-70650109D01*
X73104776Y-70613355D01*
X73076645Y-70585224D01*
X73039891Y-70570000D01*
X73000109Y-70570000D01*
X72963355Y-70585224D01*
X72935224Y-70613355D01*
X72920000Y-70650109D01*
X72646556Y-70650109D01*
X72320000Y-70323553D01*
X72108940Y-70534612D01*
X52443042Y-70534612D01*
X52432321Y-70466924D01*
X52356904Y-70234815D01*
X52246106Y-70017361D01*
X52246102Y-70017356D01*
X52246099Y-70017350D01*
X52210843Y-69968825D01*
X52210841Y-69968823D01*
X52154302Y-69891003D01*
X71720000Y-69891003D01*
X71720000Y-70048994D01*
X71755387Y-70181058D01*
X71966446Y-69970000D01*
X71966446Y-69969999D01*
X71946556Y-69950109D01*
X72220000Y-69950109D01*
X72220000Y-69989891D01*
X72235224Y-70026645D01*
X72263355Y-70054776D01*
X72300109Y-70070000D01*
X72339891Y-70070000D01*
X72376645Y-70054776D01*
X72404776Y-70026645D01*
X72420000Y-69989891D01*
X72420000Y-69970000D01*
X72673553Y-69970000D01*
X73007499Y-70303946D01*
X73341446Y-69970000D01*
X73341446Y-69969999D01*
X73321556Y-69950109D01*
X73595000Y-69950109D01*
X73595000Y-69989891D01*
X73610224Y-70026645D01*
X73638355Y-70054776D01*
X73675109Y-70070000D01*
X73714891Y-70070000D01*
X73751645Y-70054776D01*
X73779776Y-70026645D01*
X73795000Y-69989891D01*
X73795000Y-69976159D01*
X74054715Y-69976159D01*
X74063862Y-69985300D01*
X74088175Y-69991811D01*
X74119055Y-70015502D01*
X74420000Y-70316446D01*
X74669399Y-70067048D01*
X74766446Y-69969999D01*
X74746556Y-69950109D01*
X75020000Y-69950109D01*
X75020000Y-69989891D01*
X75035224Y-70026645D01*
X75063355Y-70054776D01*
X75100109Y-70070000D01*
X75139891Y-70070000D01*
X75176645Y-70054776D01*
X75204776Y-70026645D01*
X75220000Y-69989891D01*
X75220000Y-69969999D01*
X75473553Y-69969999D01*
X75473553Y-69970000D01*
X75684612Y-70181059D01*
X75684612Y-70181058D01*
X75719999Y-70048992D01*
X75720000Y-70048990D01*
X75720000Y-69891009D01*
X75719999Y-69891005D01*
X75684612Y-69758940D01*
X75473553Y-69969999D01*
X75220000Y-69969999D01*
X75220000Y-69950109D01*
X75204776Y-69913355D01*
X75176645Y-69885224D01*
X75139891Y-69870000D01*
X75100109Y-69870000D01*
X75063355Y-69885224D01*
X75035224Y-69913355D01*
X75020000Y-69950109D01*
X74746556Y-69950109D01*
X74420000Y-69623553D01*
X74119056Y-69924496D01*
X74111005Y-69929143D01*
X74105410Y-69936567D01*
X74054715Y-69976159D01*
X73795000Y-69976159D01*
X73795000Y-69950109D01*
X73779776Y-69913355D01*
X73751645Y-69885224D01*
X73714891Y-69870000D01*
X73675109Y-69870000D01*
X73638355Y-69885224D01*
X73610224Y-69913355D01*
X73595000Y-69950109D01*
X73321556Y-69950109D01*
X73007500Y-69636053D01*
X72673553Y-69970000D01*
X72420000Y-69970000D01*
X72420000Y-69950109D01*
X72404776Y-69913355D01*
X72376645Y-69885224D01*
X72339891Y-69870000D01*
X72300109Y-69870000D01*
X72263355Y-69885224D01*
X72235224Y-69913355D01*
X72220000Y-69950109D01*
X71946556Y-69950109D01*
X71755386Y-69758939D01*
X71755386Y-69758940D01*
X71720000Y-69891003D01*
X52154302Y-69891003D01*
X52102655Y-69819917D01*
X51930083Y-69647345D01*
X51796099Y-69550000D01*
X51732641Y-69503895D01*
X51732635Y-69503892D01*
X51539306Y-69405386D01*
X72108939Y-69405386D01*
X72320000Y-69616446D01*
X72574229Y-69362218D01*
X72666446Y-69269999D01*
X72646556Y-69250109D01*
X72920000Y-69250109D01*
X72920000Y-69289891D01*
X72935224Y-69326645D01*
X72963355Y-69354776D01*
X73000109Y-69370000D01*
X73039891Y-69370000D01*
X73076645Y-69354776D01*
X73104776Y-69326645D01*
X73120000Y-69289891D01*
X73120000Y-69269999D01*
X73373553Y-69269999D01*
X73373553Y-69270000D01*
X73707499Y-69603946D01*
X73980416Y-69331028D01*
X74023865Y-69250109D01*
X74320000Y-69250109D01*
X74320000Y-69289891D01*
X74335224Y-69326645D01*
X74363355Y-69354776D01*
X74400109Y-69370000D01*
X74439891Y-69370000D01*
X74476645Y-69354776D01*
X74504776Y-69326645D01*
X74520000Y-69289891D01*
X74520000Y-69270000D01*
X74773553Y-69270000D01*
X75119999Y-69616446D01*
X75331059Y-69405387D01*
X75327934Y-69393726D01*
X75296118Y-69375357D01*
X75257555Y-69308562D01*
X75257555Y-69231434D01*
X75296120Y-69164639D01*
X75327934Y-69146271D01*
X75331059Y-69134612D01*
X75120000Y-68923553D01*
X74773553Y-69270000D01*
X74520000Y-69270000D01*
X74520000Y-69250109D01*
X74504776Y-69213355D01*
X74476645Y-69185224D01*
X74439891Y-69170000D01*
X74400109Y-69170000D01*
X74363355Y-69185224D01*
X74335224Y-69213355D01*
X74320000Y-69250109D01*
X74023865Y-69250109D01*
X74025458Y-69247142D01*
X73995942Y-69224496D01*
X73707499Y-68936053D01*
X73373553Y-69269999D01*
X73120000Y-69269999D01*
X73120000Y-69250109D01*
X73104776Y-69213355D01*
X73076645Y-69185224D01*
X73039891Y-69170000D01*
X73000109Y-69170000D01*
X72963355Y-69185224D01*
X72935224Y-69213355D01*
X72920000Y-69250109D01*
X72646556Y-69250109D01*
X72320000Y-68923553D01*
X72108940Y-69134612D01*
X72112064Y-69146272D01*
X72143878Y-69164640D01*
X72182442Y-69231435D01*
X72182442Y-69308563D01*
X72143878Y-69375358D01*
X72112064Y-69393725D01*
X72108939Y-69405386D01*
X51539306Y-69405386D01*
X51515195Y-69393101D01*
X51515194Y-69393100D01*
X51515185Y-69393096D01*
X51283076Y-69317679D01*
X51042027Y-69279500D01*
X50797973Y-69279500D01*
X50597098Y-69311315D01*
X50556923Y-69317679D01*
X50324821Y-69393094D01*
X50324815Y-69393096D01*
X50324810Y-69393098D01*
X50324804Y-69393101D01*
X50107364Y-69503892D01*
X50107358Y-69503895D01*
X49909918Y-69647344D01*
X49909915Y-69647346D01*
X49737346Y-69819915D01*
X49737344Y-69819918D01*
X49593895Y-70017358D01*
X49593892Y-70017364D01*
X49483101Y-70234804D01*
X49483094Y-70234821D01*
X49424739Y-70414420D01*
X49407679Y-70466924D01*
X49369500Y-70707973D01*
X42089340Y-70707973D01*
X41998416Y-70617049D01*
X41448416Y-70067048D01*
X41365478Y-70011632D01*
X41325495Y-69984916D01*
X41325494Y-69984915D01*
X41325489Y-69984912D01*
X41188914Y-69928342D01*
X41188912Y-69928341D01*
X41043921Y-69899500D01*
X41043918Y-69899500D01*
X40949591Y-69899500D01*
X40875091Y-69879538D01*
X40822774Y-69828721D01*
X40820000Y-69824223D01*
X40762712Y-69731344D01*
X40638656Y-69607288D01*
X40489334Y-69515186D01*
X40406065Y-69487593D01*
X40322798Y-69460001D01*
X40305665Y-69458250D01*
X40220009Y-69449500D01*
X40220004Y-69449500D01*
X39419996Y-69449500D01*
X39317202Y-69460001D01*
X39150666Y-69515186D01*
X39001343Y-69607288D01*
X38925359Y-69683273D01*
X38858564Y-69721837D01*
X38781436Y-69721837D01*
X38714641Y-69683273D01*
X38638656Y-69607288D01*
X38633238Y-69603946D01*
X38489334Y-69515186D01*
X38406065Y-69487593D01*
X38322798Y-69460001D01*
X38305665Y-69458250D01*
X38220009Y-69449500D01*
X38220004Y-69449500D01*
X37419996Y-69449500D01*
X37317202Y-69460001D01*
X37150666Y-69515186D01*
X37001342Y-69607288D01*
X36925357Y-69683274D01*
X36858562Y-69721837D01*
X36781434Y-69721837D01*
X36714640Y-69683273D01*
X36438502Y-69407135D01*
X36399938Y-69340340D01*
X36399938Y-69263212D01*
X36438502Y-69196417D01*
X36650196Y-68984723D01*
X36698867Y-68936053D01*
X37143917Y-68491003D01*
X71720000Y-68491003D01*
X71720000Y-68648994D01*
X71755387Y-68781058D01*
X71966446Y-68570000D01*
X71966446Y-68569999D01*
X71946556Y-68550109D01*
X72220000Y-68550109D01*
X72220000Y-68589891D01*
X72235224Y-68626645D01*
X72263355Y-68654776D01*
X72300109Y-68670000D01*
X72339891Y-68670000D01*
X72376645Y-68654776D01*
X72404776Y-68626645D01*
X72420000Y-68589891D01*
X72420000Y-68570000D01*
X72673553Y-68570000D01*
X73007499Y-68903946D01*
X73341446Y-68570000D01*
X73341446Y-68569999D01*
X73321556Y-68550109D01*
X73595000Y-68550109D01*
X73595000Y-68589891D01*
X73610224Y-68626645D01*
X73638355Y-68654776D01*
X73675109Y-68670000D01*
X73714891Y-68670000D01*
X73751645Y-68654776D01*
X73779776Y-68626645D01*
X73795000Y-68589891D01*
X73795000Y-68576159D01*
X74054715Y-68576159D01*
X74063862Y-68585300D01*
X74088175Y-68591811D01*
X74119055Y-68615502D01*
X74420000Y-68916446D01*
X74666447Y-68670000D01*
X74766446Y-68569999D01*
X74746556Y-68550109D01*
X75020000Y-68550109D01*
X75020000Y-68589891D01*
X75035224Y-68626645D01*
X75063355Y-68654776D01*
X75100109Y-68670000D01*
X75139891Y-68670000D01*
X75176645Y-68654776D01*
X75204776Y-68626645D01*
X75220000Y-68589891D01*
X75220000Y-68569999D01*
X75473553Y-68569999D01*
X75473553Y-68570000D01*
X75684612Y-68781059D01*
X75684612Y-68781058D01*
X75719999Y-68648992D01*
X75720000Y-68648990D01*
X75720000Y-68491009D01*
X75719999Y-68491005D01*
X75684612Y-68358940D01*
X75473553Y-68569999D01*
X75220000Y-68569999D01*
X75220000Y-68550109D01*
X75204776Y-68513355D01*
X75176645Y-68485224D01*
X75139891Y-68470000D01*
X75100109Y-68470000D01*
X75063355Y-68485224D01*
X75035224Y-68513355D01*
X75020000Y-68550109D01*
X74746556Y-68550109D01*
X74420000Y-68223553D01*
X74119056Y-68524496D01*
X74111005Y-68529143D01*
X74105410Y-68536567D01*
X74054715Y-68576159D01*
X73795000Y-68576159D01*
X73795000Y-68550109D01*
X73779776Y-68513355D01*
X73751645Y-68485224D01*
X73714891Y-68470000D01*
X73675109Y-68470000D01*
X73638355Y-68485224D01*
X73610224Y-68513355D01*
X73595000Y-68550109D01*
X73321556Y-68550109D01*
X73007500Y-68236053D01*
X72673553Y-68570000D01*
X72420000Y-68570000D01*
X72420000Y-68550109D01*
X72404776Y-68513355D01*
X72376645Y-68485224D01*
X72339891Y-68470000D01*
X72300109Y-68470000D01*
X72263355Y-68485224D01*
X72235224Y-68513355D01*
X72220000Y-68550109D01*
X71946556Y-68550109D01*
X71755386Y-68358939D01*
X71755386Y-68358940D01*
X71720000Y-68491003D01*
X37143917Y-68491003D01*
X37629535Y-68005386D01*
X72108939Y-68005386D01*
X72320000Y-68216446D01*
X72566447Y-67970000D01*
X72666446Y-67869999D01*
X72646556Y-67850109D01*
X72920000Y-67850109D01*
X72920000Y-67889891D01*
X72935224Y-67926645D01*
X72963355Y-67954776D01*
X73000109Y-67970000D01*
X73039891Y-67970000D01*
X73076645Y-67954776D01*
X73104776Y-67926645D01*
X73120000Y-67889891D01*
X73120000Y-67869999D01*
X73373553Y-67869999D01*
X73373553Y-67870000D01*
X73707498Y-68203945D01*
X73980417Y-67931027D01*
X74023866Y-67850109D01*
X74320000Y-67850109D01*
X74320000Y-67889891D01*
X74335224Y-67926645D01*
X74363355Y-67954776D01*
X74400109Y-67970000D01*
X74439891Y-67970000D01*
X74476645Y-67954776D01*
X74504776Y-67926645D01*
X74520000Y-67889891D01*
X74520000Y-67869999D01*
X74773553Y-67869999D01*
X74773553Y-67870000D01*
X75119999Y-68216446D01*
X75331059Y-68005387D01*
X75198994Y-67970000D01*
X75169000Y-67970000D01*
X75094500Y-67950038D01*
X75039962Y-67895500D01*
X75020000Y-67821000D01*
X75020000Y-67791009D01*
X75019999Y-67791005D01*
X74984612Y-67658940D01*
X74773553Y-67869999D01*
X74520000Y-67869999D01*
X74520000Y-67850109D01*
X74504776Y-67813355D01*
X74476645Y-67785224D01*
X74439891Y-67770000D01*
X74400109Y-67770000D01*
X74363355Y-67785224D01*
X74335224Y-67813355D01*
X74320000Y-67850109D01*
X74023866Y-67850109D01*
X74031792Y-67835347D01*
X73855386Y-67658939D01*
X73843725Y-67662064D01*
X73825358Y-67693878D01*
X73758563Y-67732442D01*
X73681435Y-67732442D01*
X73614640Y-67693878D01*
X73596272Y-67662064D01*
X73584612Y-67658940D01*
X73373553Y-67869999D01*
X73120000Y-67869999D01*
X73120000Y-67850109D01*
X73104776Y-67813355D01*
X73076645Y-67785224D01*
X73039891Y-67770000D01*
X73000109Y-67770000D01*
X72963355Y-67785224D01*
X72935224Y-67813355D01*
X72920000Y-67850109D01*
X72646556Y-67850109D01*
X72455386Y-67658939D01*
X72455386Y-67658940D01*
X72420000Y-67791003D01*
X72420000Y-67821000D01*
X72400038Y-67895500D01*
X72345500Y-67950038D01*
X72271000Y-67970000D01*
X72241003Y-67970000D01*
X72108940Y-68005386D01*
X72108939Y-68005386D01*
X37629535Y-68005386D01*
X37740780Y-67894141D01*
X37807575Y-67855577D01*
X37846139Y-67850500D01*
X37880218Y-67850500D01*
X37880222Y-67850500D01*
X38097951Y-67816015D01*
X38097952Y-67816014D01*
X38097956Y-67816014D01*
X38192717Y-67785224D01*
X38307606Y-67747895D01*
X38504022Y-67647815D01*
X38682365Y-67518242D01*
X38838242Y-67362365D01*
X38879639Y-67305386D01*
X72808939Y-67305386D01*
X73019999Y-67516446D01*
X73231059Y-67305387D01*
X73231055Y-67305386D01*
X74208939Y-67305386D01*
X74419999Y-67516446D01*
X74631059Y-67305387D01*
X74498994Y-67270000D01*
X74341003Y-67270000D01*
X74208940Y-67305386D01*
X74208939Y-67305386D01*
X73231055Y-67305386D01*
X73098994Y-67270000D01*
X72941003Y-67270000D01*
X72808940Y-67305386D01*
X72808939Y-67305386D01*
X38879639Y-67305386D01*
X38967815Y-67184022D01*
X39067895Y-66987606D01*
X39125530Y-66810222D01*
X39136014Y-66777956D01*
X39136015Y-66777951D01*
X39170500Y-66560222D01*
X39170500Y-66339778D01*
X39136015Y-66122049D01*
X39136014Y-66122048D01*
X39136014Y-66122043D01*
X39085305Y-65965978D01*
X39067895Y-65912394D01*
X38967815Y-65715978D01*
X38965210Y-65712393D01*
X38942129Y-65680625D01*
X38838242Y-65537635D01*
X38682365Y-65381758D01*
X38569146Y-65299500D01*
X38504024Y-65252186D01*
X38504023Y-65252185D01*
X38307606Y-65152105D01*
X38097956Y-65083985D01*
X37976990Y-65064826D01*
X37880222Y-65049500D01*
X37659778Y-65049500D01*
X37572686Y-65063294D01*
X37442043Y-65083985D01*
X37232393Y-65152105D01*
X37035976Y-65252185D01*
X37035975Y-65252186D01*
X36857636Y-65381757D01*
X36857633Y-65381759D01*
X36701759Y-65537633D01*
X36701757Y-65537636D01*
X36572186Y-65715975D01*
X36572185Y-65715976D01*
X36472105Y-65912393D01*
X36403985Y-66122043D01*
X36383753Y-66249790D01*
X36370771Y-66331759D01*
X36369500Y-66339781D01*
X36369500Y-66373861D01*
X36349538Y-66448361D01*
X36325859Y-66479220D01*
X34457220Y-68347859D01*
X34457218Y-68347861D01*
X34457217Y-68347860D01*
X34355580Y-68449499D01*
X34355580Y-68449500D01*
X33582221Y-69222858D01*
X33442864Y-69362214D01*
X33442860Y-69362219D01*
X33333368Y-69526084D01*
X33333367Y-69526087D01*
X33257949Y-69708163D01*
X33257948Y-69708165D01*
X33225878Y-69869389D01*
X33221580Y-69891005D01*
X33219500Y-69901460D01*
X30200500Y-69901460D01*
X30200500Y-60349500D01*
X30220462Y-60275000D01*
X30275000Y-60220462D01*
X30349500Y-60200500D01*
X51108782Y-60200500D01*
X51183282Y-60220462D01*
G37*
%TD.AperFunction*%
%TD*%
%TA.AperFunction,Conductor*%
%TO.N,+3.3V*%
G36*
X64942669Y-120570064D02*
G01*
X64988611Y-120622706D01*
X65000000Y-120674617D01*
X65000000Y-139156503D01*
X64980315Y-139223542D01*
X64972828Y-139233965D01*
X64237230Y-140153462D01*
X64179979Y-140193514D01*
X64140402Y-140200000D01*
X53250000Y-140200000D01*
X52614561Y-140200000D01*
X52547522Y-140180315D01*
X52512976Y-140147109D01*
X52218903Y-139727005D01*
X52180299Y-139671856D01*
X51872415Y-139232021D01*
X51850097Y-139165812D01*
X51850000Y-139160912D01*
X51850000Y-138570500D01*
X52357500Y-138570500D01*
X52368108Y-138689825D01*
X52368109Y-138689828D01*
X52424057Y-138885361D01*
X52518221Y-139065629D01*
X52646746Y-139223253D01*
X52804370Y-139351778D01*
X52984638Y-139445942D01*
X53180171Y-139501890D01*
X53180174Y-139501891D01*
X53299499Y-139512499D01*
X53299502Y-139512500D01*
X54507500Y-139512500D01*
X55007500Y-139512500D01*
X56215498Y-139512500D01*
X56215500Y-139512499D01*
X56334825Y-139501891D01*
X56334828Y-139501890D01*
X56530361Y-139445942D01*
X56710629Y-139351778D01*
X56868253Y-139223253D01*
X56996778Y-139065629D01*
X57011479Y-139037486D01*
X60882501Y-139037486D01*
X60892994Y-139140197D01*
X60948141Y-139306619D01*
X60948143Y-139306624D01*
X61040184Y-139455845D01*
X61164154Y-139579815D01*
X61313375Y-139671856D01*
X61313380Y-139671858D01*
X61479802Y-139727005D01*
X61479809Y-139727006D01*
X61582519Y-139737499D01*
X62307499Y-139737499D01*
X62807500Y-139737499D01*
X63532472Y-139737499D01*
X63532486Y-139737498D01*
X63635197Y-139727005D01*
X63801619Y-139671858D01*
X63801624Y-139671856D01*
X63950845Y-139579815D01*
X64074815Y-139455845D01*
X64166856Y-139306624D01*
X64166858Y-139306619D01*
X64222005Y-139140197D01*
X64222006Y-139140190D01*
X64232499Y-139037486D01*
X64232500Y-139037473D01*
X64232500Y-138362500D01*
X62807500Y-138362500D01*
X62807500Y-139737499D01*
X62307499Y-139737499D01*
X62307500Y-139737498D01*
X62307500Y-138362500D01*
X60882501Y-138362500D01*
X60882501Y-139037486D01*
X57011479Y-139037486D01*
X57090942Y-138885361D01*
X57146890Y-138689828D01*
X57146891Y-138689825D01*
X57157499Y-138570500D01*
X57157500Y-138570498D01*
X57157500Y-138262500D01*
X55007500Y-138262500D01*
X55007500Y-139512500D01*
X54507500Y-139512500D01*
X54507500Y-138262500D01*
X52357500Y-138262500D01*
X52357500Y-138570500D01*
X51850000Y-138570500D01*
X51850000Y-137454499D01*
X52357500Y-137454499D01*
X52357500Y-137762500D01*
X54507500Y-137762500D01*
X55007500Y-137762500D01*
X57157500Y-137762500D01*
X57157500Y-137454502D01*
X57157499Y-137454499D01*
X57146891Y-137335174D01*
X57113500Y-137218476D01*
X57113500Y-137218475D01*
X57104641Y-137187513D01*
X60882500Y-137187513D01*
X60882500Y-137862500D01*
X62307500Y-137862500D01*
X62807500Y-137862500D01*
X64232499Y-137862500D01*
X64232499Y-137187528D01*
X64232498Y-137187513D01*
X64222005Y-137084802D01*
X64166858Y-136918380D01*
X64166856Y-136918375D01*
X64074815Y-136769154D01*
X63950845Y-136645184D01*
X63801624Y-136553143D01*
X63801619Y-136553141D01*
X63635197Y-136497994D01*
X63635190Y-136497993D01*
X63532486Y-136487500D01*
X62807500Y-136487500D01*
X62807500Y-137862500D01*
X62307500Y-137862500D01*
X62307500Y-136487500D01*
X61582528Y-136487500D01*
X61582512Y-136487501D01*
X61479802Y-136497994D01*
X61313380Y-136553141D01*
X61313375Y-136553143D01*
X61164154Y-136645184D01*
X61040184Y-136769154D01*
X60948143Y-136918375D01*
X60948141Y-136918380D01*
X60892994Y-137084802D01*
X60892993Y-137084809D01*
X60882500Y-137187513D01*
X57104641Y-137187513D01*
X57090942Y-137139638D01*
X56996778Y-136959370D01*
X56868253Y-136801746D01*
X56710629Y-136673221D01*
X56530361Y-136579057D01*
X56334828Y-136523109D01*
X56334825Y-136523108D01*
X56215500Y-136512500D01*
X55007500Y-136512500D01*
X55007500Y-137762500D01*
X54507500Y-137762500D01*
X54507500Y-136512500D01*
X53299499Y-136512500D01*
X53180174Y-136523108D01*
X53180171Y-136523109D01*
X52984638Y-136579057D01*
X52804370Y-136673221D01*
X52646746Y-136801746D01*
X52518221Y-136959370D01*
X52424057Y-137139638D01*
X52368109Y-137335171D01*
X52368108Y-137335174D01*
X52357500Y-137454499D01*
X51850000Y-137454499D01*
X51850000Y-134053187D01*
X51869685Y-133986148D01*
X51888538Y-133963342D01*
X55949999Y-130100001D01*
X55950000Y-130100000D01*
X55950000Y-120705830D01*
X55969685Y-120638791D01*
X56022489Y-120593036D01*
X56073556Y-120581831D01*
X64875560Y-120550618D01*
X64942669Y-120570064D01*
G37*
%TD.AperFunction*%
%TD*%
D48*
X38470000Y-105200000D03*
X41170000Y-85600000D03*
X38120000Y-114200000D03*
X39520000Y-95000000D03*
X37770000Y-66450000D03*
X68270000Y-113300000D03*
X54400000Y-114400000D03*
X107000000Y-62400000D03*
X34220000Y-66400000D03*
X94220000Y-67300000D03*
X68970000Y-84300000D03*
X42000000Y-140500000D03*
X98770000Y-82000000D03*
X36200000Y-124200000D03*
X76400000Y-105600000D03*
X61976000Y-156210000D03*
X113600000Y-92800000D03*
X58070000Y-92450000D03*
X36620001Y-73999999D03*
X57320000Y-110700000D03*
X109474000Y-141732000D03*
X84709000Y-118999000D03*
D49*
X87000000Y-143500000D03*
D48*
X107442000Y-115824000D03*
X68720000Y-98300000D03*
X112320000Y-86700000D03*
X111820000Y-66700000D03*
X61320000Y-100800000D03*
X84820000Y-83000000D03*
X91420000Y-66250000D03*
X65800000Y-97000004D03*
X63200000Y-98799998D03*
X88920000Y-67400000D03*
X110470002Y-72400000D03*
X90120000Y-88600000D03*
X75800006Y-100500000D03*
X76420000Y-97300000D03*
X74470000Y-94950000D03*
D50*
X37400000Y-146000000D03*
X37400000Y-152000000D03*
D51*
X42100000Y-149000000D03*
D52*
X72320000Y-68570000D03*
X72320000Y-69970000D03*
X73020000Y-67870000D03*
X73020000Y-69270000D03*
X73020000Y-70670000D03*
X73695000Y-68570000D03*
X73695000Y-69970000D03*
X74420000Y-67870000D03*
X74420000Y-69270000D03*
X74420000Y-70670000D03*
X75120000Y-68570000D03*
X75120000Y-69970000D03*
D48*
X95432500Y-141150000D03*
X95432500Y-133350000D03*
X52932500Y-148550000D03*
X52932500Y-125950000D03*
X94000000Y-116200000D03*
X94000000Y-113660000D03*
X94000000Y-111120000D03*
X105570000Y-83850000D03*
X105570000Y-81310000D03*
X105570000Y-78770000D03*
X114000000Y-116200000D03*
X114000000Y-113660000D03*
X114000000Y-111120000D03*
X115062000Y-148590000D03*
X107442000Y-148590000D03*
X48557500Y-106400000D03*
X48557500Y-103860000D03*
X50920000Y-78450000D03*
X50920000Y-75910000D03*
X50920000Y-73370000D03*
X50920000Y-70830000D03*
X83620000Y-90150000D03*
X81080000Y-90150000D03*
X78540000Y-90150000D03*
X76000000Y-90150000D03*
X98420000Y-69800000D03*
X100960000Y-69800000D03*
X103500000Y-69800000D03*
X106040000Y-69800000D03*
X48507500Y-115750000D03*
X48507500Y-113210000D03*
X81026000Y-148590000D03*
X73406000Y-148590000D03*
X48520000Y-87700000D03*
X48520000Y-85160000D03*
X46357500Y-145632500D03*
X46357500Y-140552500D03*
X46357500Y-143092500D03*
X46357500Y-138012500D03*
X48507500Y-97050000D03*
X48507500Y-94510000D03*
X58320000Y-73100000D03*
X58320000Y-75640000D03*
X58320000Y-78180000D03*
X98044000Y-148590000D03*
X90424000Y-148590000D03*
X58780000Y-103910000D03*
X58780000Y-106450000D03*
X61320000Y-103910000D03*
X61320000Y-106450000D03*
X63860000Y-103910000D03*
X63860000Y-106450000D03*
X60250000Y-116250000D03*
X62790000Y-116250000D03*
X94020000Y-83850000D03*
X94020000Y-81310000D03*
X94020000Y-78770000D03*
X115370000Y-70000000D03*
X115370000Y-72540000D03*
X115370000Y-75080000D03*
X115370000Y-77620000D03*
X115370000Y-80160000D03*
X115370000Y-82700000D03*
M02*
