%TF.GenerationSoftware,KiCad,Pcbnew,9.0.5*%
%TF.CreationDate,2025-10-21T15:42:54-03:00*%
%TF.ProjectId,v0.2,76302e32-2e6b-4696-9361-645f70636258,rev?*%
%TF.SameCoordinates,Original*%
%TF.FileFunction,Profile,NP*%
%FSLAX46Y46*%
G04 Gerber Fmt 4.6, Leading zero omitted, Abs format (unit mm)*
G04 Created by KiCad (PCBNEW 9.0.5) date 2025-10-21 15:42:54*
%MOMM*%
%LPD*%
G01*
G04 APERTURE LIST*
%TA.AperFunction,Profile*%
%ADD10C,0.050000*%
%TD*%
%ADD11O,3.000000X1.000000*%
%ADD12O,1.000000X3.000000*%
%ADD13C,0.200000*%
%ADD14C,0.350000*%
G04 APERTURE END LIST*
D10*
X30000000Y-60000000D02*
X120000000Y-60000000D01*
X120000000Y-160000000D01*
X30000000Y-160000000D01*
X30000000Y-60000000D01*
D11*
X37400000Y-146000000D03*
X37400000Y-152000000D03*
D12*
X42100000Y-149000000D03*
D13*
X72320000Y-68570000D03*
X72320000Y-69970000D03*
X73020000Y-67870000D03*
X73020000Y-69270000D03*
X73020000Y-70670000D03*
X73695000Y-68570000D03*
X73695000Y-69970000D03*
X74420000Y-67870000D03*
X74420000Y-69270000D03*
X74420000Y-70670000D03*
X75120000Y-68570000D03*
X75120000Y-69970000D03*
D14*
X95432500Y-141150000D03*
X95432500Y-133350000D03*
X52932500Y-148550000D03*
X52932500Y-125950000D03*
X94000000Y-116200000D03*
X94000000Y-113660000D03*
X94000000Y-111120000D03*
X105570000Y-83850000D03*
X105570000Y-81310000D03*
X105570000Y-78770000D03*
X114000000Y-116200000D03*
X114000000Y-113660000D03*
X114000000Y-111120000D03*
X115062000Y-148590000D03*
X107442000Y-148590000D03*
X48557500Y-106400000D03*
X48557500Y-103860000D03*
X50920000Y-78450000D03*
X50920000Y-75910000D03*
X50920000Y-73370000D03*
X50920000Y-70830000D03*
X83620000Y-90150000D03*
X81080000Y-90150000D03*
X78540000Y-90150000D03*
X76000000Y-90150000D03*
X98420000Y-69800000D03*
X100960000Y-69800000D03*
X103500000Y-69800000D03*
X106040000Y-69800000D03*
X48507500Y-115750000D03*
X48507500Y-113210000D03*
X81026000Y-148590000D03*
X73406000Y-148590000D03*
X48520000Y-87700000D03*
X48520000Y-85160000D03*
X46357500Y-145632500D03*
X46357500Y-140552500D03*
X46357500Y-143092500D03*
X46357500Y-138012500D03*
X48507500Y-97050000D03*
X48507500Y-94510000D03*
X58320000Y-73100000D03*
X58320000Y-75640000D03*
X58320000Y-78180000D03*
X98044000Y-148590000D03*
X90424000Y-148590000D03*
X58780000Y-103910000D03*
X58780000Y-106450000D03*
X61320000Y-103910000D03*
X61320000Y-106450000D03*
X63860000Y-103910000D03*
X63860000Y-106450000D03*
X60250000Y-116250000D03*
X62790000Y-116250000D03*
X94020000Y-83850000D03*
X94020000Y-81310000D03*
X94020000Y-78770000D03*
X115370000Y-70000000D03*
X115370000Y-72540000D03*
X115370000Y-75080000D03*
X115370000Y-77620000D03*
X115370000Y-80160000D03*
X115370000Y-82700000D03*
M02*
