%TF.GenerationSoftware,KiCad,Pcbnew,9.0.5*%
%TF.CreationDate,2025-10-21T15:42:54-03:00*%
%TF.ProjectId,v0.2,76302e32-2e6b-4696-9361-645f70636258,rev?*%
%TF.SameCoordinates,Original*%
%TF.FileFunction,Paste,Top*%
%TF.FilePolarity,Positive*%
%FSLAX46Y46*%
G04 Gerber Fmt 4.6, Leading zero omitted, Abs format (unit mm)*
G04 Created by KiCad (PCBNEW 9.0.5) date 2025-10-21 15:42:54*
%MOMM*%
%LPD*%
G01*
G04 APERTURE LIST*
G04 Aperture macros list*
%AMRoundRect*
0 Rectangle with rounded corners*
0 $1 Rounding radius*
0 $2 $3 $4 $5 $6 $7 $8 $9 X,Y pos of 4 corners*
0 Add a 4 corners polygon primitive as box body*
4,1,4,$2,$3,$4,$5,$6,$7,$8,$9,$2,$3,0*
0 Add four circle primitives for the rounded corners*
1,1,$1+$1,$2,$3*
1,1,$1+$1,$4,$5*
1,1,$1+$1,$6,$7*
1,1,$1+$1,$8,$9*
0 Add four rect primitives between the rounded corners*
20,1,$1+$1,$2,$3,$4,$5,0*
20,1,$1+$1,$4,$5,$6,$7,0*
20,1,$1+$1,$6,$7,$8,$9,0*
20,1,$1+$1,$8,$9,$2,$3,0*%
G04 Aperture macros list end*
%ADD10RoundRect,0.250000X-0.350000X-0.450000X0.350000X-0.450000X0.350000X0.450000X-0.350000X0.450000X0*%
%ADD11RoundRect,0.250000X-0.337500X-0.475000X0.337500X-0.475000X0.337500X0.475000X-0.337500X0.475000X0*%
%ADD12RoundRect,0.250000X0.337500X0.475000X-0.337500X0.475000X-0.337500X-0.475000X0.337500X-0.475000X0*%
%ADD13RoundRect,0.250000X0.350000X0.450000X-0.350000X0.450000X-0.350000X-0.450000X0.350000X-0.450000X0*%
%ADD14R,1.500000X0.800000*%
%ADD15R,0.800000X1.500000*%
%ADD16R,0.900000X0.900000*%
%ADD17O,3.000000X1.000000*%
%ADD18O,1.000000X3.000000*%
%ADD19C,0.200000*%
%ADD20C,0.350000*%
G04 APERTURE END LIST*
D10*
%TO.C,R2*%
X41200000Y-106400000D03*
X43200000Y-106400000D03*
%TD*%
D11*
%TO.C,C5*%
X43032500Y-83650000D03*
X45107500Y-83650000D03*
%TD*%
D12*
%TO.C,C1*%
X42457500Y-63600000D03*
X40382500Y-63600000D03*
%TD*%
D10*
%TO.C,R1*%
X41320000Y-115700000D03*
X43320000Y-115700000D03*
%TD*%
D11*
%TO.C,C7*%
X61212500Y-110750000D03*
X63287500Y-110750000D03*
%TD*%
D13*
%TO.C,R5*%
X67470000Y-100750000D03*
X65470000Y-100750000D03*
%TD*%
D14*
%TO.C,U1*%
X66470000Y-61550000D03*
X66470000Y-62820000D03*
X66470000Y-64090000D03*
X66470000Y-65360000D03*
X66470000Y-66630000D03*
X66470000Y-67900000D03*
X66470000Y-69170000D03*
X66470000Y-70440000D03*
X66470000Y-71710000D03*
X66470000Y-72980000D03*
X66470000Y-74250000D03*
X66470000Y-75520000D03*
X66470000Y-76790000D03*
X66470000Y-78060000D03*
D15*
X69510000Y-79310000D03*
X70780000Y-79310000D03*
X72050000Y-79310000D03*
X73320000Y-79310000D03*
X74590000Y-79310000D03*
X75860000Y-79310000D03*
X77130000Y-79310000D03*
X78400000Y-79310000D03*
X79670000Y-79310000D03*
X80940000Y-79310000D03*
D14*
X83970000Y-78060000D03*
X83970000Y-76790000D03*
X83970000Y-75520000D03*
X83970000Y-74250000D03*
X83970000Y-72980000D03*
X83970000Y-71710000D03*
X83970000Y-70440000D03*
X83970000Y-69170000D03*
X83970000Y-67900000D03*
X83970000Y-66630000D03*
X83970000Y-65360000D03*
X83970000Y-64090000D03*
X83970000Y-62820000D03*
X83970000Y-61550000D03*
D16*
X72320000Y-67870000D03*
X72320000Y-69270000D03*
X72320000Y-70670000D03*
X73720000Y-67870000D03*
X73720000Y-69270000D03*
X73720000Y-70670000D03*
X75120000Y-67870000D03*
X75120000Y-69270000D03*
X75120000Y-70670000D03*
%TD*%
D10*
%TO.C,R4*%
X41182500Y-87740000D03*
X43182500Y-87740000D03*
%TD*%
%TO.C,R3*%
X41220000Y-97000000D03*
X43220000Y-97000000D03*
%TD*%
D11*
%TO.C,C2*%
X43082500Y-113200000D03*
X45157500Y-113200000D03*
%TD*%
%TO.C,C3*%
X43182500Y-103900000D03*
X45257500Y-103900000D03*
%TD*%
%TO.C,C4*%
X43182500Y-94500000D03*
X45257500Y-94500000D03*
%TD*%
D17*
X37400000Y-146000000D03*
X37400000Y-152000000D03*
D18*
X42100000Y-149000000D03*
D19*
X72320000Y-68570000D03*
X72320000Y-69970000D03*
X73020000Y-67870000D03*
X73020000Y-69270000D03*
X73020000Y-70670000D03*
X73695000Y-68570000D03*
X73695000Y-69970000D03*
X74420000Y-67870000D03*
X74420000Y-69270000D03*
X74420000Y-70670000D03*
X75120000Y-68570000D03*
X75120000Y-69970000D03*
D20*
X95432500Y-141150000D03*
X95432500Y-133350000D03*
X52932500Y-148550000D03*
X52932500Y-125950000D03*
X94000000Y-116200000D03*
X94000000Y-113660000D03*
X94000000Y-111120000D03*
X105570000Y-83850000D03*
X105570000Y-81310000D03*
X105570000Y-78770000D03*
X114000000Y-116200000D03*
X114000000Y-113660000D03*
X114000000Y-111120000D03*
X115062000Y-148590000D03*
X107442000Y-148590000D03*
X48557500Y-106400000D03*
X48557500Y-103860000D03*
X50920000Y-78450000D03*
X50920000Y-75910000D03*
X50920000Y-73370000D03*
X50920000Y-70830000D03*
X83620000Y-90150000D03*
X81080000Y-90150000D03*
X78540000Y-90150000D03*
X76000000Y-90150000D03*
X98420000Y-69800000D03*
X100960000Y-69800000D03*
X103500000Y-69800000D03*
X106040000Y-69800000D03*
X48507500Y-115750000D03*
X48507500Y-113210000D03*
X81026000Y-148590000D03*
X73406000Y-148590000D03*
X48520000Y-87700000D03*
X48520000Y-85160000D03*
X46357500Y-145632500D03*
X46357500Y-140552500D03*
X46357500Y-143092500D03*
X46357500Y-138012500D03*
X48507500Y-97050000D03*
X48507500Y-94510000D03*
X58320000Y-73100000D03*
X58320000Y-75640000D03*
X58320000Y-78180000D03*
X98044000Y-148590000D03*
X90424000Y-148590000D03*
X58780000Y-103910000D03*
X58780000Y-106450000D03*
X61320000Y-103910000D03*
X61320000Y-106450000D03*
X63860000Y-103910000D03*
X63860000Y-106450000D03*
X60250000Y-116250000D03*
X62790000Y-116250000D03*
X94020000Y-83850000D03*
X94020000Y-81310000D03*
X94020000Y-78770000D03*
X115370000Y-70000000D03*
X115370000Y-72540000D03*
X115370000Y-75080000D03*
X115370000Y-77620000D03*
X115370000Y-80160000D03*
X115370000Y-82700000D03*
M02*
