%TF.GenerationSoftware,KiCad,Pcbnew,9.0.5*%
%TF.CreationDate,2025-10-21T15:42:54-03:00*%
%TF.ProjectId,v0.2,76302e32-2e6b-4696-9361-645f70636258,rev?*%
%TF.SameCoordinates,Original*%
%TF.FileFunction,Paste,Bot*%
%TF.FilePolarity,Positive*%
%FSLAX46Y46*%
G04 Gerber Fmt 4.6, Leading zero omitted, Abs format (unit mm)*
G04 Created by KiCad (PCBNEW 9.0.5) date 2025-10-21 15:42:54*
%MOMM*%
%LPD*%
G01*
G04 APERTURE LIST*
G04 Aperture macros list*
%AMRoundRect*
0 Rectangle with rounded corners*
0 $1 Rounding radius*
0 $2 $3 $4 $5 $6 $7 $8 $9 X,Y pos of 4 corners*
0 Add a 4 corners polygon primitive as box body*
4,1,4,$2,$3,$4,$5,$6,$7,$8,$9,$2,$3,0*
0 Add four circle primitives for the rounded corners*
1,1,$1+$1,$2,$3*
1,1,$1+$1,$4,$5*
1,1,$1+$1,$6,$7*
1,1,$1+$1,$8,$9*
0 Add four rect primitives between the rounded corners*
20,1,$1+$1,$2,$3,$4,$5,0*
20,1,$1+$1,$4,$5,$6,$7,0*
20,1,$1+$1,$6,$7,$8,$9,0*
20,1,$1+$1,$8,$9,$2,$3,0*%
G04 Aperture macros list end*
%ADD10RoundRect,0.250000X-0.475000X0.337500X-0.475000X-0.337500X0.475000X-0.337500X0.475000X0.337500X0*%
%ADD11RoundRect,0.250000X-0.350000X-0.450000X0.350000X-0.450000X0.350000X0.450000X-0.350000X0.450000X0*%
%ADD12RoundRect,0.137500X0.662500X0.137500X-0.662500X0.137500X-0.662500X-0.137500X0.662500X-0.137500X0*%
%ADD13RoundRect,0.375000X0.375000X-0.625000X0.375000X0.625000X-0.375000X0.625000X-0.375000X-0.625000X0*%
%ADD14RoundRect,0.500000X1.400000X-0.500000X1.400000X0.500000X-1.400000X0.500000X-1.400000X-0.500000X0*%
%ADD15RoundRect,0.250001X0.624999X-0.462499X0.624999X0.462499X-0.624999X0.462499X-0.624999X-0.462499X0*%
%ADD16RoundRect,0.250000X0.337500X0.475000X-0.337500X0.475000X-0.337500X-0.475000X0.337500X-0.475000X0*%
%ADD17RoundRect,0.250000X0.450000X-0.350000X0.450000X0.350000X-0.450000X0.350000X-0.450000X-0.350000X0*%
%ADD18RoundRect,0.250000X-0.450000X0.350000X-0.450000X-0.350000X0.450000X-0.350000X0.450000X0.350000X0*%
%ADD19R,1.900000X1.200000*%
%ADD20R,1.780000X2.000000*%
%ADD21RoundRect,0.250000X0.875000X0.925000X-0.875000X0.925000X-0.875000X-0.925000X0.875000X-0.925000X0*%
%ADD22RoundRect,0.250000X-0.925000X0.875000X-0.925000X-0.875000X0.925000X-0.875000X0.925000X0.875000X0*%
%ADD23O,3.000000X1.000000*%
%ADD24O,1.000000X3.000000*%
%ADD25C,0.200000*%
%ADD26C,0.350000*%
G04 APERTURE END LIST*
D10*
%TO.C,C10*%
X66957500Y-139512500D03*
X66957500Y-141587500D03*
%TD*%
D11*
%TO.C,R8*%
X78800000Y-100000000D03*
X80800000Y-100000000D03*
%TD*%
D12*
%TO.C,U4*%
X77000000Y-125500000D03*
X77000000Y-128040000D03*
X70500000Y-128040000D03*
X70500000Y-125500000D03*
%TD*%
D13*
%TO.C,U5*%
X57057500Y-144312500D03*
X54757500Y-144312500D03*
D14*
X54757500Y-138012500D03*
D13*
X52457500Y-144312500D03*
%TD*%
D11*
%TO.C,R10*%
X97200000Y-96600000D03*
X99200000Y-96600000D03*
%TD*%
D15*
%TO.C,F1*%
X70420000Y-109637500D03*
X70420000Y-106662500D03*
%TD*%
D16*
%TO.C,C8*%
X42837500Y-127000000D03*
X40762500Y-127000000D03*
%TD*%
D17*
%TO.C,R11*%
X76600000Y-137144000D03*
X76600000Y-135144000D03*
%TD*%
D18*
%TO.C,R7*%
X83600000Y-113200000D03*
X83600000Y-115200000D03*
%TD*%
D11*
%TO.C,R6*%
X37820000Y-70650000D03*
X39820000Y-70650000D03*
%TD*%
D19*
%TO.C,BR1*%
X82996420Y-138439590D03*
X82996420Y-133339590D03*
X91246420Y-138439590D03*
X91246420Y-133339590D03*
%TD*%
D20*
%TO.C,U3*%
X103460000Y-100035000D03*
X106000000Y-100035000D03*
X108540000Y-100035000D03*
X108540000Y-109565000D03*
X106000000Y-109565000D03*
X103460000Y-109565000D03*
%TD*%
D18*
%TO.C,R9*%
X103400000Y-113000000D03*
X103400000Y-115000000D03*
%TD*%
D20*
%TO.C,U2*%
X83660000Y-100035000D03*
X86200000Y-100035000D03*
X88740000Y-100035000D03*
X88740000Y-109565000D03*
X86200000Y-109565000D03*
X83660000Y-109565000D03*
%TD*%
D21*
%TO.C,C9*%
X44600000Y-131400000D03*
X39500000Y-131400000D03*
%TD*%
D22*
%TO.C,C11*%
X62557500Y-138112500D03*
X62557500Y-143212500D03*
%TD*%
D23*
X37400000Y-146000000D03*
X37400000Y-152000000D03*
D24*
X42100000Y-149000000D03*
D25*
X72320000Y-68570000D03*
X72320000Y-69970000D03*
X73020000Y-67870000D03*
X73020000Y-69270000D03*
X73020000Y-70670000D03*
X73695000Y-68570000D03*
X73695000Y-69970000D03*
X74420000Y-67870000D03*
X74420000Y-69270000D03*
X74420000Y-70670000D03*
X75120000Y-68570000D03*
X75120000Y-69970000D03*
D26*
X95432500Y-141150000D03*
X95432500Y-133350000D03*
X52932500Y-148550000D03*
X52932500Y-125950000D03*
X94000000Y-116200000D03*
X94000000Y-113660000D03*
X94000000Y-111120000D03*
X105570000Y-83850000D03*
X105570000Y-81310000D03*
X105570000Y-78770000D03*
X114000000Y-116200000D03*
X114000000Y-113660000D03*
X114000000Y-111120000D03*
X115062000Y-148590000D03*
X107442000Y-148590000D03*
X48557500Y-106400000D03*
X48557500Y-103860000D03*
X50920000Y-78450000D03*
X50920000Y-75910000D03*
X50920000Y-73370000D03*
X50920000Y-70830000D03*
X83620000Y-90150000D03*
X81080000Y-90150000D03*
X78540000Y-90150000D03*
X76000000Y-90150000D03*
X98420000Y-69800000D03*
X100960000Y-69800000D03*
X103500000Y-69800000D03*
X106040000Y-69800000D03*
X48507500Y-115750000D03*
X48507500Y-113210000D03*
X81026000Y-148590000D03*
X73406000Y-148590000D03*
X48520000Y-87700000D03*
X48520000Y-85160000D03*
X46357500Y-145632500D03*
X46357500Y-140552500D03*
X46357500Y-143092500D03*
X46357500Y-138012500D03*
X48507500Y-97050000D03*
X48507500Y-94510000D03*
X58320000Y-73100000D03*
X58320000Y-75640000D03*
X58320000Y-78180000D03*
X98044000Y-148590000D03*
X90424000Y-148590000D03*
X58780000Y-103910000D03*
X58780000Y-106450000D03*
X61320000Y-103910000D03*
X61320000Y-106450000D03*
X63860000Y-103910000D03*
X63860000Y-106450000D03*
X60250000Y-116250000D03*
X62790000Y-116250000D03*
X94020000Y-83850000D03*
X94020000Y-81310000D03*
X94020000Y-78770000D03*
X115370000Y-70000000D03*
X115370000Y-72540000D03*
X115370000Y-75080000D03*
X115370000Y-77620000D03*
X115370000Y-80160000D03*
X115370000Y-82700000D03*
M02*
