%TF.GenerationSoftware,KiCad,Pcbnew,9.0.5*%
%TF.CreationDate,2025-10-21T15:42:54-03:00*%
%TF.ProjectId,v0.2,76302e32-2e6b-4696-9361-645f70636258,rev?*%
%TF.SameCoordinates,Original*%
%TF.FileFunction,Copper,L1,Top*%
%TF.FilePolarity,Positive*%
%FSLAX46Y46*%
G04 Gerber Fmt 4.6, Leading zero omitted, Abs format (unit mm)*
G04 Created by KiCad (PCBNEW 9.0.5) date 2025-10-21 15:42:54*
%MOMM*%
%LPD*%
G01*
G04 APERTURE LIST*
G04 Aperture macros list*
%AMRoundRect*
0 Rectangle with rounded corners*
0 $1 Rounding radius*
0 $2 $3 $4 $5 $6 $7 $8 $9 X,Y pos of 4 corners*
0 Add a 4 corners polygon primitive as box body*
4,1,4,$2,$3,$4,$5,$6,$7,$8,$9,$2,$3,0*
0 Add four circle primitives for the rounded corners*
1,1,$1+$1,$2,$3*
1,1,$1+$1,$4,$5*
1,1,$1+$1,$6,$7*
1,1,$1+$1,$8,$9*
0 Add four rect primitives between the rounded corners*
20,1,$1+$1,$2,$3,$4,$5,0*
20,1,$1+$1,$4,$5,$6,$7,0*
20,1,$1+$1,$6,$7,$8,$9,0*
20,1,$1+$1,$8,$9,$2,$3,0*%
G04 Aperture macros list end*
%TA.AperFunction,Conductor*%
%ADD10C,0.200000*%
%TD*%
%TA.AperFunction,SMDPad,CuDef*%
%ADD11RoundRect,0.250000X-0.350000X-0.450000X0.350000X-0.450000X0.350000X0.450000X-0.350000X0.450000X0*%
%TD*%
%TA.AperFunction,SMDPad,CuDef*%
%ADD12RoundRect,0.250000X-0.337500X-0.475000X0.337500X-0.475000X0.337500X0.475000X-0.337500X0.475000X0*%
%TD*%
%TA.AperFunction,SMDPad,CuDef*%
%ADD13RoundRect,0.250000X0.337500X0.475000X-0.337500X0.475000X-0.337500X-0.475000X0.337500X-0.475000X0*%
%TD*%
%TA.AperFunction,ComponentPad*%
%ADD14R,4.500000X4.500000*%
%TD*%
%TA.AperFunction,ComponentPad*%
%ADD15RoundRect,1.000000X1.400000X-1.000000X1.400000X1.000000X-1.400000X1.000000X-1.400000X-1.000000X0*%
%TD*%
%TA.AperFunction,ComponentPad*%
%ADD16RoundRect,1.000000X1.000000X-1.250000X1.000000X1.250000X-1.000000X1.250000X-1.000000X-1.250000X0*%
%TD*%
%TA.AperFunction,SMDPad,CuDef*%
%ADD17RoundRect,0.250000X0.350000X0.450000X-0.350000X0.450000X-0.350000X-0.450000X0.350000X-0.450000X0*%
%TD*%
%TA.AperFunction,SMDPad,CuDef*%
%ADD18R,1.500000X0.800000*%
%TD*%
%TA.AperFunction,SMDPad,CuDef*%
%ADD19R,0.800000X1.500000*%
%TD*%
%TA.AperFunction,SMDPad,CuDef*%
%ADD20R,0.900000X0.900000*%
%TD*%
%TA.AperFunction,HeatsinkPad*%
%ADD21C,0.600000*%
%TD*%
%TA.AperFunction,SMDPad,CuDef*%
%ADD22R,3.800000X3.800000*%
%TD*%
%TA.AperFunction,ComponentPad*%
%ADD23C,3.500000*%
%TD*%
%TA.AperFunction,ComponentPad*%
%ADD24O,3.500000X3.500000*%
%TD*%
%TA.AperFunction,ComponentPad*%
%ADD25R,3.000000X2.100000*%
%TD*%
%TA.AperFunction,ComponentPad*%
%ADD26O,3.000000X2.100000*%
%TD*%
%TA.AperFunction,ComponentPad*%
%ADD27RoundRect,0.301724X0.748276X-0.748276X0.748276X0.748276X-0.748276X0.748276X-0.748276X-0.748276X0*%
%TD*%
%TA.AperFunction,ComponentPad*%
%ADD28C,2.100000*%
%TD*%
%TA.AperFunction,ComponentPad*%
%ADD29RoundRect,0.428573X1.371427X1.371427X-1.371427X1.371427X-1.371427X-1.371427X1.371427X-1.371427X0*%
%TD*%
%TA.AperFunction,ComponentPad*%
%ADD30O,3.600000X3.600000*%
%TD*%
%TA.AperFunction,ComponentPad*%
%ADD31RoundRect,0.301724X0.748276X0.748276X-0.748276X0.748276X-0.748276X-0.748276X0.748276X-0.748276X0*%
%TD*%
%TA.AperFunction,ComponentPad*%
%ADD32RoundRect,0.301724X-0.748276X-0.748276X0.748276X-0.748276X0.748276X0.748276X-0.748276X0.748276X0*%
%TD*%
%TA.AperFunction,ComponentPad*%
%ADD33R,2.000000X2.000000*%
%TD*%
%TA.AperFunction,ComponentPad*%
%ADD34RoundRect,0.301724X-0.748276X0.748276X-0.748276X-0.748276X0.748276X-0.748276X0.748276X0.748276X0*%
%TD*%
%TA.AperFunction,ComponentPad*%
%ADD35R,2.100000X2.100000*%
%TD*%
%TA.AperFunction,ComponentPad*%
%ADD36O,2.100000X2.100000*%
%TD*%
%TA.AperFunction,ViaPad*%
%ADD37C,1.800000*%
%TD*%
%TA.AperFunction,ViaPad*%
%ADD38C,0.800000*%
%TD*%
%TA.AperFunction,ViaPad*%
%ADD39C,0.600000*%
%TD*%
%TA.AperFunction,Conductor*%
%ADD40C,0.500000*%
%TD*%
%TA.AperFunction,Conductor*%
%ADD41C,0.600000*%
%TD*%
%TA.AperFunction,Conductor*%
%ADD42C,1.500000*%
%TD*%
%TA.AperFunction,Conductor*%
%ADD43C,1.000000*%
%TD*%
%ADD44C,0.350000*%
%ADD45C,0.300000*%
%ADD46O,3.000000X1.000000*%
%ADD47O,1.000000X3.000000*%
%ADD48C,0.200000*%
G04 APERTURE END LIST*
%TO.N,GND*%
D10*
X65120000Y-60550000D02*
X67970000Y-60550000D01*
X67970000Y-61350000D01*
X65120000Y-61350000D01*
X65120000Y-60550000D01*
%TA.AperFunction,Conductor*%
G36*
X65120000Y-60550000D02*
G01*
X67970000Y-60550000D01*
X67970000Y-61350000D01*
X65120000Y-61350000D01*
X65120000Y-60550000D01*
G37*
%TD.AperFunction*%
X82570000Y-60600000D02*
X85420000Y-60600000D01*
X85420000Y-61400000D01*
X82570000Y-61400000D01*
X82570000Y-60600000D01*
%TA.AperFunction,Conductor*%
G36*
X82570000Y-60600000D02*
G01*
X85420000Y-60600000D01*
X85420000Y-61400000D01*
X82570000Y-61400000D01*
X82570000Y-60600000D01*
G37*
%TD.AperFunction*%
%TD*%
D11*
%TO.P,R2,1*%
%TO.N,+3.3V*%
X41200000Y-106400000D03*
%TO.P,R2,2*%
%TO.N,/In2*%
X43200000Y-106400000D03*
%TD*%
D12*
%TO.P,C5,1*%
%TO.N,/In4*%
X43032500Y-83650000D03*
%TO.P,C5,2*%
%TO.N,GND*%
X45107500Y-83650000D03*
%TD*%
D13*
%TO.P,C1,1*%
%TO.N,+3.3V*%
X42457500Y-63600000D03*
%TO.P,C1,2*%
%TO.N,GND*%
X40382500Y-63600000D03*
%TD*%
D11*
%TO.P,R1,1*%
%TO.N,+3.3V*%
X41320000Y-115700000D03*
%TO.P,R1,2*%
%TO.N,/In1*%
X43320000Y-115700000D03*
%TD*%
D12*
%TO.P,C7,1*%
%TO.N,/EN*%
X61212500Y-110750000D03*
%TO.P,C7,2*%
%TO.N,GND*%
X63287500Y-110750000D03*
%TD*%
D14*
%TO.P,J17,1*%
%TO.N,Net-(PS1-+Vout)*%
X37400000Y-146000000D03*
D15*
%TO.P,J17,2*%
%TO.N,GND*%
X37400000Y-152000000D03*
D16*
%TO.P,J17,3*%
X42100000Y-149000000D03*
%TD*%
D17*
%TO.P,R5,1*%
%TO.N,+3.3V*%
X67470000Y-100750000D03*
%TO.P,R5,2*%
%TO.N,/DTR*%
X65470000Y-100750000D03*
%TD*%
D18*
%TO.P,U1,1,GND*%
%TO.N,GND*%
X66470000Y-61550000D03*
%TO.P,U1,2,VDD*%
%TO.N,+3.3V*%
X66470000Y-62820000D03*
%TO.P,U1,3,EN*%
%TO.N,/EN*%
X66470000Y-64090000D03*
%TO.P,U1,4,SENSOR_VP*%
%TO.N,/In1*%
X66470000Y-65360000D03*
%TO.P,U1,5,SENSOR_VN*%
%TO.N,/In2*%
X66470000Y-66630000D03*
%TO.P,U1,6,IO34*%
%TO.N,/In3*%
X66470000Y-67900000D03*
%TO.P,U1,7,IO35*%
%TO.N,/In4*%
X66470000Y-69170000D03*
%TO.P,U1,8,IO32*%
%TO.N,/SDA*%
X66470000Y-70440000D03*
%TO.P,U1,9,IO33*%
%TO.N,/SCL*%
X66470000Y-71710000D03*
%TO.P,U1,10,IO25*%
%TO.N,/DAC_P*%
X66470000Y-72980000D03*
%TO.P,U1,11,IO26*%
%TO.N,/DAC_N*%
X66470000Y-74250000D03*
%TO.P,U1,12,IO27*%
%TO.N,/TRIAC_A*%
X66470000Y-75520000D03*
%TO.P,U1,13,IO14*%
%TO.N,/TRIAC_B*%
X66470000Y-76790000D03*
%TO.P,U1,14,IO12*%
%TO.N,/ZERO*%
X66470000Y-78060000D03*
D19*
%TO.P,U1,15,GND*%
%TO.N,GND*%
X69510000Y-79310000D03*
%TO.P,U1,16,IO13*%
%TO.N,/EN_A*%
X70780000Y-79310000D03*
%TO.P,U1,17,SHD/SD2*%
%TO.N,unconnected-(U1-SHD{slash}SD2-Pad17)*%
X72050000Y-79310000D03*
%TO.P,U1,18,SWP/SD3*%
%TO.N,unconnected-(U1-SWP{slash}SD3-Pad18)*%
X73320000Y-79310000D03*
%TO.P,U1,19,SCS/CMD*%
%TO.N,unconnected-(U1-SCS{slash}CMD-Pad19)*%
X74590000Y-79310000D03*
%TO.P,U1,20,SCK/CLK*%
%TO.N,unconnected-(U1-SCK{slash}CLK-Pad20)*%
X75860000Y-79310000D03*
%TO.P,U1,21,SDO/SD0*%
%TO.N,unconnected-(U1-SDO{slash}SD0-Pad21)*%
X77130000Y-79310000D03*
%TO.P,U1,22,SDI/SD1*%
%TO.N,unconnected-(U1-SDI{slash}SD1-Pad22)*%
X78400000Y-79310000D03*
%TO.P,U1,23,IO15*%
%TO.N,/IN_A_P*%
X79670000Y-79310000D03*
%TO.P,U1,24,IO2*%
%TO.N,/IN_A_N*%
X80940000Y-79310000D03*
D18*
%TO.P,U1,25,IO0*%
%TO.N,/DTR*%
X83970000Y-78060000D03*
%TO.P,U1,26,IO4*%
%TO.N,/EN_B*%
X83970000Y-76790000D03*
%TO.P,U1,27,IO16*%
%TO.N,/RX2*%
X83970000Y-75520000D03*
%TO.P,U1,28,IO17*%
%TO.N,/D_led*%
X83970000Y-74250000D03*
%TO.P,U1,29,IO5*%
%TO.N,/CE*%
X83970000Y-72980000D03*
%TO.P,U1,30,IO18*%
%TO.N,/CLK*%
X83970000Y-71710000D03*
%TO.P,U1,31,IO19*%
%TO.N,/MISO*%
X83970000Y-70440000D03*
%TO.P,U1,32,NC*%
%TO.N,unconnected-(U1-NC-Pad32)*%
X83970000Y-69170000D03*
%TO.P,U1,33,IO21*%
%TO.N,/IN_B_P*%
X83970000Y-67900000D03*
%TO.P,U1,34,RXD0/IO3*%
%TO.N,/RXD0*%
X83970000Y-66630000D03*
%TO.P,U1,35,TXD0/IO1*%
%TO.N,/TXD0*%
X83970000Y-65360000D03*
%TO.P,U1,36,IO22*%
%TO.N,/IN_B_N*%
X83970000Y-64090000D03*
%TO.P,U1,37,IO23*%
%TO.N,/MOSI*%
X83970000Y-62820000D03*
%TO.P,U1,38,GND*%
%TO.N,GND*%
X83970000Y-61550000D03*
D20*
%TO.P,U1,39,GND*%
X72320000Y-67870000D03*
D21*
X72320000Y-68570000D03*
D20*
X72320000Y-69270000D03*
D21*
X72320000Y-69970000D03*
D20*
X72320000Y-70670000D03*
D21*
X73020000Y-67870000D03*
X73020000Y-69270000D03*
X73020000Y-70670000D03*
X73695000Y-68570000D03*
X73695000Y-69970000D03*
D20*
X73720000Y-67870000D03*
X73720000Y-69270000D03*
D22*
X73720000Y-69270000D03*
D20*
X73720000Y-70670000D03*
D21*
X74420000Y-67870000D03*
X74420000Y-69270000D03*
X74420000Y-70670000D03*
D20*
X75120000Y-67870000D03*
D21*
X75120000Y-68570000D03*
D20*
X75120000Y-69270000D03*
D21*
X75120000Y-69970000D03*
D20*
X75120000Y-70670000D03*
%TD*%
D11*
%TO.P,R4,1*%
%TO.N,+3.3V*%
X41182500Y-87740000D03*
%TO.P,R4,2*%
%TO.N,/In4*%
X43182500Y-87740000D03*
%TD*%
%TO.P,R3,1*%
%TO.N,+3.3V*%
X41220000Y-97000000D03*
%TO.P,R3,2*%
%TO.N,/In3*%
X43220000Y-97000000D03*
%TD*%
D23*
%TO.P,PS1,1,AC/L*%
%TO.N,/FASE*%
X95432500Y-141150000D03*
D24*
%TO.P,PS1,2,AC/N*%
%TO.N,/NEUTRO*%
X95432500Y-133350000D03*
%TO.P,PS1,3,-Vout*%
%TO.N,GND*%
X52932500Y-148550000D03*
%TO.P,PS1,4,+Vout*%
%TO.N,Net-(PS1-+Vout)*%
X52932500Y-125950000D03*
%TD*%
D12*
%TO.P,C2,1*%
%TO.N,/In1*%
X43082500Y-113200000D03*
%TO.P,C2,2*%
%TO.N,GND*%
X45157500Y-113200000D03*
%TD*%
%TO.P,C3,1*%
%TO.N,/In2*%
X43182500Y-103900000D03*
%TO.P,C3,2*%
%TO.N,GND*%
X45257500Y-103900000D03*
%TD*%
%TO.P,C4,1*%
%TO.N,/In3*%
X43182500Y-94500000D03*
%TO.P,C4,2*%
%TO.N,GND*%
X45257500Y-94500000D03*
%TD*%
D25*
%TO.P,Q1,1,A1*%
%TO.N,Net-(J14-Pin_1)*%
X94000000Y-116200000D03*
D26*
%TO.P,Q1,2,A2*%
%TO.N,/FASE*%
X94000000Y-113660000D03*
%TO.P,Q1,3,G*%
%TO.N,Net-(Q1-G)*%
X94000000Y-111120000D03*
%TD*%
D27*
%TO.P,J6,1,Pin_1*%
%TO.N,GND*%
X105570000Y-83850000D03*
D28*
%TO.P,J6,2,Pin_2*%
%TO.N,/D_led*%
X105570000Y-81310000D03*
%TO.P,J6,3,Pin_3*%
%TO.N,+3.3V_fused*%
X105570000Y-78770000D03*
%TD*%
D25*
%TO.P,Q2,1,A1*%
%TO.N,Net-(J15-Pin_1)*%
X114000000Y-116200000D03*
D26*
%TO.P,Q2,2,A2*%
%TO.N,/FASE*%
X114000000Y-113660000D03*
%TO.P,Q2,3,G*%
%TO.N,Net-(Q2-G)*%
X114000000Y-111120000D03*
%TD*%
D29*
%TO.P,J15,1,Pin_1*%
%TO.N,Net-(J15-Pin_1)*%
X115062000Y-148590000D03*
D30*
%TO.P,J15,2,Pin_2*%
%TO.N,/NEUTRO*%
X107442000Y-148590000D03*
%TD*%
D27*
%TO.P,J3,1,Pin_1*%
%TO.N,/In2*%
X48557500Y-106400000D03*
D28*
%TO.P,J3,2,Pin_2*%
%TO.N,GND*%
X48557500Y-103860000D03*
%TD*%
D27*
%TO.P,J11,1,Pin_1*%
%TO.N,+3.3V_fused*%
X50920000Y-78450000D03*
D28*
%TO.P,J11,2,Pin_2*%
%TO.N,GND*%
X50920000Y-75910000D03*
%TO.P,J11,3,Pin_3*%
%TO.N,/SCL*%
X50920000Y-73370000D03*
%TO.P,J11,4,Pin_4*%
%TO.N,/SDA*%
X50920000Y-70830000D03*
%TD*%
D31*
%TO.P,J9,1,Pin_1*%
%TO.N,GND*%
X83620000Y-90150000D03*
D28*
%TO.P,J9,2,Pin_2*%
%TO.N,/IN_A_N*%
X81080000Y-90150000D03*
%TO.P,J9,3,Pin_3*%
%TO.N,/IN_A_P*%
X78540000Y-90150000D03*
%TO.P,J9,4,Pin_4*%
%TO.N,/EN_A*%
X76000000Y-90150000D03*
%TD*%
D32*
%TO.P,J10,1,Pin_1*%
%TO.N,GND*%
X98420000Y-69800000D03*
D28*
%TO.P,J10,2,Pin_2*%
%TO.N,/IN_B_N*%
X100960000Y-69800000D03*
%TO.P,J10,3,Pin_3*%
%TO.N,/IN_B_P*%
X103500000Y-69800000D03*
%TO.P,J10,4,Pin_4*%
%TO.N,/EN_B*%
X106040000Y-69800000D03*
%TD*%
D27*
%TO.P,J2,1,Pin_1*%
%TO.N,/In1*%
X48507500Y-115750000D03*
D28*
%TO.P,J2,2,Pin_2*%
%TO.N,GND*%
X48507500Y-113210000D03*
%TD*%
D29*
%TO.P,J16,1,Pin_1*%
%TO.N,/FASE*%
X81026000Y-148590000D03*
D30*
%TO.P,J16,2,Pin_2*%
%TO.N,/NEUTRO*%
X73406000Y-148590000D03*
%TD*%
D27*
%TO.P,J5,1,Pin_1*%
%TO.N,/In4*%
X48520000Y-87700000D03*
D28*
%TO.P,J5,2,Pin_2*%
%TO.N,GND*%
X48520000Y-85160000D03*
%TD*%
D33*
%TO.P,U6,EN,EN*%
%TO.N,Net-(PS1-+Vout)*%
X46357500Y-145632500D03*
%TO.P,U6,GND,GND*%
%TO.N,GND*%
X46357500Y-140552500D03*
%TO.P,U6,IN+,IN+*%
%TO.N,Net-(PS1-+Vout)*%
X46357500Y-143092500D03*
%TO.P,U6,VO+,VO+*%
%TO.N,+3.3V*%
X46357500Y-138012500D03*
%TD*%
D27*
%TO.P,J4,1,Pin_1*%
%TO.N,/In3*%
X48507500Y-97050000D03*
D28*
%TO.P,J4,2,Pin_2*%
%TO.N,GND*%
X48507500Y-94510000D03*
%TD*%
D34*
%TO.P,J12,1,Pin_1*%
%TO.N,GND*%
X58320000Y-73100000D03*
D28*
%TO.P,J12,2,Pin_2*%
%TO.N,/DAC_P*%
X58320000Y-75640000D03*
%TO.P,J12,3,Pin_3*%
%TO.N,/DAC_N*%
X58320000Y-78180000D03*
%TD*%
D29*
%TO.P,J14,1,Pin_1*%
%TO.N,Net-(J14-Pin_1)*%
X98044000Y-148590000D03*
D30*
%TO.P,J14,2,Pin_2*%
%TO.N,/NEUTRO*%
X90424000Y-148590000D03*
%TD*%
D35*
%TO.P,J1,1,Pin_1*%
%TO.N,/RXD0*%
X58780000Y-103910000D03*
D36*
%TO.P,J1,2,Pin_2*%
%TO.N,/TXD0*%
X58780000Y-106450000D03*
%TO.P,J1,3,Pin_3*%
%TO.N,/DTR*%
X61320000Y-103910000D03*
%TO.P,J1,4,Pin_4*%
%TO.N,/EN*%
X61320000Y-106450000D03*
%TO.P,J1,5,Pin_5*%
%TO.N,+3.3V*%
X63860000Y-103910000D03*
%TO.P,J1,6,Pin_6*%
%TO.N,GND*%
X63860000Y-106450000D03*
%TD*%
D35*
%TO.P,J7,1,Pin_1*%
%TO.N,/EN*%
X60250000Y-116250000D03*
D36*
%TO.P,J7,2,Pin_2*%
%TO.N,GND*%
X62790000Y-116250000D03*
%TD*%
D27*
%TO.P,J13,1,Pin_1*%
%TO.N,GND*%
X94020000Y-83850000D03*
D28*
%TO.P,J13,2,Pin_2*%
%TO.N,/RX2*%
X94020000Y-81310000D03*
%TO.P,J13,3,Pin_3*%
%TO.N,/D_led*%
X94020000Y-78770000D03*
%TD*%
D35*
%TO.P,J8,1,Pin_1*%
%TO.N,+3.3V_fused*%
X115370000Y-70000000D03*
D36*
%TO.P,J8,2,Pin_2*%
%TO.N,/MOSI*%
X115370000Y-72540000D03*
%TO.P,J8,3,Pin_3*%
%TO.N,/MISO*%
X115370000Y-75080000D03*
%TO.P,J8,4,Pin_4*%
%TO.N,/CLK*%
X115370000Y-77620000D03*
%TO.P,J8,5,Pin_5*%
%TO.N,/CE*%
X115370000Y-80160000D03*
%TO.P,J8,6,Pin_6*%
%TO.N,GND*%
X115370000Y-82700000D03*
%TD*%
D37*
%TO.N,+3.3V*%
X38470000Y-105200000D03*
X41170000Y-85600000D03*
X38120000Y-114200000D03*
X39520000Y-95000000D03*
X37770000Y-66450000D03*
X68270000Y-113300000D03*
%TO.N,GND*%
X54400000Y-114400000D03*
X107000000Y-62400000D03*
X34220000Y-66400000D03*
X94220000Y-67300000D03*
X68970000Y-84300000D03*
X42000000Y-140500000D03*
X98770000Y-82000000D03*
X36200000Y-124200000D03*
X76400000Y-105600000D03*
X61976000Y-156210000D03*
X113600000Y-92800000D03*
X58070000Y-92450000D03*
%TO.N,/EN*%
X36620001Y-73999999D03*
X57320000Y-110700000D03*
D38*
%TO.N,/NEUTRO*%
X109474000Y-141732000D03*
%TO.N,/FASE*%
X84709000Y-118999000D03*
D39*
X87000000Y-143500000D03*
D38*
X107442000Y-115824000D03*
D37*
%TO.N,+3.3V_fused*%
X68720000Y-98300000D03*
X112320000Y-86700000D03*
X111820000Y-66700000D03*
%TO.N,/DTR*%
X61320000Y-100800000D03*
X84820000Y-83000000D03*
%TO.N,/TXD0*%
X91420000Y-66250000D03*
X65800000Y-97000004D03*
%TO.N,/RXD0*%
X63200000Y-98799998D03*
X88920000Y-67400000D03*
%TO.N,/EN_B*%
X110470002Y-72400000D03*
X90120000Y-88600000D03*
%TO.N,/TRIAC_A*%
X75800006Y-100500000D03*
%TO.N,/TRIAC_B*%
X76420000Y-97300000D03*
%TO.N,/ZERO*%
X74470000Y-94950000D03*
%TD*%
D40*
%TO.N,+3.3V*%
X41182500Y-87740000D02*
X41182500Y-85612500D01*
D41*
X46000000Y-62820000D02*
X66470000Y-62820000D01*
D40*
X41320000Y-115700000D02*
X39620000Y-115700000D01*
X39670000Y-106400000D02*
X38470000Y-105200000D01*
X41182500Y-85612500D02*
X41170000Y-85600000D01*
D41*
X37770000Y-66450000D02*
X38670000Y-65550000D01*
D40*
X39520000Y-96250000D02*
X39520000Y-95000000D01*
D41*
X43270000Y-65550000D02*
X44820000Y-64000000D01*
D40*
X41220000Y-97000000D02*
X40270000Y-97000000D01*
D41*
X38670000Y-65550000D02*
X43270000Y-65550000D01*
X44470000Y-64350000D02*
X43720000Y-63600000D01*
D40*
X41200000Y-106400000D02*
X39670000Y-106400000D01*
X40270000Y-97000000D02*
X39520000Y-96250000D01*
X68270000Y-113300000D02*
X68270000Y-101650000D01*
D41*
X44820000Y-64000000D02*
X46000000Y-62820000D01*
X43720000Y-63600000D02*
X42457500Y-63600000D01*
D40*
X39620000Y-115700000D02*
X38120000Y-114200000D01*
X63860000Y-103910000D02*
X68270000Y-103910000D01*
X68270000Y-101650000D02*
X67470000Y-100750000D01*
D41*
%TO.N,GND*%
X39070000Y-61550000D02*
X74420000Y-61550000D01*
X118200000Y-65000000D02*
X115600000Y-62400000D01*
X69510000Y-87190000D02*
X75520000Y-93200000D01*
X50920000Y-75910000D02*
X49360000Y-75910000D01*
X48520000Y-76750000D02*
X48520000Y-85160000D01*
X95920000Y-88862096D02*
X92907096Y-91875000D01*
X94220000Y-68220000D02*
X94220000Y-67300000D01*
X34220000Y-66400000D02*
X39070000Y-61550000D01*
X39120000Y-63600000D02*
X38070000Y-62550000D01*
X63857500Y-110430000D02*
X63857500Y-106452500D01*
X63860002Y-117739998D02*
X63860002Y-116250000D01*
X83620000Y-91650000D02*
X83395000Y-91875000D01*
X51220000Y-104700000D02*
X51220000Y-111900000D01*
X69510000Y-79310000D02*
X69510000Y-87190000D01*
X50920000Y-75910000D02*
X53060000Y-75910000D01*
X45257500Y-94500000D02*
X48497500Y-94500000D01*
X46557500Y-85100000D02*
X48460000Y-85100000D01*
X92907096Y-91875000D02*
X83395000Y-91875000D01*
X45257500Y-103900000D02*
X48517500Y-103900000D01*
X63860000Y-115180000D02*
X63860000Y-110750000D01*
X50380000Y-103860000D02*
X51220000Y-104700000D01*
X106150000Y-61550000D02*
X107000000Y-62400000D01*
X74420000Y-67870000D02*
X74420000Y-61550000D01*
X105570000Y-83850000D02*
X94020000Y-83850000D01*
X98420000Y-69800000D02*
X95800000Y-69800000D01*
X95920000Y-83850000D02*
X95920000Y-88862096D01*
X48517500Y-103900000D02*
X48557500Y-103860000D01*
X51220000Y-111900000D02*
X49910000Y-113210000D01*
D40*
X63287500Y-110750000D02*
X63860000Y-110750000D01*
D41*
X95800000Y-69800000D02*
X94220000Y-68220000D01*
X48497500Y-94500000D02*
X48507500Y-94510000D01*
X51220000Y-95700000D02*
X50030000Y-94510000D01*
X63860000Y-110432500D02*
X63857500Y-110430000D01*
X50030000Y-94510000D02*
X48507500Y-94510000D01*
X50110000Y-94510000D02*
X48507500Y-94510000D01*
X48557500Y-103860000D02*
X50160000Y-103860000D01*
X40382500Y-63600000D02*
X39120000Y-63600000D01*
X50160000Y-103860000D02*
X51220000Y-102800000D01*
X115600000Y-62400000D02*
X107000000Y-62400000D01*
X48460000Y-85100000D02*
X48520000Y-85160000D01*
X50280000Y-85160000D02*
X51220000Y-86100000D01*
X49360000Y-75910000D02*
X48520000Y-76750000D01*
X83620000Y-90150000D02*
X83620000Y-91650000D01*
X63860002Y-116250000D02*
X62790000Y-116250000D01*
X55870000Y-73100000D02*
X58320000Y-73100000D01*
X55500000Y-118800000D02*
X62800000Y-118800000D01*
X49910000Y-113210000D02*
X48507500Y-113210000D01*
X63860000Y-110750000D02*
X63860000Y-110432500D01*
X75520000Y-93200000D02*
X82070000Y-93200000D01*
X51220000Y-93400000D02*
X50110000Y-94510000D01*
X45157500Y-113200000D02*
X48497500Y-113200000D01*
X51220000Y-102800000D02*
X51220000Y-95700000D01*
X49910000Y-113210000D02*
X55500000Y-118800000D01*
X69510000Y-76960000D02*
X69510000Y-79310000D01*
X45107500Y-83650000D02*
X46557500Y-85100000D01*
X63860002Y-116250000D02*
X63860002Y-115260000D01*
X115370000Y-82700000D02*
X116900000Y-82700000D01*
X48497500Y-113200000D02*
X48507500Y-113210000D01*
X83970000Y-61550000D02*
X106150000Y-61550000D01*
X83970000Y-61550000D02*
X74420000Y-61550000D01*
X48557500Y-103860000D02*
X50380000Y-103860000D01*
X82070000Y-93200000D02*
X83395000Y-91875000D01*
X48520000Y-85160000D02*
X50280000Y-85160000D01*
X62800000Y-118800000D02*
X63860002Y-117739998D01*
X53060000Y-75910000D02*
X55870000Y-73100000D01*
X118200000Y-81400000D02*
X118200000Y-65000000D01*
X51220000Y-86100000D02*
X51220000Y-93400000D01*
X73720000Y-69270000D02*
X73720000Y-72750000D01*
X116900000Y-82700000D02*
X118200000Y-81400000D01*
X73720000Y-72750000D02*
X69510000Y-76960000D01*
D40*
%TO.N,/In1*%
X48160000Y-65360000D02*
X36020000Y-77500000D01*
X41820000Y-113200000D02*
X43082500Y-113200000D01*
X43082500Y-113200000D02*
X43082500Y-115462500D01*
X36020000Y-107400000D02*
X41820000Y-113200000D01*
X43082500Y-115462500D02*
X43320000Y-115700000D01*
X66470000Y-65360000D02*
X48160000Y-65360000D01*
X36020000Y-77500000D02*
X36020000Y-107400000D01*
X48507500Y-115750000D02*
X43370000Y-115750000D01*
X43370000Y-115750000D02*
X43320000Y-115700000D01*
%TO.N,/In2*%
X37520000Y-77750000D02*
X37520000Y-98237500D01*
X43182500Y-103900000D02*
X43182500Y-106382500D01*
X43182500Y-106382500D02*
X43200000Y-106400000D01*
X37520000Y-98237500D02*
X43182500Y-103900000D01*
X48640000Y-66630000D02*
X37520000Y-77750000D01*
X66470000Y-66630000D02*
X48640000Y-66630000D01*
X43200000Y-106400000D02*
X48557500Y-106400000D01*
%TO.N,/In3*%
X39120000Y-91950000D02*
X41670000Y-94500000D01*
X48507500Y-97050000D02*
X43270000Y-97050000D01*
X41670000Y-94500000D02*
X43182500Y-94500000D01*
X43220000Y-97000000D02*
X43220000Y-94537500D01*
X43270000Y-97050000D02*
X43220000Y-97000000D01*
X43220000Y-94537500D02*
X43182500Y-94500000D01*
X39120000Y-78000000D02*
X39120000Y-91950000D01*
X66470000Y-67900000D02*
X49220000Y-67900000D01*
X49220000Y-67900000D02*
X39120000Y-78000000D01*
%TO.N,/In4*%
X43382500Y-87540000D02*
X43182500Y-87740000D01*
X43032500Y-83650000D02*
X43232500Y-83450000D01*
X43382500Y-84000000D02*
X43382500Y-87540000D01*
X43232500Y-75687500D02*
X49970000Y-68950000D01*
X49970000Y-68950000D02*
X61600000Y-68950000D01*
X61820000Y-69170000D02*
X66470000Y-69170000D01*
X61600000Y-68950000D02*
X61820000Y-69170000D01*
X43182500Y-87740000D02*
X48480000Y-87740000D01*
X43232500Y-83450000D02*
X43232500Y-75687500D01*
X43032500Y-83650000D02*
X43382500Y-84000000D01*
X48480000Y-87740000D02*
X48520000Y-87700000D01*
%TO.N,/EN*%
X60250000Y-116250000D02*
X60250000Y-112750000D01*
X61320000Y-106450000D02*
X61320000Y-110607500D01*
X61320000Y-111680000D02*
X61320000Y-110650000D01*
X61270000Y-110700000D02*
X61320000Y-110650000D01*
X57320000Y-110700000D02*
X61270000Y-110700000D01*
X60250000Y-112750000D02*
X61320000Y-111680000D01*
X66470000Y-64090000D02*
X46530000Y-64090000D01*
X46530000Y-64090000D02*
X36620001Y-73999999D01*
D42*
%TO.N,/NEUTRO*%
X107442000Y-148590000D02*
X107442000Y-150622000D01*
X73406000Y-152636000D02*
X74440000Y-153670000D01*
X107442000Y-150622000D02*
X104394000Y-153670000D01*
X90424000Y-148590000D02*
X90424000Y-153416000D01*
X74440000Y-153670000D02*
X90678000Y-153670000D01*
X109474000Y-141732000D02*
X107442000Y-143764000D01*
X104394000Y-153670000D02*
X90678000Y-153670000D01*
X73406000Y-148590000D02*
X73406000Y-152636000D01*
X107442000Y-143764000D02*
X107442000Y-147838000D01*
X90424000Y-153416000D02*
X90678000Y-153670000D01*
%TO.N,/FASE*%
X87122000Y-117602000D02*
X91064000Y-113660000D01*
X84500000Y-142000000D02*
X81026000Y-145474000D01*
X114000000Y-113660000D02*
X107442000Y-113660000D01*
X91064000Y-113660000D02*
X94000000Y-113660000D01*
X87122000Y-119126000D02*
X87122000Y-117602000D01*
X84500000Y-142000000D02*
X86000000Y-143500000D01*
X86000000Y-143500000D02*
X87000000Y-143500000D01*
D43*
X84836000Y-119126000D02*
X87122000Y-119126000D01*
D42*
X107442000Y-113660000D02*
X94000000Y-113660000D01*
X87122000Y-119126000D02*
X87122000Y-139378000D01*
X81026000Y-145474000D02*
X81026000Y-148590000D01*
X87122000Y-139378000D02*
X84500000Y-142000000D01*
D43*
X107442000Y-115824000D02*
X107442000Y-113660000D01*
D41*
X84709000Y-118999000D02*
X84836000Y-119126000D01*
D40*
%TO.N,/D_led*%
X102770000Y-81310000D02*
X105570000Y-81310000D01*
X92940000Y-78770000D02*
X100230000Y-78770000D01*
X88420000Y-74250000D02*
X92940000Y-78770000D01*
X100230000Y-78770000D02*
X102770000Y-81310000D01*
X83885000Y-74250000D02*
X88420000Y-74250000D01*
%TO.N,+3.3V_fused*%
X68720000Y-96900000D02*
X68720000Y-98300000D01*
D41*
X113670000Y-70000000D02*
X111820000Y-68150000D01*
X105570000Y-78770000D02*
X108840000Y-78770000D01*
X108840000Y-78770000D02*
X112320000Y-82250000D01*
D40*
X68720000Y-96900000D02*
X50920000Y-79100000D01*
X50920000Y-79100000D02*
X50920000Y-78450000D01*
D41*
X115370000Y-70000000D02*
X113670000Y-70000000D01*
X112320000Y-82250000D02*
X112320000Y-86700000D01*
X111820000Y-68150000D02*
X111820000Y-66700000D01*
D40*
%TO.N,/DTR*%
X61320000Y-103910000D02*
X61320000Y-100800000D01*
X86720000Y-81100000D02*
X86720000Y-78860000D01*
X84820000Y-83000000D02*
X86720000Y-81100000D01*
X86720000Y-78860000D02*
X85920000Y-78060000D01*
X65470000Y-100750000D02*
X61370000Y-100750000D01*
X85920000Y-78060000D02*
X83970000Y-78060000D01*
X61370000Y-100750000D02*
X61320000Y-100800000D01*
%TO.N,/TXD0*%
X90530000Y-65360000D02*
X91420000Y-66250000D01*
X58780000Y-106450000D02*
X57650000Y-106450000D01*
X59609996Y-97000004D02*
X65800000Y-97000004D01*
X56800000Y-105600000D02*
X56800000Y-99810000D01*
X83970000Y-65360000D02*
X90530000Y-65360000D01*
X57650000Y-106450000D02*
X56800000Y-105600000D01*
X56800000Y-99810000D02*
X59609996Y-97000004D01*
%TO.N,/RXD0*%
X60270002Y-98799998D02*
X63200000Y-98799998D01*
X58780000Y-100290000D02*
X60270002Y-98799998D01*
X83970000Y-66630000D02*
X88150000Y-66630000D01*
X88150000Y-66630000D02*
X88920000Y-67400000D01*
X58780000Y-103910000D02*
X58780000Y-100290000D01*
%TO.N,/CE*%
X91050000Y-72980000D02*
X94820000Y-76750000D01*
X94820000Y-76750000D02*
X109370000Y-76750000D01*
X83970000Y-72980000D02*
X91050000Y-72980000D01*
X109370000Y-76750000D02*
X112780000Y-80160000D01*
X112780000Y-80160000D02*
X115370000Y-80160000D01*
%TO.N,/CLK*%
X112690000Y-77620000D02*
X110570000Y-75500000D01*
X95320000Y-75500000D02*
X91530000Y-71710000D01*
X110570000Y-75500000D02*
X95320000Y-75500000D01*
X91530000Y-71710000D02*
X83970000Y-71710000D01*
X115370000Y-77620000D02*
X112690000Y-77620000D01*
%TO.N,/MOSI*%
X113940000Y-72540000D02*
X115370000Y-72540000D01*
X103400000Y-67200000D02*
X108600000Y-67200000D01*
X99020000Y-62820000D02*
X103400000Y-67200000D01*
X83970000Y-62820000D02*
X99020000Y-62820000D01*
X108600000Y-67200000D02*
X113940000Y-72540000D01*
%TO.N,/MISO*%
X111750000Y-74230000D02*
X95850000Y-74230000D01*
X92060000Y-70440000D02*
X83970000Y-70440000D01*
X115370000Y-75080000D02*
X112600000Y-75080000D01*
X112600000Y-75080000D02*
X111750000Y-74230000D01*
X95850000Y-74230000D02*
X92060000Y-70440000D01*
%TO.N,/IN_A_N*%
X81080000Y-82540000D02*
X80940000Y-82400000D01*
X81080000Y-90150000D02*
X81080000Y-82540000D01*
X80940000Y-82400000D02*
X80940000Y-79310000D01*
%TO.N,/IN_A_P*%
X78540000Y-90150000D02*
X78540000Y-83180000D01*
X79670000Y-82050000D02*
X79670000Y-79310000D01*
X78540000Y-83180000D02*
X79670000Y-82050000D01*
%TO.N,/EN_A*%
X70780000Y-86380000D02*
X74550000Y-90150000D01*
X74550000Y-90150000D02*
X76000000Y-90150000D01*
X70780000Y-79310000D02*
X70780000Y-86380000D01*
%TO.N,/IN_B_N*%
X98410000Y-64090000D02*
X83970000Y-64090000D01*
X100960000Y-69800000D02*
X100960000Y-66640000D01*
X100960000Y-66640000D02*
X98410000Y-64090000D01*
%TO.N,/EN_B*%
X90120000Y-80100000D02*
X90120000Y-88600000D01*
X83970000Y-76790000D02*
X86810000Y-76790000D01*
X86810000Y-76790000D02*
X90120000Y-80100000D01*
X106040000Y-69800000D02*
X107870002Y-69800000D01*
X107870002Y-69800000D02*
X110470002Y-72400000D01*
%TO.N,/IN_B_P*%
X103500000Y-71620000D02*
X103500000Y-69800000D01*
X92720000Y-69150000D02*
X96120000Y-72550000D01*
X87720000Y-69150000D02*
X92720000Y-69150000D01*
X102570000Y-72550000D02*
X103500000Y-71620000D01*
X86470000Y-67900000D02*
X87720000Y-69150000D01*
X96120000Y-72550000D02*
X102570000Y-72550000D01*
X83970000Y-67900000D02*
X86470000Y-67900000D01*
%TO.N,/SDA*%
X52980365Y-70000000D02*
X52150365Y-70830000D01*
X60820000Y-70000000D02*
X52980365Y-70000000D01*
X61260000Y-70440000D02*
X60820000Y-70000000D01*
X52150365Y-70830000D02*
X50920000Y-70830000D01*
X66370000Y-70440000D02*
X61260000Y-70440000D01*
%TO.N,/SCL*%
X60730000Y-71710000D02*
X66370000Y-71710000D01*
X60270000Y-71250000D02*
X60730000Y-71710000D01*
X53470000Y-73350000D02*
X55570000Y-71250000D01*
X50940000Y-73350000D02*
X53470000Y-73350000D01*
X55570000Y-71250000D02*
X60270000Y-71250000D01*
X50920000Y-73370000D02*
X50940000Y-73350000D01*
%TO.N,/DAC_P*%
X61840000Y-72980000D02*
X59180000Y-75640000D01*
X66370000Y-72980000D02*
X61840000Y-72980000D01*
X59180000Y-75640000D02*
X58320000Y-75640000D01*
%TO.N,/RX2*%
X87490000Y-75520000D02*
X93280000Y-81310000D01*
X83885000Y-75520000D02*
X87490000Y-75520000D01*
X93280000Y-81310000D02*
X94020000Y-81310000D01*
%TO.N,/TRIAC_A*%
X61520000Y-77900000D02*
X61520000Y-87450000D01*
X63900000Y-75520000D02*
X61520000Y-77900000D01*
X66370000Y-75520000D02*
X63900000Y-75520000D01*
X61520000Y-87450000D02*
X74570000Y-100500000D01*
X74570000Y-100500000D02*
X75800006Y-100500000D01*
%TO.N,/TRIAC_B*%
X73670000Y-97300000D02*
X76420000Y-97300000D01*
X66470000Y-76790000D02*
X64880000Y-76790000D01*
X63430000Y-87060000D02*
X73670000Y-97300000D01*
X63430000Y-78240000D02*
X63430000Y-87060000D01*
X64880000Y-76790000D02*
X63430000Y-78240000D01*
%TO.N,/DAC_N*%
X62920000Y-74250000D02*
X58990000Y-78180000D01*
X58990000Y-78180000D02*
X58320000Y-78180000D01*
X66370000Y-74250000D02*
X62920000Y-74250000D01*
%TO.N,/ZERO*%
X73670000Y-94950000D02*
X74470000Y-94950000D01*
X66470000Y-87750000D02*
X73670000Y-94950000D01*
X66470000Y-78060000D02*
X66470000Y-87750000D01*
D42*
%TO.N,Net-(J15-Pin_1)*%
X115062000Y-141732000D02*
X114000000Y-140670000D01*
X114000000Y-140670000D02*
X114000000Y-116200000D01*
X115062000Y-148590000D02*
X115062000Y-141732000D01*
%TO.N,Net-(J14-Pin_1)*%
X98044000Y-148590000D02*
X98044000Y-145796000D01*
X94000000Y-118892000D02*
X94000000Y-116200000D01*
X102616000Y-141224000D02*
X102616000Y-127508000D01*
X102616000Y-127508000D02*
X94000000Y-118892000D01*
X98044000Y-145796000D02*
X102616000Y-141224000D01*
%TD*%
%TA.AperFunction,Conductor*%
%TO.N,GND*%
G36*
X56917828Y-72020462D02*
G01*
X56972366Y-72075000D01*
X56992328Y-72149500D01*
X56987250Y-72188069D01*
X56985486Y-72194650D01*
X56970000Y-72312281D01*
X56970000Y-72850000D01*
X57829252Y-72850000D01*
X57807482Y-72887708D01*
X57770000Y-73027591D01*
X57770000Y-73172409D01*
X57807482Y-73312292D01*
X57829252Y-73350000D01*
X56970001Y-73350000D01*
X56970001Y-73887707D01*
X56985488Y-74005360D01*
X57046119Y-74151735D01*
X57142568Y-74277428D01*
X57142571Y-74277431D01*
X57204267Y-74324773D01*
X57251220Y-74385963D01*
X57261286Y-74462432D01*
X57231770Y-74533688D01*
X57218921Y-74548340D01*
X57137347Y-74629914D01*
X57137344Y-74629918D01*
X56993895Y-74827358D01*
X56993892Y-74827364D01*
X56883101Y-75044804D01*
X56883094Y-75044821D01*
X56832015Y-75202027D01*
X56807679Y-75276924D01*
X56769500Y-75517973D01*
X56769500Y-75762027D01*
X56807679Y-76003076D01*
X56883096Y-76235185D01*
X56883100Y-76235194D01*
X56883101Y-76235195D01*
X56993892Y-76452635D01*
X56993895Y-76452641D01*
X57065619Y-76551361D01*
X57113714Y-76617558D01*
X57137344Y-76650081D01*
X57137346Y-76650084D01*
X57291903Y-76804641D01*
X57330467Y-76871436D01*
X57330467Y-76948564D01*
X57291903Y-77015359D01*
X57137346Y-77169915D01*
X57137344Y-77169918D01*
X56993895Y-77367358D01*
X56993892Y-77367364D01*
X56883101Y-77584804D01*
X56883094Y-77584821D01*
X56807679Y-77816923D01*
X56800043Y-77865133D01*
X56769500Y-78057973D01*
X56769500Y-78302027D01*
X56807679Y-78543076D01*
X56883096Y-78775185D01*
X56883100Y-78775194D01*
X56883101Y-78775195D01*
X56993892Y-78992635D01*
X56993895Y-78992641D01*
X57038724Y-79054342D01*
X57137345Y-79190083D01*
X57309917Y-79362655D01*
X57507361Y-79506106D01*
X57724815Y-79616904D01*
X57956924Y-79692321D01*
X58197973Y-79730500D01*
X58197978Y-79730500D01*
X58442022Y-79730500D01*
X58442027Y-79730500D01*
X58683076Y-79692321D01*
X58915185Y-79616904D01*
X59132639Y-79506106D01*
X59330083Y-79362655D01*
X59502655Y-79190083D01*
X59646106Y-78992639D01*
X59756904Y-78775185D01*
X59832321Y-78543076D01*
X59851852Y-78419756D01*
X59883223Y-78349298D01*
X59893649Y-78337717D01*
X60515141Y-77716226D01*
X60581936Y-77677662D01*
X60659064Y-77677662D01*
X60725859Y-77716226D01*
X60764423Y-77783021D01*
X60769500Y-77821585D01*
X60769500Y-87528414D01*
X60749538Y-87602914D01*
X60695000Y-87657452D01*
X60620500Y-87677414D01*
X60546000Y-87657452D01*
X60515141Y-87633773D01*
X52470717Y-79589349D01*
X52432153Y-79522554D01*
X52432153Y-79445426D01*
X52435433Y-79434792D01*
X52455335Y-79377917D01*
X52470500Y-79243326D01*
X52470500Y-77656674D01*
X52455335Y-77522083D01*
X52395628Y-77351450D01*
X52299449Y-77198381D01*
X52171619Y-77070551D01*
X52171615Y-77070548D01*
X52014014Y-76971522D01*
X51961553Y-76914984D01*
X51944390Y-76839789D01*
X51967124Y-76766088D01*
X51972743Y-76757779D01*
X52074620Y-76617558D01*
X52074621Y-76617555D01*
X52171093Y-76428220D01*
X52236757Y-76226128D01*
X52270000Y-76016242D01*
X52270000Y-75803757D01*
X52236757Y-75593871D01*
X52171093Y-75391779D01*
X52074621Y-75202444D01*
X52035270Y-75148282D01*
X51443787Y-75739764D01*
X51432518Y-75697708D01*
X51360110Y-75572292D01*
X51257708Y-75469890D01*
X51132292Y-75397482D01*
X51090232Y-75386212D01*
X51689785Y-74786660D01*
X51697730Y-74743789D01*
X51744634Y-74687390D01*
X51930083Y-74552655D01*
X52102655Y-74380083D01*
X52246106Y-74182639D01*
X52246504Y-74181858D01*
X52246755Y-74181578D01*
X52249161Y-74177653D01*
X52249888Y-74178098D01*
X52298111Y-74124540D01*
X52371464Y-74100704D01*
X52379265Y-74100500D01*
X53543914Y-74100500D01*
X53543917Y-74100500D01*
X53543918Y-74100500D01*
X53688913Y-74071658D01*
X53825495Y-74015084D01*
X53882636Y-73976904D01*
X53948416Y-73932952D01*
X55837226Y-72044140D01*
X55904021Y-72005577D01*
X55942585Y-72000500D01*
X56843328Y-72000500D01*
X56917828Y-72020462D01*
G37*
%TD.AperFunction*%
%TA.AperFunction,Conductor*%
G36*
X59971914Y-72020462D02*
G01*
X60002773Y-72044141D01*
X60135556Y-72176923D01*
X60251584Y-72292951D01*
X60280530Y-72312292D01*
X60374502Y-72375083D01*
X60405444Y-72387899D01*
X60511087Y-72431658D01*
X60656082Y-72460500D01*
X60803917Y-72460500D01*
X60938414Y-72460500D01*
X61012914Y-72480462D01*
X61067452Y-72535000D01*
X61087414Y-72609500D01*
X61067452Y-72684000D01*
X61043773Y-72714859D01*
X59924359Y-73834271D01*
X59857564Y-73872835D01*
X59780436Y-73872835D01*
X59713641Y-73834271D01*
X59675077Y-73767476D01*
X59670000Y-73728912D01*
X59670000Y-73350000D01*
X58810748Y-73350000D01*
X58832518Y-73312292D01*
X58870000Y-73172409D01*
X58870000Y-73027591D01*
X58832518Y-72887708D01*
X58810748Y-72850000D01*
X59669999Y-72850000D01*
X59669999Y-72312292D01*
X59654510Y-72194631D01*
X59652749Y-72188058D01*
X59652749Y-72168446D01*
X59647673Y-72149500D01*
X59652751Y-72130547D01*
X59652752Y-72110930D01*
X59662558Y-72093946D01*
X59667635Y-72075000D01*
X59681508Y-72061126D01*
X59691318Y-72044137D01*
X59708303Y-72034331D01*
X59722173Y-72020462D01*
X59741125Y-72015383D01*
X59758115Y-72005576D01*
X59796673Y-72000500D01*
X59897414Y-72000500D01*
X59971914Y-72020462D01*
G37*
%TD.AperFunction*%
%TA.AperFunction,Conductor*%
G36*
X98111914Y-64860462D02*
G01*
X98142773Y-64884141D01*
X100165859Y-66907226D01*
X100204423Y-66974021D01*
X100209500Y-67012585D01*
X100209500Y-68352828D01*
X100189538Y-68427328D01*
X100148080Y-68473372D01*
X100147362Y-68473893D01*
X100147361Y-68473894D01*
X100063256Y-68535000D01*
X99949918Y-68617344D01*
X99949914Y-68617347D01*
X99868340Y-68698921D01*
X99801545Y-68737484D01*
X99724417Y-68737484D01*
X99657622Y-68698919D01*
X99644773Y-68684267D01*
X99597431Y-68622571D01*
X99597428Y-68622568D01*
X99471734Y-68526118D01*
X99325354Y-68465486D01*
X99207718Y-68450000D01*
X98670000Y-68450000D01*
X98670000Y-69309252D01*
X98632292Y-69287482D01*
X98492409Y-69250000D01*
X98347591Y-69250000D01*
X98207708Y-69287482D01*
X98170000Y-69309252D01*
X98170000Y-68450000D01*
X97632292Y-68450000D01*
X97514639Y-68465488D01*
X97368264Y-68526119D01*
X97242571Y-68622568D01*
X97242568Y-68622571D01*
X97146118Y-68748265D01*
X97085486Y-68894645D01*
X97070000Y-69012281D01*
X97070000Y-69550000D01*
X97929252Y-69550000D01*
X97907482Y-69587708D01*
X97870000Y-69727591D01*
X97870000Y-69872409D01*
X97907482Y-70012292D01*
X97929252Y-70050000D01*
X97070001Y-70050000D01*
X97070001Y-70587707D01*
X97085488Y-70705360D01*
X97146119Y-70851735D01*
X97242568Y-70977428D01*
X97242571Y-70977431D01*
X97368265Y-71073881D01*
X97514645Y-71134513D01*
X97632284Y-71149999D01*
X98170000Y-71149999D01*
X98170000Y-70290747D01*
X98207708Y-70312518D01*
X98347591Y-70350000D01*
X98492409Y-70350000D01*
X98632292Y-70312518D01*
X98670000Y-70290747D01*
X98670000Y-71149999D01*
X99207707Y-71149999D01*
X99325360Y-71134511D01*
X99471735Y-71073880D01*
X99597428Y-70977431D01*
X99597431Y-70977428D01*
X99644773Y-70915732D01*
X99705962Y-70868780D01*
X99782431Y-70858713D01*
X99853688Y-70888229D01*
X99868341Y-70901079D01*
X99949917Y-70982655D01*
X100147361Y-71126106D01*
X100364815Y-71236904D01*
X100596924Y-71312321D01*
X100837973Y-71350500D01*
X100837978Y-71350500D01*
X101082022Y-71350500D01*
X101082027Y-71350500D01*
X101323076Y-71312321D01*
X101555185Y-71236904D01*
X101772639Y-71126106D01*
X101970083Y-70982655D01*
X102124641Y-70828097D01*
X102191436Y-70789533D01*
X102268564Y-70789533D01*
X102335359Y-70828097D01*
X102489917Y-70982655D01*
X102687361Y-71126106D01*
X102687362Y-71126106D01*
X102688080Y-71126628D01*
X102707602Y-71150736D01*
X102729538Y-71172672D01*
X102731601Y-71180373D01*
X102736618Y-71186568D01*
X102749500Y-71247172D01*
X102749500Y-71247414D01*
X102729538Y-71321914D01*
X102705859Y-71352773D01*
X102302773Y-71755859D01*
X102235978Y-71794423D01*
X102197414Y-71799500D01*
X96492585Y-71799500D01*
X96418085Y-71779538D01*
X96387226Y-71755859D01*
X94725009Y-70093641D01*
X93198418Y-68567050D01*
X93198410Y-68567043D01*
X93124729Y-68517812D01*
X93124728Y-68517812D01*
X93075497Y-68484917D01*
X93070698Y-68482929D01*
X92938913Y-68428342D01*
X92938911Y-68428341D01*
X92938912Y-68428341D01*
X92793921Y-68399500D01*
X92793918Y-68399500D01*
X90217364Y-68399500D01*
X90142864Y-68379538D01*
X90088326Y-68325000D01*
X90068364Y-68250500D01*
X90088326Y-68176000D01*
X90096820Y-68162921D01*
X90117809Y-68134031D01*
X90117814Y-68134023D01*
X90117815Y-68134022D01*
X90217895Y-67937606D01*
X90279535Y-67747895D01*
X90286014Y-67727956D01*
X90298707Y-67647814D01*
X90320500Y-67510222D01*
X90320500Y-67474709D01*
X90340462Y-67400209D01*
X90395000Y-67345671D01*
X90469500Y-67325709D01*
X90544000Y-67345671D01*
X90557080Y-67354166D01*
X90685967Y-67447808D01*
X90685976Y-67447814D01*
X90685978Y-67447815D01*
X90882394Y-67547895D01*
X90969512Y-67576201D01*
X91092043Y-67616014D01*
X91092048Y-67616014D01*
X91092049Y-67616015D01*
X91309778Y-67650500D01*
X91309782Y-67650500D01*
X91530218Y-67650500D01*
X91530222Y-67650500D01*
X91747951Y-67616015D01*
X91747952Y-67616014D01*
X91747956Y-67616014D01*
X91828556Y-67589825D01*
X91957606Y-67547895D01*
X92154022Y-67447815D01*
X92332365Y-67318242D01*
X92488242Y-67162365D01*
X92617815Y-66984022D01*
X92717895Y-66787606D01*
X92773312Y-66617048D01*
X92786014Y-66577956D01*
X92786641Y-66574000D01*
X92820500Y-66360222D01*
X92820500Y-66139778D01*
X92786015Y-65922049D01*
X92786014Y-65922048D01*
X92786014Y-65922043D01*
X92719059Y-65715978D01*
X92717895Y-65712394D01*
X92617815Y-65515978D01*
X92488242Y-65337635D01*
X92332365Y-65181758D01*
X92233659Y-65110044D01*
X92185121Y-65050104D01*
X92173055Y-64973925D01*
X92200695Y-64901920D01*
X92260635Y-64853382D01*
X92321239Y-64840500D01*
X98037414Y-64840500D01*
X98111914Y-64860462D01*
G37*
%TD.AperFunction*%
%TA.AperFunction,Conductor*%
G36*
X51183282Y-60220462D02*
G01*
X51214141Y-60244141D01*
X51220000Y-60250000D01*
X99220000Y-60250000D01*
X99225859Y-60244141D01*
X99292654Y-60205577D01*
X99331218Y-60200500D01*
X119650500Y-60200500D01*
X119725000Y-60220462D01*
X119779538Y-60275000D01*
X119799500Y-60349500D01*
X119799500Y-106439782D01*
X119779538Y-106514282D01*
X119725000Y-106568820D01*
X119650500Y-106588782D01*
X119576000Y-106568820D01*
X119545141Y-106545141D01*
X117800000Y-104800000D01*
X81788000Y-104800000D01*
X81192224Y-105222204D01*
X80264000Y-105880000D01*
X80264000Y-121072196D01*
X80244038Y-121146696D01*
X80213696Y-121183820D01*
X79423357Y-121882624D01*
X79354322Y-121917018D01*
X79324661Y-121920000D01*
X75183999Y-121920000D01*
X73660001Y-123062998D01*
X73660000Y-123063001D01*
X73660000Y-142162421D01*
X73640038Y-142236921D01*
X73596446Y-142284487D01*
X68580000Y-145796000D01*
X68580000Y-159650500D01*
X68560038Y-159725000D01*
X68505500Y-159779538D01*
X68431000Y-159799500D01*
X30349500Y-159799500D01*
X30275000Y-159779538D01*
X30220462Y-159725000D01*
X30200500Y-159650500D01*
X30200500Y-143702114D01*
X34649500Y-143702114D01*
X34649500Y-148297863D01*
X34649502Y-148297888D01*
X34655908Y-148357478D01*
X34655909Y-148357484D01*
X34706202Y-148492329D01*
X34706204Y-148492333D01*
X34792452Y-148607544D01*
X34792455Y-148607547D01*
X34907666Y-148693795D01*
X34907670Y-148693797D01*
X35042517Y-148744091D01*
X35102114Y-148750499D01*
X35102118Y-148750499D01*
X35102127Y-148750500D01*
X39697872Y-148750499D01*
X39719657Y-148748157D01*
X39738282Y-148751061D01*
X39738282Y-148750000D01*
X41600000Y-148750000D01*
X41600000Y-149250000D01*
X39800000Y-149250000D01*
X39800000Y-149826973D01*
X39780038Y-149901473D01*
X39725500Y-149956011D01*
X39651000Y-149975973D01*
X39576500Y-149956011D01*
X39565538Y-149949027D01*
X39452488Y-149869869D01*
X39452477Y-149869862D01*
X39246325Y-149773733D01*
X39246323Y-149773732D01*
X39026605Y-149714859D01*
X39026606Y-149714859D01*
X38856763Y-149700000D01*
X37650000Y-149700000D01*
X37650000Y-151500000D01*
X37150000Y-151500000D01*
X37150000Y-149700000D01*
X35943247Y-149700000D01*
X35943234Y-149700001D01*
X35773393Y-149714859D01*
X35553676Y-149773732D01*
X35553674Y-149773733D01*
X35347522Y-149869862D01*
X35347517Y-149869865D01*
X35161182Y-150000339D01*
X35000339Y-150161182D01*
X34869865Y-150347517D01*
X34869862Y-150347522D01*
X34773733Y-150553674D01*
X34773732Y-150553676D01*
X34714859Y-150773393D01*
X34700000Y-150943236D01*
X34700000Y-151750000D01*
X35966988Y-151750000D01*
X35934075Y-151807007D01*
X35900000Y-151934174D01*
X35900000Y-152065826D01*
X35934075Y-152192993D01*
X35966988Y-152250000D01*
X34700001Y-152250000D01*
X34700001Y-153056765D01*
X34714859Y-153226606D01*
X34773732Y-153446323D01*
X34773733Y-153446325D01*
X34869862Y-153652477D01*
X34869865Y-153652482D01*
X35000339Y-153838817D01*
X35161182Y-153999660D01*
X35347517Y-154130134D01*
X35347522Y-154130137D01*
X35553674Y-154226266D01*
X35553676Y-154226267D01*
X35773394Y-154285140D01*
X35773393Y-154285140D01*
X35943241Y-154299999D01*
X37150000Y-154299999D01*
X37150000Y-152500000D01*
X37650000Y-152500000D01*
X37650000Y-154299999D01*
X38856753Y-154299999D01*
X38856765Y-154299998D01*
X39026606Y-154285140D01*
X39246323Y-154226267D01*
X39246325Y-154226266D01*
X39452477Y-154130137D01*
X39452482Y-154130134D01*
X39638817Y-153999660D01*
X39799660Y-153838817D01*
X39930134Y-153652482D01*
X39930137Y-153652477D01*
X40026266Y-153446325D01*
X40026267Y-153446323D01*
X40085140Y-153226606D01*
X40099999Y-153056763D01*
X40100000Y-153056754D01*
X40100000Y-152250000D01*
X38833012Y-152250000D01*
X38865925Y-152192993D01*
X38900000Y-152065826D01*
X38900000Y-151934174D01*
X38865925Y-151807007D01*
X38833012Y-151750000D01*
X40099999Y-151750000D01*
X40099999Y-151423025D01*
X40119961Y-151348525D01*
X40174499Y-151293987D01*
X40248999Y-151274025D01*
X40323499Y-151293987D01*
X40334462Y-151300972D01*
X40447509Y-151380129D01*
X40447522Y-151380137D01*
X40653674Y-151476266D01*
X40653676Y-151476267D01*
X40873394Y-151535140D01*
X40873393Y-151535140D01*
X41043241Y-151549999D01*
X41850000Y-151549999D01*
X41850000Y-150433012D01*
X41907007Y-150465925D01*
X42034174Y-150500000D01*
X42165826Y-150500000D01*
X42292993Y-150465925D01*
X42350000Y-150433012D01*
X42350000Y-151549999D01*
X43156753Y-151549999D01*
X43156765Y-151549998D01*
X43326606Y-151535140D01*
X43546323Y-151476267D01*
X43546325Y-151476266D01*
X43752477Y-151380137D01*
X43752482Y-151380134D01*
X43938817Y-151249660D01*
X44099660Y-151088817D01*
X44230134Y-150902482D01*
X44230137Y-150902477D01*
X44326266Y-150696325D01*
X44326267Y-150696323D01*
X44385140Y-150476606D01*
X44399999Y-150306763D01*
X44400000Y-150306754D01*
X44400000Y-149250000D01*
X42600000Y-149250000D01*
X42600000Y-148750000D01*
X44399999Y-148750000D01*
X44399999Y-148300000D01*
X50897723Y-148300000D01*
X52332499Y-148300000D01*
X52307479Y-148360402D01*
X52282500Y-148485981D01*
X52282500Y-148614019D01*
X52307479Y-148739598D01*
X52332499Y-148800000D01*
X50897724Y-148800000D01*
X50917573Y-148950777D01*
X50917575Y-148950790D01*
X50987129Y-149210368D01*
X51089968Y-149458641D01*
X51224332Y-149691366D01*
X51224332Y-149691367D01*
X51387921Y-149904559D01*
X51577940Y-150094578D01*
X51791133Y-150258167D01*
X52023858Y-150392531D01*
X52272131Y-150495370D01*
X52531709Y-150564924D01*
X52531722Y-150564926D01*
X52682500Y-150584776D01*
X52682500Y-149150001D01*
X52742902Y-149175021D01*
X52868481Y-149200000D01*
X52996519Y-149200000D01*
X53122098Y-149175021D01*
X53182500Y-149150001D01*
X53182500Y-150584775D01*
X53333277Y-150564926D01*
X53333290Y-150564924D01*
X53592868Y-150495370D01*
X53841141Y-150392531D01*
X54073866Y-150258167D01*
X54073867Y-150258167D01*
X54287059Y-150094578D01*
X54477078Y-149904559D01*
X54640667Y-149691367D01*
X54640667Y-149691366D01*
X54775031Y-149458641D01*
X54877870Y-149210368D01*
X54947424Y-148950790D01*
X54947426Y-148950777D01*
X54967276Y-148800000D01*
X53532501Y-148800000D01*
X53557521Y-148739598D01*
X53582500Y-148614019D01*
X53582500Y-148485981D01*
X53557521Y-148360402D01*
X53532501Y-148300000D01*
X54967276Y-148300000D01*
X54947426Y-148149222D01*
X54947424Y-148149209D01*
X54877870Y-147889631D01*
X54775031Y-147641358D01*
X54640667Y-147408633D01*
X54640667Y-147408632D01*
X54477078Y-147195440D01*
X54287059Y-147005421D01*
X54073866Y-146841832D01*
X53841141Y-146707468D01*
X53592868Y-146604629D01*
X53333291Y-146535075D01*
X53333278Y-146535073D01*
X53182500Y-146515222D01*
X53182500Y-147949998D01*
X53122098Y-147924979D01*
X52996519Y-147900000D01*
X52868481Y-147900000D01*
X52742902Y-147924979D01*
X52682500Y-147949998D01*
X52682500Y-146515222D01*
X52531721Y-146535073D01*
X52531708Y-146535075D01*
X52272131Y-146604629D01*
X52023858Y-146707468D01*
X51791133Y-146841832D01*
X51791132Y-146841832D01*
X51577940Y-147005421D01*
X51387921Y-147195440D01*
X51224332Y-147408632D01*
X51224332Y-147408633D01*
X51089968Y-147641358D01*
X50987129Y-147889631D01*
X50917575Y-148149209D01*
X50917573Y-148149222D01*
X50897723Y-148300000D01*
X44399999Y-148300000D01*
X44399999Y-147693247D01*
X44399998Y-147693234D01*
X44385140Y-147523393D01*
X44326267Y-147303676D01*
X44326266Y-147303674D01*
X44230137Y-147097522D01*
X44230134Y-147097517D01*
X44099660Y-146911182D01*
X43938817Y-146750339D01*
X43752482Y-146619865D01*
X43752477Y-146619862D01*
X43546325Y-146523733D01*
X43546323Y-146523732D01*
X43326605Y-146464859D01*
X43326606Y-146464859D01*
X43156763Y-146450000D01*
X42350000Y-146450000D01*
X42350000Y-147566988D01*
X42292993Y-147534075D01*
X42165826Y-147500000D01*
X42034174Y-147500000D01*
X41907007Y-147534075D01*
X41850000Y-147566988D01*
X41850000Y-146450000D01*
X41043247Y-146450000D01*
X41043234Y-146450001D01*
X40873393Y-146464859D01*
X40653676Y-146523732D01*
X40653674Y-146523733D01*
X40447522Y-146619862D01*
X40447517Y-146619865D01*
X40384962Y-146663668D01*
X40312485Y-146690047D01*
X40236529Y-146676654D01*
X40177445Y-146627077D01*
X40151066Y-146554600D01*
X40150499Y-146541628D01*
X40150499Y-143702128D01*
X40144091Y-143642517D01*
X40129588Y-143603633D01*
X40093797Y-143507670D01*
X40093795Y-143507666D01*
X40007547Y-143392455D01*
X40007544Y-143392452D01*
X39892333Y-143306204D01*
X39892329Y-143306202D01*
X39757482Y-143255908D01*
X39697876Y-143249500D01*
X35102136Y-143249500D01*
X35102111Y-143249502D01*
X35042521Y-143255908D01*
X35042515Y-143255909D01*
X34907670Y-143306202D01*
X34907666Y-143306204D01*
X34792455Y-143392452D01*
X34792452Y-143392455D01*
X34706204Y-143507666D01*
X34706202Y-143507670D01*
X34655908Y-143642517D01*
X34649500Y-143702114D01*
X30200500Y-143702114D01*
X30200500Y-136964614D01*
X44857000Y-136964614D01*
X44857000Y-139060363D01*
X44857002Y-139060388D01*
X44863408Y-139119978D01*
X44863409Y-139119984D01*
X44913702Y-139254829D01*
X44913704Y-139254833D01*
X44999952Y-139370044D01*
X45007489Y-139377581D01*
X45006370Y-139378699D01*
X45046684Y-139429963D01*
X45057375Y-139503391D01*
X45057748Y-139503413D01*
X45057642Y-139505229D01*
X45057723Y-139505780D01*
X45057500Y-139507703D01*
X45057500Y-140302500D01*
X45866752Y-140302500D01*
X45844982Y-140340208D01*
X45807500Y-140480091D01*
X45807500Y-140624909D01*
X45844982Y-140764792D01*
X45866752Y-140802500D01*
X45057501Y-140802500D01*
X45057501Y-141597304D01*
X45057725Y-141599236D01*
X45057644Y-141599782D01*
X45057749Y-141601595D01*
X45057373Y-141601616D01*
X45046469Y-141675538D01*
X45006384Y-141726322D01*
X45007485Y-141727423D01*
X44999954Y-141734953D01*
X44913704Y-141850166D01*
X44913702Y-141850170D01*
X44863408Y-141985017D01*
X44857000Y-142044614D01*
X44857000Y-144140363D01*
X44857002Y-144140388D01*
X44863408Y-144199978D01*
X44863410Y-144199987D01*
X44904602Y-144310431D01*
X44911933Y-144387210D01*
X44904602Y-144414567D01*
X44863408Y-144525015D01*
X44857000Y-144584614D01*
X44857000Y-146680363D01*
X44857002Y-146680388D01*
X44863408Y-146739978D01*
X44863409Y-146739984D01*
X44913702Y-146874829D01*
X44913704Y-146874833D01*
X44999952Y-146990044D01*
X44999955Y-146990047D01*
X45115166Y-147076295D01*
X45115170Y-147076297D01*
X45250017Y-147126591D01*
X45309614Y-147132999D01*
X45309618Y-147132999D01*
X45309627Y-147133000D01*
X47405372Y-147132999D01*
X47464983Y-147126591D01*
X47560947Y-147090798D01*
X47599829Y-147076297D01*
X47599833Y-147076295D01*
X47657438Y-147033171D01*
X47715046Y-146990046D01*
X47801296Y-146874831D01*
X47851591Y-146739983D01*
X47856960Y-146690047D01*
X47857999Y-146680385D01*
X47857999Y-146680382D01*
X47858000Y-146680373D01*
X47857999Y-144584628D01*
X47851591Y-144525017D01*
X47810395Y-144414566D01*
X47803065Y-144337791D01*
X47810397Y-144310430D01*
X47851591Y-144199984D01*
X47857999Y-144140385D01*
X47857999Y-144140382D01*
X47858000Y-144140373D01*
X47857999Y-142044628D01*
X47851591Y-141985017D01*
X47837088Y-141946133D01*
X47801297Y-141850170D01*
X47801295Y-141850166D01*
X47715047Y-141734955D01*
X47707511Y-141727419D01*
X47708629Y-141726300D01*
X47668313Y-141675033D01*
X47657630Y-141601608D01*
X47657252Y-141601587D01*
X47657358Y-141599740D01*
X47657279Y-141599192D01*
X47657500Y-141597289D01*
X47657500Y-140802500D01*
X46848248Y-140802500D01*
X46870018Y-140764792D01*
X46907500Y-140624909D01*
X46907500Y-140480091D01*
X46870018Y-140340208D01*
X46848248Y-140302500D01*
X47657499Y-140302500D01*
X47657499Y-139507701D01*
X47657277Y-139505788D01*
X47657357Y-139505243D01*
X47657251Y-139503405D01*
X47657631Y-139503383D01*
X47668521Y-139429484D01*
X47708615Y-139378687D01*
X47707510Y-139377582D01*
X47715042Y-139370048D01*
X47715046Y-139370046D01*
X47801296Y-139254831D01*
X47851591Y-139119983D01*
X47853323Y-139103870D01*
X47857999Y-139060385D01*
X47857999Y-139060382D01*
X47858000Y-139060373D01*
X47857999Y-136964628D01*
X47851591Y-136905017D01*
X47837088Y-136866133D01*
X47801297Y-136770170D01*
X47801295Y-136770166D01*
X47715047Y-136654955D01*
X47715044Y-136654952D01*
X47599833Y-136568704D01*
X47599829Y-136568702D01*
X47464982Y-136518408D01*
X47405376Y-136512000D01*
X45309636Y-136512000D01*
X45309611Y-136512002D01*
X45250021Y-136518408D01*
X45250015Y-136518409D01*
X45115170Y-136568702D01*
X45115166Y-136568704D01*
X44999955Y-136654952D01*
X44999952Y-136654955D01*
X44913704Y-136770166D01*
X44913702Y-136770170D01*
X44863408Y-136905017D01*
X44857000Y-136964614D01*
X30200500Y-136964614D01*
X30200500Y-125802488D01*
X50682000Y-125802488D01*
X50682000Y-126097511D01*
X50720504Y-126389977D01*
X50720507Y-126389994D01*
X50796859Y-126674948D01*
X50796859Y-126674949D01*
X50909759Y-126947511D01*
X51057264Y-127202997D01*
X51057264Y-127202998D01*
X51236854Y-127437042D01*
X51445458Y-127645646D01*
X51679506Y-127825238D01*
X51934993Y-127972743D01*
X52165056Y-128068038D01*
X52207550Y-128085640D01*
X52350027Y-128123816D01*
X52492507Y-128161993D01*
X52784989Y-128200499D01*
X52784992Y-128200500D01*
X52784994Y-128200500D01*
X53080008Y-128200500D01*
X53080009Y-128200499D01*
X53372493Y-128161993D01*
X53657448Y-128085640D01*
X53657449Y-128085640D01*
X53657450Y-128085639D01*
X53657452Y-128085639D01*
X53930007Y-127972743D01*
X54185494Y-127825238D01*
X54419542Y-127645646D01*
X54628146Y-127437042D01*
X54807738Y-127202994D01*
X54955243Y-126947507D01*
X55068139Y-126674952D01*
X55144493Y-126389993D01*
X55183000Y-126097506D01*
X55183000Y-125802494D01*
X55144493Y-125510007D01*
X55068139Y-125225048D01*
X54955243Y-124952493D01*
X54807738Y-124697006D01*
X54807735Y-124697002D01*
X54807735Y-124697001D01*
X54628145Y-124462957D01*
X54419542Y-124254354D01*
X54185497Y-124074764D01*
X53930011Y-123927259D01*
X53930009Y-123927258D01*
X53930007Y-123927257D01*
X53845024Y-123892055D01*
X53657449Y-123814359D01*
X53372494Y-123738007D01*
X53372477Y-123738004D01*
X53080011Y-123699500D01*
X53080006Y-123699500D01*
X52784994Y-123699500D01*
X52784988Y-123699500D01*
X52492522Y-123738004D01*
X52492505Y-123738007D01*
X52207551Y-123814359D01*
X52207550Y-123814359D01*
X51934988Y-123927259D01*
X51679502Y-124074764D01*
X51679501Y-124074764D01*
X51445457Y-124254354D01*
X51236854Y-124462957D01*
X51057264Y-124697001D01*
X51057264Y-124697002D01*
X50909759Y-124952488D01*
X50796859Y-125225050D01*
X50796859Y-125225051D01*
X50720507Y-125510005D01*
X50720504Y-125510022D01*
X50682000Y-125802488D01*
X30200500Y-125802488D01*
X30200500Y-73889777D01*
X35219501Y-73889777D01*
X35219501Y-74110221D01*
X35234211Y-74203096D01*
X35253986Y-74327955D01*
X35322106Y-74537605D01*
X35422186Y-74734022D01*
X35422187Y-74734023D01*
X35431854Y-74747328D01*
X35551759Y-74912364D01*
X35707636Y-75068241D01*
X35817804Y-75148282D01*
X35885976Y-75197812D01*
X35885977Y-75197813D01*
X35885979Y-75197814D01*
X36082395Y-75297894D01*
X36169513Y-75326200D01*
X36292044Y-75366013D01*
X36292049Y-75366013D01*
X36292050Y-75366014D01*
X36509779Y-75400499D01*
X36509783Y-75400499D01*
X36698414Y-75400499D01*
X36772914Y-75420461D01*
X36827452Y-75474999D01*
X36847414Y-75549499D01*
X36827452Y-75623999D01*
X36803773Y-75654858D01*
X35437050Y-77021581D01*
X35437047Y-77021585D01*
X35404329Y-77070550D01*
X35404330Y-77070551D01*
X35354918Y-77144502D01*
X35354913Y-77144510D01*
X35298341Y-77281088D01*
X35269500Y-77426078D01*
X35269500Y-107473921D01*
X35298341Y-107618912D01*
X35298342Y-107618914D01*
X35354913Y-107755490D01*
X35368687Y-107776104D01*
X35368688Y-107776108D01*
X35437043Y-107878410D01*
X35437047Y-107878415D01*
X35437048Y-107878416D01*
X41237049Y-113678416D01*
X41341584Y-113782951D01*
X41402835Y-113823877D01*
X41464501Y-113865082D01*
X41464503Y-113865083D01*
X41464505Y-113865084D01*
X41507640Y-113882951D01*
X41601088Y-113921659D01*
X41717241Y-113944763D01*
X41746082Y-113950500D01*
X41746083Y-113950500D01*
X41893918Y-113950500D01*
X41949989Y-113950500D01*
X42024489Y-113970462D01*
X42076806Y-114021279D01*
X42152288Y-114143656D01*
X42282481Y-114273849D01*
X42281361Y-114274968D01*
X42292178Y-114289495D01*
X42312038Y-114309355D01*
X42314889Y-114319996D01*
X42321469Y-114328833D01*
X42332000Y-114383855D01*
X42332000Y-114509576D01*
X42312038Y-114584076D01*
X42257500Y-114638614D01*
X42183000Y-114658576D01*
X42108500Y-114638614D01*
X42104797Y-114636404D01*
X41989334Y-114565186D01*
X41876982Y-114527956D01*
X41822798Y-114510001D01*
X41801576Y-114507833D01*
X41720009Y-114499500D01*
X41720004Y-114499500D01*
X40919996Y-114499500D01*
X40817202Y-114510001D01*
X40650666Y-114565186D01*
X40501343Y-114657288D01*
X40377288Y-114781343D01*
X40317226Y-114878721D01*
X40290696Y-114903750D01*
X40264909Y-114929538D01*
X40262750Y-114930116D01*
X40261125Y-114931650D01*
X40190409Y-114949500D01*
X39992585Y-114949500D01*
X39918085Y-114929538D01*
X39887226Y-114905859D01*
X39542884Y-114561516D01*
X39504320Y-114494721D01*
X39501077Y-114432851D01*
X39520500Y-114310222D01*
X39520500Y-114089778D01*
X39486015Y-113872049D01*
X39486014Y-113872048D01*
X39486014Y-113872043D01*
X39439283Y-113728220D01*
X39417895Y-113662394D01*
X39317815Y-113465978D01*
X39188242Y-113287635D01*
X39032365Y-113131758D01*
X38917198Y-113048085D01*
X38854024Y-113002186D01*
X38854023Y-113002185D01*
X38657606Y-112902105D01*
X38447956Y-112833985D01*
X38326990Y-112814826D01*
X38230222Y-112799500D01*
X38009778Y-112799500D01*
X37922686Y-112813294D01*
X37792043Y-112833985D01*
X37582393Y-112902105D01*
X37385976Y-113002185D01*
X37385975Y-113002186D01*
X37207636Y-113131757D01*
X37207633Y-113131759D01*
X37051759Y-113287633D01*
X37051757Y-113287636D01*
X36922186Y-113465975D01*
X36922185Y-113465976D01*
X36822105Y-113662393D01*
X36753985Y-113872043D01*
X36734617Y-113994334D01*
X36719500Y-114089778D01*
X36719500Y-114310222D01*
X36734636Y-114405787D01*
X36753985Y-114527956D01*
X36822105Y-114737606D01*
X36922185Y-114934023D01*
X36922186Y-114934024D01*
X36955254Y-114979538D01*
X37051758Y-115112365D01*
X37207635Y-115268242D01*
X37348426Y-115370532D01*
X37385975Y-115397813D01*
X37385976Y-115397814D01*
X37385978Y-115397815D01*
X37582394Y-115497895D01*
X37669512Y-115526201D01*
X37792043Y-115566014D01*
X37792048Y-115566014D01*
X37792049Y-115566015D01*
X38009778Y-115600500D01*
X38009782Y-115600500D01*
X38230217Y-115600500D01*
X38230222Y-115600500D01*
X38352850Y-115581077D01*
X38429554Y-115589139D01*
X38481516Y-115622884D01*
X38858633Y-116000000D01*
X39141584Y-116282951D01*
X39190685Y-116315759D01*
X39264502Y-116365083D01*
X39295444Y-116377899D01*
X39401087Y-116421658D01*
X39546082Y-116450500D01*
X39693917Y-116450500D01*
X40190409Y-116450500D01*
X40264909Y-116470462D01*
X40317225Y-116521278D01*
X40377288Y-116618656D01*
X40501344Y-116742712D01*
X40650666Y-116834814D01*
X40817203Y-116889999D01*
X40919991Y-116900500D01*
X41720008Y-116900499D01*
X41822797Y-116889999D01*
X41989334Y-116834814D01*
X42138656Y-116742712D01*
X42214641Y-116666727D01*
X42281436Y-116628163D01*
X42358564Y-116628163D01*
X42425359Y-116666727D01*
X42501344Y-116742712D01*
X42650666Y-116834814D01*
X42817203Y-116889999D01*
X42919991Y-116900500D01*
X43720008Y-116900499D01*
X43822797Y-116889999D01*
X43989334Y-116834814D01*
X44138656Y-116742712D01*
X44262712Y-116618656D01*
X44291934Y-116571278D01*
X44348035Y-116518350D01*
X44418751Y-116500500D01*
X46819020Y-116500500D01*
X46893520Y-116520462D01*
X46948058Y-116575000D01*
X46967083Y-116632816D01*
X46972165Y-116677917D01*
X46994838Y-116742712D01*
X47031872Y-116848550D01*
X47128048Y-117001615D01*
X47128052Y-117001620D01*
X47255880Y-117129448D01*
X47255884Y-117129451D01*
X47292050Y-117152175D01*
X47408950Y-117225628D01*
X47579583Y-117285335D01*
X47714174Y-117300500D01*
X49300826Y-117300500D01*
X49435417Y-117285335D01*
X49606050Y-117225628D01*
X49759119Y-117129449D01*
X49886949Y-117001619D01*
X49983128Y-116848550D01*
X50042835Y-116677917D01*
X50058000Y-116543326D01*
X50058000Y-114956674D01*
X50042835Y-114822083D01*
X49983128Y-114651450D01*
X49886949Y-114498381D01*
X49759119Y-114370551D01*
X49759117Y-114370550D01*
X49759115Y-114370548D01*
X49630118Y-114289495D01*
X49606050Y-114274372D01*
X49606049Y-114274371D01*
X49601514Y-114271522D01*
X49549053Y-114214984D01*
X49531890Y-114139789D01*
X49554624Y-114066088D01*
X49560243Y-114057779D01*
X49662120Y-113917558D01*
X49662121Y-113917555D01*
X49758593Y-113728220D01*
X49824257Y-113526128D01*
X49857500Y-113316242D01*
X49857500Y-113103757D01*
X49824257Y-112893871D01*
X49758593Y-112691779D01*
X49662121Y-112502444D01*
X49622770Y-112448282D01*
X49031287Y-113039764D01*
X49020018Y-112997708D01*
X48947610Y-112872292D01*
X48845208Y-112769890D01*
X48719792Y-112697482D01*
X48677732Y-112686212D01*
X49269216Y-112094729D01*
X49269216Y-112094728D01*
X49215055Y-112055378D01*
X49215055Y-112055377D01*
X49025720Y-111958906D01*
X48823628Y-111893242D01*
X48613742Y-111860000D01*
X48401258Y-111860000D01*
X48191371Y-111893242D01*
X47989279Y-111958906D01*
X47799944Y-112055378D01*
X47745782Y-112094728D01*
X47745782Y-112094729D01*
X48337265Y-112686212D01*
X48295208Y-112697482D01*
X48169792Y-112769890D01*
X48067390Y-112872292D01*
X47994982Y-112997708D01*
X47983712Y-113039765D01*
X47392229Y-112448282D01*
X47392228Y-112448282D01*
X47352878Y-112502444D01*
X47256406Y-112691779D01*
X47190742Y-112893871D01*
X47157500Y-113103757D01*
X47157500Y-113316242D01*
X47190742Y-113526128D01*
X47256406Y-113728220D01*
X47352878Y-113917555D01*
X47454757Y-114057780D01*
X47482397Y-114129785D01*
X47470331Y-114205964D01*
X47421793Y-114265904D01*
X47413485Y-114271522D01*
X47255884Y-114370548D01*
X47128048Y-114498384D01*
X47031872Y-114651449D01*
X46972165Y-114822083D01*
X46967083Y-114867184D01*
X46938904Y-114938980D01*
X46878602Y-114987068D01*
X46819020Y-114999500D01*
X44480432Y-114999500D01*
X44405932Y-114979538D01*
X44353616Y-114928721D01*
X44262713Y-114781345D01*
X44138656Y-114657288D01*
X44108380Y-114638614D01*
X43989334Y-114565186D01*
X43978259Y-114561516D01*
X43935129Y-114547223D01*
X43922315Y-114538794D01*
X43907500Y-114534825D01*
X43890626Y-114517951D01*
X43870691Y-114504839D01*
X43863808Y-114491133D01*
X43852962Y-114480287D01*
X43846785Y-114457236D01*
X43836078Y-114435914D01*
X43833000Y-114405787D01*
X43833000Y-114383855D01*
X43852962Y-114309355D01*
X43883124Y-114274454D01*
X43882519Y-114273849D01*
X43944005Y-114212363D01*
X44012712Y-114143656D01*
X44104814Y-113994334D01*
X44104814Y-113994331D01*
X44109369Y-113986948D01*
X44111898Y-113988508D01*
X44151626Y-113941143D01*
X44224097Y-113914750D01*
X44300056Y-113928128D01*
X44355837Y-113973148D01*
X44427437Y-114067566D01*
X44547904Y-114158920D01*
X44547903Y-114158920D01*
X44688556Y-114214386D01*
X44776939Y-114224999D01*
X44776941Y-114225000D01*
X44907500Y-114225000D01*
X45407500Y-114225000D01*
X45538059Y-114225000D01*
X45538060Y-114224999D01*
X45626443Y-114214386D01*
X45767096Y-114158920D01*
X45887562Y-114067566D01*
X45887566Y-114067562D01*
X45978920Y-113947096D01*
X46034386Y-113806443D01*
X46044999Y-113718060D01*
X46045000Y-113718058D01*
X46045000Y-113450000D01*
X45407500Y-113450000D01*
X45407500Y-114225000D01*
X44907500Y-114225000D01*
X44907500Y-112950000D01*
X45407500Y-112950000D01*
X46045000Y-112950000D01*
X46045000Y-112681941D01*
X46044999Y-112681939D01*
X46034386Y-112593556D01*
X45978920Y-112452903D01*
X45887566Y-112332437D01*
X45887562Y-112332433D01*
X45805560Y-112270248D01*
X45805550Y-112270241D01*
X45767093Y-112241078D01*
X45626443Y-112185613D01*
X45538060Y-112175000D01*
X45407500Y-112175000D01*
X45407500Y-112950000D01*
X44907500Y-112950000D01*
X44907500Y-112175000D01*
X44776939Y-112175000D01*
X44688556Y-112185613D01*
X44547903Y-112241079D01*
X44427437Y-112332433D01*
X44427433Y-112332437D01*
X44355836Y-112426851D01*
X44294914Y-112474151D01*
X44218504Y-112484652D01*
X44147081Y-112455542D01*
X44111646Y-112411647D01*
X44109369Y-112413052D01*
X44104814Y-112405668D01*
X44104814Y-112405666D01*
X44012712Y-112256344D01*
X43888656Y-112132288D01*
X43739334Y-112040186D01*
X43656065Y-112012593D01*
X43572798Y-111985001D01*
X43555665Y-111983250D01*
X43470009Y-111974500D01*
X43470004Y-111974500D01*
X42694996Y-111974500D01*
X42592202Y-111985001D01*
X42425666Y-112040186D01*
X42276343Y-112132288D01*
X42150359Y-112258273D01*
X42083564Y-112296837D01*
X42006436Y-112296837D01*
X41939641Y-112258273D01*
X36814141Y-107132773D01*
X36775577Y-107065978D01*
X36770500Y-107027414D01*
X36770500Y-98909085D01*
X36790462Y-98834585D01*
X36845000Y-98780047D01*
X36919500Y-98760085D01*
X36994000Y-98780047D01*
X37024854Y-98803722D01*
X39526661Y-101305528D01*
X42050859Y-103829726D01*
X42089423Y-103896521D01*
X42094500Y-103935085D01*
X42094500Y-104425003D01*
X42094501Y-104425008D01*
X42105001Y-104527797D01*
X42160186Y-104694334D01*
X42219063Y-104789789D01*
X42252288Y-104843656D01*
X42382481Y-104973849D01*
X42381361Y-104974968D01*
X42392178Y-104989495D01*
X42412038Y-105009355D01*
X42414889Y-105019996D01*
X42421469Y-105028833D01*
X42432000Y-105083855D01*
X42432000Y-105245098D01*
X42412038Y-105319598D01*
X42386032Y-105349705D01*
X42387480Y-105351153D01*
X42381346Y-105357286D01*
X42381344Y-105357288D01*
X42334836Y-105403796D01*
X42305358Y-105433274D01*
X42238563Y-105471837D01*
X42161435Y-105471837D01*
X42094641Y-105433273D01*
X42018656Y-105357288D01*
X42012852Y-105353708D01*
X41869334Y-105265186D01*
X41781577Y-105236106D01*
X41702798Y-105210001D01*
X41685665Y-105208250D01*
X41600009Y-105199500D01*
X41600004Y-105199500D01*
X40799996Y-105199500D01*
X40697202Y-105210001D01*
X40530666Y-105265186D01*
X40381343Y-105357288D01*
X40257288Y-105481343D01*
X40214928Y-105550020D01*
X40207839Y-105561515D01*
X40197226Y-105578721D01*
X40170696Y-105603750D01*
X40144909Y-105629538D01*
X40142750Y-105630116D01*
X40141125Y-105631650D01*
X40070409Y-105649500D01*
X40042585Y-105649500D01*
X39968085Y-105629538D01*
X39937225Y-105605858D01*
X39892883Y-105561515D01*
X39854320Y-105494719D01*
X39851077Y-105432851D01*
X39870500Y-105310222D01*
X39870500Y-105089778D01*
X39836015Y-104872049D01*
X39836014Y-104872048D01*
X39836014Y-104872043D01*
X39785341Y-104716088D01*
X39767895Y-104662394D01*
X39667815Y-104465978D01*
X39538242Y-104287635D01*
X39382365Y-104131758D01*
X39293193Y-104066971D01*
X39204024Y-104002186D01*
X39204023Y-104002185D01*
X39007606Y-103902105D01*
X38797956Y-103833985D01*
X38676990Y-103814826D01*
X38580222Y-103799500D01*
X38359778Y-103799500D01*
X38272686Y-103813294D01*
X38142043Y-103833985D01*
X37932393Y-103902105D01*
X37735976Y-104002185D01*
X37735975Y-104002186D01*
X37557636Y-104131757D01*
X37557633Y-104131759D01*
X37401759Y-104287633D01*
X37401757Y-104287636D01*
X37272186Y-104465975D01*
X37272185Y-104465976D01*
X37172105Y-104662393D01*
X37103985Y-104872043D01*
X37087684Y-104974968D01*
X37069500Y-105089778D01*
X37069500Y-105310222D01*
X37076955Y-105357288D01*
X37103985Y-105527956D01*
X37172105Y-105737606D01*
X37272185Y-105934023D01*
X37272186Y-105934024D01*
X37299472Y-105971580D01*
X37401758Y-106112365D01*
X37557635Y-106268242D01*
X37668790Y-106349000D01*
X37735975Y-106397813D01*
X37735976Y-106397814D01*
X37735978Y-106397815D01*
X37932394Y-106497895D01*
X38014277Y-106524500D01*
X38142043Y-106566014D01*
X38142048Y-106566014D01*
X38142049Y-106566015D01*
X38359778Y-106600500D01*
X38359782Y-106600500D01*
X38580217Y-106600500D01*
X38580222Y-106600500D01*
X38702850Y-106581077D01*
X38779554Y-106589139D01*
X38831516Y-106622884D01*
X39087049Y-106878416D01*
X39191584Y-106982951D01*
X39217100Y-107000000D01*
X39314502Y-107065083D01*
X39316663Y-107065978D01*
X39451087Y-107121658D01*
X39596082Y-107150500D01*
X40070409Y-107150500D01*
X40144909Y-107170462D01*
X40197225Y-107221278D01*
X40257288Y-107318656D01*
X40381344Y-107442712D01*
X40530666Y-107534814D01*
X40697203Y-107589999D01*
X40799991Y-107600500D01*
X41600008Y-107600499D01*
X41702797Y-107589999D01*
X41869334Y-107534814D01*
X42018656Y-107442712D01*
X42094641Y-107366727D01*
X42161436Y-107328163D01*
X42238564Y-107328163D01*
X42305359Y-107366727D01*
X42381344Y-107442712D01*
X42530666Y-107534814D01*
X42697203Y-107589999D01*
X42799991Y-107600500D01*
X43600008Y-107600499D01*
X43702797Y-107589999D01*
X43869334Y-107534814D01*
X44018656Y-107442712D01*
X44142712Y-107318656D01*
X44202774Y-107221278D01*
X44258875Y-107168350D01*
X44329591Y-107150500D01*
X46869020Y-107150500D01*
X46943520Y-107170462D01*
X46998058Y-107225000D01*
X47017083Y-107282816D01*
X47020622Y-107314226D01*
X47022165Y-107327917D01*
X47068409Y-107460076D01*
X47081872Y-107498550D01*
X47157500Y-107618913D01*
X47178051Y-107651619D01*
X47305881Y-107779449D01*
X47458950Y-107875628D01*
X47629583Y-107935335D01*
X47764174Y-107950500D01*
X49350826Y-107950500D01*
X49485417Y-107935335D01*
X49656050Y-107875628D01*
X49809119Y-107779449D01*
X49936949Y-107651619D01*
X50033128Y-107498550D01*
X50092835Y-107327917D01*
X50108000Y-107193326D01*
X50108000Y-105606674D01*
X50092835Y-105472083D01*
X50033128Y-105301450D01*
X49936949Y-105148381D01*
X49809119Y-105020551D01*
X49809117Y-105020550D01*
X49809115Y-105020548D01*
X49651514Y-104921522D01*
X49599053Y-104864984D01*
X49581890Y-104789789D01*
X49604624Y-104716088D01*
X49610243Y-104707779D01*
X49712120Y-104567558D01*
X49712121Y-104567555D01*
X49808593Y-104378220D01*
X49874257Y-104176128D01*
X49907500Y-103966242D01*
X49907500Y-103753757D01*
X49874257Y-103543871D01*
X49808593Y-103341779D01*
X49712121Y-103152444D01*
X49672770Y-103098282D01*
X49081287Y-103689764D01*
X49070018Y-103647708D01*
X48997610Y-103522292D01*
X48895208Y-103419890D01*
X48769792Y-103347482D01*
X48727732Y-103336212D01*
X49319216Y-102744729D01*
X49319216Y-102744728D01*
X49265055Y-102705378D01*
X49265055Y-102705377D01*
X49075720Y-102608906D01*
X48873628Y-102543242D01*
X48663742Y-102510000D01*
X48451258Y-102510000D01*
X48241371Y-102543242D01*
X48039279Y-102608906D01*
X47849944Y-102705378D01*
X47795782Y-102744728D01*
X47795782Y-102744729D01*
X48387265Y-103336212D01*
X48345208Y-103347482D01*
X48219792Y-103419890D01*
X48117390Y-103522292D01*
X48044982Y-103647708D01*
X48033712Y-103689765D01*
X47442229Y-103098282D01*
X47442228Y-103098282D01*
X47402878Y-103152444D01*
X47306406Y-103341779D01*
X47240742Y-103543871D01*
X47207500Y-103753757D01*
X47207500Y-103966242D01*
X47240742Y-104176128D01*
X47306406Y-104378220D01*
X47402878Y-104567555D01*
X47504757Y-104707780D01*
X47532397Y-104779785D01*
X47520331Y-104855964D01*
X47471793Y-104915904D01*
X47463485Y-104921522D01*
X47305884Y-105020548D01*
X47178048Y-105148384D01*
X47081872Y-105301449D01*
X47022165Y-105472083D01*
X47017083Y-105517184D01*
X46988904Y-105588980D01*
X46928602Y-105637068D01*
X46869020Y-105649500D01*
X44329591Y-105649500D01*
X44255091Y-105629538D01*
X44202774Y-105578721D01*
X44197723Y-105570532D01*
X44142712Y-105481344D01*
X44018656Y-105357288D01*
X44018652Y-105357286D01*
X44018648Y-105357282D01*
X44003779Y-105348111D01*
X43978758Y-105321591D01*
X43952962Y-105295795D01*
X43952383Y-105293636D01*
X43950850Y-105292011D01*
X43933000Y-105221295D01*
X43933000Y-105083855D01*
X43952962Y-105009355D01*
X43983124Y-104974454D01*
X43982519Y-104973849D01*
X44041982Y-104914386D01*
X44112712Y-104843656D01*
X44204814Y-104694334D01*
X44204814Y-104694331D01*
X44209369Y-104686948D01*
X44211898Y-104688508D01*
X44251626Y-104641143D01*
X44324097Y-104614750D01*
X44400056Y-104628128D01*
X44455837Y-104673148D01*
X44527437Y-104767566D01*
X44647904Y-104858920D01*
X44647903Y-104858920D01*
X44788556Y-104914386D01*
X44876939Y-104924999D01*
X44876941Y-104925000D01*
X45007500Y-104925000D01*
X45507500Y-104925000D01*
X45638059Y-104925000D01*
X45638060Y-104924999D01*
X45726443Y-104914386D01*
X45867096Y-104858920D01*
X45987562Y-104767566D01*
X45987566Y-104767562D01*
X46078920Y-104647096D01*
X46134386Y-104506443D01*
X46144999Y-104418060D01*
X46145000Y-104418058D01*
X46145000Y-104150000D01*
X45507500Y-104150000D01*
X45507500Y-104925000D01*
X45007500Y-104925000D01*
X45007500Y-103650000D01*
X45507500Y-103650000D01*
X46145000Y-103650000D01*
X46145000Y-103381941D01*
X46144999Y-103381939D01*
X46134386Y-103293556D01*
X46078920Y-103152903D01*
X45987566Y-103032437D01*
X45987562Y-103032433D01*
X45867095Y-102941079D01*
X45867092Y-102941077D01*
X45864689Y-102940129D01*
X45864686Y-102940129D01*
X45726443Y-102885613D01*
X45638060Y-102875000D01*
X45507500Y-102875000D01*
X45507500Y-103650000D01*
X45007500Y-103650000D01*
X45007500Y-102875000D01*
X44876939Y-102875000D01*
X44788556Y-102885613D01*
X44647903Y-102941079D01*
X44527437Y-103032433D01*
X44527433Y-103032437D01*
X44455836Y-103126851D01*
X44394914Y-103174151D01*
X44318504Y-103184652D01*
X44247081Y-103155542D01*
X44211646Y-103111647D01*
X44209369Y-103113052D01*
X44204814Y-103105668D01*
X44204814Y-103105666D01*
X44112712Y-102956344D01*
X43988656Y-102832288D01*
X43839334Y-102740186D01*
X43734288Y-102705377D01*
X43672798Y-102685001D01*
X43652239Y-102682900D01*
X43570009Y-102674500D01*
X43570005Y-102674500D01*
X43080085Y-102674500D01*
X43005585Y-102654538D01*
X42974726Y-102630859D01*
X38314141Y-97970273D01*
X38275577Y-97903478D01*
X38270500Y-97864914D01*
X38270500Y-96090825D01*
X38274039Y-96077613D01*
X38272938Y-96063981D01*
X38283863Y-96040950D01*
X38290462Y-96016325D01*
X38300134Y-96006652D01*
X38305996Y-95994297D01*
X38326971Y-95979815D01*
X38345000Y-95961787D01*
X38358213Y-95958246D01*
X38369467Y-95950477D01*
X38394874Y-95948423D01*
X38419500Y-95941825D01*
X38432711Y-95945364D01*
X38446344Y-95944263D01*
X38464857Y-95953978D01*
X38494000Y-95961787D01*
X38516028Y-95977321D01*
X38520614Y-95981221D01*
X38607635Y-96068242D01*
X38712678Y-96144560D01*
X38717028Y-96148259D01*
X38735806Y-96175458D01*
X38756618Y-96201159D01*
X38757982Y-96207579D01*
X38760848Y-96211730D01*
X38762064Y-96226783D01*
X38769500Y-96261763D01*
X38769500Y-96323921D01*
X38798341Y-96468911D01*
X38854913Y-96605489D01*
X38854914Y-96605491D01*
X38854916Y-96605495D01*
X38877553Y-96639374D01*
X38937048Y-96728416D01*
X39791584Y-97582951D01*
X39840685Y-97615759D01*
X39914502Y-97665083D01*
X39945444Y-97677899D01*
X40051087Y-97721658D01*
X40106750Y-97732730D01*
X40175924Y-97766842D01*
X40204499Y-97800646D01*
X40215419Y-97818350D01*
X40277288Y-97918656D01*
X40401344Y-98042712D01*
X40550666Y-98134814D01*
X40717203Y-98189999D01*
X40819991Y-98200500D01*
X41620008Y-98200499D01*
X41722797Y-98189999D01*
X41889334Y-98134814D01*
X42038656Y-98042712D01*
X42114641Y-97966727D01*
X42181436Y-97928163D01*
X42258564Y-97928163D01*
X42325359Y-97966727D01*
X42401344Y-98042712D01*
X42550666Y-98134814D01*
X42717203Y-98189999D01*
X42819991Y-98200500D01*
X43620008Y-98200499D01*
X43722797Y-98189999D01*
X43889334Y-98134814D01*
X44038656Y-98042712D01*
X44162712Y-97918656D01*
X44191934Y-97871278D01*
X44248035Y-97818350D01*
X44318751Y-97800500D01*
X46819020Y-97800500D01*
X46893520Y-97820462D01*
X46948058Y-97875000D01*
X46967083Y-97932816D01*
X46972165Y-97977917D01*
X47009374Y-98084253D01*
X47031872Y-98148550D01*
X47125713Y-98297899D01*
X47128051Y-98301619D01*
X47255881Y-98429449D01*
X47408950Y-98525628D01*
X47579583Y-98585335D01*
X47714174Y-98600500D01*
X49300826Y-98600500D01*
X49435417Y-98585335D01*
X49606050Y-98525628D01*
X49759119Y-98429449D01*
X49886949Y-98301619D01*
X49983128Y-98148550D01*
X50042835Y-97977917D01*
X50058000Y-97843326D01*
X50058000Y-96256674D01*
X50042835Y-96122083D01*
X49983128Y-95951450D01*
X49886949Y-95798381D01*
X49759119Y-95670551D01*
X49759117Y-95670550D01*
X49759115Y-95670548D01*
X49601514Y-95571522D01*
X49549053Y-95514984D01*
X49531890Y-95439789D01*
X49554624Y-95366088D01*
X49560243Y-95357779D01*
X49662120Y-95217558D01*
X49662121Y-95217555D01*
X49758593Y-95028220D01*
X49824257Y-94826128D01*
X49857500Y-94616242D01*
X49857500Y-94403757D01*
X49824257Y-94193871D01*
X49758593Y-93991779D01*
X49662121Y-93802444D01*
X49622770Y-93748282D01*
X49031287Y-94339764D01*
X49020018Y-94297708D01*
X48947610Y-94172292D01*
X48845208Y-94069890D01*
X48719792Y-93997482D01*
X48677732Y-93986212D01*
X49269216Y-93394729D01*
X49269216Y-93394728D01*
X49215055Y-93355378D01*
X49215055Y-93355377D01*
X49025720Y-93258906D01*
X48823628Y-93193242D01*
X48613742Y-93160000D01*
X48401258Y-93160000D01*
X48191371Y-93193242D01*
X47989279Y-93258906D01*
X47799944Y-93355378D01*
X47745782Y-93394728D01*
X47745782Y-93394729D01*
X48337265Y-93986212D01*
X48295208Y-93997482D01*
X48169792Y-94069890D01*
X48067390Y-94172292D01*
X47994982Y-94297708D01*
X47983712Y-94339765D01*
X47392229Y-93748282D01*
X47392228Y-93748282D01*
X47352878Y-93802444D01*
X47256406Y-93991779D01*
X47190742Y-94193871D01*
X47157500Y-94403757D01*
X47157500Y-94616242D01*
X47190742Y-94826128D01*
X47256406Y-95028220D01*
X47352878Y-95217555D01*
X47454757Y-95357780D01*
X47482397Y-95429785D01*
X47470331Y-95505964D01*
X47421793Y-95565904D01*
X47413485Y-95571522D01*
X47255884Y-95670548D01*
X47128048Y-95798384D01*
X47031872Y-95951449D01*
X46972165Y-96122083D01*
X46967083Y-96167184D01*
X46938904Y-96238980D01*
X46878602Y-96287068D01*
X46819020Y-96299500D01*
X44380432Y-96299500D01*
X44305932Y-96279538D01*
X44253616Y-96228721D01*
X44162714Y-96081346D01*
X44114641Y-96033273D01*
X44038656Y-95957288D01*
X44038652Y-95957285D01*
X44031844Y-95951902D01*
X44033132Y-95950272D01*
X44016254Y-95932381D01*
X43990462Y-95906589D01*
X43989882Y-95904427D01*
X43988349Y-95902802D01*
X43970500Y-95832089D01*
X43970500Y-95647586D01*
X43990462Y-95573086D01*
X44014141Y-95542227D01*
X44056868Y-95499500D01*
X44112712Y-95443656D01*
X44204814Y-95294334D01*
X44204814Y-95294331D01*
X44209369Y-95286948D01*
X44211898Y-95288508D01*
X44251626Y-95241143D01*
X44324097Y-95214750D01*
X44400056Y-95228128D01*
X44455837Y-95273148D01*
X44527437Y-95367566D01*
X44647904Y-95458920D01*
X44647903Y-95458920D01*
X44788556Y-95514386D01*
X44876939Y-95524999D01*
X44876941Y-95525000D01*
X45007500Y-95525000D01*
X45507500Y-95525000D01*
X45638059Y-95525000D01*
X45638060Y-95524999D01*
X45726443Y-95514386D01*
X45867096Y-95458920D01*
X45987562Y-95367566D01*
X45987566Y-95367562D01*
X46078920Y-95247096D01*
X46134386Y-95106443D01*
X46144999Y-95018060D01*
X46145000Y-95018058D01*
X46145000Y-94750000D01*
X45507500Y-94750000D01*
X45507500Y-95525000D01*
X45007500Y-95525000D01*
X45007500Y-94250000D01*
X45507500Y-94250000D01*
X46145000Y-94250000D01*
X46145000Y-93981941D01*
X46144999Y-93981939D01*
X46134386Y-93893556D01*
X46078920Y-93752903D01*
X45987566Y-93632437D01*
X45987562Y-93632433D01*
X45905560Y-93570248D01*
X45905550Y-93570241D01*
X45867093Y-93541078D01*
X45726443Y-93485613D01*
X45638060Y-93475000D01*
X45507500Y-93475000D01*
X45507500Y-94250000D01*
X45007500Y-94250000D01*
X45007500Y-93475000D01*
X44876939Y-93475000D01*
X44788556Y-93485613D01*
X44647903Y-93541079D01*
X44527437Y-93632433D01*
X44527433Y-93632437D01*
X44455836Y-93726851D01*
X44394914Y-93774151D01*
X44318504Y-93784652D01*
X44247081Y-93755542D01*
X44211646Y-93711647D01*
X44209369Y-93713052D01*
X44204814Y-93705668D01*
X44204814Y-93705666D01*
X44112712Y-93556344D01*
X43988656Y-93432288D01*
X43839334Y-93340186D01*
X43756065Y-93312593D01*
X43672798Y-93285001D01*
X43655665Y-93283250D01*
X43570009Y-93274500D01*
X43570004Y-93274500D01*
X42794996Y-93274500D01*
X42692202Y-93285001D01*
X42525666Y-93340186D01*
X42376343Y-93432288D01*
X42252288Y-93556343D01*
X42222614Y-93604453D01*
X42193223Y-93652105D01*
X42176806Y-93678721D01*
X42150276Y-93703750D01*
X42124489Y-93729538D01*
X42122330Y-93730116D01*
X42120705Y-93731650D01*
X42049989Y-93749500D01*
X42042585Y-93749500D01*
X41968085Y-93729538D01*
X41937226Y-93705859D01*
X39914141Y-91682773D01*
X39875577Y-91615978D01*
X39870500Y-91577414D01*
X39870500Y-88585334D01*
X39890462Y-88510834D01*
X39945000Y-88456296D01*
X40019500Y-88436334D01*
X40094000Y-88456296D01*
X40146317Y-88507114D01*
X40147685Y-88509332D01*
X40147686Y-88509334D01*
X40187270Y-88573511D01*
X40220827Y-88627916D01*
X40239788Y-88658656D01*
X40363844Y-88782712D01*
X40513166Y-88874814D01*
X40679703Y-88929999D01*
X40782491Y-88940500D01*
X41582508Y-88940499D01*
X41685297Y-88929999D01*
X41851834Y-88874814D01*
X42001156Y-88782712D01*
X42077141Y-88706727D01*
X42143936Y-88668163D01*
X42221064Y-88668163D01*
X42287859Y-88706727D01*
X42363844Y-88782712D01*
X42513166Y-88874814D01*
X42679703Y-88929999D01*
X42782491Y-88940500D01*
X43582508Y-88940499D01*
X43685297Y-88929999D01*
X43851834Y-88874814D01*
X44001156Y-88782712D01*
X44125212Y-88658656D01*
X44185274Y-88561278D01*
X44241375Y-88508350D01*
X44312091Y-88490500D01*
X46836027Y-88490500D01*
X46910527Y-88510462D01*
X46965065Y-88565000D01*
X46984090Y-88622812D01*
X46984665Y-88627917D01*
X47044372Y-88798550D01*
X47140548Y-88951615D01*
X47140552Y-88951620D01*
X47268380Y-89079448D01*
X47268384Y-89079451D01*
X47287220Y-89091286D01*
X47421450Y-89175628D01*
X47592083Y-89235335D01*
X47726674Y-89250500D01*
X49313326Y-89250500D01*
X49447917Y-89235335D01*
X49618550Y-89175628D01*
X49771619Y-89079449D01*
X49899449Y-88951619D01*
X49995628Y-88798550D01*
X50055335Y-88627917D01*
X50070500Y-88493326D01*
X50070500Y-86906674D01*
X50055335Y-86772083D01*
X49995628Y-86601450D01*
X49899449Y-86448381D01*
X49771619Y-86320551D01*
X49771617Y-86320550D01*
X49771615Y-86320548D01*
X49614014Y-86221522D01*
X49561553Y-86164984D01*
X49544390Y-86089789D01*
X49567124Y-86016088D01*
X49572743Y-86007779D01*
X49674620Y-85867558D01*
X49674621Y-85867555D01*
X49771093Y-85678220D01*
X49836757Y-85476128D01*
X49870000Y-85266242D01*
X49870000Y-85053757D01*
X49836757Y-84843871D01*
X49771093Y-84641779D01*
X49674621Y-84452444D01*
X49635270Y-84398282D01*
X49043787Y-84989764D01*
X49032518Y-84947708D01*
X48960110Y-84822292D01*
X48857708Y-84719890D01*
X48732292Y-84647482D01*
X48690232Y-84636212D01*
X49281716Y-84044729D01*
X49281716Y-84044728D01*
X49227555Y-84005378D01*
X49227555Y-84005377D01*
X49038220Y-83908906D01*
X48836128Y-83843242D01*
X48626242Y-83810000D01*
X48413758Y-83810000D01*
X48203871Y-83843242D01*
X48001779Y-83908906D01*
X47812444Y-84005378D01*
X47758282Y-84044728D01*
X47758282Y-84044729D01*
X48349765Y-84636212D01*
X48307708Y-84647482D01*
X48182292Y-84719890D01*
X48079890Y-84822292D01*
X48007482Y-84947708D01*
X47996212Y-84989765D01*
X47404729Y-84398282D01*
X47404728Y-84398282D01*
X47365378Y-84452444D01*
X47268906Y-84641779D01*
X47203242Y-84843871D01*
X47170000Y-85053757D01*
X47170000Y-85266242D01*
X47203242Y-85476128D01*
X47268906Y-85678220D01*
X47365378Y-85867555D01*
X47467257Y-86007780D01*
X47494897Y-86079785D01*
X47482831Y-86155964D01*
X47434293Y-86215904D01*
X47425985Y-86221522D01*
X47268384Y-86320548D01*
X47140548Y-86448384D01*
X47044372Y-86601449D01*
X46984665Y-86772083D01*
X46975076Y-86857184D01*
X46946897Y-86928980D01*
X46886596Y-86977068D01*
X46827013Y-86989500D01*
X44312092Y-86989500D01*
X44276865Y-86980061D01*
X44241376Y-86971650D01*
X44239750Y-86970116D01*
X44237592Y-86969538D01*
X44185275Y-86918721D01*
X44155183Y-86869934D01*
X44133063Y-86796046D01*
X44133000Y-86791713D01*
X44133000Y-84632190D01*
X44152962Y-84557690D01*
X44207500Y-84503152D01*
X44282000Y-84483190D01*
X44356500Y-84503152D01*
X44372032Y-84513467D01*
X44497904Y-84608920D01*
X44497903Y-84608920D01*
X44638556Y-84664386D01*
X44726939Y-84674999D01*
X44726941Y-84675000D01*
X44857500Y-84675000D01*
X45357500Y-84675000D01*
X45488059Y-84675000D01*
X45488060Y-84674999D01*
X45576443Y-84664386D01*
X45717096Y-84608920D01*
X45837562Y-84517566D01*
X45837566Y-84517562D01*
X45928920Y-84397096D01*
X45984386Y-84256443D01*
X45994999Y-84168060D01*
X45995000Y-84168058D01*
X45995000Y-83900000D01*
X45357500Y-83900000D01*
X45357500Y-84675000D01*
X44857500Y-84675000D01*
X44857500Y-83400000D01*
X45357500Y-83400000D01*
X45995000Y-83400000D01*
X45995000Y-83131941D01*
X45994999Y-83131939D01*
X45984386Y-83043556D01*
X45928920Y-82902903D01*
X45837566Y-82782437D01*
X45837562Y-82782433D01*
X45717095Y-82691079D01*
X45717096Y-82691079D01*
X45576443Y-82635613D01*
X45488060Y-82625000D01*
X45357500Y-82625000D01*
X45357500Y-83400000D01*
X44857500Y-83400000D01*
X44857500Y-82625000D01*
X44726939Y-82625000D01*
X44638556Y-82635613D01*
X44497903Y-82691079D01*
X44377437Y-82782433D01*
X44377435Y-82782435D01*
X44305836Y-82876851D01*
X44284026Y-82893783D01*
X44265027Y-82913824D01*
X44253997Y-82917096D01*
X44244913Y-82924150D01*
X44217559Y-82927909D01*
X44191085Y-82935765D01*
X44179898Y-82933085D01*
X44168504Y-82934651D01*
X44142934Y-82924229D01*
X44116079Y-82917796D01*
X44109193Y-82910477D01*
X44097080Y-82905541D01*
X44060107Y-82864732D01*
X44055129Y-82856618D01*
X44054814Y-82855666D01*
X44005135Y-82775123D01*
X44004994Y-82774893D01*
X43994061Y-82738050D01*
X43983063Y-82701311D01*
X43983058Y-82700967D01*
X43983053Y-82700951D01*
X43983057Y-82700932D01*
X43983000Y-82696979D01*
X43983000Y-76060085D01*
X44002962Y-75985585D01*
X44026637Y-75954730D01*
X49116212Y-70865154D01*
X49183007Y-70826591D01*
X49260135Y-70826591D01*
X49326930Y-70865155D01*
X49365494Y-70931950D01*
X49368737Y-70947205D01*
X49369500Y-70952022D01*
X49369500Y-70952027D01*
X49407679Y-71193076D01*
X49483096Y-71425185D01*
X49483100Y-71425194D01*
X49483101Y-71425195D01*
X49593892Y-71642635D01*
X49593895Y-71642641D01*
X49655440Y-71727350D01*
X49736496Y-71838915D01*
X49737344Y-71840081D01*
X49737346Y-71840084D01*
X49891903Y-71994641D01*
X49930467Y-72061436D01*
X49930467Y-72138564D01*
X49891903Y-72205359D01*
X49737346Y-72359915D01*
X49737344Y-72359918D01*
X49593895Y-72557358D01*
X49593892Y-72557364D01*
X49483101Y-72774804D01*
X49483094Y-72774821D01*
X49432103Y-72931756D01*
X49407679Y-73006924D01*
X49369500Y-73247973D01*
X49369500Y-73492027D01*
X49407679Y-73733076D01*
X49483096Y-73965185D01*
X49593894Y-74182639D01*
X49593895Y-74182641D01*
X49622735Y-74222336D01*
X49737345Y-74380083D01*
X49909917Y-74552655D01*
X50016261Y-74629918D01*
X50095362Y-74687388D01*
X50143900Y-74747328D01*
X50150751Y-74787198D01*
X50749765Y-75386212D01*
X50707708Y-75397482D01*
X50582292Y-75469890D01*
X50479890Y-75572292D01*
X50407482Y-75697708D01*
X50396212Y-75739765D01*
X49804729Y-75148282D01*
X49804728Y-75148282D01*
X49765378Y-75202444D01*
X49668906Y-75391779D01*
X49603242Y-75593871D01*
X49570000Y-75803757D01*
X49570000Y-76016242D01*
X49603242Y-76226128D01*
X49668906Y-76428220D01*
X49765378Y-76617555D01*
X49867257Y-76757780D01*
X49894897Y-76829785D01*
X49882831Y-76905964D01*
X49834293Y-76965904D01*
X49825985Y-76971522D01*
X49668384Y-77070548D01*
X49540548Y-77198384D01*
X49444372Y-77351449D01*
X49418257Y-77426082D01*
X49384665Y-77522083D01*
X49369500Y-77656674D01*
X49369500Y-79243326D01*
X49384665Y-79377917D01*
X49441542Y-79540462D01*
X49444372Y-79548550D01*
X49534708Y-79692321D01*
X49540551Y-79701619D01*
X49668381Y-79829449D01*
X49821450Y-79925628D01*
X49992083Y-79985335D01*
X50126674Y-80000500D01*
X50697414Y-80000500D01*
X50771914Y-80020462D01*
X50802773Y-80044141D01*
X58687048Y-87928416D01*
X66118169Y-95359536D01*
X66156733Y-95426331D01*
X66156733Y-95503459D01*
X66118169Y-95570254D01*
X66051374Y-95608818D01*
X65989503Y-95612060D01*
X65910222Y-95599504D01*
X65689778Y-95599504D01*
X65602686Y-95613298D01*
X65472043Y-95633989D01*
X65262393Y-95702109D01*
X65065976Y-95802189D01*
X65065975Y-95802190D01*
X64887636Y-95931761D01*
X64887633Y-95931763D01*
X64731759Y-96087637D01*
X64731757Y-96087640D01*
X64658781Y-96188084D01*
X64598841Y-96236622D01*
X64538237Y-96249504D01*
X59536074Y-96249504D01*
X59391083Y-96278345D01*
X59254502Y-96334919D01*
X59254499Y-96334920D01*
X59131581Y-96417052D01*
X59131576Y-96417056D01*
X56217049Y-99331582D01*
X56182729Y-99382948D01*
X56182728Y-99382949D01*
X56134919Y-99454500D01*
X56134913Y-99454510D01*
X56078341Y-99591088D01*
X56049500Y-99736078D01*
X56049500Y-105673921D01*
X56078341Y-105818911D01*
X56134916Y-105955496D01*
X56145664Y-105971580D01*
X56145665Y-105971585D01*
X56145667Y-105971585D01*
X56217048Y-106078416D01*
X57171585Y-107032952D01*
X57193484Y-107047584D01*
X57294505Y-107115084D01*
X57337758Y-107133000D01*
X57347089Y-107136865D01*
X57350452Y-107138258D01*
X57353542Y-107140629D01*
X57355815Y-107141955D01*
X57357545Y-107143700D01*
X57411641Y-107185210D01*
X57426192Y-107208271D01*
X57453895Y-107262640D01*
X57453895Y-107262641D01*
X57501320Y-107327916D01*
X57597345Y-107460083D01*
X57769917Y-107632655D01*
X57967361Y-107776106D01*
X58184815Y-107886904D01*
X58416924Y-107962321D01*
X58657973Y-108000500D01*
X58657978Y-108000500D01*
X58902022Y-108000500D01*
X58902027Y-108000500D01*
X59143076Y-107962321D01*
X59375185Y-107886904D01*
X59592639Y-107776106D01*
X59790083Y-107632655D01*
X59944641Y-107478097D01*
X60011436Y-107439533D01*
X60088564Y-107439533D01*
X60155359Y-107478097D01*
X60309917Y-107632655D01*
X60507361Y-107776106D01*
X60507362Y-107776106D01*
X60508080Y-107776628D01*
X60556618Y-107836568D01*
X60569500Y-107897172D01*
X60569500Y-109498493D01*
X60549538Y-109572993D01*
X60498721Y-109625309D01*
X60488267Y-109631758D01*
X60406343Y-109682288D01*
X60282287Y-109806345D01*
X60237646Y-109878721D01*
X60181545Y-109931650D01*
X60110829Y-109949500D01*
X58581763Y-109949500D01*
X58507263Y-109929538D01*
X58461219Y-109888080D01*
X58454419Y-109878721D01*
X58388242Y-109787635D01*
X58232365Y-109631758D01*
X58143193Y-109566971D01*
X58054024Y-109502186D01*
X58054023Y-109502185D01*
X57857606Y-109402105D01*
X57647956Y-109333985D01*
X57526990Y-109314826D01*
X57430222Y-109299500D01*
X57209778Y-109299500D01*
X57122686Y-109313294D01*
X56992043Y-109333985D01*
X56782393Y-109402105D01*
X56585976Y-109502185D01*
X56585975Y-109502186D01*
X56407636Y-109631757D01*
X56407633Y-109631759D01*
X56251759Y-109787633D01*
X56251757Y-109787636D01*
X56122186Y-109965975D01*
X56122185Y-109965976D01*
X56022105Y-110162393D01*
X55953985Y-110372043D01*
X55933719Y-110500000D01*
X55919500Y-110589778D01*
X55919500Y-110810222D01*
X55934826Y-110906990D01*
X55953985Y-111027956D01*
X56022105Y-111237606D01*
X56122185Y-111434023D01*
X56122186Y-111434024D01*
X56164015Y-111491596D01*
X56251758Y-111612365D01*
X56407635Y-111768242D01*
X56533930Y-111860000D01*
X56585975Y-111897813D01*
X56585976Y-111897814D01*
X56585978Y-111897815D01*
X56782394Y-111997895D01*
X56869512Y-112026201D01*
X56992043Y-112066014D01*
X56992048Y-112066014D01*
X56992049Y-112066015D01*
X57209778Y-112100500D01*
X57209782Y-112100500D01*
X57430218Y-112100500D01*
X57430222Y-112100500D01*
X57647951Y-112066015D01*
X57647952Y-112066014D01*
X57647956Y-112066014D01*
X57741883Y-112035495D01*
X57857606Y-111997895D01*
X58054022Y-111897815D01*
X58232365Y-111768242D01*
X58388242Y-111612365D01*
X58461219Y-111511919D01*
X58521159Y-111463382D01*
X58581763Y-111450500D01*
X60051507Y-111450500D01*
X60051991Y-111450629D01*
X60052478Y-111450503D01*
X60089180Y-111460594D01*
X60126007Y-111470462D01*
X60126362Y-111470817D01*
X60126847Y-111470951D01*
X60130410Y-111474865D01*
X60180545Y-111525000D01*
X60181028Y-111525843D01*
X60188290Y-111538613D01*
X60190186Y-111544334D01*
X60207592Y-111572554D01*
X60208908Y-111574868D01*
X60217999Y-111609705D01*
X60228324Y-111644192D01*
X60227693Y-111646851D01*
X60228384Y-111649496D01*
X60218841Y-111684203D01*
X60210537Y-111719241D01*
X60208428Y-111722072D01*
X60207936Y-111723865D01*
X60204762Y-111726997D01*
X60184746Y-111753884D01*
X59667050Y-112271581D01*
X59667049Y-112271582D01*
X59667048Y-112271584D01*
X59625415Y-112333894D01*
X59609192Y-112358171D01*
X59584915Y-112394505D01*
X59528341Y-112531088D01*
X59499500Y-112676078D01*
X59499500Y-114550500D01*
X59479538Y-114625000D01*
X59425000Y-114679538D01*
X59350501Y-114699500D01*
X59152136Y-114699500D01*
X59152111Y-114699502D01*
X59092521Y-114705908D01*
X59092515Y-114705909D01*
X58957670Y-114756202D01*
X58957666Y-114756204D01*
X58842455Y-114842452D01*
X58842452Y-114842455D01*
X58756204Y-114957666D01*
X58756202Y-114957670D01*
X58705908Y-115092517D01*
X58699500Y-115152114D01*
X58699500Y-117347863D01*
X58699502Y-117347888D01*
X58705908Y-117407478D01*
X58705909Y-117407484D01*
X58756202Y-117542329D01*
X58756204Y-117542333D01*
X58842452Y-117657544D01*
X58842455Y-117657547D01*
X58957666Y-117743795D01*
X58957670Y-117743797D01*
X59092517Y-117794091D01*
X59152114Y-117800499D01*
X59152118Y-117800499D01*
X59152127Y-117800500D01*
X61347872Y-117800499D01*
X61407483Y-117794091D01*
X61503447Y-117758298D01*
X61542329Y-117743797D01*
X61542333Y-117743795D01*
X61599938Y-117700671D01*
X61657546Y-117657546D01*
X61743796Y-117542331D01*
X61743797Y-117542329D01*
X61743798Y-117542327D01*
X61787877Y-117424143D01*
X61832615Y-117361315D01*
X61902773Y-117329274D01*
X61979551Y-117336605D01*
X62015062Y-117355667D01*
X62082437Y-117404617D01*
X62082444Y-117404621D01*
X62271777Y-117501093D01*
X62473863Y-117566755D01*
X62473871Y-117566757D01*
X62540000Y-117577230D01*
X62540000Y-116740747D01*
X62577708Y-116762518D01*
X62717591Y-116800000D01*
X62862409Y-116800000D01*
X63002292Y-116762518D01*
X63040000Y-116740747D01*
X63040000Y-117577230D01*
X63106128Y-117566757D01*
X63106136Y-117566755D01*
X63308222Y-117501093D01*
X63497555Y-117404621D01*
X63497556Y-117404621D01*
X63669464Y-117279722D01*
X63669467Y-117279720D01*
X63819720Y-117129467D01*
X63819722Y-117129464D01*
X63944621Y-116957556D01*
X63944621Y-116957555D01*
X64041093Y-116768222D01*
X64106755Y-116566136D01*
X64106757Y-116566128D01*
X64117231Y-116500000D01*
X63280748Y-116500000D01*
X63302518Y-116462292D01*
X63340000Y-116322409D01*
X63340000Y-116177591D01*
X63302518Y-116037708D01*
X63280748Y-116000000D01*
X64117230Y-116000000D01*
X64106757Y-115933871D01*
X64106755Y-115933863D01*
X64041093Y-115731777D01*
X63944621Y-115542444D01*
X63944621Y-115542443D01*
X63819722Y-115370535D01*
X63819720Y-115370532D01*
X63669467Y-115220279D01*
X63669464Y-115220277D01*
X63497555Y-115095378D01*
X63308220Y-114998906D01*
X63106123Y-114933241D01*
X63106120Y-114933240D01*
X63040001Y-114922767D01*
X63040000Y-114922768D01*
X63040000Y-115759252D01*
X63002292Y-115737482D01*
X62862409Y-115700000D01*
X62717591Y-115700000D01*
X62577708Y-115737482D01*
X62540000Y-115759252D01*
X62540000Y-114922768D01*
X62539998Y-114922767D01*
X62473879Y-114933240D01*
X62473876Y-114933241D01*
X62271779Y-114998906D01*
X62082444Y-115095378D01*
X62082437Y-115095382D01*
X62015062Y-115144333D01*
X61943057Y-115171973D01*
X61866879Y-115159907D01*
X61806939Y-115111368D01*
X61787877Y-115075857D01*
X61743798Y-114957672D01*
X61743795Y-114957666D01*
X61657547Y-114842455D01*
X61657544Y-114842452D01*
X61542333Y-114756204D01*
X61542329Y-114756202D01*
X61407482Y-114705908D01*
X61347885Y-114699500D01*
X61347873Y-114699500D01*
X61149500Y-114699500D01*
X61075000Y-114679538D01*
X61020462Y-114625000D01*
X61000500Y-114550500D01*
X61000500Y-113122585D01*
X61020462Y-113048085D01*
X61044141Y-113017226D01*
X61902950Y-112158417D01*
X61902952Y-112158415D01*
X61930205Y-112117627D01*
X61985084Y-112035495D01*
X62009935Y-111975499D01*
X62010349Y-111974501D01*
X62019717Y-111951881D01*
X62041659Y-111898912D01*
X62058714Y-111813166D01*
X62083267Y-111756104D01*
X62090564Y-111745803D01*
X62142712Y-111693656D01*
X62234814Y-111544334D01*
X62236157Y-111540278D01*
X62245529Y-111527050D01*
X62265200Y-111510726D01*
X62281626Y-111491143D01*
X62294410Y-111486486D01*
X62304883Y-111477797D01*
X62330082Y-111473495D01*
X62354097Y-111464750D01*
X62367496Y-111467109D01*
X62380912Y-111464820D01*
X62404886Y-111473695D01*
X62430056Y-111478128D01*
X62441235Y-111487151D01*
X62453243Y-111491596D01*
X62466423Y-111507479D01*
X62485837Y-111523148D01*
X62557437Y-111617566D01*
X62677904Y-111708920D01*
X62677903Y-111708920D01*
X62818556Y-111764386D01*
X62906939Y-111774999D01*
X62906941Y-111775000D01*
X63037500Y-111775000D01*
X63537500Y-111775000D01*
X63668059Y-111775000D01*
X63668060Y-111774999D01*
X63756443Y-111764386D01*
X63897096Y-111708920D01*
X64017562Y-111617566D01*
X64017566Y-111617562D01*
X64108920Y-111497096D01*
X64164386Y-111356443D01*
X64174999Y-111268060D01*
X64175000Y-111268058D01*
X64175000Y-111000000D01*
X63537500Y-111000000D01*
X63537500Y-111775000D01*
X63037500Y-111775000D01*
X63037500Y-110500000D01*
X63537500Y-110500000D01*
X64175000Y-110500000D01*
X64175000Y-110231941D01*
X64174999Y-110231939D01*
X64164386Y-110143556D01*
X64108920Y-110002903D01*
X64017566Y-109882437D01*
X64017562Y-109882433D01*
X63897095Y-109791079D01*
X63897096Y-109791079D01*
X63756443Y-109735613D01*
X63668060Y-109725000D01*
X63537500Y-109725000D01*
X63537500Y-110500000D01*
X63037500Y-110500000D01*
X63037500Y-109725000D01*
X62906939Y-109725000D01*
X62818556Y-109735613D01*
X62677903Y-109791079D01*
X62557437Y-109882433D01*
X62557433Y-109882437D01*
X62485836Y-109976851D01*
X62424914Y-110024151D01*
X62348504Y-110034652D01*
X62277081Y-110005542D01*
X62244387Y-109971313D01*
X62235927Y-109959025D01*
X62234814Y-109955666D01*
X62142712Y-109806344D01*
X62104504Y-109768136D01*
X62096774Y-109756908D01*
X62088276Y-109732975D01*
X62075577Y-109710978D01*
X62072694Y-109689086D01*
X62070969Y-109684225D01*
X62071602Y-109680790D01*
X62070500Y-109672414D01*
X62070500Y-107897172D01*
X62090462Y-107822672D01*
X62131920Y-107776628D01*
X62132637Y-107776106D01*
X62132639Y-107776106D01*
X62330083Y-107632655D01*
X62502655Y-107460083D01*
X62593431Y-107335139D01*
X62653371Y-107286601D01*
X62729549Y-107274535D01*
X62801554Y-107302175D01*
X62827273Y-107325948D01*
X62830276Y-107329464D01*
X62980532Y-107479720D01*
X62980535Y-107479722D01*
X63152444Y-107604621D01*
X63341777Y-107701093D01*
X63543863Y-107766755D01*
X63543871Y-107766757D01*
X63610000Y-107777230D01*
X63610000Y-106940747D01*
X63647708Y-106962518D01*
X63787591Y-107000000D01*
X63932409Y-107000000D01*
X64072292Y-106962518D01*
X64110000Y-106940747D01*
X64110000Y-107777230D01*
X64176128Y-107766757D01*
X64176136Y-107766755D01*
X64378222Y-107701093D01*
X64567555Y-107604621D01*
X64567556Y-107604621D01*
X64739464Y-107479722D01*
X64739467Y-107479720D01*
X64889720Y-107329467D01*
X64889722Y-107329464D01*
X65014621Y-107157556D01*
X65014621Y-107157555D01*
X65111093Y-106968222D01*
X65176755Y-106766136D01*
X65176757Y-106766128D01*
X65187231Y-106700000D01*
X64350748Y-106700000D01*
X64372518Y-106662292D01*
X64410000Y-106522409D01*
X64410000Y-106377591D01*
X64372518Y-106237708D01*
X64350748Y-106200000D01*
X65187230Y-106200000D01*
X65176757Y-106133871D01*
X65176755Y-106133863D01*
X65111093Y-105931777D01*
X65014621Y-105742444D01*
X65014621Y-105742443D01*
X64889722Y-105570535D01*
X64889720Y-105570532D01*
X64739464Y-105420276D01*
X64735948Y-105417273D01*
X64692264Y-105353708D01*
X64686215Y-105276818D01*
X64719421Y-105207204D01*
X64745140Y-105183431D01*
X64749863Y-105180000D01*
X64870083Y-105092655D01*
X65042655Y-104920083D01*
X65186106Y-104722639D01*
X65186106Y-104722637D01*
X65186628Y-104721920D01*
X65246568Y-104673382D01*
X65307172Y-104660500D01*
X67370500Y-104660500D01*
X67445000Y-104680462D01*
X67499538Y-104735000D01*
X67519500Y-104809500D01*
X67519500Y-112038237D01*
X67499538Y-112112737D01*
X67458080Y-112158780D01*
X67357644Y-112231751D01*
X67357639Y-112231754D01*
X67357635Y-112231758D01*
X67357632Y-112231761D01*
X67201759Y-112387633D01*
X67201757Y-112387636D01*
X67072186Y-112565975D01*
X67072185Y-112565976D01*
X66972105Y-112762393D01*
X66903985Y-112972043D01*
X66883124Y-113103757D01*
X66869500Y-113189778D01*
X66869500Y-113410222D01*
X66878331Y-113465976D01*
X66903985Y-113627956D01*
X66972105Y-113837606D01*
X67072185Y-114034023D01*
X67072186Y-114034024D01*
X67201758Y-114212365D01*
X67357635Y-114368242D01*
X67500625Y-114472129D01*
X67535975Y-114497813D01*
X67535976Y-114497814D01*
X67535978Y-114497815D01*
X67732394Y-114597895D01*
X67815816Y-114625000D01*
X67942043Y-114666014D01*
X67942048Y-114666014D01*
X67942049Y-114666015D01*
X68159778Y-114700500D01*
X68159782Y-114700500D01*
X68380218Y-114700500D01*
X68380222Y-114700500D01*
X68597951Y-114666015D01*
X68597952Y-114666014D01*
X68597956Y-114666014D01*
X68682284Y-114638614D01*
X68807606Y-114597895D01*
X69004022Y-114497815D01*
X69182365Y-114368242D01*
X69338242Y-114212365D01*
X69467815Y-114034022D01*
X69567895Y-113837606D01*
X69624824Y-113662394D01*
X69636014Y-113627956D01*
X69661669Y-113465976D01*
X69670500Y-113410222D01*
X69670500Y-113189778D01*
X69636015Y-112972049D01*
X69636014Y-112972048D01*
X69636014Y-112972043D01*
X69579951Y-112799500D01*
X69567895Y-112762394D01*
X69467815Y-112565978D01*
X69338242Y-112387635D01*
X69182365Y-112231758D01*
X69118852Y-112185613D01*
X69081920Y-112158780D01*
X69033382Y-112098840D01*
X69020500Y-112038237D01*
X69020500Y-101672046D01*
X69023545Y-101620281D01*
X69020500Y-101598290D01*
X69020500Y-101576082D01*
X69010381Y-101525211D01*
X69003268Y-101473842D01*
X68995989Y-101452864D01*
X68991658Y-101431087D01*
X68991656Y-101431082D01*
X68991654Y-101431076D01*
X68973485Y-101387213D01*
X68973484Y-101387212D01*
X68971808Y-101383165D01*
X68954811Y-101334174D01*
X68943582Y-101315023D01*
X68935084Y-101294505D01*
X68917938Y-101268845D01*
X68908702Y-101255021D01*
X68908702Y-101255022D01*
X68906269Y-101251380D01*
X68880039Y-101206642D01*
X68865286Y-101190045D01*
X68852951Y-101171584D01*
X68819370Y-101138003D01*
X68813365Y-101131634D01*
X68608135Y-100900750D01*
X68573560Y-100831806D01*
X68570499Y-100801760D01*
X68570499Y-100249996D01*
X68570499Y-100249992D01*
X68559999Y-100147203D01*
X68504814Y-99980666D01*
X68471903Y-99927309D01*
X68449784Y-99853423D01*
X68467572Y-99778374D01*
X68520500Y-99722273D01*
X68594388Y-99700153D01*
X68608406Y-99700500D01*
X68609778Y-99700500D01*
X68830218Y-99700500D01*
X68830222Y-99700500D01*
X69047951Y-99666015D01*
X69047952Y-99666014D01*
X69047956Y-99666014D01*
X69128556Y-99639825D01*
X69257606Y-99597895D01*
X69454022Y-99497815D01*
X69632365Y-99368242D01*
X69788242Y-99212365D01*
X69917815Y-99034022D01*
X70017895Y-98837606D01*
X70065927Y-98689776D01*
X70086014Y-98627956D01*
X70090775Y-98597895D01*
X70120500Y-98410222D01*
X70120500Y-98189778D01*
X70086015Y-97972049D01*
X70086014Y-97972048D01*
X70086014Y-97972043D01*
X70033988Y-97811924D01*
X70017895Y-97762394D01*
X69917815Y-97565978D01*
X69788242Y-97387635D01*
X69632365Y-97231758D01*
X69531920Y-97158780D01*
X69483382Y-97098840D01*
X69470500Y-97038237D01*
X69470500Y-96821586D01*
X69490462Y-96747086D01*
X69545000Y-96692548D01*
X69619500Y-96672586D01*
X69694000Y-96692548D01*
X69724859Y-96716227D01*
X74091584Y-101082952D01*
X74158931Y-101127951D01*
X74195728Y-101152538D01*
X74214500Y-101165081D01*
X74214502Y-101165082D01*
X74214505Y-101165084D01*
X74351087Y-101221658D01*
X74496082Y-101250500D01*
X74496083Y-101250500D01*
X74538243Y-101250500D01*
X74612743Y-101270462D01*
X74658786Y-101311919D01*
X74731764Y-101412365D01*
X74887641Y-101568242D01*
X74928999Y-101598290D01*
X75065981Y-101697813D01*
X75065982Y-101697814D01*
X75065984Y-101697815D01*
X75262400Y-101797895D01*
X75349518Y-101826201D01*
X75472049Y-101866014D01*
X75472054Y-101866014D01*
X75472055Y-101866015D01*
X75689784Y-101900500D01*
X75689788Y-101900500D01*
X75910224Y-101900500D01*
X75910228Y-101900500D01*
X76127957Y-101866015D01*
X76127958Y-101866014D01*
X76127962Y-101866014D01*
X76208562Y-101839825D01*
X76337612Y-101797895D01*
X76534028Y-101697815D01*
X76712371Y-101568242D01*
X76868248Y-101412365D01*
X76997821Y-101234022D01*
X77097901Y-101037606D01*
X77142368Y-100900750D01*
X77166020Y-100827956D01*
X77187905Y-100689780D01*
X77200506Y-100610222D01*
X77200506Y-100389778D01*
X77166021Y-100172049D01*
X77166020Y-100172048D01*
X77166020Y-100172043D01*
X77109409Y-99997813D01*
X77097901Y-99962394D01*
X76997821Y-99765978D01*
X76868248Y-99587635D01*
X76712371Y-99431758D01*
X76616269Y-99361936D01*
X76534030Y-99302186D01*
X76534029Y-99302185D01*
X76337612Y-99202105D01*
X76127962Y-99133985D01*
X76006996Y-99114826D01*
X75910228Y-99099500D01*
X75689784Y-99099500D01*
X75602692Y-99113294D01*
X75472049Y-99133985D01*
X75262399Y-99202105D01*
X75065982Y-99302185D01*
X75065981Y-99302186D01*
X74887642Y-99431757D01*
X74887638Y-99431760D01*
X74830741Y-99488657D01*
X74763946Y-99527220D01*
X74686818Y-99527220D01*
X74620024Y-99488656D01*
X73426339Y-98294971D01*
X73387775Y-98228176D01*
X73387775Y-98151048D01*
X73426339Y-98084253D01*
X73493134Y-98045689D01*
X73560766Y-98043475D01*
X73596082Y-98050500D01*
X73596083Y-98050500D01*
X73743917Y-98050500D01*
X75158237Y-98050500D01*
X75232737Y-98070462D01*
X75278780Y-98111919D01*
X75351758Y-98212365D01*
X75507635Y-98368242D01*
X75628993Y-98456413D01*
X75685975Y-98497813D01*
X75685976Y-98497814D01*
X75685978Y-98497815D01*
X75882394Y-98597895D01*
X75969512Y-98626201D01*
X76092043Y-98666014D01*
X76092048Y-98666014D01*
X76092049Y-98666015D01*
X76309778Y-98700500D01*
X76309782Y-98700500D01*
X76530218Y-98700500D01*
X76530222Y-98700500D01*
X76747951Y-98666015D01*
X76747952Y-98666014D01*
X76747956Y-98666014D01*
X76828556Y-98639825D01*
X76957606Y-98597895D01*
X77154022Y-98497815D01*
X77332365Y-98368242D01*
X77488242Y-98212365D01*
X77617815Y-98034022D01*
X77717895Y-97837606D01*
X77773950Y-97665084D01*
X77786014Y-97627956D01*
X77793143Y-97582947D01*
X77820500Y-97410222D01*
X77820500Y-97189778D01*
X77786015Y-96972049D01*
X77786014Y-96972048D01*
X77786014Y-96972043D01*
X77733526Y-96810503D01*
X77717895Y-96762394D01*
X77617815Y-96565978D01*
X77488242Y-96387635D01*
X77332365Y-96231758D01*
X77216827Y-96147815D01*
X77154024Y-96102186D01*
X77154023Y-96102185D01*
X76957606Y-96002105D01*
X76747956Y-95933985D01*
X76611448Y-95912365D01*
X76530222Y-95899500D01*
X76309778Y-95899500D01*
X76228552Y-95912365D01*
X76092043Y-95933985D01*
X75882393Y-96002105D01*
X75727736Y-96080907D01*
X75652293Y-96096943D01*
X75578940Y-96073109D01*
X75527331Y-96015792D01*
X75511295Y-95940349D01*
X75535129Y-95866996D01*
X75539548Y-95860567D01*
X75558977Y-95833826D01*
X75667815Y-95684022D01*
X75767895Y-95487606D01*
X75819768Y-95327956D01*
X75836014Y-95277956D01*
X75843906Y-95228128D01*
X75870500Y-95060222D01*
X75870500Y-94839778D01*
X75836015Y-94622049D01*
X75836014Y-94622048D01*
X75836014Y-94622043D01*
X75796201Y-94499512D01*
X75767895Y-94412394D01*
X75667815Y-94215978D01*
X75538242Y-94037635D01*
X75382365Y-93881758D01*
X75256355Y-93790207D01*
X75204024Y-93752186D01*
X75204023Y-93752185D01*
X75007606Y-93652105D01*
X74797956Y-93583985D01*
X74663222Y-93562646D01*
X74580222Y-93549500D01*
X74359778Y-93549500D01*
X74276778Y-93562646D01*
X74142043Y-93583985D01*
X73932393Y-93652105D01*
X73735976Y-93752185D01*
X73735969Y-93752190D01*
X73721687Y-93762567D01*
X73649682Y-93790207D01*
X73573503Y-93778141D01*
X73528749Y-93747382D01*
X70409783Y-90628416D01*
X67264141Y-87482773D01*
X67225577Y-87415978D01*
X67220500Y-87377414D01*
X67220500Y-80104794D01*
X68810001Y-80104794D01*
X68812909Y-80129874D01*
X68858212Y-80232477D01*
X68937521Y-80311786D01*
X69040128Y-80357091D01*
X69065204Y-80359999D01*
X69260000Y-80359999D01*
X69260000Y-79560000D01*
X68810001Y-79560000D01*
X68810001Y-80104794D01*
X67220500Y-80104794D01*
X67220500Y-79097265D01*
X67240462Y-79022765D01*
X67295000Y-78968227D01*
X67319224Y-78958619D01*
X67318750Y-78957348D01*
X67327486Y-78954090D01*
X67381104Y-78934091D01*
X67462329Y-78903797D01*
X67462333Y-78903795D01*
X67560292Y-78830462D01*
X67577546Y-78817546D01*
X67663796Y-78702331D01*
X67714091Y-78567483D01*
X67719712Y-78515204D01*
X68810000Y-78515204D01*
X68810000Y-79060000D01*
X69260000Y-79060000D01*
X69260000Y-78260000D01*
X69760000Y-78260000D01*
X69760000Y-80359999D01*
X69880500Y-80359999D01*
X69955000Y-80379961D01*
X70009538Y-80434499D01*
X70029500Y-80508999D01*
X70029500Y-86453921D01*
X70058341Y-86598911D01*
X70114913Y-86735489D01*
X70114914Y-86735491D01*
X70114916Y-86735495D01*
X70147170Y-86783767D01*
X70197048Y-86858416D01*
X73967049Y-90628416D01*
X74071584Y-90732951D01*
X74089894Y-90745185D01*
X74194502Y-90815083D01*
X74225444Y-90827899D01*
X74331087Y-90871658D01*
X74476082Y-90900500D01*
X74476083Y-90900500D01*
X74552828Y-90900500D01*
X74627328Y-90920462D01*
X74673372Y-90961920D01*
X74673893Y-90962637D01*
X74673894Y-90962639D01*
X74817345Y-91160083D01*
X74989917Y-91332655D01*
X75187361Y-91476106D01*
X75404815Y-91586904D01*
X75636924Y-91662321D01*
X75877973Y-91700500D01*
X75877978Y-91700500D01*
X76122022Y-91700500D01*
X76122027Y-91700500D01*
X76363076Y-91662321D01*
X76595185Y-91586904D01*
X76812639Y-91476106D01*
X77010083Y-91332655D01*
X77164641Y-91178097D01*
X77231436Y-91139533D01*
X77308564Y-91139533D01*
X77375359Y-91178097D01*
X77529917Y-91332655D01*
X77727361Y-91476106D01*
X77944815Y-91586904D01*
X78176924Y-91662321D01*
X78417973Y-91700500D01*
X78417978Y-91700500D01*
X78662022Y-91700500D01*
X78662027Y-91700500D01*
X78903076Y-91662321D01*
X79135185Y-91586904D01*
X79352639Y-91476106D01*
X79550083Y-91332655D01*
X79704641Y-91178097D01*
X79771436Y-91139533D01*
X79848564Y-91139533D01*
X79915359Y-91178097D01*
X80069917Y-91332655D01*
X80267361Y-91476106D01*
X80484815Y-91586904D01*
X80716924Y-91662321D01*
X80957973Y-91700500D01*
X80957978Y-91700500D01*
X81202022Y-91700500D01*
X81202027Y-91700500D01*
X81443076Y-91662321D01*
X81675185Y-91586904D01*
X81892639Y-91476106D01*
X82090083Y-91332655D01*
X82171659Y-91251078D01*
X82238452Y-91212515D01*
X82315580Y-91212515D01*
X82382375Y-91251078D01*
X82395226Y-91265731D01*
X82442571Y-91327431D01*
X82568265Y-91423881D01*
X82714645Y-91484513D01*
X82832284Y-91499999D01*
X83370000Y-91499999D01*
X83370000Y-90640747D01*
X83407708Y-90662518D01*
X83547591Y-90700000D01*
X83692409Y-90700000D01*
X83832292Y-90662518D01*
X83870000Y-90640747D01*
X83870000Y-91499999D01*
X84407707Y-91499999D01*
X84525360Y-91484511D01*
X84671735Y-91423880D01*
X84797428Y-91327431D01*
X84797431Y-91327428D01*
X84893881Y-91201734D01*
X84954513Y-91055354D01*
X84969999Y-90937718D01*
X84970000Y-90937713D01*
X84970000Y-90400000D01*
X84110748Y-90400000D01*
X84132518Y-90362292D01*
X84170000Y-90222409D01*
X84170000Y-90077591D01*
X84132518Y-89937708D01*
X84110748Y-89900000D01*
X84969999Y-89900000D01*
X84969999Y-89362292D01*
X84954511Y-89244639D01*
X84893880Y-89098264D01*
X84797431Y-88972571D01*
X84797428Y-88972568D01*
X84671734Y-88876118D01*
X84525354Y-88815486D01*
X84407718Y-88800000D01*
X83870000Y-88800000D01*
X83870000Y-89659252D01*
X83832292Y-89637482D01*
X83692409Y-89600000D01*
X83547591Y-89600000D01*
X83407708Y-89637482D01*
X83370000Y-89659252D01*
X83370000Y-88800000D01*
X82832292Y-88800000D01*
X82714639Y-88815488D01*
X82568264Y-88876119D01*
X82442571Y-88972568D01*
X82442570Y-88972569D01*
X82395225Y-89034269D01*
X82334034Y-89081220D01*
X82257566Y-89091286D01*
X82186309Y-89061769D01*
X82171658Y-89048920D01*
X82090084Y-88967346D01*
X82090083Y-88967345D01*
X81892639Y-88823894D01*
X81892637Y-88823893D01*
X81891920Y-88823372D01*
X81843382Y-88763432D01*
X81830500Y-88702828D01*
X81830500Y-82466086D01*
X81830499Y-82466078D01*
X81828285Y-82454950D01*
X81801658Y-82321087D01*
X81745084Y-82184505D01*
X81745082Y-82184502D01*
X81745083Y-82184502D01*
X81715611Y-82140395D01*
X81690819Y-82067360D01*
X81690500Y-82057615D01*
X81690500Y-80476551D01*
X81710462Y-80402051D01*
X81720220Y-80387258D01*
X81783795Y-80302333D01*
X81783797Y-80302329D01*
X81824742Y-80192548D01*
X81834091Y-80167483D01*
X81838135Y-80129874D01*
X81840499Y-80107885D01*
X81840499Y-80107882D01*
X81840500Y-80107873D01*
X81840499Y-78512128D01*
X81834091Y-78452517D01*
X81803501Y-78370500D01*
X81783797Y-78317670D01*
X81783795Y-78317666D01*
X81697547Y-78202455D01*
X81697544Y-78202452D01*
X81582333Y-78116204D01*
X81582329Y-78116202D01*
X81447482Y-78065908D01*
X81387876Y-78059500D01*
X80492136Y-78059500D01*
X80492111Y-78059502D01*
X80432520Y-78065908D01*
X80357067Y-78094049D01*
X80280288Y-78101378D01*
X80252933Y-78094049D01*
X80212190Y-78078853D01*
X80177483Y-78065909D01*
X80177481Y-78065908D01*
X80117876Y-78059500D01*
X79222136Y-78059500D01*
X79222111Y-78059502D01*
X79162520Y-78065908D01*
X79087067Y-78094049D01*
X79010288Y-78101378D01*
X78982933Y-78094049D01*
X78942190Y-78078853D01*
X78907483Y-78065909D01*
X78907481Y-78065908D01*
X78847876Y-78059500D01*
X77952136Y-78059500D01*
X77952111Y-78059502D01*
X77892520Y-78065908D01*
X77817067Y-78094049D01*
X77740288Y-78101378D01*
X77712933Y-78094049D01*
X77672190Y-78078853D01*
X77637483Y-78065909D01*
X77637481Y-78065908D01*
X77577876Y-78059500D01*
X76682136Y-78059500D01*
X76682111Y-78059502D01*
X76622520Y-78065908D01*
X76547067Y-78094049D01*
X76470288Y-78101378D01*
X76442933Y-78094049D01*
X76402190Y-78078853D01*
X76367483Y-78065909D01*
X76367481Y-78065908D01*
X76307876Y-78059500D01*
X75412136Y-78059500D01*
X75412111Y-78059502D01*
X75352520Y-78065908D01*
X75277067Y-78094049D01*
X75200288Y-78101378D01*
X75172933Y-78094049D01*
X75132190Y-78078853D01*
X75097483Y-78065909D01*
X75097481Y-78065908D01*
X75037876Y-78059500D01*
X74142136Y-78059500D01*
X74142111Y-78059502D01*
X74082520Y-78065908D01*
X74007067Y-78094049D01*
X73930288Y-78101378D01*
X73902933Y-78094049D01*
X73862190Y-78078853D01*
X73827483Y-78065909D01*
X73827481Y-78065908D01*
X73767876Y-78059500D01*
X72872136Y-78059500D01*
X72872111Y-78059502D01*
X72812520Y-78065908D01*
X72737067Y-78094049D01*
X72660288Y-78101378D01*
X72632933Y-78094049D01*
X72592190Y-78078853D01*
X72557483Y-78065909D01*
X72557481Y-78065908D01*
X72497876Y-78059500D01*
X71602136Y-78059500D01*
X71602111Y-78059502D01*
X71542520Y-78065908D01*
X71467067Y-78094049D01*
X71390288Y-78101378D01*
X71362933Y-78094049D01*
X71322190Y-78078853D01*
X71287483Y-78065909D01*
X71287481Y-78065908D01*
X71227876Y-78059500D01*
X70332136Y-78059500D01*
X70332111Y-78059502D01*
X70272521Y-78065908D01*
X70272515Y-78065909D01*
X70137670Y-78116202D01*
X70137666Y-78116204D01*
X70022453Y-78202454D01*
X70014923Y-78209985D01*
X70013525Y-78208587D01*
X69963439Y-78247973D01*
X69904792Y-78260000D01*
X69760000Y-78260000D01*
X69260000Y-78260000D01*
X69065205Y-78260000D01*
X69040125Y-78262909D01*
X68937522Y-78308212D01*
X68937522Y-78308213D01*
X68858213Y-78387521D01*
X68812908Y-78490128D01*
X68810000Y-78515204D01*
X67719712Y-78515204D01*
X67720043Y-78512127D01*
X67720499Y-78507885D01*
X67720499Y-78507882D01*
X67720500Y-78507873D01*
X67720499Y-77612128D01*
X67714091Y-77552517D01*
X67708898Y-77538595D01*
X67685951Y-77477070D01*
X67678619Y-77400291D01*
X67685951Y-77372929D01*
X67688029Y-77367358D01*
X67714091Y-77297483D01*
X67718452Y-77256923D01*
X67720499Y-77237885D01*
X67720499Y-77237882D01*
X67720500Y-77237873D01*
X67720499Y-76342128D01*
X67714091Y-76282517D01*
X67702149Y-76250500D01*
X67685951Y-76207070D01*
X67678619Y-76130291D01*
X67685951Y-76102929D01*
X67690742Y-76090084D01*
X67714091Y-76027483D01*
X67719044Y-75981417D01*
X67720499Y-75967885D01*
X67720499Y-75967882D01*
X67720500Y-75967873D01*
X67720499Y-75072128D01*
X67714091Y-75012517D01*
X67702149Y-74980500D01*
X67685951Y-74937070D01*
X67678619Y-74860291D01*
X67685951Y-74832929D01*
X67703008Y-74787198D01*
X67714091Y-74757483D01*
X67718452Y-74716923D01*
X67720499Y-74697885D01*
X67720499Y-74697882D01*
X67720500Y-74697873D01*
X67720499Y-73802128D01*
X67714091Y-73742517D01*
X67685951Y-73667070D01*
X67678619Y-73590291D01*
X67685951Y-73562929D01*
X67690742Y-73550084D01*
X67714091Y-73487483D01*
X67719670Y-73435597D01*
X67720499Y-73427885D01*
X67720499Y-73427882D01*
X67720500Y-73427873D01*
X67720499Y-72532128D01*
X67714091Y-72472517D01*
X67685951Y-72397070D01*
X67678619Y-72320291D01*
X67685951Y-72292929D01*
X67687125Y-72289781D01*
X67714091Y-72217483D01*
X67716548Y-72194631D01*
X67720499Y-72157885D01*
X67720499Y-72157882D01*
X67720500Y-72157873D01*
X67720499Y-71262128D01*
X67715411Y-71214794D01*
X71520001Y-71214794D01*
X71522909Y-71239874D01*
X71568212Y-71342477D01*
X71647521Y-71421786D01*
X71750128Y-71467091D01*
X71775204Y-71469999D01*
X72070000Y-71469999D01*
X72570000Y-71469999D01*
X73470000Y-71469999D01*
X73970000Y-71469999D01*
X74870000Y-71469999D01*
X75370000Y-71469999D01*
X75664795Y-71469999D01*
X75689874Y-71467090D01*
X75792477Y-71421787D01*
X75792478Y-71421787D01*
X75871786Y-71342478D01*
X75917091Y-71239871D01*
X75920000Y-71214795D01*
X75920000Y-70920000D01*
X75370000Y-70920000D01*
X75370000Y-71469999D01*
X74870000Y-71469999D01*
X74870000Y-70920000D01*
X73970000Y-70920000D01*
X73970000Y-71469999D01*
X73470000Y-71469999D01*
X73470000Y-70920000D01*
X72570000Y-70920000D01*
X72570000Y-71469999D01*
X72070000Y-71469999D01*
X72070000Y-70920000D01*
X71520001Y-70920000D01*
X71520001Y-71214794D01*
X67715411Y-71214794D01*
X67714091Y-71202517D01*
X67708142Y-71186568D01*
X67685951Y-71127070D01*
X67678619Y-71050291D01*
X67679528Y-71045390D01*
X67681855Y-71033909D01*
X67714091Y-70947483D01*
X67720500Y-70887873D01*
X67720499Y-70650109D01*
X72920000Y-70650109D01*
X72920000Y-70689891D01*
X72935224Y-70726645D01*
X72963355Y-70754776D01*
X73000109Y-70770000D01*
X73039891Y-70770000D01*
X73076645Y-70754776D01*
X73104776Y-70726645D01*
X73120000Y-70689891D01*
X73120000Y-70650109D01*
X74320000Y-70650109D01*
X74320000Y-70689891D01*
X74335224Y-70726645D01*
X74363355Y-70754776D01*
X74400109Y-70770000D01*
X74439891Y-70770000D01*
X74476645Y-70754776D01*
X74504776Y-70726645D01*
X74520000Y-70689891D01*
X74520000Y-70650109D01*
X74504776Y-70613355D01*
X74476645Y-70585224D01*
X74439891Y-70570000D01*
X74400109Y-70570000D01*
X74363355Y-70585224D01*
X74335224Y-70613355D01*
X74320000Y-70650109D01*
X73120000Y-70650109D01*
X73104776Y-70613355D01*
X73076645Y-70585224D01*
X73039891Y-70570000D01*
X73000109Y-70570000D01*
X72963355Y-70585224D01*
X72935224Y-70613355D01*
X72920000Y-70650109D01*
X67720499Y-70650109D01*
X67720499Y-70420000D01*
X71520001Y-70420000D01*
X72070000Y-70420000D01*
X75370000Y-70420000D01*
X75920000Y-70420000D01*
X75920000Y-69520000D01*
X75370000Y-69520000D01*
X75370000Y-70420000D01*
X72070000Y-70420000D01*
X72070000Y-69950109D01*
X72220000Y-69950109D01*
X72220000Y-69989891D01*
X72235224Y-70026645D01*
X72263355Y-70054776D01*
X72300109Y-70070000D01*
X72339891Y-70070000D01*
X72376645Y-70054776D01*
X72404776Y-70026645D01*
X72420000Y-69989891D01*
X72420000Y-69970000D01*
X72673553Y-69970000D01*
X72839687Y-70136134D01*
X72839686Y-70136134D01*
X73007499Y-70303946D01*
X73341446Y-69970000D01*
X73341446Y-69969999D01*
X73321556Y-69950109D01*
X73595000Y-69950109D01*
X73595000Y-69989891D01*
X73610224Y-70026645D01*
X73638355Y-70054776D01*
X73675109Y-70070000D01*
X73714891Y-70070000D01*
X73751645Y-70054776D01*
X73779776Y-70026645D01*
X73795000Y-69989891D01*
X73795000Y-69976159D01*
X74054715Y-69976159D01*
X74063862Y-69985300D01*
X74088175Y-69991811D01*
X74119055Y-70015502D01*
X74420000Y-70316446D01*
X74600313Y-70136134D01*
X74766446Y-69970000D01*
X74766446Y-69969999D01*
X74746556Y-69950109D01*
X75020000Y-69950109D01*
X75020000Y-69989891D01*
X75035224Y-70026645D01*
X75063355Y-70054776D01*
X75100109Y-70070000D01*
X75139891Y-70070000D01*
X75176645Y-70054776D01*
X75204776Y-70026645D01*
X75220000Y-69989891D01*
X75220000Y-69950109D01*
X75204776Y-69913355D01*
X75176645Y-69885224D01*
X75139891Y-69870000D01*
X75100109Y-69870000D01*
X75063355Y-69885224D01*
X75035224Y-69913355D01*
X75020000Y-69950109D01*
X74746556Y-69950109D01*
X74420000Y-69623553D01*
X74119056Y-69924496D01*
X74111005Y-69929143D01*
X74105410Y-69936567D01*
X74054715Y-69976159D01*
X73795000Y-69976159D01*
X73795000Y-69950109D01*
X73779776Y-69913355D01*
X73751645Y-69885224D01*
X73714891Y-69870000D01*
X73675109Y-69870000D01*
X73638355Y-69885224D01*
X73610224Y-69913355D01*
X73595000Y-69950109D01*
X73321556Y-69950109D01*
X73007500Y-69636053D01*
X72673553Y-69970000D01*
X72420000Y-69970000D01*
X72420000Y-69950109D01*
X72404776Y-69913355D01*
X72376645Y-69885224D01*
X72339891Y-69870000D01*
X72300109Y-69870000D01*
X72263355Y-69885224D01*
X72235224Y-69913355D01*
X72220000Y-69950109D01*
X72070000Y-69950109D01*
X72070000Y-69520000D01*
X71520001Y-69520000D01*
X71520001Y-70420000D01*
X67720499Y-70420000D01*
X67720499Y-69992128D01*
X67714091Y-69932517D01*
X67711099Y-69924496D01*
X67685951Y-69857070D01*
X67678619Y-69780291D01*
X67685951Y-69752929D01*
X67714091Y-69677483D01*
X67717491Y-69645859D01*
X67720499Y-69617885D01*
X67720500Y-69617867D01*
X67720500Y-69458282D01*
X67720500Y-69250109D01*
X72920000Y-69250109D01*
X72920000Y-69289891D01*
X72935224Y-69326645D01*
X72963355Y-69354776D01*
X73000109Y-69370000D01*
X73039891Y-69370000D01*
X73076645Y-69354776D01*
X73104776Y-69326645D01*
X73120000Y-69289891D01*
X73120000Y-69250109D01*
X74320000Y-69250109D01*
X74320000Y-69289891D01*
X74335224Y-69326645D01*
X74363355Y-69354776D01*
X74400109Y-69370000D01*
X74439891Y-69370000D01*
X74476645Y-69354776D01*
X74504776Y-69326645D01*
X74520000Y-69289891D01*
X74520000Y-69250109D01*
X74504776Y-69213355D01*
X74476645Y-69185224D01*
X74439891Y-69170000D01*
X74400109Y-69170000D01*
X74363355Y-69185224D01*
X74335224Y-69213355D01*
X74320000Y-69250109D01*
X73120000Y-69250109D01*
X73104776Y-69213355D01*
X73076645Y-69185224D01*
X73039891Y-69170000D01*
X73000109Y-69170000D01*
X72963355Y-69185224D01*
X72935224Y-69213355D01*
X72920000Y-69250109D01*
X67720500Y-69250109D01*
X67720499Y-69020000D01*
X71520000Y-69020000D01*
X72070000Y-69020000D01*
X75370000Y-69020000D01*
X75919999Y-69020000D01*
X75919999Y-68120000D01*
X75370000Y-68120000D01*
X75370000Y-69020000D01*
X72070000Y-69020000D01*
X72070000Y-68550109D01*
X72220000Y-68550109D01*
X72220000Y-68589891D01*
X72235224Y-68626645D01*
X72263355Y-68654776D01*
X72300109Y-68670000D01*
X72339891Y-68670000D01*
X72376645Y-68654776D01*
X72404776Y-68626645D01*
X72420000Y-68589891D01*
X72420000Y-68570000D01*
X72673553Y-68570000D01*
X73007499Y-68903946D01*
X73341446Y-68570000D01*
X73341446Y-68569999D01*
X73321556Y-68550109D01*
X73595000Y-68550109D01*
X73595000Y-68589891D01*
X73610224Y-68626645D01*
X73638355Y-68654776D01*
X73675109Y-68670000D01*
X73714891Y-68670000D01*
X73751645Y-68654776D01*
X73779776Y-68626645D01*
X73795000Y-68589891D01*
X73795000Y-68576159D01*
X74054715Y-68576159D01*
X74063862Y-68585300D01*
X74088175Y-68591811D01*
X74119055Y-68615502D01*
X74420000Y-68916446D01*
X74676158Y-68660289D01*
X74766446Y-68569999D01*
X74746556Y-68550109D01*
X75020000Y-68550109D01*
X75020000Y-68589891D01*
X75035224Y-68626645D01*
X75063355Y-68654776D01*
X75100109Y-68670000D01*
X75139891Y-68670000D01*
X75176645Y-68654776D01*
X75204776Y-68626645D01*
X75220000Y-68589891D01*
X75220000Y-68550109D01*
X75204776Y-68513355D01*
X75176645Y-68485224D01*
X75139891Y-68470000D01*
X75100109Y-68470000D01*
X75063355Y-68485224D01*
X75035224Y-68513355D01*
X75020000Y-68550109D01*
X74746556Y-68550109D01*
X74420000Y-68223553D01*
X74119056Y-68524496D01*
X74111005Y-68529143D01*
X74105410Y-68536567D01*
X74054715Y-68576159D01*
X73795000Y-68576159D01*
X73795000Y-68550109D01*
X73779776Y-68513355D01*
X73751645Y-68485224D01*
X73714891Y-68470000D01*
X73675109Y-68470000D01*
X73638355Y-68485224D01*
X73610224Y-68513355D01*
X73595000Y-68550109D01*
X73321556Y-68550109D01*
X73007500Y-68236053D01*
X72673553Y-68570000D01*
X72420000Y-68570000D01*
X72420000Y-68550109D01*
X72404776Y-68513355D01*
X72376645Y-68485224D01*
X72339891Y-68470000D01*
X72300109Y-68470000D01*
X72263355Y-68485224D01*
X72235224Y-68513355D01*
X72220000Y-68550109D01*
X72070000Y-68550109D01*
X72070000Y-68120000D01*
X71520000Y-68120000D01*
X71520000Y-69020000D01*
X67720499Y-69020000D01*
X67720499Y-68722136D01*
X67720499Y-68722128D01*
X67714091Y-68662517D01*
X67697242Y-68617344D01*
X67685951Y-68587070D01*
X67678619Y-68510291D01*
X67685951Y-68482929D01*
X67714091Y-68407483D01*
X67720500Y-68347873D01*
X67720499Y-67889891D01*
X67720499Y-67850109D01*
X72920000Y-67850109D01*
X72920000Y-67889891D01*
X72935224Y-67926645D01*
X72963355Y-67954776D01*
X73000109Y-67970000D01*
X73039891Y-67970000D01*
X73076645Y-67954776D01*
X73104776Y-67926645D01*
X73120000Y-67889891D01*
X73120000Y-67850109D01*
X74320000Y-67850109D01*
X74320000Y-67889891D01*
X74335224Y-67926645D01*
X74363355Y-67954776D01*
X74400109Y-67970000D01*
X74439891Y-67970000D01*
X74476645Y-67954776D01*
X74504776Y-67926645D01*
X74520000Y-67889891D01*
X74520000Y-67850109D01*
X74504776Y-67813355D01*
X74476645Y-67785224D01*
X74439891Y-67770000D01*
X74400109Y-67770000D01*
X74363355Y-67785224D01*
X74335224Y-67813355D01*
X74320000Y-67850109D01*
X73120000Y-67850109D01*
X73104776Y-67813355D01*
X73076645Y-67785224D01*
X73039891Y-67770000D01*
X73000109Y-67770000D01*
X72963355Y-67785224D01*
X72935224Y-67813355D01*
X72920000Y-67850109D01*
X67720499Y-67850109D01*
X67720499Y-67452136D01*
X67720499Y-67452128D01*
X67714091Y-67392517D01*
X67688984Y-67325204D01*
X71520000Y-67325204D01*
X71520000Y-67620000D01*
X72070000Y-67620000D01*
X72570000Y-67620000D01*
X73470000Y-67620000D01*
X73970000Y-67620000D01*
X74870000Y-67620000D01*
X75370000Y-67620000D01*
X75919999Y-67620000D01*
X75919999Y-67325205D01*
X75917090Y-67300125D01*
X75871787Y-67197522D01*
X75792478Y-67118213D01*
X75689871Y-67072908D01*
X75664796Y-67070000D01*
X75370000Y-67070000D01*
X75370000Y-67620000D01*
X74870000Y-67620000D01*
X74870000Y-67070000D01*
X73970000Y-67070000D01*
X73970000Y-67620000D01*
X73470000Y-67620000D01*
X73470000Y-67070000D01*
X72570000Y-67070000D01*
X72570000Y-67620000D01*
X72070000Y-67620000D01*
X72070000Y-67070000D01*
X71775205Y-67070000D01*
X71750125Y-67072909D01*
X71647522Y-67118212D01*
X71647522Y-67118213D01*
X71568213Y-67197521D01*
X71522908Y-67300128D01*
X71520000Y-67325204D01*
X67688984Y-67325204D01*
X67685950Y-67317069D01*
X67678619Y-67240292D01*
X67685951Y-67212929D01*
X67714091Y-67137483D01*
X67716163Y-67118212D01*
X67720499Y-67077885D01*
X67720499Y-67077882D01*
X67720500Y-67077873D01*
X67720499Y-66182128D01*
X67714091Y-66122517D01*
X67713916Y-66122049D01*
X67685951Y-66047070D01*
X67678619Y-65970291D01*
X67685951Y-65942929D01*
X67697340Y-65912394D01*
X67714091Y-65867483D01*
X67715823Y-65851370D01*
X67720499Y-65807885D01*
X67720499Y-65807882D01*
X67720500Y-65807873D01*
X67720499Y-64912128D01*
X67714091Y-64852517D01*
X67709648Y-64840606D01*
X67685951Y-64777070D01*
X67678619Y-64700291D01*
X67685951Y-64672929D01*
X67687897Y-64667712D01*
X67714091Y-64597483D01*
X67719981Y-64542700D01*
X67720499Y-64537885D01*
X67720499Y-64537882D01*
X67720500Y-64537873D01*
X67720499Y-63642128D01*
X67714091Y-63582517D01*
X67713166Y-63580038D01*
X67685951Y-63507070D01*
X67678619Y-63430291D01*
X67685951Y-63402929D01*
X67714091Y-63327483D01*
X67715823Y-63311370D01*
X67720499Y-63267885D01*
X67720499Y-63267882D01*
X67720500Y-63267873D01*
X67720499Y-62372128D01*
X67720499Y-62372127D01*
X67720499Y-62372123D01*
X67720498Y-62372114D01*
X82719500Y-62372114D01*
X82719500Y-63267863D01*
X82719502Y-63267888D01*
X82725908Y-63327479D01*
X82754049Y-63402932D01*
X82761379Y-63479711D01*
X82754049Y-63507066D01*
X82725908Y-63582519D01*
X82719500Y-63642114D01*
X82719500Y-64537863D01*
X82719502Y-64537888D01*
X82725908Y-64597479D01*
X82725908Y-64597481D01*
X82725909Y-64597483D01*
X82745788Y-64650784D01*
X82754049Y-64672932D01*
X82761379Y-64749711D01*
X82754049Y-64777066D01*
X82725908Y-64852519D01*
X82719500Y-64912114D01*
X82719500Y-65807863D01*
X82719502Y-65807888D01*
X82725908Y-65867479D01*
X82725908Y-65867481D01*
X82725909Y-65867483D01*
X82745788Y-65920784D01*
X82754049Y-65942932D01*
X82761379Y-66019711D01*
X82754049Y-66047066D01*
X82725908Y-66122519D01*
X82719500Y-66182114D01*
X82719500Y-67077863D01*
X82719502Y-67077888D01*
X82725908Y-67137479D01*
X82725908Y-67137481D01*
X82725909Y-67137483D01*
X82735189Y-67162365D01*
X82754049Y-67212932D01*
X82761379Y-67289711D01*
X82754049Y-67317066D01*
X82725908Y-67392519D01*
X82719500Y-67452114D01*
X82719500Y-68347863D01*
X82719501Y-68347872D01*
X82725908Y-68407479D01*
X82725908Y-68407481D01*
X82725909Y-68407483D01*
X82741581Y-68449502D01*
X82754049Y-68482932D01*
X82761379Y-68559711D01*
X82754049Y-68587066D01*
X82725908Y-68662519D01*
X82719500Y-68722114D01*
X82719500Y-69617863D01*
X82719502Y-69617888D01*
X82725908Y-69677479D01*
X82725908Y-69677481D01*
X82725909Y-69677483D01*
X82730391Y-69689500D01*
X82754049Y-69752932D01*
X82761379Y-69829711D01*
X82754049Y-69857066D01*
X82725908Y-69932519D01*
X82719500Y-69992114D01*
X82719500Y-70887863D01*
X82719502Y-70887888D01*
X82725908Y-70947479D01*
X82725908Y-70947481D01*
X82725909Y-70947483D01*
X82739027Y-70982655D01*
X82754049Y-71022932D01*
X82761379Y-71099711D01*
X82754049Y-71127066D01*
X82725908Y-71202519D01*
X82719500Y-71262114D01*
X82719500Y-72157863D01*
X82719502Y-72157888D01*
X82725908Y-72217479D01*
X82754049Y-72292932D01*
X82761379Y-72369711D01*
X82754049Y-72397066D01*
X82725908Y-72472519D01*
X82719500Y-72532114D01*
X82719500Y-73427863D01*
X82719502Y-73427888D01*
X82725908Y-73487479D01*
X82725908Y-73487481D01*
X82725909Y-73487483D01*
X82733689Y-73508342D01*
X82754049Y-73562932D01*
X82761379Y-73639711D01*
X82754049Y-73667066D01*
X82725908Y-73742519D01*
X82719500Y-73802114D01*
X82719500Y-74697863D01*
X82719502Y-74697888D01*
X82725908Y-74757479D01*
X82754049Y-74832932D01*
X82761379Y-74909711D01*
X82754049Y-74937066D01*
X82725908Y-75012519D01*
X82719500Y-75072114D01*
X82719500Y-75967863D01*
X82719502Y-75967888D01*
X82725908Y-76027479D01*
X82754049Y-76102932D01*
X82761379Y-76179711D01*
X82754049Y-76207066D01*
X82725908Y-76282519D01*
X82719500Y-76342114D01*
X82719500Y-77237863D01*
X82719502Y-77237888D01*
X82725908Y-77297479D01*
X82725908Y-77297481D01*
X82725909Y-77297483D01*
X82745788Y-77350784D01*
X82754049Y-77372932D01*
X82761379Y-77449711D01*
X82754049Y-77477066D01*
X82725908Y-77552519D01*
X82719500Y-77612114D01*
X82719500Y-78507863D01*
X82719502Y-78507888D01*
X82725908Y-78567478D01*
X82725909Y-78567484D01*
X82776202Y-78702329D01*
X82776204Y-78702333D01*
X82862452Y-78817544D01*
X82862455Y-78817547D01*
X82977666Y-78903795D01*
X82977670Y-78903797D01*
X83112517Y-78954091D01*
X83172114Y-78960499D01*
X83172118Y-78960499D01*
X83172127Y-78960500D01*
X84767872Y-78960499D01*
X84827483Y-78954091D01*
X84923447Y-78918298D01*
X84962329Y-78903797D01*
X84962333Y-78903795D01*
X85047258Y-78840220D01*
X85118861Y-78811554D01*
X85136551Y-78810500D01*
X85547414Y-78810500D01*
X85621914Y-78830462D01*
X85652773Y-78854141D01*
X85925859Y-79127227D01*
X85964423Y-79194022D01*
X85969500Y-79232586D01*
X85969500Y-80727413D01*
X85949538Y-80801913D01*
X85925859Y-80832772D01*
X85181515Y-81577115D01*
X85114720Y-81615679D01*
X85052849Y-81618921D01*
X84930222Y-81599500D01*
X84709778Y-81599500D01*
X84622686Y-81613294D01*
X84492043Y-81633985D01*
X84282393Y-81702105D01*
X84085976Y-81802185D01*
X84085975Y-81802186D01*
X83907636Y-81931757D01*
X83907633Y-81931759D01*
X83751759Y-82087633D01*
X83751757Y-82087636D01*
X83622186Y-82265975D01*
X83622185Y-82265976D01*
X83522105Y-82462393D01*
X83453985Y-82672043D01*
X83436501Y-82782437D01*
X83419500Y-82889778D01*
X83419500Y-83110222D01*
X83421840Y-83124995D01*
X83453985Y-83327956D01*
X83522105Y-83537606D01*
X83622185Y-83734023D01*
X83622186Y-83734024D01*
X83677386Y-83810000D01*
X83751758Y-83912365D01*
X83907635Y-84068242D01*
X84045021Y-84168058D01*
X84085975Y-84197813D01*
X84085976Y-84197814D01*
X84085978Y-84197815D01*
X84282394Y-84297895D01*
X84369512Y-84326201D01*
X84492043Y-84366014D01*
X84492048Y-84366014D01*
X84492049Y-84366015D01*
X84709778Y-84400500D01*
X84709782Y-84400500D01*
X84930218Y-84400500D01*
X84930222Y-84400500D01*
X85147951Y-84366015D01*
X85147952Y-84366014D01*
X85147956Y-84366014D01*
X85228556Y-84339825D01*
X85357606Y-84297895D01*
X85554022Y-84197815D01*
X85732365Y-84068242D01*
X85888242Y-83912365D01*
X86017815Y-83734022D01*
X86117895Y-83537606D01*
X86162605Y-83400000D01*
X86186014Y-83327956D01*
X86203394Y-83218222D01*
X86220500Y-83110222D01*
X86220500Y-82889778D01*
X86201077Y-82767148D01*
X86209140Y-82690444D01*
X86242882Y-82638484D01*
X87302952Y-81578416D01*
X87364630Y-81486106D01*
X87385084Y-81455495D01*
X87441658Y-81318913D01*
X87470500Y-81173918D01*
X87470500Y-78871586D01*
X87490462Y-78797086D01*
X87545000Y-78742548D01*
X87619500Y-78722586D01*
X87694000Y-78742548D01*
X87724859Y-78766227D01*
X89325859Y-80367227D01*
X89364423Y-80434022D01*
X89369500Y-80472586D01*
X89369500Y-87338237D01*
X89349538Y-87412737D01*
X89308080Y-87458780D01*
X89207644Y-87531751D01*
X89207639Y-87531754D01*
X89207635Y-87531758D01*
X89207632Y-87531761D01*
X89051759Y-87687633D01*
X89051757Y-87687636D01*
X88922186Y-87865975D01*
X88922185Y-87865976D01*
X88822105Y-88062393D01*
X88753985Y-88272043D01*
X88730995Y-88417201D01*
X88719500Y-88489778D01*
X88719500Y-88710222D01*
X88734826Y-88806990D01*
X88753985Y-88927956D01*
X88822105Y-89137606D01*
X88922185Y-89334023D01*
X88922186Y-89334024D01*
X88942724Y-89362292D01*
X89051758Y-89512365D01*
X89207635Y-89668242D01*
X89264959Y-89709890D01*
X89385975Y-89797813D01*
X89385976Y-89797814D01*
X89385978Y-89797815D01*
X89582394Y-89897895D01*
X89669512Y-89926201D01*
X89792043Y-89966014D01*
X89792048Y-89966014D01*
X89792049Y-89966015D01*
X90009778Y-90000500D01*
X90009782Y-90000500D01*
X90230218Y-90000500D01*
X90230222Y-90000500D01*
X90447951Y-89966015D01*
X90447952Y-89966014D01*
X90447956Y-89966014D01*
X90535072Y-89937708D01*
X90657606Y-89897895D01*
X90854022Y-89797815D01*
X91032365Y-89668242D01*
X91188242Y-89512365D01*
X91317815Y-89334022D01*
X91417895Y-89137606D01*
X91459825Y-89008556D01*
X91486014Y-88927956D01*
X91494224Y-88876119D01*
X91520500Y-88710222D01*
X91520500Y-88489778D01*
X91486015Y-88272049D01*
X91486014Y-88272048D01*
X91486014Y-88272043D01*
X91430276Y-88100500D01*
X91417895Y-88062394D01*
X91317815Y-87865978D01*
X91188242Y-87687635D01*
X91032365Y-87531758D01*
X90931920Y-87458780D01*
X90883382Y-87398840D01*
X90870500Y-87338237D01*
X90870500Y-80321586D01*
X90890462Y-80247086D01*
X90945000Y-80192548D01*
X91019500Y-80172586D01*
X91094000Y-80192548D01*
X91124859Y-80216227D01*
X92459514Y-81550882D01*
X92498078Y-81617677D01*
X92501320Y-81632930D01*
X92507679Y-81673076D01*
X92507679Y-81673077D01*
X92517111Y-81702105D01*
X92583096Y-81905185D01*
X92583100Y-81905194D01*
X92583101Y-81905195D01*
X92596636Y-81931759D01*
X92693894Y-82122639D01*
X92798033Y-82265975D01*
X92837344Y-82320081D01*
X92837346Y-82320084D01*
X92918920Y-82401658D01*
X92957484Y-82468453D01*
X92957484Y-82545581D01*
X92918920Y-82612376D01*
X92904269Y-82625225D01*
X92842569Y-82672570D01*
X92842568Y-82672571D01*
X92746118Y-82798265D01*
X92685486Y-82944645D01*
X92670000Y-83062281D01*
X92670000Y-83600000D01*
X93529252Y-83600000D01*
X93507482Y-83637708D01*
X93470000Y-83777591D01*
X93470000Y-83922409D01*
X93507482Y-84062292D01*
X93529252Y-84100000D01*
X92670001Y-84100000D01*
X92670001Y-84637707D01*
X92685488Y-84755360D01*
X92746119Y-84901735D01*
X92842568Y-85027428D01*
X92842571Y-85027431D01*
X92968265Y-85123881D01*
X93114645Y-85184513D01*
X93232284Y-85199999D01*
X93770000Y-85199999D01*
X93770000Y-84340747D01*
X93807708Y-84362518D01*
X93947591Y-84400000D01*
X94092409Y-84400000D01*
X94232292Y-84362518D01*
X94270000Y-84340747D01*
X94270000Y-85199999D01*
X94807707Y-85199999D01*
X94925360Y-85184511D01*
X95071735Y-85123880D01*
X95197428Y-85027431D01*
X95197431Y-85027428D01*
X95293881Y-84901734D01*
X95354513Y-84755354D01*
X95369999Y-84637718D01*
X95370000Y-84637713D01*
X95370000Y-84100000D01*
X94510748Y-84100000D01*
X94532518Y-84062292D01*
X94570000Y-83922409D01*
X94570000Y-83777591D01*
X94532518Y-83637708D01*
X94510748Y-83600000D01*
X95369999Y-83600000D01*
X95369999Y-83062292D01*
X95354511Y-82944639D01*
X95293880Y-82798264D01*
X95197431Y-82672571D01*
X95135731Y-82625226D01*
X95088779Y-82564035D01*
X95078713Y-82487567D01*
X95108229Y-82416310D01*
X95121072Y-82401665D01*
X95202655Y-82320083D01*
X95346106Y-82122639D01*
X95456904Y-81905185D01*
X95532321Y-81673076D01*
X95570500Y-81432027D01*
X95570500Y-81187973D01*
X95532321Y-80946924D01*
X95456904Y-80714815D01*
X95346106Y-80497361D01*
X95202655Y-80299917D01*
X95048097Y-80145359D01*
X95009533Y-80078564D01*
X95009533Y-80001436D01*
X95048097Y-79934641D01*
X95057111Y-79925627D01*
X95202655Y-79780083D01*
X95346106Y-79582639D01*
X95346106Y-79582637D01*
X95346628Y-79581920D01*
X95406568Y-79533382D01*
X95467172Y-79520500D01*
X99857414Y-79520500D01*
X99931914Y-79540462D01*
X99962773Y-79564141D01*
X102187048Y-81788415D01*
X102187049Y-81788416D01*
X102291584Y-81892951D01*
X102340685Y-81925759D01*
X102414502Y-81975083D01*
X102445444Y-81987899D01*
X102551087Y-82031658D01*
X102696082Y-82060500D01*
X104122828Y-82060500D01*
X104197328Y-82080462D01*
X104243372Y-82121920D01*
X104243893Y-82122637D01*
X104243894Y-82122639D01*
X104348034Y-82265976D01*
X104387344Y-82320081D01*
X104387346Y-82320084D01*
X104468920Y-82401658D01*
X104507484Y-82468453D01*
X104507484Y-82545581D01*
X104468920Y-82612376D01*
X104454269Y-82625225D01*
X104392569Y-82672570D01*
X104392568Y-82672571D01*
X104296118Y-82798265D01*
X104235486Y-82944645D01*
X104220000Y-83062281D01*
X104220000Y-83600000D01*
X105079252Y-83600000D01*
X105057482Y-83637708D01*
X105020000Y-83777591D01*
X105020000Y-83922409D01*
X105057482Y-84062292D01*
X105079252Y-84100000D01*
X104220001Y-84100000D01*
X104220001Y-84637707D01*
X104235488Y-84755360D01*
X104296119Y-84901735D01*
X104392568Y-85027428D01*
X104392571Y-85027431D01*
X104518265Y-85123881D01*
X104664645Y-85184513D01*
X104782284Y-85199999D01*
X105320000Y-85199999D01*
X105320000Y-84340747D01*
X105357708Y-84362518D01*
X105497591Y-84400000D01*
X105642409Y-84400000D01*
X105782292Y-84362518D01*
X105820000Y-84340747D01*
X105820000Y-85199999D01*
X106357707Y-85199999D01*
X106475360Y-85184511D01*
X106621735Y-85123880D01*
X106747428Y-85027431D01*
X106747431Y-85027428D01*
X106843881Y-84901734D01*
X106904513Y-84755354D01*
X106919999Y-84637718D01*
X106920000Y-84637713D01*
X106920000Y-84100000D01*
X106060748Y-84100000D01*
X106082518Y-84062292D01*
X106120000Y-83922409D01*
X106120000Y-83777591D01*
X106082518Y-83637708D01*
X106060748Y-83600000D01*
X106919999Y-83600000D01*
X106919999Y-83062292D01*
X106904511Y-82944639D01*
X106843880Y-82798264D01*
X106747431Y-82672571D01*
X106685731Y-82625226D01*
X106638779Y-82564035D01*
X106628713Y-82487567D01*
X106658229Y-82416310D01*
X106671072Y-82401665D01*
X106752655Y-82320083D01*
X106896106Y-82122639D01*
X107006904Y-81905185D01*
X107082321Y-81673076D01*
X107120500Y-81432027D01*
X107120500Y-81187973D01*
X107082321Y-80946924D01*
X107006904Y-80714815D01*
X106896106Y-80497361D01*
X106752655Y-80299917D01*
X106598097Y-80145359D01*
X106559533Y-80078564D01*
X106559533Y-80001436D01*
X106598097Y-79934641D01*
X106607111Y-79925627D01*
X106752655Y-79780083D01*
X106860301Y-79631919D01*
X106920241Y-79583382D01*
X106980845Y-79570500D01*
X108446704Y-79570500D01*
X108521204Y-79590462D01*
X108552063Y-79614141D01*
X111475859Y-82537937D01*
X111514423Y-82604732D01*
X111519500Y-82643296D01*
X111519500Y-85474564D01*
X111499538Y-85549064D01*
X111458081Y-85595106D01*
X111407635Y-85631758D01*
X111407632Y-85631761D01*
X111251759Y-85787633D01*
X111251757Y-85787636D01*
X111122186Y-85965975D01*
X111122185Y-85965976D01*
X111022105Y-86162393D01*
X110953985Y-86372043D01*
X110931761Y-86512365D01*
X110919500Y-86589778D01*
X110919500Y-86810222D01*
X110934777Y-86906674D01*
X110953985Y-87027956D01*
X111022105Y-87237606D01*
X111122185Y-87434023D01*
X111122186Y-87434024D01*
X111157604Y-87482773D01*
X111251758Y-87612365D01*
X111407635Y-87768242D01*
X111458910Y-87805495D01*
X111585975Y-87897813D01*
X111585976Y-87897814D01*
X111585978Y-87897815D01*
X111782394Y-87997895D01*
X111869512Y-88026201D01*
X111992043Y-88066014D01*
X111992048Y-88066014D01*
X111992049Y-88066015D01*
X112209778Y-88100500D01*
X112209782Y-88100500D01*
X112430218Y-88100500D01*
X112430222Y-88100500D01*
X112647951Y-88066015D01*
X112647952Y-88066014D01*
X112647956Y-88066014D01*
X112728556Y-88039825D01*
X112857606Y-87997895D01*
X113054022Y-87897815D01*
X113232365Y-87768242D01*
X113388242Y-87612365D01*
X113517815Y-87434022D01*
X113617895Y-87237606D01*
X113669944Y-87077414D01*
X113686014Y-87027956D01*
X113695175Y-86970116D01*
X113720500Y-86810222D01*
X113720500Y-86589778D01*
X113686015Y-86372049D01*
X113686014Y-86372048D01*
X113686014Y-86372043D01*
X113646201Y-86249512D01*
X113617895Y-86162394D01*
X113517815Y-85965978D01*
X113388242Y-85787635D01*
X113232365Y-85631758D01*
X113181918Y-85595106D01*
X113133381Y-85535167D01*
X113120500Y-85474564D01*
X113120500Y-82171157D01*
X113099853Y-82067360D01*
X113089737Y-82016503D01*
X113043625Y-81905178D01*
X113029395Y-81870823D01*
X113029394Y-81870821D01*
X112941789Y-81739711D01*
X112830289Y-81628211D01*
X112275873Y-81073795D01*
X112237309Y-81007000D01*
X112237309Y-80929872D01*
X112275873Y-80863077D01*
X112342668Y-80824513D01*
X112419796Y-80824513D01*
X112438249Y-80830777D01*
X112561087Y-80881658D01*
X112706082Y-80910500D01*
X113922828Y-80910500D01*
X113997328Y-80930462D01*
X114043372Y-80971920D01*
X114043893Y-80972637D01*
X114043894Y-80972639D01*
X114187345Y-81170083D01*
X114359917Y-81342655D01*
X114484860Y-81433431D01*
X114533398Y-81493371D01*
X114545464Y-81569550D01*
X114517824Y-81641555D01*
X114494058Y-81667267D01*
X114490538Y-81670273D01*
X114340279Y-81820532D01*
X114340277Y-81820535D01*
X114215378Y-81992443D01*
X114215378Y-81992444D01*
X114118906Y-82181777D01*
X114053244Y-82383863D01*
X114053242Y-82383871D01*
X114042769Y-82450000D01*
X114879252Y-82450000D01*
X114857482Y-82487708D01*
X114820000Y-82627591D01*
X114820000Y-82772409D01*
X114857482Y-82912292D01*
X114879252Y-82950000D01*
X114042769Y-82950000D01*
X114053242Y-83016128D01*
X114053244Y-83016136D01*
X114118906Y-83218222D01*
X114215378Y-83407555D01*
X114215378Y-83407556D01*
X114340277Y-83579464D01*
X114340279Y-83579467D01*
X114490532Y-83729720D01*
X114490535Y-83729722D01*
X114662444Y-83854621D01*
X114851777Y-83951093D01*
X115053863Y-84016755D01*
X115053871Y-84016757D01*
X115120000Y-84027230D01*
X115120000Y-83190747D01*
X115157708Y-83212518D01*
X115297591Y-83250000D01*
X115442409Y-83250000D01*
X115582292Y-83212518D01*
X115620000Y-83190747D01*
X115620000Y-84027230D01*
X115686128Y-84016757D01*
X115686136Y-84016755D01*
X115888222Y-83951093D01*
X116077555Y-83854621D01*
X116077556Y-83854621D01*
X116249464Y-83729722D01*
X116249467Y-83729720D01*
X116399720Y-83579467D01*
X116399722Y-83579464D01*
X116524621Y-83407556D01*
X116524621Y-83407555D01*
X116621093Y-83218222D01*
X116686755Y-83016136D01*
X116686757Y-83016128D01*
X116697231Y-82950000D01*
X115860748Y-82950000D01*
X115882518Y-82912292D01*
X115920000Y-82772409D01*
X115920000Y-82627591D01*
X115882518Y-82487708D01*
X115860748Y-82450000D01*
X116697230Y-82450000D01*
X116686757Y-82383871D01*
X116686755Y-82383863D01*
X116621093Y-82181777D01*
X116524621Y-81992444D01*
X116524621Y-81992443D01*
X116399722Y-81820535D01*
X116399720Y-81820532D01*
X116249464Y-81670276D01*
X116245948Y-81667273D01*
X116202264Y-81603708D01*
X116196215Y-81526818D01*
X116229421Y-81457204D01*
X116255140Y-81433431D01*
X116257073Y-81432027D01*
X116380083Y-81342655D01*
X116552655Y-81170083D01*
X116696106Y-80972639D01*
X116806904Y-80755185D01*
X116882321Y-80523076D01*
X116920500Y-80282027D01*
X116920500Y-80037973D01*
X116882321Y-79796924D01*
X116806904Y-79564815D01*
X116696106Y-79347361D01*
X116552655Y-79149917D01*
X116398097Y-78995359D01*
X116359533Y-78928564D01*
X116359533Y-78851436D01*
X116398097Y-78784641D01*
X116460152Y-78722586D01*
X116552655Y-78630083D01*
X116696106Y-78432639D01*
X116806904Y-78215185D01*
X116882321Y-77983076D01*
X116920500Y-77742027D01*
X116920500Y-77497973D01*
X116882321Y-77256924D01*
X116806904Y-77024815D01*
X116696106Y-76807361D01*
X116552655Y-76609917D01*
X116398097Y-76455359D01*
X116359533Y-76388564D01*
X116359533Y-76311436D01*
X116398097Y-76244641D01*
X116463027Y-76179711D01*
X116552655Y-76090083D01*
X116696106Y-75892639D01*
X116806904Y-75675185D01*
X116882321Y-75443076D01*
X116920500Y-75202027D01*
X116920500Y-74957973D01*
X116882321Y-74716924D01*
X116806904Y-74484815D01*
X116696106Y-74267361D01*
X116552655Y-74069917D01*
X116398097Y-73915359D01*
X116359533Y-73848564D01*
X116359533Y-73771436D01*
X116398097Y-73704641D01*
X116464257Y-73638481D01*
X116552655Y-73550083D01*
X116696106Y-73352639D01*
X116806904Y-73135185D01*
X116882321Y-72903076D01*
X116920500Y-72662027D01*
X116920500Y-72417973D01*
X116882321Y-72176924D01*
X116806904Y-71944815D01*
X116696106Y-71727361D01*
X116696102Y-71727356D01*
X116696099Y-71727350D01*
X116660632Y-71678534D01*
X116632991Y-71606529D01*
X116645057Y-71530351D01*
X116691882Y-71471674D01*
X116777546Y-71407546D01*
X116841650Y-71321914D01*
X116863795Y-71292333D01*
X116863797Y-71292329D01*
X116897294Y-71202517D01*
X116914091Y-71157483D01*
X116917408Y-71126628D01*
X116920499Y-71097885D01*
X116920499Y-71097882D01*
X116920500Y-71097873D01*
X116920499Y-68902128D01*
X116914091Y-68842517D01*
X116894473Y-68789918D01*
X116863797Y-68707670D01*
X116863795Y-68707666D01*
X116777547Y-68592455D01*
X116777544Y-68592452D01*
X116662333Y-68506204D01*
X116662329Y-68506202D01*
X116527482Y-68455908D01*
X116467876Y-68449500D01*
X114272136Y-68449500D01*
X114272111Y-68449502D01*
X114212521Y-68455908D01*
X114212515Y-68455909D01*
X114077670Y-68506202D01*
X114077666Y-68506204D01*
X113962455Y-68592452D01*
X113962452Y-68592455D01*
X113876204Y-68707666D01*
X113876203Y-68707668D01*
X113857676Y-68757344D01*
X113812937Y-68820171D01*
X113742779Y-68852211D01*
X113666000Y-68844880D01*
X113612711Y-68810633D01*
X112756701Y-67954623D01*
X112718137Y-67887828D01*
X112718137Y-67810700D01*
X112756699Y-67743907D01*
X112888242Y-67612365D01*
X113017815Y-67434022D01*
X113117895Y-67237606D01*
X113169798Y-67077863D01*
X113186014Y-67027956D01*
X113192972Y-66984024D01*
X113220500Y-66810222D01*
X113220500Y-66589778D01*
X113186015Y-66372049D01*
X113186014Y-66372048D01*
X113186014Y-66372043D01*
X113146201Y-66249512D01*
X113117895Y-66162394D01*
X113017815Y-65965978D01*
X112888242Y-65787635D01*
X112732365Y-65631758D01*
X112643193Y-65566971D01*
X112554024Y-65502186D01*
X112554023Y-65502185D01*
X112357606Y-65402105D01*
X112147956Y-65333985D01*
X112026990Y-65314826D01*
X111930222Y-65299500D01*
X111709778Y-65299500D01*
X111622686Y-65313294D01*
X111492043Y-65333985D01*
X111282393Y-65402105D01*
X111085976Y-65502185D01*
X111085975Y-65502186D01*
X110907636Y-65631757D01*
X110907633Y-65631759D01*
X110751759Y-65787633D01*
X110751757Y-65787636D01*
X110622186Y-65965975D01*
X110622185Y-65965976D01*
X110522105Y-66162393D01*
X110453985Y-66372043D01*
X110437150Y-66478341D01*
X110419500Y-66589778D01*
X110419500Y-66810222D01*
X110434826Y-66906990D01*
X110453985Y-67027956D01*
X110522105Y-67237606D01*
X110622185Y-67434023D01*
X110622186Y-67434024D01*
X110677544Y-67510218D01*
X110751758Y-67612365D01*
X110907635Y-67768242D01*
X110958080Y-67804892D01*
X111006618Y-67864832D01*
X111019500Y-67925436D01*
X111019500Y-68198414D01*
X110999538Y-68272914D01*
X110945000Y-68327452D01*
X110870500Y-68347414D01*
X110796000Y-68327452D01*
X110765141Y-68303773D01*
X109078418Y-66617050D01*
X109078410Y-66617043D01*
X108993368Y-66560221D01*
X108993367Y-66560221D01*
X108955500Y-66534918D01*
X108955487Y-66534912D01*
X108818914Y-66478342D01*
X108818912Y-66478341D01*
X108673921Y-66449500D01*
X108673918Y-66449500D01*
X103772585Y-66449500D01*
X103698085Y-66429538D01*
X103667226Y-66405859D01*
X99498417Y-62237049D01*
X99409547Y-62177669D01*
X99375495Y-62154916D01*
X99375491Y-62154914D01*
X99375487Y-62154912D01*
X99238914Y-62098342D01*
X99238912Y-62098341D01*
X99093921Y-62069500D01*
X99093918Y-62069500D01*
X85169000Y-62069500D01*
X85094500Y-62049538D01*
X85039962Y-61995000D01*
X85020000Y-61920500D01*
X85020000Y-61800000D01*
X82920001Y-61800000D01*
X82920001Y-61944791D01*
X82900039Y-62019291D01*
X82869153Y-62054091D01*
X82869985Y-62054923D01*
X82862454Y-62062453D01*
X82776204Y-62177666D01*
X82776202Y-62177670D01*
X82725908Y-62312517D01*
X82719500Y-62372114D01*
X67720498Y-62372114D01*
X67714091Y-62312521D01*
X67714091Y-62312517D01*
X67671458Y-62198211D01*
X67663796Y-62177668D01*
X67663795Y-62177666D01*
X67577547Y-62062455D01*
X67570011Y-62054919D01*
X67571409Y-62053520D01*
X67532027Y-62003438D01*
X67520000Y-61944791D01*
X67520000Y-61800000D01*
X65420001Y-61800000D01*
X65420001Y-61870500D01*
X65400039Y-61945000D01*
X65345501Y-61999538D01*
X65271001Y-62019500D01*
X45921158Y-62019500D01*
X45766505Y-62050262D01*
X45766501Y-62050263D01*
X45620823Y-62110604D01*
X45489707Y-62198214D01*
X44575359Y-63112563D01*
X44508564Y-63151127D01*
X44431436Y-63151127D01*
X44364641Y-63112563D01*
X44230292Y-62978214D01*
X44230289Y-62978211D01*
X44099179Y-62890606D01*
X44099178Y-62890605D01*
X44099176Y-62890604D01*
X43953498Y-62830263D01*
X43953494Y-62830262D01*
X43798842Y-62799500D01*
X43559171Y-62799500D01*
X43484671Y-62779538D01*
X43432354Y-62728721D01*
X43387712Y-62656344D01*
X43263656Y-62532288D01*
X43114334Y-62440186D01*
X43031065Y-62412593D01*
X42947798Y-62385001D01*
X42930665Y-62383250D01*
X42845009Y-62374500D01*
X42845004Y-62374500D01*
X42069996Y-62374500D01*
X41967202Y-62385001D01*
X41800666Y-62440186D01*
X41651343Y-62532288D01*
X41527288Y-62656343D01*
X41527287Y-62656345D01*
X41435186Y-62805666D01*
X41435185Y-62805668D01*
X41430631Y-62813052D01*
X41428112Y-62811498D01*
X41388299Y-62858907D01*
X41315812Y-62885257D01*
X41239861Y-62871833D01*
X41184162Y-62826851D01*
X41112562Y-62732433D01*
X40992095Y-62641079D01*
X40992096Y-62641079D01*
X40851443Y-62585613D01*
X40763060Y-62575000D01*
X40632500Y-62575000D01*
X40632500Y-63451000D01*
X40612538Y-63525500D01*
X40558000Y-63580038D01*
X40483500Y-63600000D01*
X40382500Y-63600000D01*
X40382500Y-63701000D01*
X40362538Y-63775500D01*
X40308000Y-63830038D01*
X40233500Y-63850000D01*
X39495000Y-63850000D01*
X39495000Y-64118060D01*
X39505613Y-64206443D01*
X39561079Y-64347096D01*
X39652433Y-64467562D01*
X39652435Y-64467564D01*
X39671177Y-64481777D01*
X39718476Y-64542700D01*
X39728977Y-64619110D01*
X39699867Y-64690533D01*
X39638944Y-64737832D01*
X39581144Y-64749500D01*
X38591153Y-64749500D01*
X38539306Y-64759814D01*
X38436503Y-64780262D01*
X38436501Y-64780263D01*
X38290822Y-64840605D01*
X38290819Y-64840606D01*
X38183781Y-64912128D01*
X38159714Y-64928208D01*
X38159701Y-64928219D01*
X38070473Y-65017447D01*
X38003678Y-65056011D01*
X37941808Y-65059254D01*
X37932774Y-65057823D01*
X37880222Y-65049500D01*
X37659778Y-65049500D01*
X37572686Y-65063294D01*
X37442043Y-65083985D01*
X37232393Y-65152105D01*
X37035976Y-65252185D01*
X37035975Y-65252186D01*
X36857636Y-65381757D01*
X36857633Y-65381759D01*
X36701759Y-65537633D01*
X36701757Y-65537636D01*
X36572186Y-65715975D01*
X36572185Y-65715976D01*
X36472105Y-65912393D01*
X36403985Y-66122043D01*
X36380995Y-66267201D01*
X36369500Y-66339778D01*
X36369500Y-66560222D01*
X36378501Y-66617050D01*
X36403985Y-66777956D01*
X36472105Y-66987606D01*
X36572185Y-67184023D01*
X36572186Y-67184024D01*
X36581993Y-67197522D01*
X36701758Y-67362365D01*
X36857635Y-67518242D01*
X36987182Y-67612363D01*
X37035975Y-67647813D01*
X37035976Y-67647814D01*
X37035978Y-67647815D01*
X37232394Y-67747895D01*
X37319512Y-67776201D01*
X37442043Y-67816014D01*
X37442048Y-67816014D01*
X37442049Y-67816015D01*
X37659778Y-67850500D01*
X37659782Y-67850500D01*
X37880218Y-67850500D01*
X37880222Y-67850500D01*
X38097951Y-67816015D01*
X38097952Y-67816014D01*
X38097956Y-67816014D01*
X38199725Y-67782947D01*
X38307606Y-67747895D01*
X38504022Y-67647815D01*
X38682365Y-67518242D01*
X38838242Y-67362365D01*
X38967815Y-67184022D01*
X39067895Y-66987606D01*
X39125531Y-66810218D01*
X39136014Y-66777956D01*
X39161499Y-66617050D01*
X39170500Y-66560222D01*
X39170500Y-66499500D01*
X39190462Y-66425000D01*
X39245000Y-66370462D01*
X39319500Y-66350500D01*
X42848414Y-66350500D01*
X42922914Y-66370462D01*
X42977452Y-66425000D01*
X42997414Y-66499500D01*
X42977452Y-66574000D01*
X42953773Y-66604859D01*
X36981516Y-72577114D01*
X36914721Y-72615678D01*
X36852850Y-72618920D01*
X36730223Y-72599499D01*
X36509779Y-72599499D01*
X36422687Y-72613293D01*
X36292044Y-72633984D01*
X36082394Y-72702104D01*
X35885977Y-72802184D01*
X35885976Y-72802185D01*
X35707637Y-72931756D01*
X35707634Y-72931758D01*
X35551760Y-73087632D01*
X35551758Y-73087635D01*
X35422187Y-73265974D01*
X35422186Y-73265975D01*
X35322106Y-73462392D01*
X35253986Y-73672042D01*
X35233383Y-73802127D01*
X35219501Y-73889777D01*
X30200500Y-73889777D01*
X30200500Y-63081939D01*
X39495000Y-63081939D01*
X39495000Y-63350000D01*
X40132500Y-63350000D01*
X40132500Y-62575000D01*
X40001939Y-62575000D01*
X39913556Y-62585613D01*
X39772903Y-62641079D01*
X39652437Y-62732433D01*
X39652433Y-62732437D01*
X39561079Y-62852903D01*
X39505613Y-62993556D01*
X39495000Y-63081939D01*
X30200500Y-63081939D01*
X30200500Y-61105204D01*
X65420000Y-61105204D01*
X65420000Y-61300000D01*
X66220000Y-61300000D01*
X66720000Y-61300000D01*
X67519999Y-61300000D01*
X67519999Y-61105205D01*
X67519999Y-61105204D01*
X82920000Y-61105204D01*
X82920000Y-61300000D01*
X83720000Y-61300000D01*
X84220000Y-61300000D01*
X85019999Y-61300000D01*
X85019999Y-61105205D01*
X85017090Y-61080125D01*
X84971787Y-60977522D01*
X84892478Y-60898213D01*
X84789871Y-60852908D01*
X84764796Y-60850000D01*
X84220000Y-60850000D01*
X84220000Y-61300000D01*
X83720000Y-61300000D01*
X83720000Y-60850000D01*
X83175205Y-60850000D01*
X83150125Y-60852909D01*
X83047522Y-60898212D01*
X83047522Y-60898213D01*
X82968213Y-60977521D01*
X82922908Y-61080128D01*
X82920000Y-61105204D01*
X67519999Y-61105204D01*
X67517090Y-61080125D01*
X67471787Y-60977522D01*
X67392478Y-60898213D01*
X67289871Y-60852908D01*
X67264796Y-60850000D01*
X66720000Y-60850000D01*
X66720000Y-61300000D01*
X66220000Y-61300000D01*
X66220000Y-60850000D01*
X65675205Y-60850000D01*
X65650125Y-60852909D01*
X65547522Y-60898212D01*
X65547522Y-60898213D01*
X65468213Y-60977521D01*
X65422908Y-61080128D01*
X65420000Y-61105204D01*
X30200500Y-61105204D01*
X30200500Y-60349500D01*
X30220462Y-60275000D01*
X30275000Y-60220462D01*
X30349500Y-60200500D01*
X51108782Y-60200500D01*
X51183282Y-60220462D01*
G37*
%TD.AperFunction*%
%TD*%
D44*
X38470000Y-105200000D03*
X41170000Y-85600000D03*
X38120000Y-114200000D03*
X39520000Y-95000000D03*
X37770000Y-66450000D03*
X68270000Y-113300000D03*
X54400000Y-114400000D03*
X107000000Y-62400000D03*
X34220000Y-66400000D03*
X94220000Y-67300000D03*
X68970000Y-84300000D03*
X42000000Y-140500000D03*
X98770000Y-82000000D03*
X36200000Y-124200000D03*
X76400000Y-105600000D03*
X61976000Y-156210000D03*
X113600000Y-92800000D03*
X58070000Y-92450000D03*
X36620001Y-73999999D03*
X57320000Y-110700000D03*
X109474000Y-141732000D03*
X84709000Y-118999000D03*
D45*
X87000000Y-143500000D03*
D44*
X107442000Y-115824000D03*
X68720000Y-98300000D03*
X112320000Y-86700000D03*
X111820000Y-66700000D03*
X61320000Y-100800000D03*
X84820000Y-83000000D03*
X91420000Y-66250000D03*
X65800000Y-97000004D03*
X63200000Y-98799998D03*
X88920000Y-67400000D03*
X110470002Y-72400000D03*
X90120000Y-88600000D03*
X75800006Y-100500000D03*
X76420000Y-97300000D03*
X74470000Y-94950000D03*
D46*
X37400000Y-146000000D03*
X37400000Y-152000000D03*
D47*
X42100000Y-149000000D03*
D48*
X72320000Y-68570000D03*
X72320000Y-69970000D03*
X73020000Y-67870000D03*
X73020000Y-69270000D03*
X73020000Y-70670000D03*
X73695000Y-68570000D03*
X73695000Y-69970000D03*
X74420000Y-67870000D03*
X74420000Y-69270000D03*
X74420000Y-70670000D03*
X75120000Y-68570000D03*
X75120000Y-69970000D03*
D44*
X95432500Y-141150000D03*
X95432500Y-133350000D03*
X52932500Y-148550000D03*
X52932500Y-125950000D03*
X94000000Y-116200000D03*
X94000000Y-113660000D03*
X94000000Y-111120000D03*
X105570000Y-83850000D03*
X105570000Y-81310000D03*
X105570000Y-78770000D03*
X114000000Y-116200000D03*
X114000000Y-113660000D03*
X114000000Y-111120000D03*
X115062000Y-148590000D03*
X107442000Y-148590000D03*
X48557500Y-106400000D03*
X48557500Y-103860000D03*
X50920000Y-78450000D03*
X50920000Y-75910000D03*
X50920000Y-73370000D03*
X50920000Y-70830000D03*
X83620000Y-90150000D03*
X81080000Y-90150000D03*
X78540000Y-90150000D03*
X76000000Y-90150000D03*
X98420000Y-69800000D03*
X100960000Y-69800000D03*
X103500000Y-69800000D03*
X106040000Y-69800000D03*
X48507500Y-115750000D03*
X48507500Y-113210000D03*
X81026000Y-148590000D03*
X73406000Y-148590000D03*
X48520000Y-87700000D03*
X48520000Y-85160000D03*
X46357500Y-145632500D03*
X46357500Y-140552500D03*
X46357500Y-143092500D03*
X46357500Y-138012500D03*
X48507500Y-97050000D03*
X48507500Y-94510000D03*
X58320000Y-73100000D03*
X58320000Y-75640000D03*
X58320000Y-78180000D03*
X98044000Y-148590000D03*
X90424000Y-148590000D03*
X58780000Y-103910000D03*
X58780000Y-106450000D03*
X61320000Y-103910000D03*
X61320000Y-106450000D03*
X63860000Y-103910000D03*
X63860000Y-106450000D03*
X60250000Y-116250000D03*
X62790000Y-116250000D03*
X94020000Y-83850000D03*
X94020000Y-81310000D03*
X94020000Y-78770000D03*
X115370000Y-70000000D03*
X115370000Y-72540000D03*
X115370000Y-75080000D03*
X115370000Y-77620000D03*
X115370000Y-80160000D03*
X115370000Y-82700000D03*
M02*
